<svg xmlns="http://www.w3.org/2000/svg" width="32" height="32" viewBox="0 0 32 32">
  <path d="M22.8125,0.0625 C24.6719321,0.0620466632 25.125,0.0625 25.90625,0.0625 C26.6875,0.0625 28.96875,1.0625 29,4.74997465 L22.8125,4.74997465 L22.8125,0.0625 Z M6.59863281,4.9375 C7.14184569,4.9375 7.53613281,5.199707 7.53613281,5.8125 C7.53613281,6.32934569 7.11791994,6.74853512 6.60131837,6.75 L0.9375,6.75 C0.41967775,6.75 0,7.16992187 0,7.6875 C0,8.20532225 0.41967775,8.625 0.9375,8.625 L9.375,8.625 C9.89770506,8.625 10.3161621,9.04443362 10.3161621,9.5625 C10.3161621,10.0803223 9.89648438,10.5 9.37866212,10.5 L0.9375,10.5 C0.41967775,10.5 0,10.9196777 0,11.4375 C0,11.9553223 0.41967775,12.375 0.9375,12.375 L3,12.375 L3,15.1875 C3,15.7053223 3.41967775,16.125 3.9375,16.125 L5.8220215,16.125 C6.157959,17.7797851 7.62011719,19 9.34375,19 C11.0673828,19 12.529541,17.7797851 12.8654785,16.125 L22.3845215,16.125 C22.720459,17.7797851 24.1826172,19 25.90625,19 C27.6298828,19 29.092041,17.7797851 29.4279785,16.125 L31.0625,16.125 C31.5803223,16.125 32,15.7053223 32,15.1875 L32,9.5625 C32,6.81176756 29.0986328,6.62915037 29.0959473,6.625 L21.875,6.625 C21.3571777,6.625 20.9375,6.20532225 20.9375,5.6875 L20.9375,0.0625 L3.9375,0.0625 C3.41967775,0.0625 3,0.48217775 3,1 L3,3.0625 L1.875,3.0625 C1.35717775,3.0625 0.9375,3.48217775 0.9375,4 C0.9375,4.51782225 1.35717775,4.9375 1.875,4.9375 L6.59863281,4.9375 Z M27.121582,14.190918 C27.7927246,14.8620606 27.7927246,15.9506836 27.121582,16.6218262 C26.0419922,17.701416 24.1875,16.9333496 24.1875,15.40625 C24.1875,13.8793945 26.0419922,13.1113281 27.121582,14.190918 L27.121582,14.190918 Z M10.559082,14.190918 C11.2302246,14.8620606 11.2302246,15.9506836 10.559082,16.6218262 C9.47949219,17.701416 7.625,16.9333496 7.625,15.40625 C7.625,13.8793945 9.47949219,13.1113281 10.559082,14.190918 L10.559082,14.190918 Z" transform="translate(0 6)"/>
</svg>
