<?xml version="1.0" standalone="yes"?>
<svg width="1000" height="1000">
<path style="fill:#000000; stroke:none;" d="M0 0L0 1000L1000 1000L1000 0L0 0z"/>
<path style="fill:#f9f9f7; stroke:none;" d="M219 216L219 426L233 426C228.23 405.382 220.858 387.81 224.147 366.004C224.803 361.659 228.327 358.168 229.768 353.996C238.169 329.68 255.287 312.537 270 292L259 287L259 216L219 216z"/>
<path style="fill:#f1eee9; stroke:none;" d="M259 216L259 287L270 292C255.956 305.869 247.843 320.478 237.649 336.961C232.771 344.848 226.552 354.872 224.313 364.039C219.25 384.772 226.69 406.609 233 426L219 426L219 427C223.889 427 228.39 426.314 232 430L236 428L255 462C247.34 464.482 250 477.52 250 484L250 553L256 553L256 464L269.205 475.997L297 498C302.639 499.458 308.152 505.065 313.804 507.581C323.105 511.721 332.155 511.051 340 519L342 517C345.519 520.288 349.869 520.902 353.91 523.273C369.932 532.671 387.427 538.331 406 541.336C410.615 542.082 415.29 540.521 420 541.518C435.029 544.699 454.752 550.63 470 547C473.678 551.832 484.392 551.359 489.999 550.826C500.045 549.872 510.035 546.307 520.039 545.129C530.896 543.85 540.985 546.136 552 544C555.562 549.453 570.472 546.563 575 543L577 545L578 545L578 543L580 543C583.706 546.2 592.307 540.152 593 536C552.442 536.004 511.863 546.194 471 542.907C465.356 542.453 460.444 539.589 454.985 538.404C440.307 535.215 425.996 532.214 411.83 527.542C378.205 516.452 346.439 507.421 316.039 488.876C300.168 479.193 287.813 467.358 274.83 454.09C271.171 450.351 266.008 449.07 262.418 445.572C251.242 434.681 245.997 417.148 244.184 402C241.478 379.383 242.771 352.827 253.877 332.769C260.038 321.642 275.058 313.176 279 301L283 301L302 282C306.971 281.283 313.094 278.238 314 273L350.184 255.07L377.428 243.228L399 236C407.081 238.366 416.781 230.994 425 229.001C441.803 224.927 459.756 223 477 223C554.254 223 634.67 232.185 701 274.541C724.904 289.805 749.926 308.895 764.58 334.114C773.736 349.871 777.999 368.884 778 387C778.001 397.07 774.701 408.342 777 418L779 418C811.714 329.09 718.486 260.123 644 236.194C624.433 229.909 605.282 225.424 585 222.421C578.678 221.485 566.568 221.832 563 216L560 216L560 219C524.619 214.529 489.417 219 454 219L454 216L444 216L444 222C412.332 222.916 375.404 233.943 346 245.601C332.258 251.049 315.728 264.654 301 265L300 216L259 216z"/>
<path style="fill:#faf4d8; stroke:none;" d="M300 216L301 265C316.518 264.861 333.541 250.884 348 245.203C377.355 233.67 412.565 223.998 444 222L444 216L300 216z"/>
<path style="fill:#f6ecaf; stroke:none;" d="M454 216L454 219L560 219L560 216L454 216z"/>
<path style="fill:#dfdeb0; stroke:none;" d="M563 216C564.504 221.142 573.326 220.79 578 221.583C594.271 224.345 610.051 226.403 626 230.889C647.151 236.837 666.72 245.922 687 254.107C691.618 255.97 702.744 264.334 707.505 261.111C711.033 258.722 710 252.622 710 249L710 216L563 216z"/>
<path style="fill:#dee1c5; stroke:none;" d="M710 216L710 249C709.997 254.638 710.195 260.088 704 262L704 263L732 280L732 216L710 216z"/>
<path style="fill:#dfdfdd; stroke:none;" d="M732 216L732 280C716.622 270.51 701.745 257.745 684 253L684 254C726.767 280.151 778.331 311.557 785.163 367.001C787.275 384.146 783.521 401.599 779 418L777 418L776 406L775 406C775 414.666 772.734 419.296 769.846 427.17C766.611 435.987 765.608 443.882 760.049 451.961C744.838 474.065 717.193 486.552 695 500L695 501L702 499C689.296 511.877 666.857 515.145 651 523L655 527L662 522L665 525C663.238 531.895 656.991 535.618 650 536L650 539L638 543L638 544L642 545C635.82 555.743 628.026 562.014 627 575L631 575C631.5 564.067 639.018 549.099 649 544C642.404 554.687 635.616 562.361 633 575C642.337 574.948 664.434 575.968 671.272 568.487C677.215 561.986 676.322 550.929 683 544L678 558L679 558C681.863 552.557 685.352 547.322 684 541L690 532L680 531L682 527L696 528L701 518L699 529L700 529L704 512L705 512L705 518L706 518L706 514L709 517L710 517L710 514L711 514C712.819 515.941 713.695 515.08 715 513L717 514L724 506L718 520L733 500L740 491L743 492L750 485L750 497L751 497L755 485L756 485L754 492L748 502C747.371 511.124 737.13 517.724 732.525 525C728.032 532.099 727.068 543.768 727 552L742 536L735 566L736 566L740 559L737 570L734 568L729 577L733 555L732 555L726 582L724 579L720 581L720 577L717 578L718 569L714 575L715 575L716 571L717 571L710 591C705.916 590.934 704.988 593.26 704 597L701 595L703 602L708 595L709 595L710 597C713.315 593.818 713.483 590.961 715.429 587.048C718.472 580.929 722.809 584.44 722.145 590.001C721.249 597.5 713.292 601.677 713 609L714 609L715 606L716 606L717 609L711 620L710 620L709 617L694 633C695.338 636.494 694.15 638.242 691 640L691 641C691.851 645.917 687.328 653.692 683 656L687 644C678.515 647.795 676.007 657.303 676 666L679 665L679 668L683 667L684 668L683 672L689 675C683.654 687.833 682.5 710.528 671 719C676.277 713.196 678.412 706.595 680 699L668 714L672 712C668.442 715.433 666.076 717.56 661 717L651 724L652 716L658 714L656 721L657 721L668 708L662 708L661 708L659 711L665 694L662 690L661 690C657.948 692.795 653.988 694.47 651.589 698.015C647.195 704.509 645.447 730.161 651 736L651 737L646 739L646 740L648 740L648 741L640 738L641 745L642 748L641 749C637.899 747.635 633.527 744.76 630 745.944C626.458 747.133 622.88 751.903 628 753L622 757L622 753L614 755L613 759L610 758L608 759L609 764L609 765L604 764C596.613 771.55 577.37 774.182 567 775L567 783L620 783L621.589 762.495L639 753.056L666.086 736.177L679 724L682 724L682 723L690.106 714.772L694 704L684 711C687.669 698.924 686.941 687.868 697 679C695.044 682.527 684.306 698.368 690.603 701.824C693.161 703.228 695.972 699.758 697.185 697.981C701.287 691.975 703.686 684.205 704 677L699 677L707 669L704 690C707.776 686.135 715.611 674.473 711 670L708 677C708.424 672.295 709.691 668.328 714 666L713 671L718 672L718 661L719 654L722 649L721 649L720 653L719 653L731 622L730 622C726.818 631.314 718.135 652.937 708 656L705 665L700 664L701 658L702 658L705 662L732 612L730 610L729 610C728.882 620.051 721.917 626.838 717 635L715 632L712 642L711 642L729 605L730 605L730 608L731 608L733 606L734 596L732 598L731 598L729 597C739.217 580.966 745.351 562.764 747 544L744 546L754 517L754 507C756.153 503.598 759.636 498.305 756 495L756 494C762.546 485.897 760.797 472.472 767.72 465.318C773.075 459.784 790.713 463 798 463L798 438L784 437L785 431L798 431L798 409L791.318 402.91L791.907 391L788 358L789 358L794 384L798 384L798 347L788.326 345.397L779.932 333.116L758 303L763 303L763 292L798 292L798 216L732 216z"/>
<path style="fill:#e8dbc2; stroke:none;" d="M399 236L376.59 243.228L349.325 255.07L314 273C312.495 277.783 306.706 280.803 302 282L283 301L279 301C272.931 312.617 260.238 320.727 253.769 332.129C244.796 347.945 244 364.234 244 382C244 407.758 246.372 437.228 271 451C264.111 436.139 252.136 424.227 247.09 408C244.257 398.887 245 388.429 245 379C245 371.818 244.767 364.028 246.709 357.04C247.475 354.283 249.91 350.049 253 352L257 351C257.855 347.069 258.928 344.063 263 343L267 342L269 341L271 343C270.316 339.579 272.512 340.951 272 343C274.348 341.361 274.429 340.444 273 338L276 334L278 336L294 311L299 301L299 298L302 298L300 296L316 290L314 300L315 300C319.559 293.481 319.583 285.517 329 285L331 301C342.101 301 351.337 302.229 362 305.011C367.024 306.321 370.7 309.358 374 304L375 307C378.237 306.227 383.934 306.552 385.933 303.427C390.744 295.906 384.132 287.644 398 287L397 281C407.297 278.328 408.93 272.852 416.549 266.702C418.815 264.873 421.924 265.203 424.286 263.526C427.201 261.456 429.641 256.629 433.184 255.747C438.065 254.533 441.598 261.171 445.039 263.4C450.287 266.799 458.868 264.367 463.786 261.316C471.685 256.415 465.839 245.194 468.603 238.039C472.298 228.479 486.015 231 494 231L494 234L489 235L489 236C492.908 235.596 495.664 234.899 497 231C503.777 233.471 510.095 234.67 515.871 239.456C525.265 247.24 531.957 258.49 544 263L542 258L548 259L541 252C545.857 250.486 549.757 247.131 555.003 247.023C571.707 246.681 577.998 263.055 592 267C593.313 274.64 609.086 282.347 615.576 286.054C623.535 290.601 630.809 297.978 639 301.62C656.687 309.485 686.841 310.83 696 331L683 327L688 336C695.811 333.77 699.49 337.556 706 341L706 337L711 338L709 343L714 343L716 355L722 354L720 347C727.335 347.824 727.981 352.483 728 359C755.304 357.695 762.414 387.702 767.403 408.777C768.401 412.993 772.614 413.929 773 419L775 419L775 406L778 406C778 392.52 778.093 379.375 776.281 366C775.515 360.347 774.005 352.997 768 351L768 345L764 345L764 339L763 339L763 343L758 343L761 346L761 347L752 337L749 338L748 326L743 326L743 319L739 319L739 320L742 323L736 324L736 320L735 320L735 323C732.438 321.43 727.615 316.927 727 322L726 322L721 321L721 316L710 309L709 312L704 306L704 309L702 309L701 302L698 303L696 299L693 304L694 301L682 303L683 299L680 302L675 297L672 298L674 295C666.191 290.649 660.767 290.285 663 280L658 280C657.995 273.276 657.595 269.247 650 269L648 274L653 274L654 274L655 280L652 278L647 281L646 272L645 272L644 274L640 271L637 273L638 270L631 264L627 265L632 260L624 261L619 259L616 252C611.503 253.067 608.473 253.279 605 250L609 249L609 247C596.086 236.147 582.818 234.443 567.039 230.296C527.738 219.969 485.351 221.133 445 225.171C435.647 226.106 424.942 228.107 416.001 231.036C409.583 233.139 406.089 237.624 399 236z"/>
<path style="fill:#eee7da; stroke:none;" d="M563 228L563 230L598.872 239.548L609 246L609 247C606.163 247.567 606.926 247.341 609 249L605 250C607.75 253.813 611.816 253.237 616 252L619 259L624 261L632 260L627 265L631 264L638 270L637 273L640 271C642.916 272.458 644.357 275.215 645 272L646 272L647 281L652 278L655 280L654 274L653 274L648 274L651 273L650 269C657.043 269.533 657.978 273.673 658 280L663 280C659.947 290.304 665.818 291.46 674 295L672 298L675 297L680 302L683 299L682 303L694 301L693 304L696 299L698 303L701 302L702 309L704 306L709 312L710 309L721 316L721 321L726 322L727 322L728 319C730.387 320.862 734.143 324.305 735 320L736 320L736 324L742 323L739 320L739 319L743 319L743 326L748 326L749 338L752 337C753.748 341.543 756.199 345.533 761 347L761 346L758 343L763 343L763 339L764 339L764 345L768 345L768 351L771 353C773.038 347.769 768.95 342.362 766.695 337.715C759.871 323.649 746.039 307.709 734.015 297.808C708.018 276.401 677.665 257.078 645.83 245.67C628.355 239.407 609.154 237.046 591 233.625C581.683 231.869 572.531 228.436 563 228z"/>
<path style="fill:#f5e2a7; stroke:none;" d="M397 281L398 287C383.746 287.06 390.256 294.444 386.194 302.778C384.085 307.106 376.635 307.091 374 304C369.578 308.724 364.813 305.068 359 305L361 308L352.811 318.713L341 315L337 305C336.829 310.256 335.428 312.586 330 313L332 325C326.205 324.695 324.741 321.347 324 316L317 319C324.056 322.283 322.39 326.759 315 327L317 330L310 330C310.214 337.275 311.677 347.81 303 351L312.421 374.209L320 387L318 378L329 387C328.844 382.064 325.584 367.613 321 366L324 346C333.927 343.676 336.07 349.64 345 352L344 339L356 344C356.705 338.274 356.608 334.052 350 333L350 332L364 331C362.602 337.637 375.5 351.483 382 352L379 347C389.226 345.345 381.909 333.609 393 333L393 329L408 330L417 326L416 320L412 320C415.456 314.08 433.986 309.875 441 309C439.923 302.803 434.731 304.621 430 305.985C420.642 308.683 409.783 312.771 400 313C405.75 303.477 417.86 305.636 421 294L430 295L428 300L436 300L436 296C451.356 293.783 456.165 274.959 469 268C466.426 278.035 460.65 284.646 453.715 291.975C449.767 296.147 444.57 299.231 443 305C454.904 303.707 458.514 289.003 469 284L454 306C460.335 311.609 455.352 317.356 448 316L448 314L452 308C442.791 309.463 445.611 319.083 440.44 324.566C436.64 328.595 431.119 326.406 430 333L421 334C417.173 328.712 413.552 333.105 413 338C409.492 335.804 405.76 332.772 404 338L392 339C392.993 342.693 398.929 347.921 397.669 351.671C395.502 358.117 383.212 353.155 382.466 359.089C381.853 363.968 388.322 362.334 391 362.34C400.78 362.36 407.456 359.403 417 358L418 364C411.642 364.057 408.057 365.193 405 371L424 366C422.195 355.649 430.152 358.335 436.629 353.991C440.889 351.133 442.734 345.68 444 341L446 341C448.874 348.513 454.407 344.507 460 343L462 349L474 343C474.85 334.463 476.648 319.975 485 316C483.569 305.076 490.358 310.305 496.557 308.127C501.598 306.357 505.924 299.903 507 295L498 301L498 295C480.971 297.36 474.05 320.37 474 335L457 341L457 338C453.136 338.3 451.652 339.089 451 343C445.901 340.722 441.848 339.3 440 346C435.874 345.493 432.52 344.436 431 349L425 349C421.926 354.322 413.719 355.822 408 357C404.858 341.43 418.264 347.876 427.961 342.821C430.733 341.376 432.371 338.532 435.086 337.022C443.15 332.537 452.535 331.38 459.566 324.455C461.812 322.243 461.636 318.945 463.6 316.594C466.562 313.048 470.507 311.644 472 307C466.7 307.293 461.166 314.116 459 307C471.018 305.199 477.782 292.237 484 283C479.216 282.634 477.109 280.735 481 277L478 276L473 260L477 261C481.103 254.963 482.312 245.611 487.498 240.573C491.855 236.341 499.297 238.603 501 244C508.614 247.546 507 263.124 507 271L504 271L497 283L498 283C501.927 278.579 506.055 276.177 512 276C512.431 272.172 513.229 270.19 517 269L515 277L516 277C519.803 268.973 523.697 254.496 534.518 265.299C537.953 268.729 538.047 273.437 543 275L543 280L546 283L554 281L546 269L557 273C555.785 269.238 549.758 261.045 550.676 257.429C552.448 250.447 567.802 253 573 253L573 252C560.24 246.672 553.456 246.324 541 252L550 266C529.496 256.757 518.943 236.805 497 231L489 236L489 235L494 234L494 231C486.594 231 473.419 228.392 469.028 236.174C464.639 243.951 472.454 255.766 462.895 261.316C458.247 264.014 450.963 266.534 446.015 263.4C442.064 260.899 438.689 254.333 433.184 255.376C429.193 256.132 426.785 261.352 423.544 263.526C421.394 264.969 418.651 264.733 416.549 266.164C408.758 271.465 406.751 277.666 397 281z"/>
<path style="fill:#f1d47b; stroke:none;" d="M477 261L473 260C473.098 264.596 477.295 274.561 481 277C471.549 283.491 487.95 283 492 283L492 286L497 286L504 271L507 271C507 263.434 509.312 246.377 501 244C500.02 238.35 491.96 236.122 487.498 239.893C482.546 244.08 479.763 255.136 477 261z"/>
<path style="fill:#ecd8a0; stroke:none;" d="M557 273L546 269L554 281L547 283L549 293C553.043 291.69 553.634 289.023 554 285C565.238 288.247 571.611 299.601 576.005 309C577.939 313.137 582.517 320.429 575.772 323.396C572.341 324.905 569.307 322.817 566.089 322.008C562.902 321.207 560.231 322.811 556.996 321.389C551.039 318.769 547.021 313.348 541 311C541 329.636 530.101 352.919 518.316 367.155C513.289 373.228 508.503 380.799 500 380L487 396C475.439 396.537 470.361 407.737 458 403L467.748 411.39L470 425L505 430.83L535.089 420.26L549 419.687L570.593 406.259L576.767 402.401L578.613 390.059L592.411 377.996L588.129 357.961L583.941 305.054L576 291L573 291L573 287L583 290L592 300L586 282L596 280L594 274L598 274L598 273L592 267C585.363 263.967 581.183 256.482 574.741 253.728C570.046 251.721 550.815 250.829 550.252 257.98C549.932 262.038 555.283 269.208 557 273z"/>
<path style="fill:#eae5fc; stroke:none;" d="M542 258C543.219 262.194 545.81 264.752 550 266C549.594 260.668 547.263 258.588 542 258z"/>
<path style="fill:#e6d297; stroke:none;" d="M485 316C476.383 318.858 474.419 334.813 474 343L462 349L460 343C453.931 343.939 450.017 347.881 446 341L444 341C442.368 345.408 440.411 350.336 436.629 353.401C430.356 358.485 421.427 355.062 424 366L405 371C408.649 365.971 411.743 364.147 418 364L417 358C407.559 358.823 400.61 362.244 391 362.178C388.67 362.162 382.229 363.503 382.921 359.089C383.775 353.645 395.121 357.528 397.914 352.467C400.15 348.417 393.546 342.562 392 339L404 338C406.471 333.914 409.328 336.449 413 338C414.003 333.086 416.705 330.113 421 334L430 333C431.845 327.022 436.55 328.795 440.44 325.258C446.193 320.029 442.953 310.615 452 308L448 314L448 316C455.28 317.982 461.871 310.598 454 306L469 284L443 305C449.356 290.669 466.479 285.353 469 268C454.328 273.273 451.822 291.965 436 296L436 300L428 300L430 295L421 294L400 313C409.821 312.912 419.525 308.727 429 306.548C433.906 305.42 439.022 302.797 441 309C434.473 309.419 414.269 314.069 412 320L416 320L417 326C412.84 326.049 410.112 326.17 408 330L393 329L393 333C381.556 333.278 388.885 344.09 379 347L382 352L377 352L381 355C378.187 362.65 370.351 358.879 364 360.303C360.418 361.106 357.413 363.69 354 365C353.673 360.691 352.22 358.273 348 357L347 375L333 372L338 398L321 387L320 387C322.176 393.738 331.904 396.701 336.683 401.429C340.495 405.2 338.587 409.489 345 410L349 400C336.39 398.076 336 384.999 336 375C344.513 377.054 346.819 388.888 348 397L352 397L352 394L362 399C359.848 414.399 339.787 413.253 329 413C329 396.068 315.388 393.09 309 379L305 379L305 372L300 371L300.603 397.911L305 408L300 407L300 415C292.566 415.175 286.272 418.156 285 426C281.526 426.577 280.577 427.526 280 431C286.249 431.696 296.705 440.152 288 445L288 458L287 458L272 442L271 442C273.21 449.256 283.396 461.465 291 463L291 467L277 457C294.441 481.76 324.644 494.913 350.845 507.027C432.731 544.887 524.605 546.992 612 529.486C626.708 526.54 641.286 520.635 656 517L656 516C640.689 517.219 627.755 522.834 613 526.324C590.912 531.549 566.567 535 544 535L544 532C551.231 530.785 551.982 524.264 552 518C566.65 520.859 582.789 509.366 596 504.299C605.746 500.561 618.076 502.618 627.996 498.965C633.081 497.092 634.945 493.195 639.086 490.209C645.63 485.492 658.72 480.521 660 472L671 467L672 458L678 459C679.498 451.764 683.778 449.89 686.397 443.711C687.649 440.755 686.646 437.323 687.804 434.286C692.577 421.761 697.432 409.915 701.54 397.089C703.976 389.484 707.038 374.47 699 369L697 357C702.656 358.855 713.373 361.987 716.708 367.109C721.421 374.347 714.565 383.953 728 385L722 376L730 377L730 373L744 376L744 373C733.576 370.844 743.028 363.51 737.397 358.708C735.167 356.806 730.614 358.742 728 359C727.995 352.174 727.878 347.435 720 347L722 354L716 355L714 343L709 343L711 338L706 337L706 341C700.386 336.659 695.135 333.031 688 336L683 327L696 331C692.077 316.925 674.349 314.129 663 310.416C656.865 308.409 651.631 304.476 645 304L648 309L642 309C643.169 316.017 652.614 319.111 657.911 322.559C663.596 326.262 670.341 333.779 673 340L666 338L661 343C661.441 352.492 679.816 370.382 666 378C672.237 393.757 655.181 404.766 655 420L651 420L652 423L648 424C647.665 428.394 646.444 430.291 642 431L642 439L639 439L641 450L636 450L627 441C626.561 454.484 606.898 450.964 603 464L587.946 470.397L560.185 477.434L545 487.455L530 488.313L510 494.956L472 489C470.089 482.792 468.562 475.177 466.276 469.17C463.165 460.993 455.75 457.383 461 449C454.426 449.023 451.777 449.99 453 457L449 457C449.953 466.239 458.082 464.669 460.985 472.425C463.035 477.901 463.98 484.042 467.739 488.74C469.685 491.171 474.778 493.076 475.427 496.26C476.669 502.343 469.686 508.123 478.185 512.972C486.723 517.844 498.649 505.052 506 501.701C521.123 494.806 539.028 494.572 555 490.292C562.606 488.253 565.481 482.077 574 482L561 499C556.434 499.148 554.066 501.582 549.911 502.691C538.9 505.63 518.681 503.326 514 517C521.527 516.844 538.058 504.104 540 516L544 516C543.037 528.67 528.763 525.644 520 527.604C499.963 532.087 479.336 528.969 459 525.786C453.206 524.88 449.116 521.147 443 521C440.484 512.391 426.396 516.124 423 509L429 509C426.919 502.405 418.844 502.433 413.015 501.228C398.01 498.124 387.243 483.012 372 483C367.824 469.016 345.492 463 333 463C332.427 455.791 325.524 454.146 320.001 451.045C315.935 448.762 314.76 444.759 311.416 442.157C306.52 438.346 299.397 438.895 296 433L285 430C288.364 417.831 298.54 416.296 309 419L310 430L313 428C319.786 435.227 327.688 444.549 338 445L328.978 433.74L319 413L327 416L326 422C335.021 422 344.155 418.548 352.977 421.324C357.581 422.773 355.68 427.394 359.218 429.431C363.939 432.148 370.097 431.652 374.866 434.042C378.817 436.021 381.307 440.008 385.06 442.13C389.965 444.903 400.847 446.458 404 441C394.696 441.698 396.903 431.646 398 425C392.015 426.634 387.58 431.011 386 437L381 436L385 425L378 427L378 416L388 409L386 418L401 418L401 414C392.6 413.9 391.514 408.676 392 401L406 401C403.475 393.318 387.684 397.268 381 397L381 392C387.587 392 406.455 394.468 410 389L389 390C395.092 381.819 403.161 379.622 412 385L410 381L425 381L425 380L411 379C417.385 372.013 428.345 364.492 436 373C443.602 372.039 448.862 368.473 456 366.325C472.614 361.326 490.187 354.917 502.611 341.83C510.006 334.041 513.679 314.732 523 311C521.833 317.284 516.977 329.281 526 330C526.855 323.188 532.349 319.131 531.91 312C531.557 306.269 531.49 299.299 528.695 294.174C526.724 290.559 522.527 288.142 521.567 283.985C519.387 274.543 527.242 268.867 535 269C535.824 274.066 537.968 276.078 543 277L536.61 267.058C534.28 263.487 525.95 258.296 522.136 262.603C513.891 271.912 512.365 288.304 505.454 298.886C503.502 301.876 499.967 306.289 496.557 307.643C490.414 310.082 482.573 304.663 485 316z"/>
<path style="fill:#e8cd89; stroke:none;" d="M526 330C517.532 328.616 522.212 317.233 523 311C516.768 312.531 517.36 316.956 514.812 322C510.723 330.094 506.721 337.07 500.197 343.487C484.572 358.854 457.247 369.039 436 373C430.756 362.933 415.019 371.883 411 379C425.916 379.01 444.953 389.736 445 406C429.471 403.438 414.987 406.931 401 413L401 418L386 418L388 409L378 416L378 427L385 425L381 436L386 437C388.227 431.327 392.468 427.469 398 425C396.477 431.604 394.036 442.843 404 441C394.044 451.302 383.527 437.288 374.83 433.709C370.016 431.728 363.65 432.015 359.318 428.861C356.47 426.788 357.454 422.747 353.852 421.394C344.902 418.034 335.155 422 326 422L327 416L319 413C322.528 426.057 330.474 434.372 338 445C327.332 444.12 321.122 434.155 313 428L310 430L309 419C298.972 414.925 287.088 417.92 285 430L294 433L289 426C292.576 424.235 295.986 420.121 300.266 420.032C305.784 419.918 307.806 432.822 308 437L296 434L309.853 441.688L318.019 450.436L333 450L333 446L340.317 453.937L352 455C350.753 449.209 341.848 440.984 336 440L336 437L358 448.293L372 446L374 452L380 453L375 454C375.644 458.418 377.593 460.325 382 461L381 457L388 459L387 456C394.653 457.55 403.548 458.656 411 456C412.749 464.852 415.948 464.165 424 464C425.56 468.7 429.654 467.997 434 468L433 475L437 475L438 469L431 443L435 443C434.035 436.882 429.953 436.587 425.424 433.508C417.877 428.379 410.435 422.449 404 416C411.414 416.849 414.271 412.328 420.999 410.618C425.674 409.43 436.987 410.719 441.961 411.312C447.765 412.006 451.922 419.987 457.075 422.451C473.59 430.351 490.778 438.047 510 435.424C516.426 434.546 526.386 434.888 527 427L541 423L541 420L504 430.83L470 425L467.928 410.638L458 403C469.716 409.096 476.11 396.988 487 396L500 380C508.832 381.536 513.921 373.505 519.062 367.155C530.827 352.621 541 329.758 541 311C546.797 314.362 551.41 320.213 557.985 322.214C560.727 323.048 563.348 321.905 566.089 322.545C569.375 323.311 574.129 325.418 577.272 322.972C582.671 318.771 577.991 312.232 576.005 308C571.818 299.077 565.167 286.993 554 285L549 293L535 269C526.55 268.644 519.531 273.766 521.297 283.985C522.093 288.593 526.616 291.134 528.695 295.09C531.374 300.189 531.745 307.307 531.891 313C532.055 319.359 526.418 323.507 526 330z"/>
<path style="fill:#f9efcb; stroke:none;" d="M512 276C505.099 276.077 498.551 278.648 497 286L492 286L492 283C474.555 283.062 475.217 303.146 459 307C460.393 315.375 466.843 307.579 472 307C463.168 323.534 449.446 328.341 434.169 337.022C431.129 338.75 429.361 341.949 425.996 343.258C420.952 345.219 413.735 343.593 409.148 346.194C404.82 348.648 406.857 353.326 408 357C413.455 356.335 423.018 354.7 425 349L431 349C433.185 345.134 435.905 345.725 440 346C442.726 339.941 445.705 341.517 451 343C452.057 339.508 453.418 338.568 457 338L457 341L474 335C474.164 320.128 481.561 298.596 498 295L498 301C510.918 296.961 515.237 280.993 517 269C512.765 269.735 512.224 271.948 512 276z"/>
<path style="fill:#dabf78; stroke:none;" d="M594 274L596 280L586 282L592 300L583 290L573 287L573 291L576 291C576.232 298.15 581.852 299.138 583.721 305.054C589.071 321.982 586.811 340.559 588.054 357.961C588.517 364.444 593.397 371.404 592.008 377.996C590.325 385.976 580.783 384.627 577.773 390.889C576.093 394.385 578.206 399.705 576.13 402.401C569.617 410.859 551.426 419.992 541 420L541 423L527 427C525.738 434.913 514.596 434.698 508 435.576C497.544 436.966 479.551 434.374 470.09 429.447C462.644 425.569 455.841 418.721 448 416C452.799 422.622 456.062 424.924 464 427L464 429L454.603 432.434L452.397 442.258L439 444L435 439L435 443L431 443L438 469L437 475L433 475L434 468C429.579 467.984 426.289 468.151 424 464C416.297 464.058 413.181 464.056 411 456L387 456L388 459L381 457L382 461C377.996 459.908 376.044 458.029 375 454L380 453L374 452L372 446L358 447.863L336 437L336 440C341.6 441.693 350.009 449.505 352 455L340.317 453.309L333 446L333 450L324 452L333 463C346.384 463 365.635 469.91 372 483C386.096 483.05 397.283 497.51 411.09 501.025C417.612 502.686 425.485 502.297 429 509L423 509L443 521L458 525.786L513 531L513 527C499.352 522.792 503.837 517.881 513 511L513 510C503.714 513.079 500.186 515.804 490 515L493 512L493 511C487.817 512.107 482.062 516.003 477.329 511.682C470.298 505.263 478.399 501.357 475.843 495.46C474.355 492.029 469.253 490.195 467.105 486.946C463.414 481.363 463.473 472.393 459.026 467.588C454.781 463.001 450.409 464.775 449 457L453 457C452.387 450.493 454.711 449.074 461 449C453.955 456.708 463.357 462.193 466.276 470.089C468.694 476.631 468.766 482.49 472 489C486.923 489.682 502.912 498.46 518 494L518 493C506.637 493 494.652 492.999 484 488.84C480.684 487.546 474.163 487.081 474.546 482.094C475.069 475.269 497.522 481.504 500 486L539 483.557L557 481C561.463 475.998 566.649 476.004 573 476L573 475L569 475C576.707 460.608 601.756 454.495 603 436C597.464 436.164 588.178 436.192 583.089 437.588C576.327 439.443 569.269 449.448 564 439C553.159 439 532.5 450.679 524 442L533 443C539.76 434.473 555.728 433.978 564 425.691C578.106 411.558 578.72 389.8 596 380L595 371L596 371L602 374L603 367L598 368C596.345 361.648 593.365 356.937 593.028 350C592.668 342.598 595.676 335.625 594.917 328C594.508 323.889 597.108 315.88 593 315L593 314L597 314L597 310L600 310L606 329L619 334C619.207 323.953 620.71 310.052 608 307L606 293L619 297L622 305C637.939 309.624 650.681 326.138 650 342L654 341L653 353L657 353C657.655 364.246 665.718 393.511 651 398C644.441 415.101 635.485 430.834 621.455 443.353C617.955 446.476 612.985 447.525 609.209 450.272C603.764 454.233 601.483 460.125 595 463L595 464L603 464C608.694 452.499 626.847 453.898 627 441L636 450L641 450L639 439L642 439L642 431C646.89 430.619 647.845 428.724 648 424L651 420L655 420C655.47 405.553 674.309 392.578 666 378C680.578 373.162 661.685 350.542 661 343C664.351 342.272 665.412 341.403 666 338L673 340C668.855 324.232 646.079 322.481 642 309L648 309C645.485 303.614 641.632 303.038 637 299.982C628.164 294.153 619.064 288.732 610.166 282.915C604.182 279.004 601.78 274.231 594 274z"/>
<path style="fill:#e1b64e; stroke:none;" d="M526 346L528 346C530.235 338.368 535.153 331.448 537.152 323.911C539.928 313.441 537.695 302.112 535.514 292C534.646 287.979 540.545 273.824 530.058 275.451C525.364 276.18 527.045 284.112 528.129 287C531.885 297.005 534.672 306.051 532.625 317C530.919 326.127 523.474 336.718 526 346z"/>
<path style="fill:#f1e0b6; stroke:none;" d="M257 382C246.667 410.93 266.485 440.175 287 458L288 458L288 445C298.137 441.633 286.29 431.344 280 431L285 426C286.905 418.854 292.85 415.372 300 415L300 407L305 408L301.023 397.911L300 371L305 372L305 379L309 379C313.056 393.559 329 396.203 329 413C339.681 413.547 360.882 414.926 362 399L352 394L352 397L348 397C347.406 388.905 344.634 376.304 336 375C336 385.005 335.71 398.992 349 400L345 410C338.722 408.975 340.67 404.225 336.683 400.723C331.584 396.245 324.688 393.227 320.019 388.153C315.06 382.762 313.5 375.514 309.545 369.625C306.865 365.635 301.295 354.141 306 351L306 350L302 350L303 337C309.834 338.794 307.061 344.413 307 350L308 350L310 330L317 330L315 327C322.593 326.91 325.224 321.664 317 319L324 316C324.456 321.51 325.749 325.66 332 325L330 313C335.9 312.806 336.933 310.652 337 305L341 315C345.458 316.532 350.458 322.297 355.092 317.772C358.705 314.243 354.844 309.874 361 308C355.266 298.624 340.679 301 331 301L329 285C317.973 285.267 313.481 301.625 308.002 309.911C303.951 316.036 303.492 322.706 299.906 328.995C296.465 335.031 290.4 338.93 288.684 346C286.366 355.555 288.077 371.791 280.397 379.397C276.008 383.744 262.746 382 257 382z"/>
<path style="fill:#d2c5b0; stroke:none;" d="M300 296L302 298L299 298L299 301L297 300L278 336L276 334L273 338L272 343C272.084 340.966 270.916 340.966 271 343L269 341L267 342C265.428 339.258 263.609 340.159 263 343L260 342L257 351L253 352C247.582 347.402 246.099 360.075 245.718 363C243.808 377.701 245.96 392.323 246 407L247 407L250 381L251 381L252 386L257 382C262.909 382 275.513 383.813 280.397 379.972C288.68 373.458 286.283 354.918 288.943 346C290.802 339.766 295.96 336.166 299.326 330.946C302.523 325.987 302.287 320.209 304.898 315.17C309.215 306.84 315.769 299.875 316 290L300 296z"/>
<path style="fill:#f1f1f1; stroke:none;" d="M763 292L763 303L758 303L779.932 333.884L788.326 345.972L798 347L798 292L763 292z"/>
<path style="fill:#d9ad57; stroke:none;" d="M606 293L608 307C619.959 311.633 619.088 323.366 619 334L606 329L600 310L597 310L597 314L593 314L593 315L596 315C592.472 330.83 590.752 353.096 598 368L603 367L602 374L596 371L595 371L596 380C582.335 384.665 582.644 398.747 576.186 409C572.134 415.432 565.757 420.902 563 428L578 420L588 403L604 393C607.504 376.859 616.094 374.339 630 370C632.765 348.121 627.935 329.134 619.857 309.089C617.287 302.715 610.543 300.176 610 293L606 293z"/>
<path style="fill:#ebc86a; stroke:none;" d="M463 352C456.577 363.657 436.464 353.841 430 363C447.452 363 464.736 362.276 480 353L480 352L470 354L470 353L475 352C479.751 341.736 487.167 339.529 494.626 332.701C498.838 328.846 501.495 323 507 321L507 325C512.224 319.19 515.184 309.382 517.615 302.001C518.399 299.619 519.267 292.489 514.284 295.137C509.146 297.867 509.587 309.165 506.441 313.625C503.903 317.222 500.78 322.79 497.299 325.436C492.423 329.142 485.259 330.588 481.039 334.72C474.993 340.64 471.828 349.602 463 352z"/>
<path style="fill:#cb9b4e; stroke:none;" d="M610 294L618.965 308.17L625 324L626 324L626 321L629 321C630.781 328.283 638.708 338.731 646 341L652 370L655 370C654.999 379.887 650.472 382.239 646.748 390.464C637.222 411.504 623.145 434.286 604 448L610 426C603.662 426.631 591.384 427.059 589 434L580.299 435.443L573.942 431.696L562 435C564.462 426.33 581.495 420.873 588.826 416.004C601.164 407.81 609.888 394.628 618.796 383.259C622.482 378.555 626.929 375.888 629 370C615.789 374.122 606.025 376.854 604 393L588 403L578 420C567.046 420.831 555.988 432.291 545.961 436.505C540.808 438.67 535.92 437.436 533 443L524 442C530.022 451.289 554.817 439 564 439C567.355 450.051 577.4 439.889 583.089 437.936C586.19 436.872 588.922 438.647 592 438.567C595.752 438.469 599.158 436.255 603 436C601.007 451.205 580.665 461.659 572 473C589.948 471.065 594.195 460.65 606.15 449.599C612.001 444.189 619.445 440.974 625.541 435.954C629.233 432.914 630.928 427.91 633.785 424.17C639.479 416.716 648.797 407.174 651 398C665.418 395.583 658.202 363.175 657 353L653 353L654 341L650 342C651.196 326.848 638.41 307.654 622 305L619 297L610 294z"/>
<path style="fill:#e7c055; stroke:none;" d="M475 352L470 353L470 354C479.922 356.22 486.278 346.52 492.274 340.63C498.703 334.313 506.672 331.276 507 321C501.457 322.201 498.501 328.046 494.626 331.893C487.556 338.911 478.16 340.873 475 352z"/>
<path style="fill:#bf8439; stroke:none;" d="M626 321C626.002 338.046 638.103 357.385 626.895 373.83C617.202 388.053 602.627 406.586 587.91 416.004C580.913 420.481 563.32 426.549 562 435L573.942 432.114L580.299 436.102L589 434C592.819 427.253 603.05 427.177 610 426L604 448C615.511 442.527 634.12 422.116 635 409C631.732 411.719 626.285 425.775 620.303 424.37C616.437 423.461 620.475 410.214 621.532 408C624.707 401.348 629.035 395.189 631.062 388C634.887 374.432 632.284 359.754 632 346L634 346C634.899 351.774 638.251 354.682 644 355L647 390L648 390C651.81 382.163 655 379.341 655 370L652 370L646 341C638.777 337.323 631.861 328.496 629 321L626 321z"/>
<path style="fill:#f3eabb; stroke:none;" d="M312 350C312.514 355.275 309.788 361.107 316 363C316.787 357.501 321.324 341.974 328.09 341.722C333.577 341.518 337.882 346.671 343 348L342 339L338 336L345 335L342 331L342 328L345 325C336.661 324.343 325.617 327.29 320.684 335.019C317.308 340.31 317.266 345.991 312 350z"/>
<path style="fill:#ead189; stroke:none;" d="M350 332L350 333C355.993 334.699 356.377 338.403 356 344L344 339L345 352C336.581 348.729 333.632 342.56 324 346L321 366C325.111 368.427 328.642 382.011 329 387L318 378C318.112 387.517 328.666 396.752 338 398L333 372L347 375L348 357C351.676 358.806 353.379 360.936 354 365C357.987 364.055 361.046 361.19 365 360.303C370.93 358.974 379.302 362.78 381 355C377.231 351.946 376.33 347.787 373.362 344.133C369.257 339.08 363.111 338.701 364 331L350 332z"/>
<path style="fill:#f6e8c3; stroke:none;" d="M365 334C367.909 339.272 372.842 337.221 378 337L377 341L379 344C383.219 342.6 384.514 337.245 379.852 335.009C375.635 332.987 369.557 334 365 334z"/>
<path style="fill:#f9f5e0; stroke:none;" d="M303 337L302 350L307 350C307.166 344.265 310.761 338.141 303 337z"/>
<path style="fill:#e6c15e; stroke:none;" d="M375 357C374.754 353.726 370.506 342.145 365.654 347.608C360.537 353.371 371.234 356.955 375 357z"/>
<path style="fill:#b06b25; stroke:none;" d="M632 346C632.162 365.614 634.74 382.958 624.904 401C622.37 405.649 615.092 418.91 619.102 424.338C622.764 429.295 632.494 412.091 634.09 410.455C651.472 392.643 645.428 376.997 644 355C638.546 354.386 635.435 351.247 634 346L632 346z"/>
<path style="fill:#f2cb4c; stroke:none;" d="M340 359C339.791 355.13 335.822 343.097 329.758 348.032C323.699 352.962 336.79 358.491 340 359z"/>
<path style="fill:#d8c17b; stroke:none;" d="M697 357L699 369C706.616 376.613 703.623 388.14 701.28 397.089C697.896 410.016 692.576 421.09 687.804 433.424C686.63 436.459 687.615 439.855 686.397 442.829C683.573 449.721 678.914 450.711 678 459L672 458L671 467L660 472C657.815 480.57 644.889 485.207 638.208 490.209C634.036 493.333 632.246 497.049 626.999 498.965C617.34 502.491 605.605 500.595 596 503.853C581.658 508.719 567.742 519.68 552 518C551.944 524.177 550.496 530.014 544 532L544 535C570.754 535 602.722 531.539 628 522L628 521L619 521L619 520C629.472 517.833 643.264 510.27 646 499L651 500L651 493C657.277 491.67 659.852 487.107 660 481C673.732 480.4 676.966 462.82 690 461L699 433L694 434C691.395 419.071 705.18 411.083 709.451 398.711C712.284 390.501 708 380.43 708 372L715 375C715.071 380.979 717.252 381.932 721 386L716 386L730 413L744 415L750 442L754 442L760 426C760 431.694 761.009 438.504 759.351 444C755.656 456.246 738.234 473.411 727 479L727 480C736.06 478.351 743.01 470.064 749.421 464C760.939 453.105 773.175 434.648 772.965 418.004C772.903 413.072 769.071 412.736 767.772 408.777C764.116 397.644 764.477 386.845 758.032 376.089C753.343 368.266 744.868 366.224 740 359L739 359C738.928 365.525 735.035 371.977 744 373L744 376L730 373L730 377L722 376L728 385C714.741 382.91 722.033 373.567 716.713 366.228C713.235 361.431 702.598 358.399 697 357z"/>
<path style="fill:#c8cacc; stroke:none;" d="M788 358L791 406C795.256 403.241 793.951 397.587 794.004 393C794.144 380.851 795.8 368.304 788 358z"/>
<path style="fill:#fbf3d0; stroke:none;" d="M290 359C286.387 374.804 294.717 385.124 294.735 399.961C294.74 403.911 291.54 406.994 291 411C305.177 409.896 298.371 382.372 297.39 372.999C297.028 369.543 297.933 364.463 296.397 361.318C295.195 358.86 292.319 359.076 290 359z"/>
<path style="fill:#e9ce76; stroke:none;" d="M360 378L358 380C361.033 385.525 370.735 390.848 377 391L375 378C387.48 379.569 385.293 375.116 385 365C376.685 365 370.312 366.033 362.846 369.935C359.232 371.824 355.461 374.974 360 378z"/>
<path style="fill:#d8b868; stroke:none;" d="M708 372C708 380.101 712.054 390.029 709.451 397.829C705.388 410.005 690.057 419.212 694 434L699 433L690 461C676.937 461.917 673.275 479.905 660 481C659.673 486.963 656.671 491.008 651 493L651 500L646 499C641.679 509.924 629.72 516.957 619 520L619 521L662 514L662 513L640 516C643.819 510.751 648.714 508.925 655 508C660.281 499.04 677.84 497.92 685.03 490.258C698.188 476.235 701.622 449.335 702 431L706 431L712.522 407.961L712 388L716 390L716 386L721 386L715 375L708 372z"/>
<path style="fill:#ede0b0; stroke:none;" d="M410 381C416.028 395.569 389.917 392 381 392L381 397C388.275 397.569 402.011 393.7 406 401L392 401C391.459 404.392 390.628 411.464 394.444 413.396C400.501 416.462 410.352 408.837 416 406.88C423.937 404.129 436.659 405.304 445 406C444.988 387.389 426.166 380.308 410 381z"/>
<path style="fill:#c2ab8a; stroke:none;" d="M250 381C238.363 403.901 255.445 432.413 270.579 449.999C275.694 455.943 283.337 464.849 291 467L291 463C283.894 460.583 281.213 454.484 276.629 449.089C260.052 429.583 254.93 410.198 255 385L252 386L250 381z"/>
<path style="fill:#e6ca74; stroke:none;" d="M389 390L412 389C410.047 376.389 393.234 381.513 389 390z"/>
<path style="fill:#dfcab4; stroke:none;" d="M795 384C793.592 389.912 790.579 407.707 798 409L798 384L795 384z"/>
<path style="fill:#cba255; stroke:none;" d="M712 388L712.518 406.985L706 431L702 431C701.244 448.619 698.279 477.454 684.416 490.258C681.231 493.199 672.182 498.802 667.985 500.521C663.062 502.537 657.037 502.258 655 508C648.767 508.543 642.867 510.048 640 516C658.131 515.95 675.476 508.551 691 499.552C695.993 496.657 705.102 494.663 705 488L709 479L709 478L707 472L712 472L708.372 457.011L715 444L724 445L724 439C732.027 436.465 729 421.828 729 415L726 415C725.441 406.65 719.789 391.798 712 388z"/>
<path style="fill:#d0ae67; stroke:none;" d="M721 398L726 415L729 415C729 422.481 731.706 434.956 724 439L724 445L715 444L708.167 457.011L712 472L707 472L709 478L709 479L705 488L705 489L706 491C725.12 484.157 751.444 465.788 759.005 445.999C761.264 440.088 760 432.241 760 426C755.628 429.858 754.826 436.383 754 442L750 442L744 415L730 413L721 398z"/>
<path style="fill:#f6efdd; stroke:none;" d="M330 400C330.134 401.698 330.318 403.34 330.58 405.024C332.73 418.808 343.19 401.487 330 400z"/>
<path style="fill:#c89239; stroke:none;" d="M718 403L715 404C714.965 414.336 700.757 430.318 706.319 439.772C711.45 448.494 716.341 435.854 718.094 432.17C721.583 424.839 722.356 410.272 718 403z"/>
<path style="fill:#d3ac5f; stroke:none;" d="M645 406C640.924 415.333 633.174 428.415 625.541 435.312C619.459 440.808 611.27 443.815 605.329 449.599C599.365 455.405 595.237 464.556 587.776 468.973C584.142 471.124 576.269 472.189 572 473L584 462L584 461C578.461 462.922 570.82 469.353 569 475C588.398 474.825 595.599 461.63 609.209 450.916C623.145 439.945 646.101 426.561 647 406L645 406z"/>
<path style="fill:#ead16f; stroke:none;" d="M404 416L415 426C416.057 410.255 434.344 417.594 444 411L434.004 411.963L420 410.613L404 416z"/>
<path style="fill:#dcb656; stroke:none;" d="M439 444L452.397 442.821L455.028 432.434L464 429L464 427C460.492 425.783 456.333 425.187 453.545 422.54C450.5 419.649 448.722 413.909 444.69 412.175C441.825 410.943 438.789 414.413 435.961 414.853C430.214 415.746 411.555 412.67 415.583 424.7C419.105 435.219 436.031 434.185 439 444z"/>
<path style="fill:#ecc24f; stroke:none;" d="M289 426C291.147 433.649 300.934 436.437 308 437C307.666 421.422 301.468 416.903 289 426z"/>
<path style="fill:#e5e1da; stroke:none;" d="M219 427L219 553L225 553L225 568L279 569L276 554L277 554L282 564L282 565L281 576L282 576L282 570L283 570L284 576L285 576L283 567L284 567C285.075 569.697 288.64 577.948 292 576L293 576C293.008 577.834 293.421 585.427 296 582L297 582L305 596C301.946 596.654 302.064 598.007 302 601L301 601L294 590L293 590L293 593L292 593L292 588L291 588C291.076 597.066 295.893 604.462 303 610L299 600L300 600L303 603L305 614L306 614L306 611L307 611C308.149 617.435 312.121 622.201 318 625L315 622L316 615L314 617L315 614L315 613L313 610L308 612C308.579 608.628 308.445 606.968 305 606L305 584L304 584L304 590L303 590L300 579L299 579L300 586L299 586L298 576L294 575C294 572.659 291.402 558.954 290 566L286 566L285 566L271 533L270 533L273 553L258 553L258 482L259 482L271 530L272 530L272 518L271 518L271 522L270 522L268 515L269 515L269 517L270 517L272 513L273 513C273.296 521.214 273.765 527.058 282 531L277 516L276 516L275 518L276 507L280 508C282.748 513.928 288.04 520.213 294 523L293 514L292 514L292 519L281 499L282 501L283 501L284 493C289.982 497.448 290.438 505.943 291 513L292 513L291 501L292 501L299 517L299 518L298 531L290 525L294 532L290 532L288 529L286 518L283 519L278 510L277 510C277.791 520.427 289.755 536.145 298 542L295 532L300 535L301 526L302 526L305 534L305 529L309 531L307 525C312.937 526.69 315.528 523.505 320 520L320 522C326.342 520.647 326.161 524.836 326 530L330 529L343 535L341 538L350 542L347 548L363 554L364 551L365 551L366 559L369 558L372 567L368 567L370 563L358 563C360.334 567.828 375.451 574.283 379 569L380 572L381 572L384 571C386.814 564.123 391.273 566.529 392 573L388 572L389 567C384.402 570.249 386 577.91 386 583L384 583L384 573L382 573L383 580L378 577L377 577L369 574L370 578L364 574L370 594L367 593L367 597L370 597L370 603L373 602C376.231 614.141 378.374 617.387 391 620L391 621L384 620L384 621L387 621L387 622L382 623L382 624L386 624L384 628L392 631L401 628L399 634L402 635L402 640L395 638L397 636L397 635L396 633L392 634L393 643L399 642L404 650L401 651C406.723 656.781 406.411 664.401 405 672L407 671L407 672L404 680L406 681L404 682L404 683L410 684L410 685L405 684L405 688L410 690L410 705L411 705L411 702L412 702L412 706L413 706L413 702L414 702L416 715L423 715L423 716L421 718L428 720L428 721C422.849 723.976 424.461 728.389 430 729L435 736L455 737.92L503 744L503 743L495 743L498 741L498 736L494 736L498 719L495 720L496 724C493.604 723.425 493.513 723.525 493 726L492 726L491 720L488 720L489 712C486.973 712.651 484.989 713.37 482.995 714.12C466.64 720.277 488.152 727.924 492 735C478.758 735 471.268 731.851 463 721L461 721L462 732C455.427 731.713 442.165 731.136 440 724C447.192 722.827 449.052 712.327 450 706L447 702L467.373 706.189L463 716L476 711L475 707L486 706L486 705L481 705L481 700L478 700L478 692L475 693L472 680L477 677L474 671L471 671C470.987 667.806 471.403 665.729 468 665L468 662L471 662L469 650L470 650L475 654C469.5 643.606 466.267 637.542 465.407 625.911C465.028 620.789 462.573 617.898 467 614L464 607L471 606L469 602C477.16 601.977 482.271 597.3 490 595.665C506.796 592.113 522.024 595.34 536.999 603.16C541.005 605.251 543.275 604.342 544 600L556 600L556 596L559 596L561 587L559 585L560 581C555.197 581 538.513 583.583 536.649 577.772C535.705 574.829 537.854 570.156 538 567L556 566L555 570C562.208 574.483 561.047 583.681 571 584L571 582L567 582L567 578C575.842 582.482 578.709 580.225 588 580L596 569L590 568L603 559L603 567L596 575C601.228 580.491 603.491 573.715 607 570L607 569L605 566L608 568L613 551L610 554C603.243 550.553 594.081 553.564 587 554.996C578.611 556.693 569.541 556.753 561 557.71C537.373 560.358 511.782 555.346 488 555.193C477.397 555.125 466.589 552.964 456 551.246C451.89 550.579 447.379 550.683 445 547L429 549C428.107 544.853 425.163 547.07 422 548L422 547L424 547L424 546C405.542 544.789 383.316 538.968 366.424 530.794C359.631 527.507 347.906 515.707 340 519C333.315 509.164 318.766 509.528 308.844 504.947C304.564 502.971 301.65 498.718 297 498L286.29 490.956L267.143 473.246L256 464L256 553L250 553L250 485C250 477.751 247.559 466.006 255 462L236 428L232 430C229.261 425.776 223.57 427 219 427z"/>
<path style="fill:#d3c2b6; stroke:none;" d="M785 431L784 437L798 438L798 431L785 431z"/>
<path style="fill:#be9044; stroke:none;" d="M757 437L752 450C756.987 448.362 758.912 441.697 757 437z"/>
<path style="fill:#f3e3bb; stroke:none;" d="M304 450L300 453L299 460L304 460L304 465L315.34 470.486L327 471L329 463L304 450z"/>
<path style="fill:#d1d0d5; stroke:none;" d="M756 494L756 495C758.72 499.22 755.828 502.922 754 507L753.833 517L744 546L748 545L749 540L750 540L748 553L798 553L798 463C790.895 463 773.238 459.799 767.72 464.603C761.29 470.201 760.431 486.215 756 494z"/>
<path style="fill:#d8b55b; stroke:none;" d="M556 479L500 486C498.095 480.258 482.506 477.882 476.978 478.693C473.864 479.15 473.615 483.31 475.18 485.437C476.943 487.833 481.386 488.21 484 489.271C494.032 493.341 510.265 494.835 521 492.656C525.352 491.773 528.478 488.443 533 488.059C540.652 487.408 554.804 489.389 556 479z"/>
<path style="fill:#d5bf9c; stroke:none;" d="M716 487L727 481C722.566 479.929 718.198 483.298 716 487z"/>
<path style="fill:#d3cdc1; stroke:none;" d="M258 482L258 553L273 553L265.611 513L258 482z"/>
<path style="fill:#e3cd84; stroke:none;" d="M491 511C506.784 505.223 516.441 499 534 499C527.811 506.99 516.816 507.533 509.001 513.289C506.566 515.083 501.326 517.964 502.801 521.719C504.358 525.684 510.699 526.184 513 530C522.756 527.923 543.571 529.116 544 516L540 516C538.984 503.259 521.08 516.691 514 517C521.106 504.359 537.63 505.311 549.911 502.871C553.981 502.062 556.679 499.323 561 499L574 482C564.955 482.026 562.062 488.134 554 490.292C534.76 495.441 504.771 494.392 491 511z"/>
<path style="fill:#e1e1df; stroke:none;" d="M748 485L741 500L741 491L737 498L738 498L741 495L732 510L734 497L733 497L728 515L726 513L715 524L716 513L715 513L711 514L710 514L703 528L705 512L704 512C703.464 520.501 699.695 533.478 693 539L695 527L682 527L680 531L690 532L684 541L679 558L678 558L683 544C674.777 549.648 676.933 560.737 671.272 567.721C664.781 575.73 642.387 574.812 633 575L649 544C638.245 547.307 631.221 564.61 631 575L627 575L642 545C630.985 550.367 624.5 563.351 624 575L621 575C622.883 560.101 634.256 542.558 650 539L650 536C657.051 535.829 664.168 532.503 665 525L662 522L655 527L651 523L689 507.053L702 499C671.563 508.501 642.645 523.149 611 529.486C559.028 539.893 507.419 538 455 538L455 539L470 542.907L549 540.911L593 536C591.864 539.743 583.753 545.591 580 543L575 543C569.32 546.148 557.085 548.897 552 544C534.262 546.291 516.833 545.033 499.17 548.259C490.24 549.89 477.886 553.859 470 547C442.734 552.062 412.282 538.247 385 537L385 538L424 546L424 547L422 547L422 548L429 549L445 547C445.854 550.986 450.407 550.49 454 551.056C463.956 552.623 475.151 555.88 485 555.583C509.929 554.833 536.158 560.389 561 557.917C575.156 556.508 596.687 549.24 610 554L613 551L608 568L605 566L607 569L607 570C602.61 573.08 601.944 579.245 596 575L603 567L603 559L590 568L596 569L588 580L567 578L567 582L571 582L571 584C561.145 583.278 562.742 573.282 555 570L556 566L538 567C537.709 570.232 535.227 574.689 536.005 577.772C537.48 583.612 555.337 581 560 581L561 587C557.639 589.243 558.721 592.298 559 596L556 596L556 600L544 600L541 605C548.422 617.039 556.413 642.806 539 651C537.095 662.027 529.851 668.137 521 674L521 675C533.596 678.827 516.909 683 512 683C514.975 690.979 519.32 701.6 507 702L507 691L506 691L501 701L494 700L503 683C496.25 683 488.655 684.593 488 676L497 676L497 675L481.745 663.94L473 651L473 652L475 654L470 650L469 650C470.162 654.39 472.499 659.08 468 662L468 665L471 665L471 671L474 671C474.013 674.194 473.597 676.271 477 677L472 680L475 693L478 692L478 700L481 700L481 705L486 705L486 706L481 706L481 707L496 708L496 710C489.511 711.636 488.062 713.16 488 720L491 720L492 726L493 726L493 723L496 724L495 720L499 720L498 708L536 707L535 715L515 713L515 719L528 719C524.732 726.189 518.962 725 512 725C510.91 736.099 509.205 736 498 736L495 743L503 743L503 744L436 734L436 735L455 740L450 750L453 751L455 749L454 745C457.137 744.365 459.946 741.914 463.09 741.766C471.444 741.373 480.433 744.957 489 744.999C495.665 745.032 504.727 744.414 510 749L507 748L507 755L511 753L510 756L510 757L516 754L514 759L523 755L525 759L525 762L525 763L522 766L528 766L529 766L534 766L538 761C534.711 768.819 528.07 771.15 520 768L515 771L515 772L517 777L510 778L510 779C526.355 786.884 549.262 783 567 783L567 775C576.021 774.613 598.907 771.862 604 764L609 765L609 764L608 759L610 758L613 759L614 755L622 753L622 757L628 753C621.09 748.645 626.621 735.72 631 742L632 742L638 724L634 732L633 732C633.066 726.415 634.16 723.193 640 722C639.704 728.905 640.734 741.323 634 745L634 746L641 749L642 748L641 745C643.588 742.703 641.605 740.554 640 738L648 741L648 740L646 740L646 739L651 737L651 736C647.716 726.866 645.812 707.691 651.589 699.004C654.821 694.143 660.527 691.775 664.6 687.736C669.246 683.13 681.189 675.225 688 678L689 678C687.938 674.803 684.775 671.857 682 675L681 675L682 669L673 673L678 669C672.397 660.583 679.774 648.797 687 644L683 656C686.93 654.739 693.935 644.524 691 641L691 640C693.91 639.031 696.731 636.709 694 634L697 625L690 629L691 627L690 627L679 635L687 623L686 626L691 624L697 612L703 610L702 617L706 618L711 608L707 611C709.947 603.098 717.876 598.907 720.752 590.996C721.484 588.984 723.147 582.573 718.91 583.176C713.435 583.956 714.881 596.892 709 595L708 595L703 602L701 595L704 597L710 591L717 571L716 571L715 575L714 575L718 569L717 578L720 577L720 581L722 579L725 580L730 556L727 558L738 541L739 541L731 576L734 568L737 570L740 559L736 566L735 566L742 536L727 552C727.164 544.065 728.203 532.829 732.525 526C737.297 518.46 748.013 511.598 748 502C752.174 499.861 754.202 496.71 754 492L756 485L755 485L751 497L750 497L750 485L748 485z"/>
<path style="fill:#c8c9c5; stroke:none;" d="M747 487C742.4 490.653 742.046 494.447 741 500C745.279 496.884 748.16 492.453 747 487z"/>
<path style="fill:#d3bd95; stroke:none;" d="M677 506L677 507C688.755 504.976 705.445 497.339 713 488L677 506z"/>
<path style="fill:#ebe8e1; stroke:none;" d="M284 493L283 501L282 501L281 499C280.707 504.076 287.859 516.094 292 519L292 514L293 514L294 523L280 508L276 507L275 518L276 516L277 516L282 531C274.636 525.738 273.896 521.465 273 513L272 513L270 517L269 517L269 515L268 515L270 522L271 522L271 518L272 518L272 530L271 530L268 519L267 519C268.38 536.343 284.604 549.547 285 566L286 566L290 566L291 563L294 575L298 576L299 586L300 586L299 579L300 579L303 590L304 590L304 584L305 584L305 606L308 612L313 610L315 613L315 614L314 617L316 615L315 622L318 625C312.692 621.251 308.833 617.342 307 611L306 611L306 614L305 614L303 603L300 600L299 600L303 610C297.04 603.436 291.198 597.226 291 588L292 588L292 593L293 593L293 590L294 590L301 601L302 601L305 596L297 582L296 582L295 584L293 576L292 576L291 578L284 567L283 567L285 576L284 576L283 570L282 570L282 576L281 576L282 565L282 564L277 554L276 554L279 569C263.18 564.324 241.515 568 225 568L225 690L283 690C289.981 690 301.337 687.823 307.79 690.603C314.921 693.675 320.225 706.94 320 714L327 714L327 783L331 783L331 720L345.972 733.17L347 748L347 783L390 783L390 758C428.899 777.845 476.978 783 520 783L520 781L510 779L510 778L517 777C516.664 771.661 515.461 768.836 520 765L520 764L508 764L508 763L515 763L515 762L494 763L501 756L500 759L512 756L512 755L511 753L507 755L507 748L510 749C506.857 744.871 498.884 745.062 494 745.004C479.678 744.833 467.307 740.542 454 745L455 749L450 750L455 740L434 736L430 729C424.884 727.661 424.267 724.608 428 721L428 720L421 718L423 716L423 715L416 715L414 702L413 702C413.063 709.649 413.542 721.802 418 728L410 726L410 690L405 688L405 684L410 685L410 684L404 683L404 682L406 681L404 680L406 677C402.668 678.682 399.989 682.762 396 682.664C376.703 682.187 364.21 654.101 384.09 643.751C389.567 640.899 397.559 650.677 404 650L399 642L393 643C393.337 636.915 392.322 635.035 388 631L380 630C381.145 625.662 382.835 623.684 387 622L387 621C379.246 619.64 379.044 624.479 374 629L377 618L373 615C380.267 613.451 374.41 605.903 373 602L370 603L370 597L367 597L367 593L370 594L364 574L370 578L369 574C371.52 575.62 374.449 579.677 377 577L378 577L383 580L379 569L378 572L358 563L370 563L368 567L372 567L369 558L366 559L365 551L364 551L363 554L347 548L350 542L341 538L343 535L330 529L326 530C326.395 524.768 326.884 519.172 320 522L320 520C315.145 522.614 312.915 526.22 307 525L309 531L305 529L305 534L302 526L301 526L300 535L295 532L298 542C290.35 533.891 278.757 521.522 277 510L278 510L283 519L286 518L288 529L290 532L294 532L290 525L298 531L299 518L299 517L292 501L291 501L292 513L291 513L286 493L284 493z"/>
<path style="fill:#ccccca; stroke:none;" d="M736 494L732 510L741 495L738 498L737 498L738 494L736 494z"/>
<path style="fill:#d9b64f; stroke:none;" d="M490 515C501.461 516.448 528.108 510.49 534 499C519.725 499 497.329 500.033 490 515z"/>
<path style="fill:#cdcdcb; stroke:none;" d="M730 499L718 520L724 506C716.544 508.294 715.058 517.118 715 524C720.528 521.711 723.777 518.54 726 513L728 515L732 499L730 499z"/>
<path style="fill:#ddcfb6; stroke:none;" d="M657 516L668 513C664.447 511.767 659.416 513.114 657 516z"/>
<path style="fill:#ccc6c3; stroke:none;" d="M706 514L703 528C707.541 525.349 708.504 518.982 709 514L706 514z"/>
<path style="fill:#c9c8c6; stroke:none;" d="M693 539C699.329 535.544 699.727 524.564 701 518C694.903 521.329 693.87 532.543 693 539z"/>
<path style="fill:#c2c2c2; stroke:none;" d="M749 540L742.096 570L729 597L734 596L733 606L731 608L730 608L730 605L729 605L711 642L712 642L715 632L717 635C723.171 627.644 728.965 619.884 729 610L730 610L732 612L705 662L702 658L701 658L700 664L705 665L708 656C717.743 654.309 728.075 630.892 730 622L731 622L719 653L720 653L721 649L722 649L719 654L718 661L718 672L719 670L720 670L716 682L792 682L792 553L748 553L749 540z"/>
<path style="fill:#cccccb; stroke:none;" d="M738 541L727 558L730 556L725 582L726 582L732 555L733 555L729 577L730 577L735.704 551L738 541z"/>
<path style="fill:#cfcac6; stroke:none;" d="M621 575L624 575C625.115 560.871 634.846 556.172 640 544C628.419 549.863 621.965 562.77 621 575z"/>
<path style="fill:#dfd6d0; stroke:none;" d="M324 552C322.243 563.737 319.141 566.849 307 563C308.34 569.35 317.95 583.917 325 583L324 586L326 579L333 583L334 580L346 588L347 589L347 592L338 587C338.45 596.665 345.825 596.913 350 604L351 604L351 596L355 598C352.612 582.391 327.755 576.314 329 558L327 558L328 555L324 552z"/>
<path style="fill:#ffffff; stroke:none;" d="M219 553L219 783L225 783L225 553L219 553M792 553L792 783L798 783L798 553L792 553z"/>
<path style="fill:#cfc5bb; stroke:none;" d="M475 560L477 572L480 573C485.777 570.701 491.832 567.062 494 561L482 566L484 560L475 560z"/>
<path style="fill:#dbcec3; stroke:none;" d="M384 571L382 570L381 570L384 583L386 583C386 577.41 384.946 571.327 389 567L388 572L392 573C391.618 566.083 386.167 562.973 384 571z"/>
<path style="fill:#d4c8bc; stroke:none;" d="M438 573L438 582L454 578.228L472 587C471.862 575.381 447.975 573.456 438 573z"/>
<path style="fill:#eeafa6; stroke:none;" d="M397 577L397 583L398 583L397 577z"/>
<path style="fill:#e85556; stroke:none;" d="M398 577C398.008 589.686 401.514 602.534 403.679 615C406.215 629.604 407.13 644.506 410.211 659C411.593 665.503 410.606 680.433 415.6 685.146C421.929 691.12 442.469 693.321 451 694L448 588L398 577z"/>
<path style="fill:#e2a9a5; stroke:none;" d="M609 579L609 580L615 579L609 579z"/>
<path style="fill:#dbcfc8; stroke:none;" d="M360 582L363 581L365 588L356 584L350 583C352.539 586.755 360.932 588.684 359 594L359 595L364 597C364.513 589.43 367.493 586.297 363 579L360 582z"/>
<path style="fill:#e45053; stroke:none;" d="M565 589L564.171 672L564 694L602 686L616 579L565 589z"/>
<path style="fill:#e7a69b; stroke:none;" d="M442 587L442 588L447 588L442 587z"/>
<path style="fill:#e3a19c; stroke:none;" d="M571 587L571 588L575 588L571 587z"/>
<path style="fill:#d0cfce; stroke:none;" d="M722 587L707 611L711 608L706 618L702 617L703 610L697 612L691 624L686 626L687 623L679 635L691 627L690 629L691 629L697 625L694 633L709 617L710 620L711 620L716 606L715 606L714 609L713 609C713.838 601.067 724.735 596.01 722 587z"/>
<path style="fill:#e0938f; stroke:none;" d="M565 588L565 589L570 589L565 588z"/>
<path style="fill:#e39a9b; stroke:none;" d="M564 589L564 628L565 628C565 616.828 568.311 599.274 564 589z"/>
<path style="fill:#cececc; stroke:none;" d="M645 590L640 600L643 614L637 618L650 614L647 621L653 619C652.573 611.567 665.497 600.979 656 596L651 600L651 601L655 602L658 600C655.251 608.742 650.231 613.003 642 609L646 605L650 598L645 599L647 590L645 590z"/>
<path style="fill:#e09493; stroke:none;" d="M613 591L613 596L614 596L613 591z"/>
<path style="fill:#cdcbc9; stroke:none;" d="M662 605L667 603L663 628C670.006 624.14 669.848 607.372 670 600L672 600L670 624C677.08 621.154 673.499 607.576 675.313 601.093C676.299 597.569 679.706 595.483 681 592C675.229 593.914 663.85 599.005 662 605z"/>
<path style="fill:#bfb7af; stroke:none;" d="M497 594L497 595L513 595L497 594z"/>
<path style="fill:#aa9c90; stroke:none;" d="M490 595L490 596L497 596L490 595z"/>
<path style="fill:#3e3934; stroke:none;" d="M470 603L473 607L465 608L467 614C460.589 617.571 466.094 622.487 465.9 628C465.5 639.427 469.723 644.517 476.096 653.299C483.179 663.06 484.572 670.102 497 675L497 676L489 676L489 683L503 683L494 699C502.802 700.608 502.848 695.652 508 690L508 702C518.871 701.643 514.581 689.069 512 682L525 682L525 676L518 676L518 675C529.241 671.693 537.743 662.989 538 651C544.426 649.997 553.442 634.351 547 630L550 620C545.464 615.575 545.479 609.032 539.96 604.764C526.143 594.077 504.38 592.947 488 596.899C481.722 598.413 476.45 602.568 470 603z"/>
<path style="fill:#edb4a9; stroke:none;" d="M400 596L400 600L401 600L400 596z"/>
<path style="fill:#83756c; stroke:none;" d="M486 596L486 597L490 597L486 596z"/>
<path style="fill:#aaa39b; stroke:none;" d="M518 596L518 597L523 597L518 596z"/>
<path style="fill:#7a6d67; stroke:none;" d="M481 598L481 599L486 598L481 598z"/>
<path style="fill:#968c7f; stroke:none;" d="M523 597L523 598L526 598L523 597z"/>
<path style="fill:#e5e1da; stroke:none;" d="M492 602L482 605C492.558 603.666 499.357 605.871 509 610L509 612C493.781 613.386 484.242 610.102 478 628L506 631.966L537 628L533 615L542 625C542 606.866 528.278 598.88 511 598.04C505.462 597.771 494.089 595.707 492 602z"/>
<path style="fill:#9d968f; stroke:none;" d="M527.667 598.333L528.333 598.667L527.667 598.333z"/>
<path style="fill:#cacaca; stroke:none;" d="M724 598L719 619L722 611L725 612L726 611L725 603L726 603L726 607L728 607L730 598L728 601L727 601L727 598L726 598L725 600L724 598z"/>
<path style="fill:#9f9893; stroke:none;" d="M490 599L487 601L487 602C489.338 601.95 493.808 601.139 490 599z"/>
<path style="fill:#afa8a5; stroke:none;" d="M518 599L518 600L521 600L518 599z"/>
<path style="fill:#a19993; stroke:none;" d="M532.667 600.333L533.333 600.667L532.667 600.333z"/>
<path style="fill:#a4968c; stroke:none;" d="M469 604L476 603L469 604z"/>
<path style="fill:#7f7c74; stroke:none;" d="M484.667 602.333L485.333 602.667L484.667 602.333z"/>
<path style="fill:#e2867f; stroke:none;" d="M448 603L448 622L449 622L448 603z"/>
<path style="fill:#75736a; stroke:none;" d="M481 604L484 606L484 605L481 604z"/>
<path style="fill:#a19990; stroke:none;" d="M485 604L485 605L495 605L485 604z"/>
<path style="fill:#aaa59a; stroke:none;" d="M464 609L473 607C469.636 605.059 466.122 605.714 464 609z"/>
<path style="fill:#a8a192; stroke:none;" d="M501.667 606.333L502.333 606.667L501.667 606.333z"/>
<path style="fill:#d9cec7; stroke:none;" d="M395 616L394 620L399 618C398.784 616.236 398.568 614.672 397.941 612.991C393.336 600.633 383.639 615.094 395 616z"/>
<path style="fill:#b5b3aa; stroke:none;" d="M482 608L482 609L490 609L482 608z"/>
<path style="fill:#706963; stroke:none;" d="M470 612L471 612L478 610C475.026 608.286 470.82 608.172 470 612z"/>
<path style="fill:#e3e0d8; stroke:none;" d="M472 611C470.539 616.885 466.87 623.396 473 628C473.26 619.242 479.45 614.936 486 610L472 611z"/>
<path style="fill:#c5c0b9; stroke:none;" d="M471 613L472 613L478 611C475.12 609.341 471.772 609.398 471 613z"/>
<path style="fill:#e69a92; stroke:none;" d="M403 613L403 620L404 620L403 613z"/>
<path style="fill:#796a61; stroke:none;" d="M471.333 613.667L471.667 614.333L471.333 613.667z"/>
<path style="fill:#dacfc7; stroke:none;" d="M373 615L377 618L374 629C381.774 624.386 380.393 619.661 391 621L373 615z"/>
<path style="fill:#726b64; stroke:none;" d="M533 615L533 621L534 621L535 615L533 615z"/>
<path style="fill:#837a74; stroke:none;" d="M547.333 617.667L547.667 618.333L547.333 617.667z"/>
<path style="fill:#998f89; stroke:none;" d="M468 618L468 621L469 621L468 618z"/>
<path style="fill:#8d8782; stroke:none;" d="M542 618L542 625L543 625L542 618z"/>
<path style="fill:#eaa7a9; stroke:none;" d="M610 618L610 625L611 625L610 618z"/>
<path style="fill:#817a6e; stroke:none;" d="M482 620L482 623L483 623L482 620z"/>
<path style="fill:#e4ada4; stroke:none;" d="M404 621L404 627L405 627L404 621z"/>
<path style="fill:#827a74; stroke:none;" d="M473 621L473 628L474 628L473 621z"/>
<path style="fill:#d2d1cf; stroke:none;" d="M615 621C613.017 629.328 610.991 640.378 621 643L620 640L616 640L622 639L622 637L629 637L629 631L628 631L625 636L626 629C630.442 628.542 633.602 627.467 635 623L615 621z"/>
<path style="fill:#e6aca2; stroke:none;" d="M449 622L449 639L450 639L449 622z"/>
<path style="fill:#9d9890; stroke:none;" d="M469 622L469 625L470 625L469 622z"/>
<path style="fill:#777367; stroke:none;" d="M539.333 622.667L539.667 623.333L539.333 622.667z"/>
<path style="fill:#d8d0c5; stroke:none;" d="M381 624L380 630L388 631L396 633L397 635L397 636L395 638L402 640L402 635L399 634L401 628L392 631C391.135 626.943 387.556 627.223 384 628L386 624L381 624z"/>
<path style="fill:#a5a097; stroke:none;" d="M465.333 624.667L465.667 625.333L465.333 624.667z"/>
<path style="fill:#8a837d; stroke:none;" d="M479.667 624.333L480.333 624.667L479.667 624.333z"/>
<path style="fill:#928981; stroke:none;" d="M470 625L470 628L471 628L470 625z"/>
<path style="fill:#a5a198; stroke:none;" d="M537 625L529 628L529 629L538 629L537 625z"/>
<path style="fill:#9b948c; stroke:none;" d="M540.667 625.333L541.333 625.667L540.667 625.333z"/>
<path style="fill:#dc9492; stroke:none;" d="M609 625L609 630L610 630L609 625z"/>
<path style="fill:#8f8882; stroke:none;" d="M466 626L466 629L467 629L466 626z"/>
<path style="fill:#7b756c; stroke:none;" d="M477.333 626.667L477.667 627.333L477.333 626.667z"/>
<path style="fill:#c5c6c5; stroke:none;" d="M705 650L715 626C706.634 630.091 706.053 641.673 705 650z"/>
<path style="fill:#e68a86; stroke:none;" d="M405 627L406 641L407 641L405 627z"/>
<path style="fill:#b9b8b0; stroke:none;" d="M547 627L549 630L547 627z"/>
<path style="fill:#968e88; stroke:none;" d="M471.667 628.333L472.333 628.667L471.667 628.333z"/>
<path style="fill:#9a9185; stroke:none;" d="M478 628L478 629L486 629L478 628z"/>
<path style="fill:#dd7f7d; stroke:none;" d="M564 628L564 670L565 670C565 658.043 568.611 638.988 564 628z"/>
<path style="fill:#7b736d; stroke:none;" d="M464 629L464 634L465 634L466 629L464 629z"/>
<path style="fill:#847e78; stroke:none;" d="M476 629L476 631L478 631L478 629L476 629z"/>
<path style="fill:#7e6e65; stroke:none;" d="M489 629L489 630L499 631L489 629z"/>
<path style="fill:#776861; stroke:none;" d="M517 629L517 630L526 630L517 629z"/>
<path style="fill:#716b66; stroke:none;" d="M534 629L535 633L539 631L534 629z"/>
<path style="fill:#d0d0ce; stroke:none;" d="M638 642L633 658L638 656L641 648L642 648L640 655C644.629 653.458 647.171 653.819 648 659C657.88 653.295 664.626 639.83 667 629L638 642z"/>
<path style="fill:#e49a98; stroke:none;" d="M608 630L608 637L609 637L608 630z"/>
<path style="fill:#877f78; stroke:none;" d="M469 631L469 632L472 632L469 631z"/>
<path style="fill:#b2b3aa; stroke:none;" d="M480 631L480 633L484 633L484 631L480 631z"/>
<path style="fill:#645c54; stroke:none;" d="M520 632L520 633L527 634L527 635L518 633L519 636L515 636L515 637L529 636L527 632L531 632L520 632z"/>
<path style="fill:#d6d5cd; stroke:none;" d="M469 632L474 643L472 632L469 632z"/>
<path style="fill:#7e7974; stroke:none;" d="M472 632L472 637L473 637L472 632z"/>
<path style="fill:#7f736f; stroke:none;" d="M479 632L482 634L482 633L479 632z"/>
<path style="fill:#c0bab3; stroke:none;" d="M486 633L486 634L495 634L486 633z"/>
<path style="fill:#a0968a; stroke:none;" d="M502 632L502 633L510 633L502 632z"/>
<path style="fill:#d9d8cf; stroke:none;" d="M527 632L527 633L531 634L527 632z"/>
<path style="fill:#c5c3c2; stroke:none;" d="M536 632L536 633L541 638L541 637L539 632L536 632z"/>
<path style="fill:#959691; stroke:none;" d="M543 632L543 633L545 635L546 635L543 632z"/>
<path style="fill:#8e877c; stroke:none;" d="M485 633L488 635L488 634L485 633z"/>
<path style="fill:#c3c3ba; stroke:none;" d="M519 633L519 634L527 635L519 633z"/>
<path style="fill:#e2e1dd; stroke:none;" d="M534 633C532.936 638.856 529.99 642.197 524 643L524 641L529 640L529 638L504 635C502.781 645.003 501.871 649.25 514 647L514 643L529 650C527.895 654.679 525.307 659.698 521 662L521 658L503 659L503 660L506 664L504 662L503 662C502.555 665.522 501.33 669.572 503.18 672.891C506.895 679.558 512.562 675.464 514 670C528.009 669.875 529.019 661.032 535.005 651.143C539.03 644.495 543.238 641.423 545 633L538 638L538 633L534 633z"/>
<path style="fill:#8a8681; stroke:none;" d="M505.667 634.333L506.333 634.667L505.667 634.333z"/>
<path style="fill:#a19b94; stroke:none;" d="M508.333 635.667L508.667 636.333L508.333 635.667z"/>
<path style="fill:#a6a29d; stroke:none;" d="M544 635L544 638L545 638L544 635z"/>
<path style="fill:#76716c; stroke:none;" d="M548 635L548 638L549 638L548 635z"/>
<path style="fill:#8d837d; stroke:none;" d="M480 636L480 638L482 636L480 636z"/>
<path style="fill:#e5e1de; stroke:none;" d="M481 637L485 642L480 641C481.757 648.15 487.65 647.531 493 644L490 641L497 641L497 637L481 637z"/>
<path style="fill:#7d7a75; stroke:none;" d="M492 636L492 637L497 640L498 640L498 636L492 636z"/>
<path style="fill:#9f9994; stroke:none;" d="M503 636L503 640L504 640L503 636z"/>
<path style="fill:#adaba6; stroke:none;" d="M512 638L515 637L512 638z"/>
<path style="fill:#968f88; stroke:none;" d="M470.333 637.667L470.667 638.333L470.333 637.667z"/>
<path style="fill:#8f8884; stroke:none;" d="M483 637L483 638L486 638L483 637z"/>
<path style="fill:#9d9993; stroke:none;" d="M527 637L527 638L529 640L530 640L527 637z"/>
<path style="fill:#e38385; stroke:none;" d="M607 637L607 643L608 643L607 637z"/>
<path style="fill:#a39d98; stroke:none;" d="M510.667 638.333L511.333 638.667L510.667 638.333z"/>
<path style="fill:#8b8682; stroke:none;" d="M547.333 639.667L547.667 640.333L547.333 639.667z"/>
<path style="fill:#a09b96; stroke:none;" d="M467.333 640.667L467.667 641.333L467.333 640.667z"/>
<path style="fill:#8e8c82; stroke:none;" d="M471.333 640.667L471.667 641.333L471.333 640.667z"/>
<path style="fill:#908e8d; stroke:none;" d="M479 640L479 643L480 643L481 640L479 640z"/>
<path style="fill:#a7a4a2; stroke:none;" d="M484 640L481 641L481 642L484 640z"/>
<path style="fill:#ee9c96; stroke:none;" d="M407 641L407 645L408 645L407 641z"/>
<path style="fill:#796e65; stroke:none;" d="M490 641L493 645L494 645L495 641L490 641z"/>
<path style="fill:#756e6b; stroke:none;" d="M542.333 641.667L542.667 642.333L542.333 641.667z"/>
<path style="fill:#ddd4cb; stroke:none;" d="M407 671L405 672C407.919 659.739 404.748 652.499 394 646.39C391.462 644.947 388.169 642.031 385.039 642.751C378.686 644.213 374.005 656.357 372.78 661.996C370.951 670.417 389.888 684.808 397.961 683.072C402.852 682.02 405.74 675.25 407 671z"/>
<path style="fill:#9f9a92; stroke:none;" d="M501 642L501 646L502 646L501 642z"/>
<path style="fill:#9e9b98; stroke:none;" d="M526 642L526 643L529 643L526 642z"/>
<path style="fill:#99948b; stroke:none;" d="M546 642L546 645L547 645L546 642z"/>
<path style="fill:#a9a19d; stroke:none;" d="M496 643L499 647L499 643L496 643z"/>
<path style="fill:#b2afa8; stroke:none;" d="M514 643L514 647L515 647L517 644L514 643z"/>
<path style="fill:#8e8b85; stroke:none;" d="M541.333 643.667L541.667 644.333L541.333 643.667z"/>
<path style="fill:#8f8a86; stroke:none;" d="M469.333 644.667L469.667 645.333L469.333 644.667z"/>
<path style="fill:#cccbc9; stroke:none;" d="M627 660C632.559 656.395 634.031 650.04 636 644C629.77 645.884 627.87 654.112 627 660z"/>
<path style="fill:#afa59f; stroke:none;" d="M490 645L490 646L493 646L490 645z"/>
<path style="fill:#aaa29e; stroke:none;" d="M545.333 645.667L545.667 646.333L545.333 645.667z"/>
<path style="fill:#cac9c7; stroke:none;" d="M620 662C625.394 658.801 627.536 651.871 629 646C622.883 647.926 621.317 656.311 620 662z"/>
<path style="fill:#afa7a4; stroke:none;" d="M470.333 647.667L470.667 648.333L470.333 647.667z"/>
<path style="fill:#908881; stroke:none;" d="M483 647L483 648L488 648L483 647z"/>
<path style="fill:#6f665f; stroke:none;" d="M536 648L536 649L540 649L536 648z"/>
<path style="fill:#b6b2b0; stroke:none;" d="M496 649L496 650L501 650L496 649z"/>
<path style="fill:#e1e1e0; stroke:none;" d="M491 653L523 653C518.021 648.367 495.373 647.256 491 653z"/>
<path style="fill:#cccbc9; stroke:none;" d="M612 665L621 649C615.836 651.771 613.255 659.464 612 665z"/>
<path style="fill:#7e7675; stroke:none;" d="M483 650L483 651L486 651L483 650z"/>
<path style="fill:#938f8b; stroke:none;" d="M528 650L528 654L529 654L528 650z"/>
<path style="fill:#d7827c; stroke:none;" d="M605 650L604 668L605 668L605 650z"/>
<path style="fill:#e1e3de; stroke:none;" d="M495 666L494 661C488.424 660.454 486.646 656.151 486 651C474.515 652.918 488.409 665.639 495 666z"/>
<path style="fill:#a5a19f; stroke:none;" d="M538 651L538 655L539 655L538 651z"/>
<path style="fill:#96938f; stroke:none;" d="M476.333 652.667L476.667 653.333L476.333 652.667z"/>
<path style="fill:#b5b1b0; stroke:none;" d="M486 652L486 656L487 656L486 652z"/>
<path style="fill:#cfcecc; stroke:none;" d="M673 652C671.353 656.801 667.269 661.442 662 662L660 667L664 666L662 672L658 673L655 667L650 670L637 676L634 681L633 681L642 670L629 677L631 679L628 688L632 683L646 677L644 680L651 677L649 683C654.654 679.15 661.376 675.546 664 669L665 674L666 674L669 665L668 665L665 667L675 652L673 652z"/>
<path style="fill:#a9a7a0; stroke:none;" d="M492 653L492 654L502 654L492 653z"/>
<path style="fill:#948d89; stroke:none;" d="M509.667 653.333L510.333 653.667L509.667 653.333z"/>
<path style="fill:#c7c1be; stroke:none;" d="M511 653L511 654L521 654L511 653z"/>
<path style="fill:#ecbab0; stroke:none;" d="M450 655L450 669L451 669L450 655z"/>
<path style="fill:#b6b4af; stroke:none;" d="M502 655L502 657L511 656L502 655z"/>
<path style="fill:#837b77; stroke:none;" d="M510 656L510 657L514 656L510 656z"/>
<path style="fill:#cccac8; stroke:none;" d="M632 663C624.07 658.489 618.676 668.391 618 675C621.005 673.691 623.091 670.38 626.104 669.478C632.349 667.61 638.508 670.852 643 664L634 667L644 656L632 663z"/>
<path style="fill:#999898; stroke:none;" d="M517 657L517 658L520 658L517 657z"/>
<path style="fill:#928e89; stroke:none;" d="M532.333 657.667L532.667 658.333L532.333 657.667z"/>
<path style="fill:#7b7676; stroke:none;" d="M504 658L504 659L515 659L504 658z"/>
<path style="fill:#979191; stroke:none;" d="M521 658L521 662L522 662L521 658z"/>
<path style="fill:#a09c95; stroke:none;" d="M479.333 659.667L479.667 660.333L479.333 659.667z"/>
<path style="fill:#9c9696; stroke:none;" d="M492.667 660.333L493.333 660.667L492.667 660.333z"/>
<path style="fill:#a19798; stroke:none;" d="M504.667 663.333L505.333 663.667L504.667 663.333z"/>
<path style="fill:#e48d8b; stroke:none;" d="M411 664L411 668L412 668L411 664z"/>
<path style="fill:#cacaca; stroke:none;" d="M675 664L678 669L673 673L682 669L681 675L682 675L684 673L684 668L683 667L679 668L679 665L675 664z"/>
<path style="fill:#a8a4a0; stroke:none;" d="M495 665L491 666L491 667L495 665z"/>
<path style="fill:#c9c7c4; stroke:none;" d="M608 678L614 676C612.911 670.494 615.747 669.033 619 665C612.317 666.762 608.623 671.135 608 678z"/>
<path style="fill:#d2d4cf; stroke:none;" d="M711 666L708 677L711 670C714.538 675.385 707.074 684.92 704 690L707 669L699 677L704 677C703.437 683.893 701.059 691.206 697.185 696.995C696.008 698.754 692.339 703.415 690.042 700.534C685.902 695.341 695.209 683.732 697 679C686.22 685.804 686.737 699.637 684 711L694 704L690.093 713.891L682 724L679 724L680 726C674.676 728.15 665.073 733.894 662.488 739.209C660.812 742.653 662 748.247 662 752L662 783L701 783L701 733L701.314 708L720 670L719 670L713 671L714 666L711 666z"/>
<path style="fill:#847c79; stroke:none;" d="M501.333 669.667L501.667 670.333L501.333 669.667z"/>
<path style="fill:#a39b95; stroke:none;" d="M516 670L516 671L519 671L516 670z"/>
<path style="fill:#c0bfba; stroke:none;" d="M518 675L518 676L525 676L518 675z"/>
<path style="fill:#91918b; stroke:none;" d="M488 676L488 682L489 682L488 676z"/>
<path style="fill:#706a63; stroke:none;" d="M525 676L525 682L526 682L525 676z"/>
<path style="fill:#cecece; stroke:none;" d="M665 694L659 711L661 708L662 708L668 708L657 721L656 721L658 714L652 716L651 724C655.799 722.316 658.878 722.114 661 717C666.259 718.081 668.918 716.232 672 712L668 714L680 699L671 719C682.14 713.568 684.759 687.256 688 676C681.493 677.583 672.009 680.028 667.005 684.543C663.868 687.374 660.573 691.134 665 694z"/>
<path style="fill:#79746f; stroke:none;" d="M509.667 677.333L510.333 677.667L509.667 677.333z"/>
<path style="fill:#dea79d; stroke:none;" d="M413 679L413 684L414 684L413 679z"/>
<path style="fill:#df777a; stroke:none;" d="M564 679L564 693L565 693L564 679z"/>
<path style="fill:#5d5c57; stroke:none;" d="M512 682L512 683L525 683L512 682z"/>
<path style="fill:#a4a4a2; stroke:none;" d="M705 783L792 783L792 682L738 682C732.32 682 721.303 679.895 716.39 683.028C707.687 688.577 705 702.762 705 712L705 783z"/>
<path style="fill:#e4a799; stroke:none;" d="M451 685L451 694L452 694L451 685z"/>
<path style="fill:#dcd3c9; stroke:none;" d="M379 688L376 687C376.066 691.907 371.288 698.842 376 702L382 691L379 705L381 705C383.731 697.961 384.917 693.951 393 696L389 703L388 703L390 696L386 695C383.732 701.974 381.511 708.72 391 710C388.623 701.306 397.344 705.077 400 710L401 710L405 700C397.589 698.983 396.152 688.256 386 690C384.243 687.614 381.441 685.728 379 688z"/>
<path style="fill:#ded9ce; stroke:none;" d="M225 690L225 783L327 783L327 714L320 714C320.546 706.783 315.959 693.985 308.621 690.603C302.422 687.747 290.78 690 284 690L225 690z"/>
<path style="fill:#91928a; stroke:none;" d="M506 690L507 693L508 693L508 690L506 690z"/>
<path style="fill:#817d75; stroke:none;" d="M514.333 690.667L514.667 691.333L514.333 690.667z"/>
<path style="fill:#c8c8c8; stroke:none;" d="M634 692C632.591 695.684 629.879 703.903 635 705L637 697L634 692z"/>
<path style="fill:#c6c6c3; stroke:none;" d="M638 698L642 701L643 697L640 697L640 694L644 692C640.286 693.025 638.822 694.195 638 698z"/>
<path style="fill:#6f6b64; stroke:none;" d="M507 693L507 702L508 702L507 693z"/>
<path style="fill:#afa8a2; stroke:none;" d="M515 693L515 700L516 700L515 693z"/>
<path style="fill:#cfcbc7; stroke:none;" d="M617 696L605 700L605 701L607 702L607 703L604 707L618 703L617 696z"/>
<path style="fill:#b1aaa7; stroke:none;" d="M494 699L494 700L497 700L494 699z"/>
<path style="fill:#958e8f; stroke:none;" d="M499.667 700.333L500.333 700.667L499.667 700.333z"/>
<path style="fill:#8b827c; stroke:none;" d="M567 701L567 702L577 703L567 701z"/>
<path style="fill:#d7d1c9; stroke:none;" d="M411 702L410 726L418 728L411 702z"/>
<path style="fill:#423c38; stroke:none;" d="M447 702C449.086 709.762 450.205 721.91 440 725L440 728L462 731L460 720L472 731.262L492 735L474 717L495 711L495 708L476 707L477 711L462 717L468 708C464.737 703.377 452.514 702.159 447 702z"/>
<path style="fill:#c0bbb7; stroke:none;" d="M561 702L561 703L564 703L561 702z"/>
<path style="fill:#3c3732; stroke:none;" d="M573 723C569.086 723.578 565.757 725.139 562 726.25C552.291 729.122 544.992 719.761 553.105 712.329C556.15 709.539 560.647 706.679 564.961 707.458C567.442 707.905 570.03 710.404 572.645 709.342C575.475 708.192 575.734 704.57 576 702C564.489 702 549.188 703.566 540.015 711.329C535.058 715.525 531.343 723.041 536.434 728.772C542.902 736.053 570.786 733.242 573 723z"/>
<path style="fill:#b9b9b7; stroke:none;" d="M704 702C699.1 708.812 701 718.92 701 727L701 783L705 783L705 727L704 702z"/>
<path style="fill:#a2988c; stroke:none;" d="M454 703L454 704L459 704L454 703z"/>
<path style="fill:#b1aaa3; stroke:none;" d="M557 703L557 704L560 704L557 703z"/>
<path style="fill:#998e87; stroke:none;" d="M460 704L460 705L468 708C469.031 703.412 463.225 704.011 460 704z"/>
<path style="fill:#847d79; stroke:none;" d="M553 704L553 705L557 705L553 704z"/>
<path style="fill:#9c9a93; stroke:none;" d="M550 705L550 706L553 706L550 705z"/>
<path style="fill:#9d958a; stroke:none;" d="M476 706L476 707L481 707L476 706z"/>
<path style="fill:#817b76; stroke:none;" d="M548.667 706.333L549.333 706.667L548.667 706.333z"/>
<path style="fill:#7a706c; stroke:none;" d="M475.333 707.667L475.667 708.333L475.333 707.667z"/>
<path style="fill:#6b615b; stroke:none;" d="M480 707L480 708L495 708L480 707z"/>
<path style="fill:#a59f93; stroke:none;" d="M512 707L512 708L525 708L512 707z"/>
<path style="fill:#7f776a; stroke:none;" d="M525 707L525 708L529 708L525 707z"/>
<path style="fill:#3f3935; stroke:none;" d="M498 708L501 712L495 735L513 735L510 731C513.323 721.542 525.026 729.044 527 720L513 720C517.318 707.688 524.78 714.308 534 715L536 707L498 708z"/>
<path style="fill:#a39e9f; stroke:none;" d="M558 708L558 709L567 708L558 708z"/>
<path style="fill:#89847d; stroke:none;" d="M465 708L465 709L468 709L465 708z"/>
<path style="fill:#a9a4a0; stroke:none;" d="M495.333 708.667L495.667 709.333L495.333 708.667z"/>
<path style="fill:#a19fa1; stroke:none;" d="M568.333 708.667L568.667 709.333L568.333 708.667z"/>
<path style="fill:#7e7670; stroke:none;" d="M449.333 709.667L449.667 710.333L449.333 709.667z"/>
<path style="fill:#837b78; stroke:none;" d="M476.333 709.667L476.667 710.333L476.333 709.667z"/>
<path style="fill:#a39d9a; stroke:none;" d="M535.333 710.667L535.667 711.333L535.333 710.667z"/>
<path style="fill:#74706e; stroke:none;" d="M569.667 710.333L570.333 710.667L569.667 710.333z"/>
<path style="fill:#8f8a86; stroke:none;" d="M463 711L463 714L464 714L463 711z"/>
<path style="fill:#cfcecb; stroke:none;" d="M624 721L626 713C625.105 717.935 625.472 721.626 620 723L623 725L622 738L623 738L624 733L631 734L632 725L627 732L629 727L626 730L625 730L628 711C623.561 711.783 616.95 719.489 624 721z"/>
<path style="fill:#9b948f; stroke:none;" d="M448 712L447 716L448 716L448 712z"/>
<path style="fill:#a09795; stroke:none;" d="M500 712L500 715L501 715L500 712z"/>
<path style="fill:#918e88; stroke:none;" d="M516 712L516 713L528 713L516 712z"/>
<path style="fill:#898882; stroke:none;" d="M534 712L534 715L535 715L534 712z"/>
<path style="fill:#948e86; stroke:none;" d="M469.667 713.333L470.333 713.667L469.667 713.333z"/>
<path style="fill:#ada4a1; stroke:none;" d="M484.667 713.333L485.333 713.667L484.667 713.333z"/>
<path style="fill:#8f8d8f; stroke:none;" d="M528.333 713.667L528.667 714.333L528.333 713.667z"/>
<path style="fill:#877d75; stroke:none;" d="M467.667 714.333L468.333 714.667L467.667 714.333z"/>
<path style="fill:#7d766f; stroke:none;" d="M462 715L465 717L465 716L462 715z"/>
<path style="fill:#7d7771; stroke:none;" d="M465.667 715.333L466.333 715.667L465.667 715.333z"/>
<path style="fill:#c5c2b9; stroke:none;" d="M514 715L514 720L523 720L523 719L515 719L514 715z"/>
<path style="fill:#9b918f; stroke:none;" d="M499.333 716.667L499.667 717.333L499.333 716.667z"/>
<path style="fill:#807a76; stroke:none;" d="M474 717L474 719L476 717L474 717z"/>
<path style="fill:#87817a; stroke:none;" d="M446 718L446 721L447 721L446 718z"/>
<path style="fill:#7a7470; stroke:none;" d="M513.333 718.667L513.667 719.333L513.333 718.667z"/>
<path style="fill:#696564; stroke:none;" d="M548 718L548 722L549 722L548 718z"/>
<path style="fill:#8c8579; stroke:none;" d="M523 719L523 720L528 721L523 719z"/>
<path style="fill:#95938b; stroke:none;" d="M533 719L533 725L534 725L533 719z"/>
<path style="fill:#dbd5c9; stroke:none;" d="M331 720L331 783L347 783C347 761.496 354.622 730.528 331 720z"/>
<path style="fill:#6c6560; stroke:none;" d="M460 723L461 723L463 721C460.86 719.882 460.473 720.749 460 723z"/>
<path style="fill:#a6a09c; stroke:none;" d="M498 720L497 725L498 725L498 720z"/>
<path style="fill:#cfcfcd; stroke:none;" d="M633 732L634 732L638 724L632 742L631 742L631 739C624.735 739.715 624.052 743.273 624 749C639.253 744.992 639.697 736.676 640 722C633.58 722.724 633.021 726.157 633 732z"/>
<path style="fill:#afa79f; stroke:none;" d="M440 724L440 725L444 725L440 724z"/>
<path style="fill:#807f78; stroke:none;" d="M459.333 725.667L459.667 726.333L459.333 725.667z"/>
<path style="fill:#8b837e; stroke:none;" d="M553 726L553 727L564 726L553 726z"/>
<path style="fill:#827d78; stroke:none;" d="M511 726L510 731L511 731L511 726z"/>
<path style="fill:#918a84; stroke:none;" d="M441 728L441 729L444 729L441 728z"/>
<path style="fill:#aeabaa; stroke:none;" d="M569.667 728.333L570.333 728.667L569.667 728.333z"/>
<path style="fill:#cacac8; stroke:none;" d="M608 728L608 742L610 742L611 728L608 728z"/>
<path style="fill:#78706d; stroke:none;" d="M446 729L446 730L451 730L446 729z"/>
<path style="fill:#8e8883; stroke:none;" d="M495.333 729.667L495.667 730.333L495.333 729.667z"/>
<path style="fill:#d0ccc7; stroke:none;" d="M561 738L557 753C565.676 753.685 576.674 757.473 584.896 752.825C592.118 748.742 596.16 736.32 599 729L561 738z"/>
<path style="fill:#8a827c; stroke:none;" d="M452 730L452 731L462 732L452 730z"/>
<path style="fill:#888584; stroke:none;" d="M563 730L563 731L566 731L563 730z"/>
<path style="fill:#837873; stroke:none;" d="M488 731L488 732L491 732L488 731z"/>
<path style="fill:#a8a3a4; stroke:none;" d="M558 731L558 732L563 732L558 731z"/>
<path style="fill:#76716d; stroke:none;" d="M494 732L494 735L495 735L494 732z"/>
<path style="fill:#7a7674; stroke:none;" d="M543 732L543 733L553 733L543 732z"/>
<path style="fill:#b0aeae; stroke:none;" d="M553 732L553 733L558 733L553 732z"/>
<path style="fill:#867b78; stroke:none;" d="M476 733L476 734L479 734L476 733z"/>
<path style="fill:#726b66; stroke:none;" d="M479 734L479 735L489 735L479 734z"/>
<path style="fill:#938d8c; stroke:none;" d="M494 735L494 736L512 736L494 735z"/>
<path style="fill:#cac4be; stroke:none;" d="M620 783L645 783L645 751L646 751L646 783L662 783L662 741L632.004 755.775L620.603 763.274L620 783z"/>
<path style="fill:#c8c7c5; stroke:none;" d="M619 742L619 743C621.049 746.128 619.692 747.739 617 750L618 744L617 744L617 752C621.571 749.797 622.839 746.96 623 742L619 742z"/>
<path style="fill:#b8b0a9; stroke:none;" d="M645 751L645 783L646 783L645 751z"/>
<path style="fill:#d3ccc4; stroke:none;" d="M489 752L489 753L493 753L487 764L499 753L489 752z"/>
<path style="fill:#d4cec8; stroke:none;" d="M535 758C534.271 753.718 530.534 758.821 530 761C537.343 760.148 549.166 761.311 553 754L535 758z"/>
<path style="fill:#d3cdc8; stroke:none;" d="M514 754L500 759L501 756C496.804 757.022 494.9 758.749 494 763L515 762L515 763L508 763L508 764L520 764L520 765L515 771L520 768C527.211 772.304 535.792 768.62 538 761L534 766L529 766L528 766L522 766L525 763L525 762L523 761L525 760L525 759L523 755L514 759L516 754L514 754z"/>
<path style="fill:#d3cdc0; stroke:none;" d="M390 758L390 783L495 783L495 782C483.129 780.5 470.75 780.577 459 778.675C435.064 774.801 412.577 766.478 390 758z"/>
<path style="fill:#d2cbc5; stroke:none;" d="M539 763L537 768L539 768L538 771L545 763L542 765L539 763z"/>
</svg>
