<?xml version="1.0" standalone="yes"?>
<svg width="512" height="512">
<path style="fill:#000000; stroke:none;" d="M0 0L0 512L512 512L512 0L0 0z"/>
<path style="fill:#e3dbd2; stroke:none;" d="M92 13L92 61C97.9768 61 110.898 63.4277 115.682 59.3966C118.813 56.7583 118 51.633 118 48L118 17L102 17L102 13L92 13z"/>
<path style="fill:#f5d1a8; stroke:none;" d="M102 13L102 17L118 17L117 59L120 58L119 19C130.347 18.5127 148.965 21.2217 159 16C155.761 11.5093 149.042 13 144 13L102 13z"/>
<path style="fill:#fae9d2; stroke:none;" d="M158 13L169 19L168 13L158 13z"/>
<path style="fill:#fcfcfd; stroke:none;" d="M168 13C168.537 22.7219 185.572 38.8931 194 43C186.809 31.4531 182 27.0175 182 13L181 13L181 27L178 13L168 13z"/>
<path style="fill:#e9e4e1; stroke:none;" d="M178 13C178 17.7341 176.738 23.989 181 27L181 13L178 13z"/>
<path style="fill:#e7ddd9; stroke:none;" d="M182 13L183.024 29L193 44C203.225 40.1299 212.318 33.2111 223 30.1698C228.205 28.6877 233.997 28.067 235 22L230 22L230 20L259 14L235 13L182 13z"/>
<path style="fill:#fff0ae; stroke:none;" d="M242 17L242 18L252 20L252 17L260 16C260.729 19.4028 262.806 18.9865 266 19L269 23C266.47 24.9821 260.275 27.7132 264 31L264 32C261.232 32.6054 261.423 33.2888 262 36L259 35L264 39L263 44L266 45L267 44L266 35L273 35L273 37L275 37L276 36L276 34L274 34C275.952 28.4482 277.428 21.1136 272 17L272 21L270 15C266.241 14.4402 264.184 14.801 262 18L262 14L242 17z"/>
<path style="fill:#f4e6d8; stroke:none;" d="M260 14L262 18L270 15L272 21L272 17C276.704 22.3855 275.552 27.6887 274 34L276 34L276 36L270 41L277 39L280 48L281 48L278 29L296 32.571L319 32L319 36C324.609 31.2111 322 19.9551 322 13C302.469 13 279.005 9.47525 260 14z"/>
<path style="fill:#f4dfc2; stroke:none;" d="M322 13L323 32L333 26L332 13L322 13z"/>
<path style="fill:#f1e7e4; stroke:none;" d="M332 13L332 25C336.033 22.3855 335 17.386 335 13L332 13z"/>
<path style="fill:#f9dfb4; stroke:none;" d="M335 13L335 24C340.804 22.3695 343.583 22.5798 349 25L347 13L335 13z"/>
<path style="fill:#feebc8; stroke:none;" d="M347 13L348.971 27.0038L338 78L339 78L347 70C344.815 63.8796 347.284 47.8925 353.302 44.0278C357.312 41.4529 365.388 43 370 43L359 62L370 63L377 58L377 57C370.785 48.797 376.069 36.1189 381 29C374.369 29 357.886 31.994 354 26L353 26L353 30L351 30L353 13L347 13z"/>
<path style="fill:#faf1df; stroke:none;" d="M353 13L351 30L353 30L353 26L354 26L354 29L382 29C382 35.631 384.994 52.1141 379 56L379 57L405 55L407 58C402.384 70.274 404.931 80.5663 404.992 93.0008C405.027 100.391 403.001 107.546 403 115C407.586 116.264 414.398 118.104 416 123C422.123 120.539 420 111.569 420 106L420 55L407 55L407 13L353 13z"/>
<path style="fill:#e5e0e3; stroke:none;" d="M407 13L407 55L420 55L420 13L407 13z"/>
<path style="fill:#ffde70; stroke:none;" d="M124 18L124 19L147 21L157.411 22.6034L162 37L168 36L163 26L168 24L173 34L173 35L171 37L177 37L177 33L178 33L186 40C180.81 32.8099 173.379 20.8581 164.957 17.3441C160.168 15.3463 156.717 17.6148 151.985 17.946C142.745 18.5928 133.264 18 124 18z"/>
<path style="fill:#ffe374; stroke:none;" d="M252 17L252 20L247 20L247 21L250 24L257 21L257 32L254 32L254 33L259 37L259 35L262 36L264 32L264 31C261.824 27.2697 266.635 25.6124 269 23L266 19L260 16L252 17z"/>
<path style="fill:#ffda77; stroke:none;" d="M237 21L247 19C243.302 17.4488 239.279 17.4848 237 21z"/>
<path style="fill:#e4dcd8; stroke:none;" d="M119 19L119 56C132.509 50.7224 128 30.8205 128 19L119 19z"/>
<path style="fill:#ffda28; stroke:none;" d="M238 24L239 32L246 27L250 35L249 32L257 32L257 21L250 24C247.868 17.582 240.25 17.8805 238 24z"/>
<path style="fill:#f5ebdc; stroke:none;" d="M128 20L126 51C130.118 49.8468 132.11 49.648 135 53L137 53L138 52L138 50C132.59 44.27 135 32.4736 135 25L159 25C156.409 17.1933 135.201 21.7144 128 20z"/>
<path style="fill:#ffe9c3; stroke:none;" d="M169 20L174 25L169 20z"/>
<path style="fill:#edd0a6; stroke:none;" d="M230 20L230 22L235 25L236 25L237 20L230 20z"/>
<path style="fill:#ffd051; stroke:none;" d="M238 20C234.987 23.9808 234.615 28.2701 236 33C238.383 30.4198 241.098 26.8348 238 24L238 20z"/>
<path style="fill:#ffefd4; stroke:none;" d="M258 21L258 26L261 21L258 21z"/>
<path style="fill:#ffd72f; stroke:none;" d="M320 37L323 39L334 33L333 39L335 39C335.437 32.6192 339.378 29.4759 345 27L344 33L348 26L339 27L339 26L343 23C333.866 21.5372 323.628 28.9257 320 37z"/>
<path style="fill:#ffe768; stroke:none;" d="M342 22L339 26L339 27L348 26L338 49L340 58C332.752 63.1677 337.292 77.2321 334 85C339.881 83.0541 338.402 75.2013 339.248 70C341.746 54.6308 346.833 40.2193 350 25L342 22z"/>
<path style="fill:#ffd93b; stroke:none;" d="M163 26C166.587 29.2298 167.796 32.3864 166 37L173 38L173 37L173 35L173 34L168 24L163 26z"/>
<path style="fill:#ddd8db; stroke:none;" d="M135 25L138 55L147 56L146 49L155 49C155.436 44.1903 162.232 37.5154 160.377 33.314C157.301 26.3449 141.894 34.722 137 26L159 26L135 25z"/>
<path style="fill:#f3d8b9; stroke:none;" d="M137 26C139.922 33.9471 152.961 31 160 31C158.635 22.823 143.463 26 137 26z"/>
<path style="fill:#f8d8b0; stroke:none;" d="M234 26L204 37.76L194.998 45.0934L200 58L201 58L201 53L205 54L212 47L214 48L215 45L218 47L219 44C222.053 46.8689 224.326 47.1556 226 43L230 43L229 40L237 44L238 44L234 26z"/>
<path style="fill:#ffcf01; stroke:none;" d="M240 32L237 31L237 38L241 38L241 54L240 51L239 51L239 58L248 57L245 60L254 60L254 67L261 62L263 59L263 58C261.025 54.6988 256.586 46.5788 259 44L256 43L255 31L249 32L250 35L246 27C242.171 27.3044 240.827 28.2052 240 32z"/>
<path style="fill:#ffc200; stroke:none;" d="M335 39L333 39L334 33L323 39L322 36L319 39L322 39L322 40C314.276 45.9115 312.239 52.4152 311 62L310 57C305.792 53.3369 303.497 48.5113 305 43L301 44L303 40L303 39L299 42L294 42L297 37L297 36C290.18 37.0783 286.526 45.781 285 52L282 51L283 58L293 57L311.571 72L322 93C324.272 84.6651 330.359 87.5121 337 86L337 85L332 81L335 80L335 55L335 53L337 52L335 45L340 47L345 27C338.686 28.8799 335.202 32.3262 335 39z"/>
<path style="fill:#ffe88c; stroke:none;" d="M177 28C179.358 34.8908 187.744 45.0882 195 47C191.15 39.5395 184.526 31.8525 177 28z"/>
<path style="fill:#fcd286; stroke:none;" d="M278 29L280 45L281 45L287 37C290.981 39.6557 293.335 35.8058 297 34L278 29z"/>
<path style="fill:#e6e6ec; stroke:none;" d="M381 29C373.173 37.0897 375 46.4171 375 57L382 56L381 29z"/>
<path style="fill:#ffe474; stroke:none;" d="M299 32L299 33L305 35L306 45L310 49L311 49L314 39L312 39L314 33L315 33L317 36L315 42C318.797 39.5434 319.259 36.3206 319 32L299 32z"/>
<path style="fill:#ffc400; stroke:none;" d="M177 33L177 37L173 36L170 38C174.737 44.7304 192.461 72.5553 199 59L189 52L189 51C193.687 43.9962 181.95 36.8963 177 33z"/>
<path style="fill:#ffcb30; stroke:none;" d="M293 35L293 36L297 36L297 37L294 42L299 42L303 39L303 40L301 44L305 43L303 45L304 50C309.968 46.3499 304.278 40.8008 305 35L293 35z"/>
<path style="fill:#ffe050; stroke:none;" d="M314 33L312 39L314 39L311 49L310 49L309 45L308 45L305 49L310 57L308 59L308 60L311 62L313.148 49.4252L322 39L318 38L315 42L317 36L314 33z"/>
<path style="fill:#fff098; stroke:none;" d="M161 34L156 43C160.9 41.8528 163.4 40.6917 167 45L171 43C171.894 46.3748 173.159 50.2871 177 48L189 62L178 46L161 34z"/>
<path style="fill:#ffe469; stroke:none;" d="M266 35L267 44L266 45L263 44L264 39L259 37L262 50L268 45L269 53L274 50L279 54L280 50C275.236 50 275.369 42.5061 278 40L270 41L273 35L266 35z"/>
<path style="fill:#ffd457; stroke:none;" d="M253 36L256 39L253 36z"/>
<path style="fill:#ffd322; stroke:none;" d="M258 37L256 43L259 44L256 45L263 58L263 59L261 62L258 61L255 72L261 71L260 66L263 62L268 58L272 62L275 58L275 57L272 53L277 55L274 50L269 53L268 45L262 50L258 37z"/>
<path style="fill:#ffc464; stroke:none;" d="M287 37C283.771 41.9045 276.807 47.4825 285 52L291 39L287 37z"/>
<path style="fill:#ffd761; stroke:none;" d="M175 38L175 40L177 40L177 38L175 38z"/>
<path style="fill:#facd97; stroke:none;" d="M238 38L238 44L237 44L229 40L230 43L226 43C223.832 46.4219 222.218 46.2133 219 44L218 47L215 45L214 48L212 47L205 54L201 53L201 60C196.335 62.3483 194.069 64.4099 189 62L192 69L197 64L199 66L200 66L204 64L205 71C214.721 67.9185 214.416 72.8994 223 75L223 74L219 64L217 65L211 56L238 57L241 38L238 38z"/>
<path style="fill:#fef9ec; stroke:none;" d="M168 39L168 40L177 47L168 39z"/>
<path style="fill:#ffe15b; stroke:none;" d="M155 49L146 49L146 50L156 51C156.636 47.0067 158.007 45.6359 162 45L162 48L167 48L168 52L172 47L171 43L167 45C163.117 37.9577 155.521 42.2303 155 49z"/>
<path style="fill:#ffe999; stroke:none;" d="M275 41L278 51L281 53L282 53L278 41L275 41z"/>
<path style="fill:#ebe5ea; stroke:none;" d="M361 84L361 78L365 78L367 66L357 66L369 63L369 62L359 62L370 43C365.455 43 356.368 41.2581 352.56 44.0278C339.422 53.5844 347.001 80.3306 361 84z"/>
<path style="fill:#ffda3a; stroke:none;" d="M156 51L159 49L160 54L166 50L166 57L168 55C171.935 55.9428 173.886 54.9392 175 51L171 50L172 47L168 52L167 48L162 48L162 45C157.635 45.3401 156.34 46.6353 156 51z"/>
<path style="fill:#ffe064; stroke:none;" d="M191 45L199 54L191 45z"/>
<path style="fill:#fdbf4c; stroke:none;" d="M291 45L287 53L288 53L293 45L291 45z"/>
<path style="fill:#ffdc2f; stroke:none;" d="M335 45L337 52L335 55L335 80L332 81L333 85C340.36 77.7934 332.655 65.6915 340 58L338 49L340 49L340 47L335 45z"/>
<path style="fill:#ffc024; stroke:none;" d="M238 57L234 57L234 58L239 58L239 51L240 51L241 54C244.45 47.7979 238.007 47.7892 238 57z"/>
<path style="fill:#ffeb6f; stroke:none;" d="M171 49L171 50L175 51C175.336 55.2484 176.622 57.0015 181 57C181.372 61.8932 184.715 67.1561 190 67L177 48L175 50L171 49z"/>
<path style="fill:#ffd637; stroke:none;" d="M191 48L189 51L189 52L200 61C200.343 54.8399 195.727 51.2999 191 48z"/>
<path style="fill:#ffe9b4; stroke:none;" d="M126 51L126 52L132 51C132.396 62.9208 146.497 57.2188 154 57L154 55L138 55L139 52L135 53C132.706 48.8576 130.065 49.3242 126 51z"/>
<path style="fill:#feba00; stroke:none;" d="M158 49C152.765 57.7642 145.834 75.8569 154 84L155 75L156 75L162 75L158 82L160 91L165 91L170 88L172 81L175 86L178 85L184 91C187.742 90.5712 194.092 93.1502 195 89L210 104L211 101L212 101L217 105L217 104C207.344 98.5794 204.694 87.7229 198.836 79.419C193.7 72.137 182.594 67.2701 181 57L175 54L174 54L173 54L166 57L166 50L160 54L158 49z"/>
<path style="fill:#ffe789; stroke:none;" d="M312 49L312 54L313 54L314 49L312 49z"/>
<path style="fill:#f9d05a; stroke:none;" d="M122 103L119 110C120.91 111.274 122.482 114.275 123 110L129 125L132 123L135 131L133 122L139 123L137 115L138 115L141 123L144 121L145 124L149 122C149.691 115.149 148.258 103.761 140 102L139 98L139 97L139 96L141 94L133 92L140 90L136 89L139 88L138 84C124.075 85.4518 124.512 75.4781 128 64L131 65C135.023 59.6125 132.397 57.0486 132 51C113.234 54.6932 114.913 67.4649 115.975 83C116.392 89.1028 116.658 99.2546 122 103z"/>
<path style="fill:#e2bf8e; stroke:none;" d="M147 51L147 55L155 56L156 51L147 51z"/>
<path style="fill:#fff9da; stroke:none;" d="M280 51L281 58L282 58L280 51z"/>
<path style="fill:#fff1b7; stroke:none;" d="M279 52L277 54L273 61L280 65C280.476 71.3286 298.361 75.9791 299 73L310 75L306 68L305 68L305 70L304 70L304 62L293 57L281 58L279 52z"/>
<path style="fill:#ffd445; stroke:none;" d="M272 53L275 57L275 58L272 58L272 62L269 60L268 60L266 65C269.447 64.8954 272.521 64.855 273 61L278 56L272 53z"/>
<path style="fill:#fdca79; stroke:none;" d="M282 53L282 57L283 57L282 53z"/>
<path style="fill:#ffac07; stroke:none;" d="M214 55L214 56L221 64L223 65C227.006 64.1191 233.914 58.3091 237.682 60.287C244.203 63.71 236.975 72.3943 248 73C248.138 76.2026 248.94 77.0406 252 78L252 85L255 85L260.977 94.2986L270 111L269 114L273 114C275.698 118.774 279.877 119.824 285 121L292 122L285 104L284 104C280.328 106.963 278.173 104.01 278 100L273 102L274 96C263.513 99.4563 267.183 89.6998 261 85L262 77L258 81L256 81L254 60L245 60L248 57L214 55z"/>
<path style="fill:#ffe981; stroke:none;" d="M375 63L381 59L381 61C387.102 59.1002 392.908 58.2642 396 65L399 64L400 66L400 67C397.004 69.8509 399.731 74.5965 401 78L396 82L400 82L400 106L401 106L405 86C400.369 78.6187 405.004 65.6632 407 58L405 55C396.177 56.0995 386.802 55.8813 378.004 57.3055C374.259 57.9118 370.873 60.2681 375 63z"/>
<path style="fill:#fee5aa; stroke:none;" d="M211 56L217 65L219 64L224 79L229 83C232.048 74.4046 219.398 57.171 211 56z"/>
<path style="fill:#fdd476; stroke:none;" d="M214.667 56.3333L215.333 56.6667L214.667 56.3333z"/>
<path style="fill:#ffde76; stroke:none;" d="M134 58L136 70L126 70C126.516 80.1021 125.363 86.8091 138 84L136 89L140 90L139 93L133 92L134 95L141 94L139 96L139 97L139 98L141 98L140 102L147 110L151 109L148 105L148 104L151 95L152 100L155 98L152 94L152 93C153.978 89.757 152.357 88.0614 149 87C149.353 83.4231 149.118 80.9987 146 79L148 75L148 74L142 73L147 68L144 67L144 63L147 63L147 59L134 58z"/>
<path style="fill:#dbb98e; stroke:none;" d="M147 57L147 62L151 62L151 66L152 66L154 57L147 57z"/>
<path style="fill:#ffc100; stroke:none;" d="M267 58L263 62L260 66L261 71C254.701 71.7251 254.704 75.5403 256 81L258 81L262 77L261 85C265.757 90.4587 264.389 100.535 274 96L273 102L278 100C277.212 102.678 280.097 109.876 283.278 105.667C285.785 102.348 281.666 88.7856 278 88L280 85L277 72L284 78L274 65L277 66C274.217 62.0567 270.144 64.7315 266 65L267 58z"/>
<path style="fill:#fcd168; stroke:none;" d="M287 58L287 59L291 59L287 58z"/>
<path style="fill:#f39709; stroke:none;" d="M223 63L222 63C223.693 75.727 232.771 82.7234 245 79L258.017 104.174L265 117L265 125L266 125L270 124C267.967 138.55 285.723 125.299 291 123L291 121L285 121L273 114L269 114L270 111L261.412 94.2986L255 85L252 85L252 78L248 73C237.621 71.84 243.883 62.4445 237.682 59.7863C232.2 57.436 228.547 65.5363 223 63z"/>
<path style="fill:#fddc83; stroke:none;" d="M294 59L294 60L298 60L294 59z"/>
<path style="fill:#ffd64b; stroke:none;" d="M375 63L371 60C367.421 66.1625 365.869 71.8712 373 76L373 71L374 74L382 76L376 76L377 86L378 86L378 83L382 91C387.884 87.5984 388.784 79.0497 387 73L390 65L395 65L395 82L401 78L400 67L400 66L399 64L396 65C393.991 57.8697 386.648 58.6075 381 61L381 59L375 63z"/>
<path style="fill:#f7b749; stroke:none;" d="M152 60L152 65L153 65L152 60z"/>
<path style="fill:#eed39f; stroke:none;" d="M92 61L92 63L114 63L114 68L92 68L92 70L114 70L114 73L92 73L92 85L116 85L115 61L92 61z"/>
<path style="fill:#ffe12f; stroke:none;" d="M134 61L131 65L128 64L126 70L136 70L134 61z"/>
<path style="fill:#e5e3e4; stroke:none;" d="M144 66L151 66L151 62C147.53 62.2482 145.039 62.4486 144 66z"/>
<path style="fill:#ebe3dc; stroke:none;" d="M92 63L92 68L114 68L114 63L92 63z"/>
<path style="fill:#ffdd99; stroke:none;" d="M357 66L368 67L369 63C364.614 63 359.615 61.967 357 66z"/>
<path style="fill:#fdc440; stroke:none;" d="M189 64L188 70L190 74L191 74L197 72L196 75L203 74C202.27 77.3932 203.084 81.4553 206 77L209 81L206 82L209 86L205 87L200 82L204 91L208 90L209 95L217 91L213 87L221 88L222 88L223 88L225 90L225 86L229 86L235 91L231 80L230 80L230 83L229 83L224 79L224 75C214.84 72.799 215.155 66.0962 205 71L204 64L197 64L192 69L189 64z"/>
<path style="fill:#fcf6ec; stroke:none;" d="M304 64L304 70L305 70L305 68L306 68L314 79L315 79C313.807 72.8357 309.677 66.7679 304 64z"/>
<path style="fill:#ffc635; stroke:none;" d="M274 65L284 78L277 72L280 85L278 88L285 106L286 106L291 101C293.64 107.22 298.346 104.925 304 106L304 103L302 99L294 100C292.038 96.347 289.874 95.4145 286 97C285.206 94.8767 282.836 91.6329 283.972 89.3426C284.742 87.791 299.702 79.2017 291 78L280 65L274 65z"/>
<path style="fill:#ffdb27; stroke:none;" d="M390 65L387 73C387.438 74.5427 391.362 88.9621 394.617 83.3773C396.247 80.58 394.685 68.9616 395 65L390 65z"/>
<path style="fill:#eac9ae; stroke:none;" d="M144 66L144 67L149 69C150.235 65.7248 146.499 66.0414 144 66z"/>
<path style="fill:#ffd84f; stroke:none;" d="M150 66L148 71L147 71L144 69L142 73L150 76L150 66z"/>
<path style="fill:#e8d8df; stroke:none;" d="M148 67L147 71L148 71L148 67z"/>
<path style="fill:#ffaf15; stroke:none;" d="M345 69L338 81L344 76L345 82L346 82L348 77L345 69z"/>
<path style="fill:#e6e0df; stroke:none;" d="M92 70L92 73L114 73L114 70L92 70z"/>
<path style="fill:#ffdd76; stroke:none;" d="M347 70L347 76L352 87L347 85L344 88L344 93L350 92L350 98L347 98L347 99L358 98L361 94L362 82L361 82C354.815 84.4043 351.289 73.2926 347 70z"/>
<path style="fill:#ffe97f; stroke:none;" d="M289 72L292 78L293 75L295 75L305.741 80.9807L317 91C313.915 77.844 311.832 76.3767 299 73L298 76L289 72z"/>
<path style="fill:#ffce08; stroke:none;" d="M366 71L365 78L361 78L359 92L368 92C370.761 88.5213 379.049 79.1274 369 80C371.029 75.8929 370.669 72.5122 366 71z"/>
<path style="fill:#ffd72c; stroke:none;" d="M373 71L373 76L369 80L383 90C382.561 87.5403 379.103 80.458 378 86L377 86L376 76L382 76L373 71z"/>
<path style="fill:#fbd177; stroke:none;" d="M191 72L191 76C197.413 77.5462 201.24 81.7563 205 87L209 86L206 82L209 81L206 77L205 80L203 74L196 75L197 72L191 72z"/>
<path style="fill:#fee8b9; stroke:none;" d="M146 75L146 77L149 77L149 75L146 75z"/>
<path style="fill:#f49a08; stroke:none;" d="M155 75C154.901 87.0881 156.233 96.953 154.633 109.015C153.801 115.279 154.495 120.719 149 125L149 126L149 127L149 129L149 130L154 131C155.924 122.904 159.434 119.85 167 117L160 96L161 96C162.773 99.0968 173.868 104.173 175 99L172 100L172 92L186 98L196 92L205 95L205 94L195 89L184 91L178 85L175 86L172 81L170 88C166.92 87.7169 165.856 87.9698 165 91L160 91L158 82C161.666 80.963 161.628 78.5237 162 75L155 75z"/>
<path style="fill:#ffcd16; stroke:none;" d="M293 75C293.524 86.2533 279.925 85.9493 286 97L288 95L294 100L302 99C301.146 101.697 301.149 102.386 304 103L304 106C298.472 104.009 294.552 106.678 291 101C285.023 103.951 285.389 108.207 287 114L288 114L289 108L297 113L312 107L311 98C316.011 96.5445 318.581 93.6925 323 98L326 95L322 89L322 93L320 90L319 90L319 93L306.545 80.9807L295 75L293 75z"/>
<path style="fill:#ff880d; stroke:none;" d="M341 76L335 88L345 83L344 76L341 76z"/>
<path style="fill:#f4c742; stroke:none;" d="M146 78L149 87C152.02 88.6214 152.688 89.6422 152 93L152 94L155 98L152 100L151 95L148 96L148 104L148 105L151 108L149 122L144 121L141 123L138 115L137 115L139 123L133 122L135 131L132 123L129 125L123 110L127 132L127 133L134 136L142.596 149.196L156.532 170.884L165 182L163 179L163 167L160 164L164 164L163 158L161 160L160 160L160 147L160 146C154.899 136.268 161.058 129.771 160 120L164 120L164 121L162 123L167 122L164 148C169.983 151.084 170.073 160.933 172 167L180 182L177 181C178.284 190.82 189.275 209.336 198 214L200 208L205 209C206.699 212.028 213 214.641 214 210L220 219L224 212C228.587 216.192 227.411 218.487 224 223L227 224L233 219L232 206L234 209L238 208L220 174L220 173C222.653 170.696 219.262 169.945 217 170L214 163L213 163L210 165C209.416 161.029 207.971 159.584 204 159L203 163L209 173L205 173L206 169L203 170L197 159L201 161L206 158L206 154L200 159L199 159L192 144L197 144C195.507 136.128 192.309 129.401 184 127L184 135L184 124L176 123L177 125C167.599 116.687 156.143 116.705 154 131L149 130L149 129L151 128L151 127L149 127L149 126L149 125C155.198 121.763 154.12 114.958 154.858 109.015C156.6 94.9803 157.891 89.4252 149 77L146 78z"/>
<path style="fill:#ffebb4; stroke:none;" d="M315 77L318 93L319 93L315 77z"/>
<path style="fill:#ffc900; stroke:none;" d="M346 77L345 83L352 85L350 77L346 77z"/>
<path style="fill:#ffc700; stroke:none;" d="M388 78C387.052 84.4178 381.879 90.9656 389 95L379 137L384 139L386 138L394 131L392 117L396.33 100.039L394 86L394 85L388 78z"/>
<path style="fill:#e66908; stroke:none;" d="M231 80L237 94L239 93L241 98L244 97L253.143 105.21L264 125L265 125L265 117L258.017 103.3L245 79L231 80z"/>
<path style="fill:#fde9bd; stroke:none;" d="M143 82C143.818 84.916 145.294 85.8736 147 83L143 82z"/>
<path style="fill:#ffde60; stroke:none;" d="M295 90L298 89C299.358 91.1759 300.801 92.9395 303 91L304 91L306 95L309 95L311 93L312 89C307.555 84.224 291.537 77.8401 295 90z"/>
<path style="fill:#ffdd4c; stroke:none;" d="M367 82L367 84L369 84L369 82L367 82z"/>
<path style="fill:#ffe85d; stroke:none;" d="M396 82L392 86C393.952 93.737 399.259 99.3635 398.487 108C398.11 112.219 393.278 117.599 397 121L397 130L398 130C402.452 115.35 400 97.221 400 82L396 82z"/>
<path style="fill:#ffe9a8; stroke:none;" d="M325 88L331 90L328 90L328 91L334 97L325 92C327.294 96.2973 330.073 99.2482 335 100L335 104L347 102L345 97L350 98L350 92L344 93L344 88L347 85L352 87C346.031 79.8352 342.033 86.2389 335 86.8604C330.998 87.214 327.812 84.1939 325 88z"/>
<path style="fill:#e2d5c5; stroke:none;" d="M92 85L92 92L116 92L116 85L92 85z"/>
<path style="fill:#f7b728; stroke:none;" d="M225 86L225 90L223 88L222 88L221 88L221 90L213 87L217 91L209 95L208 90L205 91C206.696 95.7198 212.198 102.352 217 104L217 105L212 101L211 101L214 109L219 105L222 109L221 112L225 107L221 106L224 100L219 97L225 96L229 99L232 95L233 101L235 98L236 103L241 102L236 89L235 89C233.367 92.2655 228.405 88.3807 229 86L225 86z"/>
<path style="fill:#ffd65f; stroke:none;" d="M366 89L370 87L366 89z"/>
<path style="fill:#fdf5db; stroke:none;" d="M373 86L384 93L384 100L387 99L385 101L386 108L387 108L389 95L373 86z"/>
<path style="fill:#ffe381; stroke:none;" d="M323 88L334 97L328 91L331 90L323 88z"/>
<path style="fill:#ffebaa; stroke:none;" d="M369 89L370 96L373 102L378 99L383 100L384 100L384 93C378.79 90.1138 375.067 86.9628 369 89z"/>
<path style="fill:#e3c699; stroke:none;" d="M116 88L116 92L92 92L92 97L118 97L116 88z"/>
<path style="fill:#fff4b6; stroke:none;" d="M404 88C401.665 97.9215 398.657 108.62 399.306 119C399.544 122.819 397.257 127.984 402 129L404 88z"/>
<path style="fill:#ffdd57; stroke:none;" d="M368 90L360 92L358 98L345 97L350 102L350 104L345 108L353 109L356 112L359 108L358 113L368 112L367 115L383 105L383 98L382 98L378 99L373 102L370 96L368 90z"/>
<path style="fill:#ffeb7f; stroke:none;" d="M374 90L374 95L382 96L374 90z"/>
<path style="fill:#f8c045; stroke:none;" d="M172 92L172 100L176 97L181 102L187 101L184 106L191 115L201 116L205 121C204.115 117.883 203.197 115.989 206 114L197 106L192 107C190.695 98.5636 179.868 92.8971 172 92z"/>
<path style="fill:#e6750a; stroke:none;" d="M196 92L186 96L186 99C193.403 100.92 202.134 107.921 207.54 113.34C209.921 115.726 212.466 121.525 216.1 122.079C222.195 123.007 215.293 112.503 214.513 111.001C209.569 101.474 205.666 96.5189 196 92z"/>
<path style="fill:#cf5001; stroke:none;" d="M238 93C239.866 103.341 249.519 119.389 256.071 127.687C258.258 130.457 261.882 130.962 263.929 134.059C267.411 139.327 267.642 147.521 273 151C274.376 131.515 256.487 109.878 244 97L241 98L238 93z"/>
<path style="fill:#fdf0c8; stroke:none;" d="M365 93L365 96L368 95L368 94L365 93z"/>
<path style="fill:#f3ae00; stroke:none;" d="M311 98L312 107L300 111L300 112L307 110L303 115L322 124L322 118L325 123C330.004 124.196 334.578 130.156 338 124L339 124L337.333 137L344 151L345 151L346 161C348.838 156.484 352.301 147.351 349.563 142.224C347.233 137.86 343.297 137.644 343 132C338.474 132 341 116.85 341 113L337 121L336 121L336 116L335 116L335 126L328 108L331 106L327 102L325 105L324 99L327 100L327 95L323 98C319.076 92.8289 315.821 95.7326 311 98z"/>
<path style="fill:#feda6a; stroke:none;" d="M386.667 94.3333L387.333 94.6667L386.667 94.3333z"/>
<path style="fill:#ffda26; stroke:none;" d="M396 94L392 117L393 130L394 131L397 130L397 121L398.687 109L396 94z"/>
<path style="fill:#f6a812; stroke:none;" d="M230 95L229 99L225 96L219 97L224 100L221 106L225 107L221 112L222 109L219 105L213 108C215.8 116.844 219.082 119.697 228 119L225 116L228 108L232 112L236 112L235 110L245 117L242 115L243 108L244 108L246 110L242 101L236 103L235 98L233 101L232 95L230 95z"/>
<path style="fill:#e67c0b; stroke:none;" d="M160 96L166 118L186 124L179 111L160 96z"/>
<path style="fill:#ffc834; stroke:none;" d="M327 96L327 100L324 99L325 105L327 102L331 106L328 108L335 126L335 112L337 107L341 108L345 102L335 104L335 100L327 96z"/>
<path style="fill:#e3dee0; stroke:none;" d="M92 97L92 124L95 125C99.0225 119.432 107.875 117.585 114 114.75C115.87 113.884 121.714 111.843 119 110L122 103C113.64 94.6579 103.525 97 92 97z"/>
<path style="fill:#f5af01; stroke:none;" d="M176 97L175 102L169 100C169.343 104.468 173.748 113.718 179 111L185 125C194.572 127.968 199.614 134.751 203 144L204 144L205 140L209 140L216.867 146.554L222 159L226 157L226 156L223.084 141.09L219 132C228.453 130.467 226.415 131.64 234 136L234 131L239 141L239 136L240 136L240 139C249.469 132.591 239.817 125.934 232.015 125.631C227.998 125.476 225.144 127.736 221 127L215 134L213 134L216 124L216 123L208 112L203 114L205 121L201 116L191 115L184 106L187 101L181 102L176 97z"/>
<path style="fill:#ffcb43; stroke:none;" d="M335.333 98.6667L335.667 99.3333L335.333 98.6667z"/>
<path style="fill:#fbb100; stroke:none;" d="M188 99L192 107L197 106L201 108L201 107L188 99z"/>
<path style="fill:#f8d67c; stroke:none;" d="M383 105L367 115L368 112C362.922 112.361 359.473 112.072 359 118L364 116L362 121L364 121L362 126L359 125L363 127L364 131C360.681 133.215 359.439 134.994 360 139L356 140L356 145L354 149L359 155L363 148L365 150L366 150L366 148L368 148L366 153L371 154L369 152L372 146L374 147L379 124L378 119L377 119L377 123L374 122L372 138L366 135L366 133C373.585 128.088 369.074 109.774 381 109L378 113C383.908 111.176 384.736 104.193 387 99C383.693 100.274 382.86 101.454 383 105z"/>
<path style="fill:#ffc803; stroke:none;" d="M341 108L337 107L335 112L336 121L337 121L341 113C340.997 117.189 337.694 131.204 343 132L350 145L354 145L353 141L354 117L348 120L350 111L344 109L344 107L350 104L350 102L349 101L341 108z"/>
<path style="fill:#feedbb; stroke:none;" d="M384 103C383.44 111.339 375.818 115.294 379 124L376 139L377 139C381.76 127.953 385.992 115.068 386 103L384 103z"/>
<path style="fill:#ffd331; stroke:none;" d="M344 107L351 116L348 120L354 117C353.475 121.577 353.374 129.803 357 133L360 128L359 125L362 126L364 121L362 121L364 116L359 118L359 108L356 112L353 109L344 107z"/>
<path style="fill:#ec9604; stroke:none;" d="M228 108L225 116L257 131L244 108L243 108L242 115L245 117L235 110L236 112L235 112L232 112L228 108z"/>
<path style="fill:#fec53b; stroke:none;" d="M289 108C288.82 121.785 293.299 119.51 305 119L303 115L307 110L300 112L301 109L297 113L289 108z"/>
<path style="fill:#ffdc4b; stroke:none;" d="M371 118L366 133L366 135L372 138L374 122L377 123L380 113L378 113L381 109L371 118z"/>
<path style="fill:#eba537; stroke:none;" d="M95 125L126 130C125.522 125.917 125.033 115.586 121.397 113.071C116.729 109.843 97.4009 120.781 95 125z"/>
<path style="fill:#ffdb76; stroke:none;" d="M349 113L351 116L351 113L349 113z"/>
<path style="fill:#ffda20; stroke:none;" d="M374 114L372 118L374 114z"/>
<path style="fill:#ffe27a; stroke:none;" d="M403 115C404.341 124.905 408.402 126.02 417 122L403 115z"/>
<path style="fill:#fada8b; stroke:none;" d="M163 118L163 119L177 125L176 123L177 123L184 124C178.026 119.571 170.423 117.176 163 118z"/>
<path style="fill:#db7808; stroke:none;" d="M322 118L322 139L323 139L323 135C326.777 133.735 326.569 131.666 326 128C335.58 134.883 336.615 145.016 334 156C339.563 163.343 337.097 182.7 338 192L349 198L357.009 176.213L370 158L371 158L367 180L368 180C374.304 167.033 383.544 151.524 385 137L384 137L383 139L379 135L378 135C376.366 141.894 373.596 152.571 367 156L368 159L363 165L358 163L351 183L346 180L349 181L349 177L346 179L347 173L342 170C344.475 169.487 344.575 169.396 344 167C347.487 163.961 345.471 155.299 345 151L344 151L343 153C340.391 142.32 337.574 135.045 339 124L338 124C333.746 128.725 330.254 123.708 325 123L324 118L322 118z"/>
<path style="fill:#ffd63c; stroke:none;" d="M403 118L401 128L407 126L403 118z"/>
<path style="fill:#fbe08c; stroke:none;" d="M215 127L216 127C219.406 122.969 222.837 122.057 228 122L227 126L234 122C227.155 119.1 217.586 118.544 215 127z"/>
<path style="fill:#fbf3dc; stroke:none;" d="M224 119L224 120L244 124C238.865 119.384 230.663 119.138 224 119z"/>
<path style="fill:#facc74; stroke:none;" d="M230 119L230 120L234 120L230 119z"/>
<path style="fill:#ffedc3; stroke:none;" d="M298 120L298 121L305 119L298 120z"/>
<path style="fill:#fee283; stroke:none;" d="M304 122L297 120L302 123L300 130L313 129C310.038 132.926 307.656 136.288 310 141L298 145L296 147C299.227 155.257 297.36 160.604 295 169L298 169L296 171L296 172L310 167L308 173L312 174C315.172 168.329 313.735 165.041 313 159L315 161L316 161L315 144L319 148C321.042 143.752 324.217 129.581 321.948 125.38C318.983 119.891 307.884 116.615 304 122z"/>
<path style="fill:#fcad23; stroke:none;" d="M160 120L164 129L167 122L162 123L164 121L160 120z"/>
<path style="fill:#ffd85e; stroke:none;" d="M277 138L281 142L292 141L292 131L295 132L298 137L299 136L296 129L304 136L305 136L305 134L306 134L307 139L313 129L300 130L302 123L297 120L283.603 127.213L277 138z"/>
<path style="fill:#fdd552; stroke:none;" d="M217 124L218 128L227 127L228 122L217 124z"/>
<path style="fill:#f8c94a; stroke:none;" d="M232 122L231 123L231 125C243.709 129.6 243.876 133.79 248 146L244 144L243 150L252 153L253 128L245 129L232 122z"/>
<path style="fill:#eeeeee; stroke:none;" d="M347 213L347 214C350.304 217.795 350.725 223.292 352.344 228C356.11 238.947 359.401 250.007 363.039 261C371.581 286.81 373.195 310.988 374.441 338C375.972 371.205 376.283 405.248 369.337 438C366.554 451.126 362.115 463.496 357.343 476C355.149 481.75 351.164 486.981 350 493L362 496L362 500L420 500L420 452L384 452L394.791 372L413 195L420 195L420 122C411.283 123.696 393.727 127.859 387.51 134.419C381.622 140.632 380.132 153.24 376.623 161C368.056 179.941 359.438 196.219 347 213z"/>
<path style="fill:#f1f1f1; stroke:none;" d="M93 123C87.7484 140.767 92 165.442 92 184L97 184L97 186L92 186L92 261L103 261L108 320L109 320L109 317L110 317C110.277 322.131 113.231 325.255 114.475 330C115.339 333.295 114.067 336.662 114.803 340C117.449 351.987 124.191 367.169 129.816 378C132.939 384.015 131.362 391.257 138 395C136.22 406.406 146.836 420.544 151.777 430.424C161.953 450.77 174 470.787 174 494L175 494L175 424L208 424L210 500L211 500L211 492L213 492L213 500L215 500L215 491L222 491L222 500L223 500L223 491L226 491L226 500L228 500L228 491L231 491L231 500L233 500L233 489L238 489C237.991 475.766 229.847 464.676 224.297 453C212.723 428.65 199.988 403.969 190 379C181.077 378.325 180.855 364.971 183 358L183 357C178.144 351.344 175.29 351 168 351L168 347L167 347L167 349L166 349L171 341C168.304 333.684 162.804 329.893 158.333 323.833C152.102 315.387 148.897 304.709 143.333 296C141.329 292.862 141.834 288.503 140.667 285C138.164 277.491 134.821 270.754 132.667 263C125.31 236.514 112.723 206.977 113.5 179C113.858 166.112 111.504 154.105 112.833 141C113.182 137.564 111.107 130.502 115 130L115 129L93 123z"/>
<path style="fill:#fcd773; stroke:none;" d="M235 123L235 124L245 129L249 128L249 127L246 123L235 123z"/>
<path style="fill:#e7740b; stroke:none;" d="M266 123L274 151L275 151C275.006 141.811 277.284 134.842 282 127C276.532 129.592 270.228 133.706 270 124L266 123z"/>
<path style="fill:#ffd76f; stroke:none;" d="M184 124L184 135C186.658 132.629 185.263 129.993 184 127L193 134L194 134L197 132L184 124z"/>
<path style="fill:#f7e9be; stroke:none;" d="M245 124L245 125L252 129L245 124z"/>
<path style="fill:#fbc421; stroke:none;" d="M214 125L213 134L215 134L221 127L227 128L227 127L218 128L218 125L214 125z"/>
<path style="fill:#e17009; stroke:none;" d="M250 125C253.899 133.064 253.072 138.289 253 147L261 151L262 151L260 144L265 144L258 130L255 131L250 125z"/>
<path style="fill:#f5b101; stroke:none;" d="M160 126L159 130L163 145L165 145L164 129L160 126z"/>
<path style="fill:#f1a901; stroke:none;" d="M125 127L124 131L130 132L125 127z"/>
<path style="fill:#f5c849; stroke:none;" d="M357 133L354 133L354 134L353 141C354.309 143.233 353.423 143.557 351 144L344 167L342 170L347 173L346 179L349 177L349 181L346 180L351 183L357 163C352.979 165.337 351.343 168.41 351 173L350 173C348.164 167.502 346.589 164.723 349 159L351 162L354 149C356.445 148.212 358.272 147.147 356 145L356 140L360 139L364 131L363 127C358.973 127.656 356.56 128.625 357 133z"/>
<path style="fill:#fbc734; stroke:none;" d="M281 128L277 138C281.533 136.488 282.786 132.306 281 128z"/>
<path style="fill:#cd6605; stroke:none;" d="M326 128C326.184 131.509 326.116 133.193 323 135L301 198L323 184.368L339 191C335.329 182.336 340.815 161.955 334 156C336.908 146.162 336.234 132.964 326 128z"/>
<path style="fill:#f1bc66; stroke:none;" d="M158 129L159 146L162 145L173 180L176 183L177 183L180 182L170.058 165.981L168.196 151.129L162.183 140L158 129z"/>
<path style="fill:#fbc951; stroke:none;" d="M219 132L224 144L226 144L229 139L225 139L228 137L228 129L219 132z"/>
<path style="fill:#e9ab3a; stroke:none;" d="M228 129L228 137L225 137L225 139L229 139C224.482 144.74 218.969 149.531 226 156L226 157C222.599 159.688 224.114 164.203 225 168L229 167L227 163L235 166L232 163L234 156L237 157L240 155L239 147L240 147L242 148L240 156L240 161L246 161L245 164L251 162L250 151L243 150L244 144L248 146L244 134C242.56 135.834 241.509 139.141 240 136L239 136L239 141L236 140C236.886 136.226 237.501 133.272 234 131L234 136L228 129z"/>
<path style="fill:#f7ca3a; stroke:none;" d="M296 129L299 136L298 137L292 131L292 141C288.599 140.15 283.227 138.814 281 142L277 138L276 138L277 152L274 151L270 164L278 168L281 167C281.137 169.916 281.017 171.63 284 172L282 174C284.075 180.757 294.863 181.399 299 176L288 178L287 172C295.063 169.628 298.578 163.515 298.972 155C299.147 151.222 296.208 149.079 299 146C294.182 144.254 293.875 142.495 296 138L301 139L300 135L305 137L305 144L310 139L306 134L305 134L305 136L304 136C302.769 131.855 300.13 130.027 296 129z"/>
<path style="fill:#ffffff; stroke:none;" d="M112 130C115.94 147.096 110.907 167.156 113.593 185.004C119.093 221.543 127.442 262.504 143.156 296C150.889 312.483 161.647 325.722 171 341C167.422 342.877 166.443 345.032 166 349L167 349C168.729 344.695 172.368 342.772 174.547 338.896C178.451 331.951 185.464 305.579 178 301C181.746 291.762 198.707 294.026 207 296L198 319C203.611 316.105 210.788 310.911 214.628 305.83C217.21 302.414 213.981 296.776 219.11 295.318C222.294 294.413 242.698 293.386 239.673 299.705C238.447 302.265 234.24 302.681 232 304.005C227.253 306.811 217.041 313.615 215.255 319.015C213.512 324.287 224.606 336.337 228.184 339.856C229.895 341.539 234.702 343.293 234.654 346.085C234.561 351.51 223.326 350.275 220 349.79C208.016 348.042 202.454 335.248 197 326L196 326C195.462 330.166 193.766 334.699 194.183 338.91C194.47 341.816 197.428 344.761 195.763 347.686C192.774 352.937 173.451 350 168 350L168 351C175.406 351.001 177.488 352.404 183 357L183 358C180.771 361.36 183.055 363.299 183.211 367C183.499 373.869 180.597 378.694 190 379C191.695 385.749 196.247 391.583 198.938 398C207.001 417.223 215.742 436.203 224.778 455C229.996 465.856 237.965 476.669 238 489L233 489L233 490L238 490L238 500L239 500L240 424C246.784 424 266.446 420.653 271.397 425.603C275.023 429.23 273 440.238 273 445L273 500L279 500L279 490L284 490L284 500L288 500L288 490L293 490L293 500L294 500L294 491L298 491L298 500L299 500L299 491L303 491L303 500L304 500L304 447C304 441.639 301.962 430.912 305.028 426.318C308.096 421.719 335.133 421.963 337.397 427.148C339.689 432.399 338 441.334 338 447L338 493L353 494L353 493L350 493C354.534 478.766 362.725 465.747 366.522 451C378.325 405.154 378.333 354.585 372.174 308.004C371.501 302.917 373.294 298.071 372.671 293C371.557 283.941 368.044 273.556 364.85 265C360.308 252.83 356.98 240.232 352.691 228C351.147 223.596 350.789 216.881 347 214L347 213C355.586 204.839 363.43 192.918 368 182C362.491 185.536 359.339 193.681 355.576 199C348.177 209.456 339.753 219.341 330 227.7C286.451 265.027 230.278 260.345 189 221.91C172.147 206.219 158.613 187.452 148.108 167C143.63 158.281 140.404 141.093 133.351 134.6C128.999 130.593 117.663 130.047 112 130z"/>
<path style="fill:#b53d00; stroke:none;" d="M258 130L271 161L266 154L265 154L268 178L269 178L270 162C274.693 158.698 273.997 151.227 274 146L273 146L273 151C266.738 145.027 268.068 131.592 258 130z"/>
<path style="fill:#e4bb86; stroke:none;" d="M123 131L123 132L126 132L123 131z"/>
<path style="fill:#ffe2a1; stroke:none;" d="M194 132L194 136L199 138L194 132z"/>
<path style="fill:#e7a233; stroke:none;" d="M253 132L253 140L254 140L253 132z"/>
<path style="fill:#f2ad3f; stroke:none;" d="M321 133L321 139L322 139L321 133z"/>
<path style="fill:#ffd738; stroke:none;" d="M313 134L310 139L313 134z"/>
<path style="fill:#fadfb7; stroke:none;" d="M356 134L355 139L356 134z"/>
<path style="fill:#dd8305; stroke:none;" d="M135 135L149 170L151 169C153.529 177.538 163.98 198.365 174 198C173.917 195.68 176.849 192.755 178.5 196C179.228 197.432 178.644 200.309 179 202L181 202L184 199L180 196C180.43 189.188 177.439 183.021 172 179L173 188L167 185L168 189C150.238 176.124 150.181 149.279 135 135z"/>
<path style="fill:#ffc700; stroke:none;" d="M300 135L301 139L296 138C290.551 145.964 299.148 145.438 305 144L305 137L300 135z"/>
<path style="fill:#ffdc61; stroke:none;" d="M196 136L197 144L192 144L199 159L200 159L206 154L206 158L201 161L197 159L203 170L206 169L205 173L209 173L203 163L204 159C207.613 159.944 209.056 161.387 210 165L213 164L209 151L200 136L196 136z"/>
<path style="fill:#e58c06; stroke:none;" d="M205 140C202.173 152.368 222.74 161.622 220 173L220 174C223.914 181.147 229.775 188.073 233.147 195.325C236.274 202.05 235.077 208.761 244 211C239.186 204.164 221.755 180.58 229 173L229 172L225 171L224 159L217.467 146.554L209 140L205 140z"/>
<path style="fill:#faca5e; stroke:none;" d="M275 141L277 152L275 141z"/>
<path style="fill:#ce5502; stroke:none;" d="M262 143L264 157L265 157L265 154L266 154L271 161L266 143L262 143z"/>
<path style="fill:#ec9703; stroke:none;" d="M252 144L250.637 161L255 183L256 184L264 185L265 175L268 176C267.978 168.416 266.47 148.514 260 144L262 151L261 151L252 144z"/>
<path style="fill:#fbe9c5; stroke:none;" d="M315 144L315 149L319 145L315 144z"/>
<path style="fill:#ecaa2d; stroke:none;" d="M160 145L158 147L160 160L161 160L163 158L164 164L160 164L163 167L163 179L165 182L152 167L152 168L168 189L167 185L173 188L162 145L160 145z"/>
<path style="fill:#ffc41e; stroke:none;" d="M204 145L208 151L204 145z"/>
<path style="fill:#f9bc45; stroke:none;" d="M372 146L369 152L371 153L372 153L372 146z"/>
<path style="fill:#da9023; stroke:none;" d="M239 147L240 155L237 157L234 156L232 163L235 166L227 163L229 167L225 168L225 171L230 173L231 169L238 173L237 166L242 177L241 174L246 177L247 180L248 180L249 174L244 176L248 164L249 164L249 170L250 170L251 162L245 164L246 161L240 161L240 156L242 148L239 147z"/>
<path style="fill:#fce3ab; stroke:none;" d="M302 147L303 151L307 147L302 147z"/>
<path style="fill:#ffd75c; stroke:none;" d="M318 148C307.506 157.507 321.958 159.039 318 148z"/>
<path style="fill:#f3be6c; stroke:none;" d="M363 148L359 155L354 153L351 162L349 159C345.936 164.115 347.616 168.048 350 173L351 173L358 158L363 153L369 154L369 153L366 153L368 148L363 148z"/>
<path style="fill:#f1c47d; stroke:none;" d="M381.333 148.667L381.667 149.333L381.333 148.667z"/>
<path style="fill:#f5af0c; stroke:none;" d="M208 153L217 170L220 169L210 153L208 153z"/>
<path style="fill:#fce1a5; stroke:none;" d="M300 156L303 153L300 156z"/>
<path style="fill:#e79625; stroke:none;" d="M363 153L358 158L357 164L360 163L363 165L367 156L371 155L363 153z"/>
<path style="fill:#eea600; stroke:none;" d="M167 155L171 167L172 167L167 155z"/>
<path style="fill:#ebcba0; stroke:none;" d="M378.333 156.667L378.667 157.333L378.333 156.667z"/>
<path style="fill:#f4bd00; stroke:none;" d="M188 176L191 177L189 184L197 184L197 183L193 182C195.952 177.655 198.632 175.676 204 176C203.271 172.597 201.194 173.013 198 173C197.441 165.205 191.184 165.818 195 158C182.29 157.079 195.008 169.661 188 176z"/>
<path style="fill:#c54701; stroke:none;" d="M370 158C368.539 161.419 367.909 165.379 365.427 168.242C362.597 171.509 357.873 173.067 356.005 177.105C352.213 185.306 350.816 194.844 346.736 203C341.364 213.738 325.222 230.554 315 237L315 238C321.78 236.238 327.864 230.452 333 225.829C346.942 213.281 362.788 195.511 367.034 177C368.441 170.863 371.981 164.442 370 158z"/>
<path style="fill:#fbc438; stroke:none;" d="M313 159L316 166L313 159z"/>
<path style="fill:#f5b84c; stroke:none;" d="M253 160C254.792 165.595 257.973 171.378 255 177C261.003 176.415 261.313 168.054 263 163L256 163L253 160z"/>
<path style="fill:#c87b0a; stroke:none;" d="M248 164L244 176L249 174L248 180L247 180L246 177L241 174L242 177L237 166L238 173L231 169C226.315 177.306 225.699 177.892 230 187L237 191L245 190L246 193C251.448 185.642 251.728 172.303 248 164z"/>
<path style="fill:#f4b206; stroke:none;" d="M271 164L271 173L275 166L271 164z"/>
<path style="fill:#d27507; stroke:none;" d="M250 165L255 192L260 192L262 186C266.12 188.527 268.252 195.645 266 200L267 198L266 198C264.118 203.921 270.832 204.945 275 203C273.197 209.113 274.3 215.09 281 217L264 240L259 234L258 235L262 253L282 252L270 242L276 229L280 231L280 225L283 227L283 218L289 215L293 206L286 205L289 201L283 204C282.434 197.264 283.709 193.777 287 188L274 194L274 195L276 196L276 197L274 199L270 198L270 176L269 176L268 178L267 175L265 175L264 185L256 184L255 183C255.877 178.19 254.083 167.882 250 165z"/>
<path style="fill:#f5c967; stroke:none;" d="M274 165L274 166L278 175L282 176L284 172L281 167L278 168L274 165z"/>
<path style="fill:#eeaa31; stroke:none;" d="M275 166L270 172L268 183C270.136 184.985 273.15 191.901 276 188L279 189L282 186L282 185L277 184L274 187L274 182C278.151 181.117 279.974 179.087 281 175L275 166z"/>
<path style="fill:#f8bb50; stroke:none;" d="M296 172L296 171L298 169L294 168L287 172L288 178L309 175L309 177L301 181L297 180L298 183C292.506 185.754 283.973 193.214 293 197L293 195L302 194L305 188L312 174L308 173L310 167L296 172z"/>
<path style="fill:#cc6404; stroke:none;" d="M150 169C151.302 176.214 156.335 182.97 160.355 189C170.656 204.453 183.668 221.605 200 231C199.52 214.395 187.339 200.623 179 187L178 187L180 196L184 199L181 202L179 202C178.742 198.42 174.931 190.482 174 198C162.736 197.792 156.337 176.542 150 169z"/>
<path style="fill:#bd5d02; stroke:none;" d="M250 170C250.001 178.94 251.145 205.417 264 200C264.052 205.034 264.263 210.323 269 213C267.071 220.456 267.085 223.187 272 229L273 229L281 217C274.835 214.138 273.51 209.335 275 203L273 205C269.404 203.869 264.643 202.303 267 198L266 200L267 200C268.238 195.551 266.472 187.798 262 186L260 192L258 190L257 190L257 192L255 192L252 170L250 170z"/>
<path style="fill:#e69603; stroke:none;" d="M298 179C291.378 178.838 282.516 183.311 279 189L276 188L268 183L270 198L274 199L274 195L274 194L287 188L283 194L298 183L297 180L301 181L309 177L309 175C303.827 173.48 300.54 173.907 298 179z"/>
<path style="fill:#f1b210; stroke:none;" d="M281 176L274 182L274 187L277 184C282.813 187.104 289.628 181.427 295 179L295 178C290.122 178.425 286.028 180.811 283 176L281 176z"/>
<path style="fill:#e9cfa2; stroke:none;" d="M174 179L176 182L174 179z"/>
<path style="fill:#ebad00; stroke:none;" d="M215 179L226 195L224 191L227 192L224 183L215 179z"/>
<path style="fill:#9c3c01; stroke:none;" d="M250 180L249.68 217.715L255 229L256 229L258 228L261 224L260 221C264.67 225.521 264.88 233.832 264 240C274.735 232.907 267.064 222.985 269 213C265.068 209.606 264.144 205.068 264 200C249.893 204.247 256.453 186.343 250 180z"/>
<path style="fill:#d0d3a1; stroke:none;" d="M92 184L92 186L97 186L97 184L92 184z"/>
<path style="fill:#fad24d; stroke:none;" d="M311 194L315 195L323 197L320 188C323.592 189.692 328.423 196.88 328.806 201C329.176 204.992 326.632 210.85 332 212L330 218L323 216L314 225L321 232L326 229C324.996 221.173 336.736 215.218 341 209L339 206C342.582 205.43 340.927 201.858 339 200L339 205L334 204L334 210C330.774 204.584 327.34 192.994 332 188C322.792 181.182 316.856 185.588 311 194z"/>
<path style="fill:#bd6503; stroke:none;" d="M231 186C233.037 197.201 239.224 210.749 250 216L250 187L249 187L246 193L245 190L237 191L231 186z"/>
<path style="fill:#fac31a; stroke:none;" d="M293 210L291 208L289 215L286 215L287 223C290.008 220.686 290.242 219.145 287 217L299 210L305 205L306 199L310 199L317 187C307.021 191.198 297.879 200.396 293 210z"/>
<path style="fill:#e79c2d; stroke:none;" d="M303 188L302 194L293 195L293 197L288 192L282 194L283 204L291 202C294.164 198.416 296.405 197.469 301 199L303 188z"/>
<path style="fill:#fbda64; stroke:none;" d="M320 188L323 197C320.396 195.365 317.541 192.497 315 195L310 194L310 199L306 199L305 205C301.171 205.304 299.827 206.205 299 210L295 210L293 216L298 219L297 223L305 223L310 226L310 222L302 214L311 213L312 219L318 213L330 218L332 212C324.483 207.178 331.083 192.237 320 188z"/>
<path style="fill:#fcd56c; stroke:none;" d="M334 210L334 204L339 205L339 200C341.496 202.496 342.443 206.861 339 206L341 209L339 212C343.527 207.973 346.301 203.081 345 197L341 199L336 189C325.26 187.577 329.305 205.131 334 210z"/>
<path style="fill:#fce5bd; stroke:none;" d="M335 190L341 199L345 195L335 190z"/>
<path style="fill:#eab76f; stroke:none;" d="M361 190L362 191L361 190z"/>
<path style="fill:#e8be7a; stroke:none;" d="M164 194L165 195L164 194z"/>
<path style="fill:#ecd2d4; stroke:none;" d="M413 195L394.791 371L384 452L420 452L420 195L413 195z"/>
<path style="fill:#fdf4e2; stroke:none;" d="M344 196C345.837 201.398 344.054 204.002 342 209C346.205 205.797 349.524 199.581 344 196z"/>
<path style="fill:#e89d00; stroke:none;" d="M286 205L293 206L292 210L293 210L301 200C296.118 195.163 289.346 200.344 286 205z"/>
<path style="fill:#e9bb94; stroke:none;" d="M347 198L347 201L348 201L347 198z"/>
<path style="fill:#cf824a; stroke:none;" d="M347.333 202.667L347.667 203.333L347.333 202.667z"/>
<path style="fill:#f3cb55; stroke:none;" d="M232 206L230 219L231 222C234.865 222.119 235.749 223.192 235 227L241 229L239 219L246 231L246 240L249 240L249 244L234 244C236.364 249.571 242.369 250.439 248 251L248 252L245 252L245 253L251 251L251 250L248 246L255 243L250 242L252 240L251 232L248 231L250 227L244 216L242 218L239 212L241 209L232 206z"/>
<path style="fill:#d8ab7b; stroke:none;" d="M350 206L351 207L350 206z"/>
<path style="fill:#e5b880; stroke:none;" d="M175 208L176 209L175 208z"/>
<path style="fill:#f4d56c; stroke:none;" d="M200 208L198 214L195 213C197.067 217.456 200.788 220.192 203.53 224.17C210.818 234.742 211.76 244.405 227 241L228 244L230 244C230.17 239.571 228.25 238.448 224 239L220 235L220 234L226 229C233.104 237.253 236.44 247.883 249 244L249 240L246 240L246 231L239 219L241 229L235 227C236.743 222.589 234.305 222.306 231 220L230 220L227 224L224 223C228.201 219.015 229.713 215.41 224 212L220 219L214 210C211.504 213.316 207.772 211.299 205 209L200 208z"/>
<path style="fill:#f7dd9c; stroke:none;" d="M300 208C301.097 211.883 303.098 212.725 307 213C305.822 209.118 303.952 208.301 300 208z"/>
<path style="fill:#e7ac3a; stroke:none;" d="M239 212L242 218L244 216L250 227L248 231L251 232L250 242L255 243L248 246L251 250L250 253L253 250L257 252L257 253L253 253L253 254L268 254L268 253L262 253L264 250L264 249L260 242L257 242L258 238L254 237C256.214 228.164 250.415 209.603 239 212z"/>
<path style="fill:#f2bd39; stroke:none;" d="M287 217L290 218L287 223L283 218L283 227L280 225L284 235L299 231L299 237L299 238L299 239L297 242L306 241L305 236C310.941 240.161 316.773 236.696 322 233L321 229L314 225C318.874 223.594 321.462 220.765 323 216L318 213L312 219L311 213L302 214C303.131 218.702 305.362 220.763 310 222L309 227L316 233L305 227L308 226L308 225L305 223L297 223L298 219L293 216L295 212L287 217z"/>
<path style="fill:#dda86e; stroke:none;" d="M345 212L346 213L345 212z"/>
<path style="fill:#fad97d; stroke:none;" d="M331 218L325 228L333 218L331 218z"/>
<path style="fill:#661100; stroke:none;" d="M198 219C198.628 228.883 202.553 235.366 212 239L200 219L198 219z"/>
<path style="fill:#791200; stroke:none;" d="M260 221L261 224L256 227L265 238C264.581 232.69 264.805 224.079 260 221z"/>
<path style="fill:#eeb321; stroke:none;" d="M208 223L207 227L210 234L211 234L210 227L212 224L208 223z"/>
<path style="fill:#dc8d17; stroke:none;" d="M254 226L254 237L258 238L257 242L260 242C259.923 245.578 260.508 247.745 264 249L254 226z"/>
<path style="fill:#f5bd05; stroke:none;" d="M305 226L305 227L316 233C313.776 227.817 310.449 226.45 305 226z"/>
<path style="fill:#e5b27d; stroke:none;" d="M329 228L330 229L329 228z"/>
<path style="fill:#d9ac73; stroke:none;" d="M197 229L198 230L197 229z"/>
<path style="fill:#f2c83b; stroke:none;" d="M225 229L220 234L220 235L224 239C227.833 239.053 229.917 239.933 230 244L228 244L227 241L219 244L235 248L236 244C233.427 237.461 231.313 232.662 225 229z"/>
<path style="fill:#e99f2b; stroke:none;" d="M276 229L272 240L278 242L277 238L281 237L286 249L296 249L299 246L297 239L296 239L292 244L285 241L286 237L282 236L284 232L281 230L276 229z"/>
<path style="fill:#e4a811; stroke:none;" d="M282 234L286 237L285 241L292 244L299 239L297 237L299 231L282 234z"/>
<path style="fill:#c39b7f; stroke:none;" d="M201 232L202 233L201 232z"/>
<path style="fill:#de9707; stroke:none;" d="M273 232L270 242C278.514 246.794 279.417 253.914 291 250L291 249L286 249L281 237L277 238L278 242L272 240L273 232z"/>
<path style="fill:#ac765f; stroke:none;" d="M204 234L205 235L204 234z"/>
<path style="fill:#de8a00; stroke:none;" d="M305 236L306 241L298 241L299 246L295 247L295 248L316 239L316 238L305 236z"/>
<path style="fill:#e29b00; stroke:none;" d="M221 243C226.844 249.348 239.617 251.925 248 252L221 243z"/>
<path style="fill:#eac66f; stroke:none;" d="M237.667 250.333L238.333 250.667L237.667 250.333z"/>
<path style="fill:#e89c00; stroke:none;" d="M253 250L252 251L252 252L252 253L257 253L257 252L255 250L253 250z"/>
<path style="fill:#e5b470; stroke:none;" d="M285 251L285 252L288 252L285 251z"/>
<path style="fill:#ebc692; stroke:none;" d="M281 252L281 253L284 253L281 252z"/>
<path style="fill:#efd0b6; stroke:none;" d="M258 254L258 255L272 255L258 254z"/>
<path style="fill:#c3afb5; stroke:none;" d="M92 261L92 263L103 263L103 261L92 261z"/>
<path style="fill:#a58d8f; stroke:none;" d="M92 263L92 264L103 264L92 263z"/>
<path style="fill:#d2a5ac; stroke:none;" d="M92 264L92 268L103 268L103 264L92 264z"/>
<path style="fill:#b29fa2; stroke:none;" d="M92 268L92 272L103 272L103 268L92 268z"/>
<path style="fill:#d8acb0; stroke:none;" d="M103 268L103 272L92 272L92 281L104 281L104 282L92 282L92 296L106 296L103 268z"/>
<path style="fill:#d798a0; stroke:none;" d="M92 281L92 282L104 282L92 281z"/>
<path style="fill:#abacac; stroke:none;" d="M320 294L320 295L325 295L320 294z"/>
<path style="fill:#828384; stroke:none;" d="M325 294L325 295L332 295L325 294z"/>
<path style="fill:#cecece; stroke:none;" d="M332 294L332 295L337 295L332 294z"/>
<path style="fill:#404243; stroke:none;" d="M180 295L180 296L206 296L180 295z"/>
<path style="fill:#929494; stroke:none;" d="M216 295L217 296L216 295z"/>
<path style="fill:#404243; stroke:none;" d="M217 295L217 296L240 296L217 295M245 295L245 296L292 296C279.823 290.891 258.265 295 245 295z"/>
<path style="fill:#959596; stroke:none;" d="M292 295L293 296L292 295z"/>
<path style="fill:#676868; stroke:none;" d="M316.667 295.333L317.333 295.667L316.667 295.333z"/>
<path style="fill:#050708; stroke:none;" d="M340 339C334.343 339.243 328.646 341.258 323 340.166C319.606 339.51 316.629 338.098 314.043 335.786C304.395 327.162 307.909 312.721 318.015 305.854C325.202 300.97 333.922 303.339 336 312L342 312C342.481 308.276 345.469 301.019 342.968 297.728C339.97 293.781 331.276 294.998 327 295C310.505 295.006 292.431 302.483 290.184 321C288.044 338.644 299.643 349.555 317 349.985C327.66 350.25 337.768 350.786 340 339z"/>
<path style="fill:#636465; stroke:none;" d="M338 295L338 296L341 296L338 295z"/>
<path style="fill:#d1969a; stroke:none;" d="M92 296L92 298L106 298L106 296L92 296z"/>
<path style="fill:#050708; stroke:none;" d="M179 296L182.173 307.015L176.072 335L168 349L196 349L197 343C191.773 338.537 194.297 331.521 197 326C206.063 345.412 214.654 349 235 349C234.169 338.543 214.418 331.529 215.015 320.09C215.587 309.147 238.223 305.926 241 296L216 296L215 301L218 302L218 304L197 320L206 296L179 296z"/>
<path style="fill:#aaabab; stroke:none;" d="M206.333 296.667L206.667 297.333L206.333 296.667z"/>
<path style="fill:#7f8081; stroke:none;" d="M244.333 296.667L244.667 297.333L244.333 296.667z"/>
<path style="fill:#050708; stroke:none;" d="M239 349L262 349L261 328L280 328L281 319L263 319L266 304C272.951 304 281.631 302.232 283 311L290 311L293 296L259 296L245.762 297.024L247.341 309.001L239 349z"/>
<path style="fill:#595a5b; stroke:none;" d="M312.667 296.333L313.333 296.667L312.667 296.333z"/>
<path style="fill:#5e5e5f; stroke:none;" d="M342.667 296.333L343.333 296.667L342.667 296.333z"/>
<path style="fill:#757677; stroke:none;" d="M215.333 297.667L215.667 298.333L215.333 297.667z"/>
<path style="fill:#4c4e4e; stroke:none;" d="M344 297L344 300L345 300L344 297z"/>
<path style="fill:#e0c4c9; stroke:none;" d="M92 298L92 310L106 310L106 311L92 311L92 332L108 332L106 298L92 298z"/>
<path style="fill:#b7b7b7; stroke:none;" d="M240.333 298.667L240.667 299.333L240.333 298.667z"/>
<path style="fill:#8e8f8f; stroke:none;" d="M292.333 298.667L292.667 299.333L292.333 298.667z"/>
<path style="fill:#4d4f4f; stroke:none;" d="M178.333 299.667L178.667 300.333L178.333 299.667z"/>
<path style="fill:#777776; stroke:none;" d="M305 299L306 300L305 299z"/>
<path style="fill:#767778; stroke:none;" d="M205 300L206 301L205 300z"/>
<path style="fill:#888989; stroke:none;" d="M303 300L304 301L303 300z"/>
<path style="fill:#808181; stroke:none;" d="M204 301L205 302L204 301z"/>
<path style="fill:#8e8e8e; stroke:none;" d="M237 301L237 302L240 302L237 301z"/>
<path style="fill:#979899; stroke:none;" d="M244 301L245 302L244 301z"/>
<path style="fill:#4f5051; stroke:none;" d="M217.333 302.667L217.667 303.333L217.333 302.667z"/>
<path style="fill:#6e6f6f; stroke:none;" d="M234 302L235 303L234 302z"/>
<path style="fill:#5a5b5b; stroke:none;" d="M246 302L247 303L246 302z"/>
<path style="fill:#6c6e6e; stroke:none;" d="M291 302L291 305L292 305L291 302z"/>
<path style="fill:#828283; stroke:none;" d="M232 303L233 304L232 303z"/>
<path style="fill:#7b7c7c; stroke:none;" d="M299 303L300 304L299 303z"/>
<path style="fill:#7d7e7f; stroke:none;" d="M322.667 303.333L323.333 303.667L322.667 303.333z"/>
<path style="fill:#c2c2c3; stroke:none;" d="M324 303L324 304L330 304L324 303z"/>
<path style="fill:#9d9e9e; stroke:none;" d="M343.333 303.667L343.667 304.333L343.333 303.667z"/>
<path style="fill:#616263; stroke:none;" d="M182 304L182 308L183 308L182 304z"/>
<path style="fill:#606161; stroke:none;" d="M216 304L217 305L216 304z"/>
<path style="fill:#5b5c5d; stroke:none;" d="M266 304L267 305L266 304z"/>
<path style="fill:#b3b3b4; stroke:none;" d="M267 304L267 305L281 305L267 304z"/>
<path style="fill:#6a6c6c; stroke:none;" d="M298 304L299 305L298 304z"/>
<path style="fill:#898989; stroke:none;" d="M319.667 304.333L320.333 304.667L319.667 304.333z"/>
<path style="fill:#6d6e6e; stroke:none;" d="M297 305L298 306L297 305z"/>
<path style="fill:#585959; stroke:none;" d="M333 305L334 306L333 305z"/>
<path style="fill:#acadad; stroke:none;" d="M200.333 306.667L200.667 307.333L200.333 306.667z"/>
<path style="fill:#808182; stroke:none;" d="M296 306L297 307L296 306z"/>
<path style="fill:#6f7070; stroke:none;" d="M316 306L317 307L316 306z"/>
<path style="fill:#6b6c6c; stroke:none;" d="M227 307L228 308L227 307z"/>
<path style="fill:#5f6161; stroke:none;" d="M247.333 307.667L247.667 308.333L247.333 307.667z"/>
<path style="fill:#494b4b; stroke:none;" d="M265 307L265 310L266 310L265 307z"/>
<path style="fill:#9e9e9f; stroke:none;" d="M290.333 307.667L290.667 308.333L290.333 307.667z"/>
<path style="fill:#919292; stroke:none;" d="M315 307L316 308L315 307z"/>
<path style="fill:#747575; stroke:none;" d="M211 308L212 309L211 308z"/>
<path style="fill:#a0a0a1; stroke:none;" d="M226 308L227 309L226 308z"/>
<path style="fill:#323435; stroke:none;" d="M335 308L335 312L336 312L335 308z"/>
<path style="fill:#a1a2a2; stroke:none;" d="M342.333 308.667L342.667 309.333L342.333 308.667z"/>
<path style="fill:#6e6f6f; stroke:none;" d="M181.333 309.667L181.667 310.333L181.333 309.667z"/>
<path style="fill:#3f4041; stroke:none;" d="M199 309L199 312L200 312L199 309z"/>
<path style="fill:#6a6a6b; stroke:none;" d="M210 309L211 310L210 309z"/>
<path style="fill:#8a8b8c; stroke:none;" d="M313 309L314 310L313 309z"/>
<path style="fill:#d898a0; stroke:none;" d="M92 310L92 311L106 311L92 310z"/>
<path style="fill:#9b9c9c; stroke:none;" d="M293 310L294 311L293 310z"/>
<path style="fill:#8a8b8c; stroke:none;" d="M246 311L246 314L247 314L246 311z"/>
<path style="fill:#a7a8a8; stroke:none;" d="M284 311L284 312L289 312L284 311z"/>
<path style="fill:#676868; stroke:none;" d="M221 312L222 313L221 312z"/>
<path style="fill:#848585; stroke:none;" d="M264.333 312.667L264.667 313.333L264.333 312.667z"/>
<path style="fill:#989a9a; stroke:none;" d="M292 312L293 313L292 312z"/>
<path style="fill:#959696; stroke:none;" d="M336 312L336 313L341 313L336 312z"/>
<path style="fill:#929293; stroke:none;" d="M180 313L180 316L181 316L180 313z"/>
<path style="fill:#7b7c7c; stroke:none;" d="M205 313L206 314L205 313z"/>
<path style="fill:#989999; stroke:none;" d="M220 313L221 314L220 313z"/>
<path style="fill:#6c6d6d; stroke:none;" d="M204 314L205 315L204 314z"/>
<path style="fill:#c5c6c6; stroke:none;" d="M264.333 314.667L264.667 315.333L264.333 314.667z"/>
<path style="fill:#545657; stroke:none;" d="M291.333 314.667L291.667 315.333L291.333 314.667z"/>
<path style="fill:#a6a7a7; stroke:none;" d="M310 314L311 315L310 314z"/>
<path style="fill:#9b9c9c; stroke:none;" d="M198 315L198 318L199 318L198 315z"/>
<path style="fill:#555656; stroke:none;" d="M245.333 316.667L245.667 317.333L245.333 316.667z"/>
<path style="fill:#b8b9b9; stroke:none;" d="M309.333 316.667L309.667 317.333L309.333 316.667z"/>
<path style="fill:#dedede; stroke:none;" d="M109 317L108 332L92 332L92 378L113 378C113.003 407.074 118.623 438.186 122.729 467C124.145 476.935 124.464 492.342 133.698 498.968C136.461 500.951 141.893 499.222 145 498.845C155.057 497.625 164.809 495.028 175 495C173.123 487.114 174.84 478.791 172.15 471C167.377 457.17 157.959 443.928 152.187 430.424C147.544 419.563 137.262 407.296 138 395L130.327 378L115.427 341L109 317z"/>
<path style="fill:#5f6061; stroke:none;" d="M215 317L216 318L215 317z"/>
<path style="fill:#4f5051; stroke:none;" d="M263.333 317.667L263.667 318.333L263.333 317.667z"/>
<path style="fill:#424344; stroke:none;" d="M290.333 317.667L290.667 318.333L290.333 317.667z"/>
<path style="fill:#676869; stroke:none;" d="M179.333 318.667L179.667 319.333L179.333 318.667z"/>
<path style="fill:#969797; stroke:none;" d="M199 318L200 319L199 318z"/>
<path style="fill:#a0a0a1; stroke:none;" d="M214 318L215 319L214 318z"/>
<path style="fill:#8f9090; stroke:none;" d="M264 318L264 319L281 319L264 318z"/>
<path style="fill:#757676; stroke:none;" d="M197.667 319.333L198.333 319.667L197.667 319.333z"/>
<path style="fill:#616262; stroke:none;" d="M213.333 319.667L213.667 320.333L213.333 319.667z"/>
<path style="fill:#c1c1c2; stroke:none;" d="M244 319L244 322L245 322L244 319z"/>
<path style="fill:#4f5051; stroke:none;" d="M281.333 319.667L281.667 320.333L281.333 319.667z"/>
<path style="fill:#747675; stroke:none;" d="M308.333 319.667L308.667 320.333L308.333 319.667z"/>
<path style="fill:#88898a; stroke:none;" d="M214 321L215 322L214 321z"/>
<path style="fill:#8b8b8c; stroke:none;" d="M289.333 321.667L289.667 322.333L289.333 321.667z"/>
<path style="fill:#cacacb; stroke:none;" d="M308 321L308 327L309 327L308 321z"/>
<path style="fill:#666767; stroke:none;" d="M178.333 323.667L178.667 324.333L178.333 323.667z"/>
<path style="fill:#37393a; stroke:none;" d="M289 323L289 329L290 329L289 323z"/>
<path style="fill:#9c9d9d; stroke:none;" d="M280 324L280 327L281 327L280 324z"/>
<path style="fill:#8e8f8f; stroke:none;" d="M217 325L218 326L217 325z"/>
<path style="fill:#636465; stroke:none;" d="M243 325L243 328L244 328L243 325z"/>
<path style="fill:#6d6e6e; stroke:none;" d="M177 327L177 330L178 330L177 327z"/>
<path style="fill:#424444; stroke:none;" d="M308.333 327.667L308.667 328.333L308.333 327.667z"/>
<path style="fill:#7f7f80; stroke:none;" d="M195.333 328.667L195.667 329.333L195.333 328.667z"/>
<path style="fill:#5b5e5e; stroke:none;" d="M219 328L220 329L219 328z"/>
<path style="fill:#525354; stroke:none;" d="M261 328L261 329L279 329L261 328z"/>
<path style="fill:#939495; stroke:none;" d="M220 329L221 330L220 329z"/>
<path style="fill:#838485; stroke:none;" d="M242.333 329.667L242.667 330.333L242.333 329.667z"/>
<path style="fill:#9a9b9b; stroke:none;" d="M289.333 329.667L289.667 330.333L289.333 329.667z"/>
<path style="fill:#5d5f5f; stroke:none;" d="M199 330L200 331L199 330z"/>
<path style="fill:#a8a9a9; stroke:none;" d="M309 330L310 331L309 330z"/>
<path style="fill:#99999a; stroke:none;" d="M260.333 331.667L260.667 332.333L260.333 331.667z"/>
<path style="fill:#626464; stroke:none;" d="M176.333 332.667L176.667 333.333L176.333 332.667z"/>
<path style="fill:#6d6f6f; stroke:none;" d="M200 332L201 333L200 332z"/>
<path style="fill:#737475; stroke:none;" d="M222 332L223 333L222 332z"/>
<path style="fill:#a9aaab; stroke:none;" d="M310 332L311 333L310 332z"/>
<path style="fill:#7f8080; stroke:none;" d="M194.333 333.667L194.667 334.333L194.333 333.667z"/>
<path style="fill:#a6a7a8; stroke:none;" d="M223 333L224 334L223 333z"/>
<path style="fill:#b7b7b8; stroke:none;" d="M241 333L241 336L242 336L241 333z"/>
<path style="fill:#a6a6a7; stroke:none;" d="M290 334L291 335L290 334z"/>
<path style="fill:#929393; stroke:none;" d="M259.333 335.667L259.667 336.333L259.333 335.667z"/>
<path style="fill:#757677; stroke:none;" d="M225 336L226 337L225 336z"/>
<path style="fill:#939394; stroke:none;" d="M291 336L292 337L291 336z"/>
<path style="fill:#6b6c6d; stroke:none;" d="M175 337L176 338L175 337z"/>
<path style="fill:#727474; stroke:none;" d="M193 337L193 341L194 341L193 337z"/>
<path style="fill:#6a6c6d; stroke:none;" d="M203 337L204 338L203 337z"/>
<path style="fill:#d3d3d3; stroke:none;" d="M259 337L259 341L260 341L259 337z"/>
<path style="fill:#8d8d8d; stroke:none;" d="M315 337L316 338L315 337z"/>
<path style="fill:#767778; stroke:none;" d="M240.333 338.667L240.667 339.333L240.333 338.667z"/>
<path style="fill:#8b8b8c; stroke:none;" d="M317 338L318 339L317 338z"/>
<path style="fill:#6e6f70; stroke:none;" d="M337 338L337 339L340 339L337 338z"/>
<path style="fill:#727374; stroke:none;" d="M174 339L175 340L174 339z"/>
<path style="fill:#606262; stroke:none;" d="M293 339L294 340L293 339z"/>
<path style="fill:#767677; stroke:none;" d="M319.667 339.333L320.333 339.667L319.667 339.333z"/>
<path style="fill:#727373; stroke:none;" d="M332 339L332 340L335 340L332 339z"/>
<path style="fill:#6b6d6d; stroke:none;" d="M205 340L206 341L205 340z"/>
<path style="fill:#5b5c5c; stroke:none;" d="M228 340L229 341L228 340z"/>
<path style="fill:#303132; stroke:none;" d="M324 340L324 341L329 341L324 340z"/>
<path style="fill:#5f5f5f; stroke:none;" d="M229 341L230 342L229 341z"/>
<path style="fill:#4d4e4f; stroke:none;" d="M339 341L339 344L340 344L339 341z"/>
<path style="fill:#a6a6a7; stroke:none;" d="M171 342L172 343L171 342z"/>
<path style="fill:#7e7f7f; stroke:none;" d="M195 342L196 343L195 342z"/>
<path style="fill:#9c9d9d; stroke:none;" d="M261 342L262 343L261 342z"/>
<path style="fill:#343535; stroke:none;" d="M233.667 343.333L234.333 343.667L233.667 343.333z"/>
<path style="fill:#757777; stroke:none;" d="M239.333 343.667L239.667 344.333L239.333 343.667z"/>
<path style="fill:#4d4e4f; stroke:none;" d="M262 343L262 346L263 346L262 343z"/>
<path style="fill:#424444; stroke:none;" d="M168.333 344.667L168.667 345.333L168.333 344.667z"/>
<path style="fill:#878889; stroke:none;" d="M235 344L235 347L236 347L235 344z"/>
<path style="fill:#8d8e8e; stroke:none;" d="M298 344L299 345L298 344z"/>
<path style="fill:#464748; stroke:none;" d="M196 345L196 348L197 348L196 345z"/>
<path style="fill:#9b9b9c; stroke:none;" d="M212 347L213 348L212 347z"/>
<path style="fill:#acadad; stroke:none;" d="M238.333 347.667L238.667 348.333L238.333 347.667z"/>
<path style="fill:#5e5f5f; stroke:none;" d="M306.667 348.333L307.333 348.667L306.667 348.333z"/>
<path style="fill:#959595; stroke:none;" d="M334.667 348.333L335.333 348.667L334.667 348.333z"/>
<path style="fill:#8f9091; stroke:none;" d="M168 349L168 350L196 350L168 349z"/>
<path style="fill:#929393; stroke:none;" d="M217 349L217 350L234 350L217 349M239 349L239 350L261 350L239 349z"/>
<path style="fill:#a4a4a4; stroke:none;" d="M309 349L309 350L312 350L309 349z"/>
<path style="fill:#989899; stroke:none;" d="M327 349L327 350L332 350L327 349z"/>
<path style="fill:#cfd0d0; stroke:none;" d="M316 350L316 351L324 351L316 350z"/>
<path style="fill:#898a8b; stroke:none;" d="M183 359L183 360L186 360L183 359z"/>
<path style="fill:#b8b8b8; stroke:none;" d="M211.667 359.333L212.333 359.667L211.667 359.333z"/>
<path style="fill:#747474; stroke:none;" d="M252.667 359.333L253.333 359.667L252.667 359.333z"/>
<path style="fill:#797a7a; stroke:none;" d="M325 359L325 360L328 360L325 359z"/>
<path style="fill:#454647; stroke:none;" d="M183 360L183 362L186 362L186 360L183 360z"/>
<path style="fill:#696969; stroke:none;" d="M210 360L211 361L210 360z"/>
<path style="fill:#000103; stroke:none;" d="M211 360L211 361L213 365L214 365C214.494 361.863 214.036 361 211 360z"/>
<path style="fill:#000000; stroke:none;" d="M252 360C251.306 365.152 246.81 373.596 252 377L254 360L252 360z"/>
<path style="fill:#a5a6a6; stroke:none;" d="M254.333 360.667L254.667 361.333L254.333 360.667z"/>
<path style="fill:#090b0b; stroke:none;" d="M267 360L266 368L267 368L269 360L267 360z"/>
<path style="fill:#b1b2b2; stroke:none;" d="M321.667 360.333L322.333 360.667L321.667 360.333z"/>
<path style="fill:#2e2f30; stroke:none;" d="M325 360L325 362L328 362L328 360L325 360z"/>
<path style="fill:#333435; stroke:none;" d="M209 361L211 363L211 361L209 361z"/>
<path style="fill:#000000; stroke:none;" d="M321 361L319 376L320 376L323 361L321 361z"/>
<path style="fill:#d2d2d2; stroke:none;" d="M183 362L183 363L187 363L183 362z"/>
<path style="fill:#000000; stroke:none;" d="M209 362L205 369L205 370L205 377C208.707 374.191 210.338 366.362 209 362z"/>
<path style="fill:#626364; stroke:none;" d="M251.333 362.667L251.667 363.333L251.333 362.667z"/>
<path style="fill:#9b9c9c; stroke:none;" d="M320 362L320 365L321 365L320 362z"/>
<path style="fill:#bfbfc0; stroke:none;" d="M325 362L325 363L328 363L325 362z"/>
<path style="fill:#919293; stroke:none;" d="M266 363L267 364L266 363z"/>
<path style="fill:#babbbb; stroke:none;" d="M322.333 363.667L322.667 364.333L322.333 363.667z"/>
<path style="fill:#000000; stroke:none;" d="M191 364L189 377L190 377L193 364L191 364z"/>
<path style="fill:#4b4c4d; stroke:none;" d="M195 364L195 368L196 368L197 364L195 364z"/>
<path style="fill:#515354; stroke:none;" d="M190.333 365.667L190.667 366.333L190.333 365.667z"/>
<path style="fill:#a4a5a5; stroke:none;" d="M209.333 365.667L209.667 366.333L209.333 365.667z"/>
<path style="fill:#a2a2a3; stroke:none;" d="M256.667 365.333L257.333 365.667L256.667 365.333z"/>
<path style="fill:#848585; stroke:none;" d="M267.333 365.667L267.667 366.333L267.333 365.667z"/>
<path style="fill:#c7c8c8; stroke:none;" d="M274.667 365.333L275.333 365.667L274.667 365.333z"/>
<path style="fill:#818283; stroke:none;" d="M285.667 365.333L286.333 365.667L285.667 365.333z"/>
<path style="fill:#000000; stroke:none;" d="M186 366L187 367L186 366z"/>
<path style="fill:#b4b5b5; stroke:none;" d="M187 366L186 368L188 368L187 366z"/>
<path style="fill:#7d7e7f; stroke:none;" d="M207 366L208 367L207 366z"/>
<path style="fill:#818383; stroke:none;" d="M213 366L214 367L213 366z"/>
<path style="fill:#000000; stroke:none;" d="M214 366L215 367L214 366z"/>
<path style="fill:#404243; stroke:none;" d="M250.333 366.667L250.667 367.333L250.333 366.667z"/>
<path style="fill:#6c6c6e; stroke:none;" d="M252 366L253 367L252 366z"/>
<path style="fill:#000000; stroke:none;" d="M256.667 366.333L257.333 366.667L256.667 366.333z"/>
<path style="fill:#131415; stroke:none;" d="M274.667 366.333L275.333 366.667L274.667 366.333z"/>
<path style="fill:#121414; stroke:none;" d="M285 366L285 368L287 366L285 366z"/>
<path style="fill:#7e7f7f; stroke:none;" d="M214 367L215 368L214 367z"/>
<path style="fill:#cbcccc; stroke:none;" d="M227.667 367.333L228.333 367.667L227.667 367.333z"/>
<path style="fill:#b0b1b1; stroke:none;" d="M256.667 367.333L257.333 367.667L256.667 367.333z"/>
<path style="fill:#9c9d9d; stroke:none;" d="M265 367L266 368L265 367z"/>
<path style="fill:#acacad; stroke:none;" d="M273 369L276 367L273 369z"/>
<path style="fill:#959696; stroke:none;" d="M286 367L287 368L286 367z"/>
<path style="fill:#575757; stroke:none;" d="M300.667 367.333L301.333 367.667L300.667 367.333z"/>
<path style="fill:#b7b7b7; stroke:none;" d="M308.667 367.333L309.333 367.667L308.667 367.333z"/>
<path style="fill:#a3a4a4; stroke:none;" d="M315 367L316 368L315 367z"/>
<path style="fill:#000000; stroke:none;" d="M314 371L312 371C309.672 367.566 307.215 369.262 304 371C298.371 362.291 294.983 381.53 303.097 374.816C304.102 373.984 305.035 372.881 306 372L306 377L307 377L310 369L309 377L310 377L314 372L314 376L315 376L318 367L314 371z"/>
<path style="fill:#797b7b; stroke:none;" d="M317 369L320 367L317 369z"/>
<path style="fill:#979899; stroke:none;" d="M321.333 367.667L321.667 368.333L321.333 367.667z"/>
<path style="fill:#c5c5c6; stroke:none;" d="M188.333 368.667L188.667 369.333L188.333 368.667z"/>
<path style="fill:#575959; stroke:none;" d="M191 370L194 368L191 370z"/>
<path style="fill:#7e7f7f; stroke:none;" d="M197 368L199 371L200 370L199 368L197 368z"/>
<path style="fill:#979899; stroke:none;" d="M204.333 368.667L204.667 369.333L204.333 368.667z"/>
<path style="fill:#535455; stroke:none;" d="M205.667 368.333L206.333 368.667L205.667 368.333z"/>
<path style="fill:#595959; stroke:none;" d="M209 368L209 370L211 370L211 368L209 368z"/>
<path style="fill:#161819; stroke:none;" d="M216 368L215 377L216 377C217.656 373.635 219.449 370.549 216 368z"/>
<path style="fill:#676767; stroke:none;" d="M219 370L222 368L219 370z"/>
<path style="fill:#000000; stroke:none;" d="M224 376L225 376L229 369C224.686 368.062 224.188 372.576 224 376z"/>
<path style="fill:#656768; stroke:none;" d="M229 368L229 371L230 371L229 368z"/>
<path style="fill:#0d0f0f; stroke:none;" d="M230 368L225 383C229.576 380.354 231.781 372.968 230 368z"/>
<path style="fill:#5c5d5e; stroke:none;" d="M231.333 368.667L231.667 369.333L231.333 368.667z"/>
<path style="fill:#000000; stroke:none;" d="M234 368L232 376L233 376L238 370L234 373L236 368L234 368z"/>
<path style="fill:#5a5b5b; stroke:none;" d="M235 370L238 370L237 368L235 370z"/>
<path style="fill:#444547; stroke:none;" d="M240.667 368.333L241.333 368.667L240.667 368.333z"/>
<path style="fill:#000000; stroke:none;" d="M243 368L243 372C245.146 370.42 245.17 369.538 243 368z"/>
<path style="fill:#636364; stroke:none;" d="M255 368L256 369L255 368z"/>
<path style="fill:#48494a; stroke:none;" d="M259 371L262 368L259 371z"/>
<path style="fill:#303132; stroke:none;" d="M265 368L265 369L270 371L265 368z"/>
<path style="fill:#000000; stroke:none;" d="M268.667 368.333L269.333 368.667L268.667 368.333z"/>
<path style="fill:#7e7f80; stroke:none;" d="M270 368L271 369L270 368z"/>
<path style="fill:#000000; stroke:none;" d="M277 368L276 377L277 377L279 368L277 368z"/>
<path style="fill:#909191; stroke:none;" d="M280 368L281 369L280 368z"/>
<path style="fill:#2b2c2d; stroke:none;" d="M278 371L283 369L278 371z"/>
<path style="fill:#000000; stroke:none;" d="M292 377L294 368C290.119 370.038 287.783 373.979 292 377z"/>
<path style="fill:#666768; stroke:none;" d="M294.667 368.333L295.333 368.667L294.667 368.333z"/>
<path style="fill:#000000; stroke:none;" d="M296 368L292 382L293 382L296 368z"/>
<path style="fill:#a0a1a1; stroke:none;" d="M303 368L304 369L303 368z"/>
<path style="fill:#737575; stroke:none;" d="M307 368L308 369L307 368z"/>
<path style="fill:#000000; stroke:none;" d="M185 369L186 377L187 369L185 369z"/>
<path style="fill:#5d5e5f; stroke:none;" d="M195 369L196 370L195 369z"/>
<path style="fill:#000000; stroke:none;" d="M196 369L197 377L198 377L196 369z"/>
<path style="fill:#707273; stroke:none;" d="M212 369L213 370L212 369z"/>
<path style="fill:#090b0c; stroke:none;" d="M213 369L212 377L213 377L213 369z"/>
<path style="fill:#000000; stroke:none;" d="M221 369L222 377L221 369z"/>
<path style="fill:#515353; stroke:none;" d="M222.333 369.667L222.667 370.333L222.333 369.667z"/>
<path style="fill:#ffffff; stroke:none;" d="M227 369L226 376L228 376L229 369L227 369z"/>
<path style="fill:#000000; stroke:none;" d="M240 369L238 377L243 369L240 369z"/>
<path style="fill:#b8b8b9; stroke:none;" d="M249 369L249 372L250 372L249 369z"/>
<path style="fill:#9c9c9d; stroke:none;" d="M251 369L251 372L252 372L251 369z"/>
<path style="fill:#424345; stroke:none;" d="M254.333 369.667L254.667 370.333L254.333 369.667z"/>
<path style="fill:#000000; stroke:none;" d="M255 369C254.113 372.281 253.042 374.838 256 377L255 369z"/>
<path style="fill:#858686; stroke:none;" d="M256 369L257 370L256 369z"/>
<path style="fill:#868788; stroke:none;" d="M258 369L259 370L258 369z"/>
<path style="fill:#ffffff; stroke:none;" d="M261 369C258.618 373.695 262.087 377.756 264 372L261 373L261 369z"/>
<path style="fill:#232425; stroke:none;" d="M262 369L262 372L263 372L262 369z"/>
<path style="fill:#585a5a; stroke:none;" d="M263.333 369.667L263.667 370.333L263.333 369.667z"/>
<path style="fill:#060707; stroke:none;" d="M265 369L264 377L265 374L270 377L271 369L270 369L266 373L265 369z"/>
<path style="fill:#111314; stroke:none;" d="M273 369L273 377L274 377L275 369L273 369z"/>
<path style="fill:#000000; stroke:none;" d="M282 369L283 377L282 369z"/>
<path style="fill:#5f6161; stroke:none;" d="M283 369L283 372L284 372L283 369z"/>
<path style="fill:#ffffff; stroke:none;" d="M293 369L291 376L295 369L293 369z"/>
<path style="fill:#969798; stroke:none;" d="M298 369L299 370L298 369z"/>
<path style="fill:#5b5c5d; stroke:none;" d="M300 369L301 370L300 369z"/>
<path style="fill:#ffffff; stroke:none;" d="M301 369L299 376C302.111 374.166 302.927 372.165 301 369z"/>
<path style="fill:#bfbfc0; stroke:none;" d="M302.333 369.667L302.667 370.333L302.333 369.667z"/>
<path style="fill:#adaeae; stroke:none;" d="M304.333 369.667L304.667 370.333L304.333 369.667z"/>
<path style="fill:#9e9f9f; stroke:none;" d="M306 369L307 370L306 369z"/>
<path style="fill:#ffffff; stroke:none;" d="M309 369L307 376C310.111 374.166 310.927 372.165 309 369z"/>
<path style="fill:#7f8181; stroke:none;" d="M316 369L317 370L316 369z"/>
<path style="fill:#ffffff; stroke:none;" d="M317 369L316 376L317 376L319 369L317 369z"/>
<path style="fill:#919192; stroke:none;" d="M184 370L185 371L184 370z"/>
<path style="fill:#bbbcbc; stroke:none;" d="M197 370L200 372L200 371L197 370z"/>
<path style="fill:#080a0b; stroke:none;" d="M199 370L200 371L199 370z"/>
<path style="fill:#444646; stroke:none;" d="M206.333 370.667L206.667 371.333L206.333 370.667z"/>
<path style="fill:#868788; stroke:none;" d="M224 370L225 371L224 370z"/>
<path style="fill:#898a8b; stroke:none;" d="M226 370L227 371L226 370z"/>
<path style="fill:#ffffff; stroke:none;" d="M234 373L237 370L234 373z"/>
<path style="fill:#88898a; stroke:none;" d="M245 370L246 371L245 370z"/>
<path style="fill:#000000; stroke:none;" d="M258 370L258 376L259 376L258 370z"/>
<path style="fill:#ffffff; stroke:none;" d="M266 373L269 370L266 373z"/>
<path style="fill:#636566; stroke:none;" d="M274 370L275 371L274 370z"/>
<path style="fill:#646566; stroke:none;" d="M188 371L188 375L189 375L188 371z"/>
<path style="fill:#5f6061; stroke:none;" d="M213 371L214 372L213 371z"/>
<path style="fill:#494b4b; stroke:none;" d="M220.333 371.667L220.667 372.333L220.333 371.667z"/>
<path style="fill:#797a7b; stroke:none;" d="M239 371L240 372L239 371z"/>
<path style="fill:#a0a1a2; stroke:none;" d="M257 371L258 372L257 371z"/>
<path style="fill:#aaabab; stroke:none;" d="M261 371L261 373L263 373L261 371z"/>
<path style="fill:#c9c9c9; stroke:none;" d="M263.667 371.333L264.333 371.667L263.667 371.333z"/>
<path style="fill:#6b6c6d; stroke:none;" d="M276.333 371.667L276.667 372.333L276.333 371.667z"/>
<path style="fill:#acadad; stroke:none;" d="M291.333 371.667L291.667 372.333L291.333 371.667z"/>
<path style="fill:#979898; stroke:none;" d="M294.333 371.667L294.667 372.333L294.333 371.667z"/>
<path style="fill:#b8b8b9; stroke:none;" d="M299.333 371.667L299.667 372.333L299.333 371.667z"/>
<path style="fill:#959696; stroke:none;" d="M307.333 371.667L307.667 372.333L307.333 371.667z"/>
<path style="fill:#a2a3a3; stroke:none;" d="M315 371L315 376L316 376L315 371z"/>
<path style="fill:#78797a; stroke:none;" d="M320.333 371.667L320.667 372.333L320.333 371.667z"/>
<path style="fill:#9a9b9b; stroke:none;" d="M190 372L190 375L191 375L190 372z"/>
<path style="fill:#898a8b; stroke:none;" d="M225 372L225 376L226 376L225 372z"/>
<path style="fill:#b9baba; stroke:none;" d="M228 372L228 375L229 375L228 372z"/>
<path style="fill:#b3b4b4; stroke:none;" d="M230 372L232 375L230 372z"/>
<path style="fill:#c8c8c8; stroke:none;" d="M243.667 372.333L244.333 372.667L243.667 372.333z"/>
<path style="fill:#7b7c7d; stroke:none;" d="M255 372L256 373L255 372z"/>
<path style="fill:#919293; stroke:none;" d="M270 372L271 373L270 372z"/>
<path style="fill:#4b4c4d; stroke:none;" d="M297.333 372.667L297.667 373.333L297.333 372.667z"/>
<path style="fill:#464849; stroke:none;" d="M304 372L305 376L306 376L304 372z"/>
<path style="fill:#818282; stroke:none;" d="M312 372L313 375L314 375L314 372L312 372z"/>
<path style="fill:#a3a3a4; stroke:none;" d="M318 372L319 373L318 372z"/>
<path style="fill:#b5b5b5; stroke:none;" d="M183 373L183 376L184 376L183 373z"/>
<path style="fill:#7b7c7c; stroke:none;" d="M185 373L185 376L186 376L185 373z"/>
<path style="fill:#8c8d8e; stroke:none;" d="M196 373L197 374L196 373z"/>
<path style="fill:#747576; stroke:none;" d="M198 373L199 374L198 373z"/>
<path style="fill:#626364; stroke:none;" d="M215.333 373.667L215.667 374.333L215.333 373.667z"/>
<path style="fill:#c7c8c8; stroke:none;" d="M217.333 373.667L217.667 374.333L217.333 373.667z"/>
<path style="fill:#b4b4b5; stroke:none;" d="M223.333 373.667L223.667 374.333L223.333 373.667z"/>
<path style="fill:#3f4142; stroke:none;" d="M253.333 373.667L253.667 374.333L253.333 373.667z"/>
<path style="fill:#9d9e9f; stroke:none;" d="M280 373L280 376L281 376L280 373z"/>
<path style="fill:#a3a4a5; stroke:none;" d="M302 373L303 374L302 373z"/>
<path style="fill:#6f7071; stroke:none;" d="M310 373L311 374L310 373z"/>
<path style="fill:#c1c2c2; stroke:none;" d="M320 373L320 376L321 376L320 373z"/>
<path style="fill:#989999; stroke:none;" d="M193 374L192 377L195 377L193 374z"/>
<path style="fill:#4c4d4e; stroke:none;" d="M205.333 374.667L205.667 375.333L205.333 374.667z"/>
<path style="fill:#b8b8b8; stroke:none;" d="M207.333 374.667L207.667 375.333L207.333 374.667z"/>
<path style="fill:#b5b5b6; stroke:none;" d="M219.333 374.667L219.667 375.333L219.333 374.667z"/>
<path style="fill:#696a6a; stroke:none;" d="M221.333 374.667L221.667 375.333L221.333 374.667z"/>
<path style="fill:#9fa0a0; stroke:none;" d="M233.333 374.667L233.667 375.333L233.333 374.667z"/>
<path style="fill:#7f8081; stroke:none;" d="M238 374L239 375L238 374z"/>
<path style="fill:#777879; stroke:none;" d="M257 374L256 377L259 377L257 374z"/>
<path style="fill:#c3c4c4; stroke:none;" d="M265 374L265 376L267 374L265 374z"/>
<path style="fill:#a2a3a4; stroke:none;" d="M282.333 374.667L282.667 375.333L282.333 374.667z"/>
<path style="fill:#626465; stroke:none;" d="M303 374L304 375L303 374z"/>
<path style="fill:#949595; stroke:none;" d="M311 374L312 375L311 374z"/>
<path style="fill:#a5a6a6; stroke:none;" d="M237.333 375.667L237.667 376.333L237.333 375.667z"/>
<path style="fill:#7c7d7d; stroke:none;" d="M259 375L260 376L259 375z"/>
<path style="fill:#7b7d7d; stroke:none;" d="M267 375L268 376L267 375z"/>
<path style="fill:#a2a3a3; stroke:none;" d="M277.333 375.667L277.667 376.333L277.333 375.667z"/>
<path style="fill:#c7c8c8; stroke:none;" d="M284 375L282 378L284 375z"/>
<path style="fill:#8d8e8f; stroke:none;" d="M289 375L290 376L289 375z"/>
<path style="fill:#313233; stroke:none;" d="M293 375L294 378L293 375z"/>
<path style="fill:#696a6b; stroke:none;" d="M297 375L298 376L297 375z"/>
<path style="fill:#444646; stroke:none;" d="M317 375L317 377L319 375L317 375z"/>
<path style="fill:#7f7f7f; stroke:none;" d="M185 377L185 378L189 377L185 377z"/>
<path style="fill:#646566; stroke:none;" d="M190.667 376.333L191.333 376.667L190.667 376.333z"/>
<path style="fill:#515152; stroke:none;" d="M195.667 376.333L196.333 376.667L195.667 376.333z"/>
<path style="fill:#626364; stroke:none;" d="M213 376L213 378L215 376L213 376z"/>
<path style="fill:#7d7e7f; stroke:none;" d="M216 376L217 377L216 376z"/>
<path style="fill:#848585; stroke:none;" d="M221 377L221 378L225 377L221 377z"/>
<path style="fill:#353535; stroke:none;" d="M225 376L225 377L228 377L225 376z"/>
<path style="fill:#8b8c8c; stroke:none;" d="M232 376L233 377L232 376z"/>
<path style="fill:#383939; stroke:none;" d="M233 376L233 377L237 377L233 376z"/>
<path style="fill:#9d9e9f; stroke:none;" d="M249 376L250 377L249 376z"/>
<path style="fill:#8d8e8e; stroke:none;" d="M252.667 376.333L253.333 376.667L252.667 376.333z"/>
<path style="fill:#28292a; stroke:none;" d="M259 376L259 377L263 377L259 376z"/>
<path style="fill:#878787; stroke:none;" d="M269 377L269 378L273 377L269 377z"/>
<path style="fill:#5f6060; stroke:none;" d="M274 376L274 378L276 376L274 376z"/>
<path style="fill:#484848; stroke:none;" d="M307.667 376.333L308.333 376.667L307.667 376.333z"/>
<path style="fill:#838485; stroke:none;" d="M314 376L315 377L314 376z"/>
<path style="fill:#121212; stroke:none;" d="M315.667 376.333L316.333 376.667L315.667 376.333z"/>
<path style="fill:#919293; stroke:none;" d="M319 376L320 377L319 376z"/>
<path style="fill:#262727; stroke:none;" d="M320 376L320 377L323 377L320 376z"/>
<path style="fill:#a4a5a5; stroke:none;" d="M190.667 377.333L191.333 377.667L190.667 377.333z"/>
<path style="fill:#888888; stroke:none;" d="M195.667 377.333L196.333 377.667L195.667 377.333z"/>
<path style="fill:#898a8b; stroke:none;" d="M205.667 377.333L206.333 377.667L205.667 377.333z"/>
<path style="fill:#c9c9ca; stroke:none;" d="M214.667 377.333L215.333 377.667L214.667 377.333z"/>
<path style="fill:#babbbb; stroke:none;" d="M225 377L225 378L228 378L225 377z"/>
<path style="fill:#929393; stroke:none;" d="M234.667 377.333L235.333 377.667L234.667 377.333z"/>
<path style="fill:#cacbcb; stroke:none;" d="M251.667 377.333L252.333 377.667L251.667 377.333z"/>
<path style="fill:#abacac; stroke:none;" d="M255.667 377.333L256.333 377.667L255.667 377.333z"/>
<path style="fill:#7d7d7e; stroke:none;" d="M259 377L259 378L262 378L259 377z"/>
<path style="fill:#8e8e8e; stroke:none;" d="M299.667 377.333L300.333 377.667L299.667 377.333z"/>
<path style="fill:#7b7c7c; stroke:none;" d="M307.667 377.333L308.333 377.667L307.667 377.333z"/>
<path style="fill:#989898; stroke:none;" d="M316 377L317 378L316 377z"/>
<path style="fill:#939393; stroke:none;" d="M320.667 377.333L321.333 377.667L320.667 377.333z"/>
<path style="fill:#dcc5c8; stroke:none;" d="M92 378L92 400L115 400L113 378L92 378z"/>
<path style="fill:#909191; stroke:none;" d="M294 379L295 380L294 379z"/>
<path style="fill:#5d5d5d; stroke:none;" d="M222 380L226 384L222 380z"/>
<path style="fill:#939494; stroke:none;" d="M228 380L229 381L228 380z"/>
<path style="fill:#5f6061; stroke:none;" d="M288.333 380.667L288.667 381.333L288.333 380.667z"/>
<path style="fill:#7d7e7f; stroke:none;" d="M293 381L294 382L293 381z"/>
<path style="fill:#515252; stroke:none;" d="M289 382L289 383L293 383L289 382z"/>
<path style="fill:#d4a0aa; stroke:none;" d="M92 400L92 424L117 424L117 427L92 427L92 446L119 446L115 400L92 400z"/>
<path style="fill:#d4858f; stroke:none;" d="M92 424L92 427L117 427L117 424L92 424z"/>
<path style="fill:#d66e78; stroke:none;" d="M175 424L175 500L176 500C176 476.202 171.491 447.14 177 424L175 424z"/>
<path style="fill:#e99098; stroke:none;" d="M177 424L177 425L208 425L177 424z"/>
<path style="fill:#f2969e; stroke:none;" d="M240 424L240 425L272 425L272 500C274.189 494.783 273 487.619 273 482L273 443C273 438.913 274.939 427.833 271.397 425.028C265.859 420.642 247.009 424 240 424z"/>
<path style="fill:#f3969f; stroke:none;" d="M305 424L305 425L337 425L305 424z"/>
<path style="fill:#d50215; stroke:none;" d="M176 425L176 495L177 495L177 426L206 426L206 492L207 492L207 425L176 425z"/>
<path style="fill:#dc3f4d; stroke:none;" d="M207 425L207 500L208 500L208 448L207 425z"/>
<path style="fill:#e53f4e; stroke:none;" d="M240 425L240 490L241 490L241 446L240 425z"/>
<path style="fill:#de0316; stroke:none;" d="M241 425L241 490L242 490L242 426L271 426L271 490L272 490L272 425L241 425z"/>
<path style="fill:#fad3d6; stroke:none;" d="M304 425L304 500L305 500L305 448L304 425z"/>
<path style="fill:#e51d2f; stroke:none;" d="M305 425L305 491L311 491L311 500L312 500L312 492L317 492L317 500L319 500L319 492L321 492L321 500L322 500L322 492L324 492L324 500L326 500L326 493L327 493L327 500L328 500L328 493L330 493L330 500L333 500L333 493L335 493L335 500L337 500L337 425L305 425z"/>
<path style="fill:#f7bdc2; stroke:none;" d="M337 425L337 500L338 500L340 494L340 493C336.506 488.388 338 480.592 338 475C338 460.962 342.406 437.883 337 425z"/>
<path style="fill:#d41b2b; stroke:none;" d="M177 426L177 494L193 493L193 500L194 500L194 493L201 493L201 500L202 500L202 492L204 492L204 500L205 500L206 426L177 426z"/>
<path style="fill:#e31d2f; stroke:none;" d="M242 426L242 490L246 490L246 500L248 500L248 490L271 490L271 426L242 426z"/>
<path style="fill:#d3bec3; stroke:none;" d="M119 438L119 446L92 446L92 487L126 487L119 438z"/>
<path style="fill:#bfb5b8; stroke:none;" d="M92 487L92 500L133 500C128.547 481.468 106.951 487 92 487z"/>
<path style="fill:#c1b8c4; stroke:none;" d="M233 490L233 500L236 500L236 491L237 491L237 500L238 500L238 490L233 490z"/>
<path style="fill:#dbdbdf; stroke:none;" d="M239 490L239 500L240 500L239 490z"/>
<path style="fill:#b03f55; stroke:none;" d="M240 490L240 500L242 500L242 491L246 491L240 490z"/>
<path style="fill:#d2505c; stroke:none;" d="M248 490L248 500L252 500L252 490L248 490z"/>
<path style="fill:#ce7980; stroke:none;" d="M252 490L252 500L272 500L272 490L252 490z"/>
<path style="fill:#bcc7ce; stroke:none;" d="M279 490L279 500L284 500L284 490L279 490z"/>
<path style="fill:#e1e1e6; stroke:none;" d="M288 490L288 500L293 500L293 490L288 490z"/>
<path style="fill:#a59aa0; stroke:none;" d="M215 491L215 500L217 500L217 491L215 491z"/>
<path style="fill:#d6d3d4; stroke:none;" d="M217 491L217 500L220 500L220 492L221 492L221 500L222 500L222 491L217 491z"/>
<path style="fill:#b6b4b3; stroke:none;" d="M223 491L223 500L226 500L226 491L223 491z"/>
<path style="fill:#a6a7b2; stroke:none;" d="M228 491L228 500L231 500L231 491L228 491z"/>
<path style="fill:#9a90a4; stroke:none;" d="M236 491L236 500L237 500L236 491z"/>
<path style="fill:#b66a73; stroke:none;" d="M242 491L242 500L246 500L246 491L242 491z"/>
<path style="fill:#d8d5dc; stroke:none;" d="M294 491L294 500L298 500L298 491L294 491z"/>
<path style="fill:#e9dfda; stroke:none;" d="M299 491L299 500L300 500L299 491z"/>
<path style="fill:#bda295; stroke:none;" d="M300 491L300 500L301 500L300 491z"/>
<path style="fill:#e8ddd2; stroke:none;" d="M301 491L301 500L303 500L303 491L301 491z"/>
<path style="fill:#af6a78; stroke:none;" d="M305 491L305 500L307 500L307 491L305 491z"/>
<path style="fill:#d83f49; stroke:none;" d="M307 491L307 500L309 500L309 491L307 491z"/>
<path style="fill:#be8887; stroke:none;" d="M309 491L309 500L311 500L311 491L309 491z"/>
<path style="fill:#b63449; stroke:none;" d="M202 492L202 500L204 500L204 492L202 492z"/>
<path style="fill:#9a5665; stroke:none;" d="M205 492L205 500L206 500L205 492z"/>
<path style="fill:#b52637; stroke:none;" d="M206 492L206 500L207 500L206 492z"/>
<path style="fill:#a5a1a9; stroke:none;" d="M208 492L208 500L210 500L210 492L208 492z"/>
<path style="fill:#b7bac4; stroke:none;" d="M211 492L211 500L212 500L211 492z"/>
<path style="fill:#9e8f99; stroke:none;" d="M212 492L212 500L213 500L212 492z"/>
<path style="fill:#9d96a5; stroke:none;" d="M220 492L220 500L221 500L220 492z"/>
<path style="fill:#c64a57; stroke:none;" d="M312 492L312 500L313 500L312 492z"/>
<path style="fill:#ae747f; stroke:none;" d="M313 492L313 500L314 500L313 492z"/>
<path style="fill:#cf414e; stroke:none;" d="M314 492L314 500L316 500L316 492L314 492z"/>
<path style="fill:#b16d6e; stroke:none;" d="M316 492L316 500L317 500L316 492z"/>
<path style="fill:#be5956; stroke:none;" d="M319 492L319 500L321 500L321 492L319 492z"/>
<path style="fill:#b74e53; stroke:none;" d="M322 492L322 500L324 500L324 492L322 492z"/>
<path style="fill:#a93846; stroke:none;" d="M176 500L193 500L193 493C186.513 493.004 176.64 491.782 176 500z"/>
<path style="fill:#c02f40; stroke:none;" d="M194 493L194 500L201 500L201 493L194 493z"/>
<path style="fill:#ac5f6b; stroke:none;" d="M326 493L326 500L327 500L326 493z"/>
<path style="fill:#d55d65; stroke:none;" d="M328 493L328 500L330 500L330 493L328 493z"/>
<path style="fill:#a85251; stroke:none;" d="M333 493L333 500L335 500L335 493L333 493z"/>
<path style="fill:#d8d9de; stroke:none;" d="M338 500L362 500L362 496C354.479 495.656 338.385 488.43 338 500z"/>
<path style="fill:#a49ea2; stroke:none;" d="M139 499L139 500L175 500L175 495L139 499z"/>
</svg>
