<?xml version="1.0" standalone="yes"?>
<svg width="512" height="512">
<path style="fill:#000000; stroke:none;" d="M0 0L0 512L512 512L512 0L0 0z"/>
<path style="fill:#c9c7c7; stroke:none;" d="M142 77C142 89.1082 137.224 114.289 145 124L158.397 105L159 77L142 77z"/>
<path style="fill:#e1dcd5; stroke:none;" d="M159 77C159 84.938 161.151 96.5222 158.397 104C153.997 115.946 139.046 123.619 145.308 139C153.08 158.09 172.706 163.684 190 170.025C225.439 183.018 265.46 186.202 303 179.615C314.386 177.617 325.482 176.52 336 171C335.99 174.684 336.413 179.456 334.062 182.582C330.624 187.152 313.793 193.037 309 190L295 193L292 195L291 187L290 187L290 196C286.867 195.418 284.766 194.441 284 198L280 196C280 201.859 281.26 207.504 275 210C279.768 217.043 286.876 213.627 294 212L294 216L273 219L273 220L276 223L273 223L274 230L277 229L277 230L272 233C280.833 235.819 288.639 237.964 294.362 246C309.515 267.278 291.186 304.924 273 318L273 319L279 318L279 326L268 327C269.411 336.598 271.376 343.885 267 353L283 352C281.773 362.887 270.281 352.456 268 363L278 362C275.175 367.148 271.603 367.949 266 368L268 375L254 376L259 379C259.011 395.625 259.757 404.793 244 414L244 415L249 415C247.194 418.249 245.617 418.599 242 418L245 429L241 429L241 430L245 433L241 433C245.533 439.417 262.992 437.124 270 436.285C287.513 434.191 316.682 430.054 326.566 412.91C329.241 408.271 328.028 401.234 329 396L319 402L333 384C333.092 373.717 336.905 363.18 338.545 353C339.301 348.305 338.022 343.599 338.623 338.961C339.22 334.363 344.205 327.733 340 324L340 323L340 322L343 315L342 315L341 319L338 318L333 329L337 324L338 324C337.047 331.126 331.487 336.731 326 341L330 332L326 334C326.921 325.944 330.697 317.261 340 317L344 296L346 290L343 291L345 284L344 284L342 290L341 290L346 273L347 275L348 275L348 270L342 279L341 279L348 261L347 261L338 274L339 261L333 265L340 253L340 257L341 257L348 237L347 237L346 241L337 246C344.279 231.868 355.914 215.376 357 199L356 199L356 201L355 201C355.389 194.317 356.48 186.635 355.665 180C355.065 175.117 351.428 170.072 352.604 165.015C354.759 155.75 366.117 153.001 374 153L374 115C365.544 113.686 358.424 102.678 351 98.2037C337.001 89.7677 320.764 85.4318 305 81.5972C259.187 70.4532 205.881 77 159 77z"/>
<path style="fill:#ccc9cb; stroke:none;" d="M264 77L264 78C291.215 78 318.148 83.1893 343 94.4359C353.126 99.0185 363.604 114.201 374 115L374 77L264 77z"/>
<path style="fill:#e2cbab; stroke:none;" d="M283 85L281 90L280 90L278 88L272 91L270 89L269 89L263 91L261 96L263 98L266 98L266 100L248 108L248 109L248 112L248 113C249.487 116.714 245.003 117.343 242 118C249.773 121.262 260.637 118.374 269 119.17C290.255 121.192 311.338 123.435 331 132.475C336.62 135.059 353.012 149.695 357.985 147.248C371.808 140.447 368.824 114.728 358.896 106.418C338.478 89.3286 308.296 86.4541 283 85z"/>
<path style="fill:#d0c296; stroke:none;" d="M162 153C201.076 176.609 245.593 179.614 290 174.285C312.783 171.552 338.195 165.396 356 150C347.335 137.952 331.74 131.459 318 127.175C283.341 116.369 247.073 117.478 212 124.78C195.123 128.294 169.947 135.958 162 153z"/>
<path style="fill:#e3c9b7; stroke:none;" d="M142 121L142 144C150.442 148.373 153.084 158.361 154.424 167C157.276 185.387 162.614 203.294 163 222L142 222L142 223L164 223L166 235L167 235L167 232L168 232C169.491 240.155 168.218 248.645 169.285 257C171.238 272.29 175.915 287.646 176.975 303C177.598 312.012 180.656 327.439 192 328L186 328L191 336L183 328C184.695 337.508 194.278 349.393 187 359C193.035 383.215 186.163 409.013 211 424.91C215.553 427.824 220.854 430.137 226 431.784C233.17 434.079 237.819 434.6 245 433L241 430L241 429L245 429L242 418C245.674 418.979 247.74 418.798 249 415L244 415L244 414C260.961 406.937 259.043 394.639 259 379C250.778 376.537 259.434 361.001 257 354L270 354L270 353L267 353L270 347L263 347L263 336L262 336C259.613 341.691 257.554 345.007 251 344L260 327C252.857 327 247.28 327.584 247 319L253 319L253 318C243.893 312.304 237.122 303.968 236 293C228.093 290.567 224.162 275.052 227 268C220.356 267.858 208.543 266.127 205 260C207.975 260.235 209.588 261.399 210 258L211 258L212 261L213 258L206 253C215.495 251.572 218.123 246.937 219 238L220 238L223 247L233 246L229 241L246 234.681L277 230L277 229L274 230L273 223L276 223L273 220L273 219L294 216L294 212C286.214 212.86 281.074 216.371 275 210C281.752 208.586 280 201.572 280 196L284 198L290 196L290 187L291 187L292 195L295 193L308 191L311 180L311 179C303.137 179.022 295.786 181.617 288 181.961C254.422 183.444 222.465 181.561 191 170.025C179.954 165.975 170.047 163.604 160.285 156.265C153.677 151.299 147.375 145.191 144.974 137C143.398 131.624 147.223 124.976 142 121z"/>
<path style="fill:#d0c6c4; stroke:none;" d="M142 144L142 222L163 222C162.837 202.259 156.87 183.43 154.13 164C153.092 156.634 149.878 146.456 142 144z"/>
<path style="fill:#d2d0ce; stroke:none;" d="M355 201L356 201L356 199L357 199L337 246L346 241L347 237L348 237L341 257L340 257L340 253C335.388 255.798 333.173 259.655 333 265L339 261L338 274L347 261L348 261L341 279L342 279L348 270L348 275L347 275L346 273L341 290L342 290L344 284L345 284L343 291L346 290L344 296L340 317C330.207 316.659 326.474 325.612 326 334L330 332L326 341C332.325 337.649 337.512 331.269 338 324L337 324L333 329L338 318L341 319L342 315L343 315L340 322L340 323L340 324L338.269 339.91L333 384C327.762 385.899 320.119 396.567 319 402L329 396L328 411L329 411L337 377L339 377C342.384 381.845 349.342 384.609 353.535 389.255C363.114 399.871 361.009 411.018 361 424L357 424C357.266 430.831 352.383 431.944 349 437L374 437L374 153C365.951 153 355.228 154.67 352.529 164.039C350.976 169.43 354.663 174.808 355.374 180C356.28 186.611 355.156 194.286 355 201z"/>
<path style="fill:#d5574a; stroke:none;" d="M335 171L335 180L336 180L335 171z"/>
<path style="fill:#d72d20; stroke:none;" d="M310 192C323.911 189.946 335 186.851 335 172L311.028 180.588L310 192z"/>
<path style="fill:#ce241b; stroke:none;" d="M182 173C182.01 187.893 194.541 190.929 208 192L206.972 181.6L182 173z"/>
<path style="fill:#e8a896; stroke:none;" d="M326.667 174.333L327.333 174.667L326.667 174.333z"/>
<path style="fill:#d48366; stroke:none;" d="M191.667 176.333L192.333 176.667L191.667 176.333z"/>
<path style="fill:#e89e90; stroke:none;" d="M320.667 176.333L321.333 176.667L320.667 176.333z"/>
<path style="fill:#e27f6e; stroke:none;" d="M314.667 178.333L315.333 178.667L314.667 178.333z"/>
<path style="fill:#d76c55; stroke:none;" d="M201 179L201 180L204 180L201 179z"/>
<path style="fill:#e49892; stroke:none;" d="M309 180L309 186L310 186L309 180z"/>
<path style="fill:#d7b598; stroke:none;" d="M213 182L212 190L212 191L217 192C215.747 197.013 219.096 201.123 218.243 205.956C217.29 211.356 209.567 213.421 206 210L205 210L205 215L204 215L200 207L205 208L205 206C209.167 206.597 210.85 204.964 212 201L205 200L213 196L210 193L210 188L209 188L209 193L184 185C185.614 196.742 192.579 205.856 198 216C194.179 216.632 198.161 219.992 200 221L198 229L202 222L203 222L203 231L206 231L206 224L211 225L210 228L215 227L215 226L212 220L208 220C217.158 212.581 224.571 205.174 222 192L219 193L220 197L217 196L224 186L225 194L226 194L226 190L229 192L235 190L234 187L236 192L237 192C239.115 187.68 242.254 185.622 247 185L247 184L228 186L228 183L213 182z"/>
<path style="fill:#ce2117; stroke:none;" d="M242 185L242 198L275 198L275 185L242 185z"/>
<path style="fill:#d4705d; stroke:none;" d="M247 185L247 186L266 186L247 185z"/>
<path style="fill:#d8594c; stroke:none;" d="M309 186L309 192L310 192L309 186z"/>
<path style="fill:#d86e5a; stroke:none;" d="M208 187L207 193L208 187z"/>
<path style="fill:#d8b99e; stroke:none;" d="M169 191C169.049 193.915 171.675 201.301 173 195L174 195C175.871 201.796 182.954 203.621 189 206L185 196C179.705 198.553 173.91 193.105 169 191z"/>
<path style="fill:#e47a73; stroke:none;" d="M244 198L244 199L273 199L244 198z"/>
<path style="fill:#ccbfb7; stroke:none;" d="M142 223L142 437L180 437C178.763 432.346 176.295 429.2 172 427L173 424C166.218 416.988 164.823 396.396 173 390C174.308 382.976 181.347 376.943 187 373L188 381L189 381L187 359C195.021 351.991 185.16 335.498 183 328L191 336L186 328C188.524 329.863 191.119 332.028 192 328C180.766 326.526 177.61 311.196 176.975 302C175.915 286.646 171.238 271.29 169.285 256C168.269 248.039 169.824 239.682 168 232L167 232L167 235L166 235L164 223L142 223z"/>
<path style="fill:#b6a291; stroke:none;" d="M257 232L257 233L265 233L257 232z"/>
<path style="fill:#1e1817; stroke:none;" d="M230 242L233 246L226 246L228 253C222.471 256.425 225.735 260.695 226.316 266C227.163 273.74 225.435 291.207 236 293C236.701 306.514 245.622 311.352 254 320L247 320C247.272 328.296 253.263 327 260 327L251 344C258.5 344.862 261.238 341.435 262 334L264 334L264 347L270 346L267 326L279 326L279 319L273 319C289.466 305.931 298.17 285.273 298.634 264.91C298.889 253.733 296.372 242.692 285 237.139C272.882 231.221 254.499 231.152 242.039 236.028C237.607 237.762 234.863 240.936 230 242z"/>
<path style="fill:#77635a; stroke:none;" d="M271.667 233.333L272.333 233.667L271.667 233.333z"/>
<path style="fill:#776356; stroke:none;" d="M246 234L246 235L249 235L246 234z"/>
<path style="fill:#5d4d40; stroke:none;" d="M276 234L276 235L279 235L276 234z"/>
<path style="fill:#5d4734; stroke:none;" d="M242.667 235.333L243.333 235.667L242.667 235.333z"/>
<path style="fill:#776d69; stroke:none;" d="M255 235L255 236L268 236L255 235z"/>
<path style="fill:#4f403b; stroke:none;" d="M248 236L248 237L252 237L248 236z"/>
<path style="fill:#e1d5cc; stroke:none;" d="M248 237L249 240L240 243L240 244C249.943 242.154 256.084 245.159 265 249L265 251C258.674 251.675 249.535 248.815 244.394 253.573C240.623 257.062 240.951 262.516 237 266L237 268L262 272.902L290 267L286 254L294 263C294 236.215 269.831 234.241 248 237z"/>
<path style="fill:#7e7370; stroke:none;" d="M271 236L271 237L274 237L271 236z"/>
<path style="fill:#a88f7e; stroke:none;" d="M246 239L249 239L248 237L246 239z"/>
<path style="fill:#d9bba1; stroke:none;" d="M219 238C217.338 246.686 215.192 250.796 206 253L212 261L211 258L210 258L210 261L205 260C207.324 266.677 220.759 267.948 227 268C225.228 256.167 226.84 248.139 219 238z"/>
<path style="fill:#81725f; stroke:none;" d="M287 238L288 239L287 238z"/>
<path style="fill:#56494c; stroke:none;" d="M281.667 239.333L282.333 239.667L281.667 239.333z"/>
<path style="fill:#5d4d42; stroke:none;" d="M235.667 240.333L236.333 240.667L235.667 240.333z"/>
<path style="fill:#453121; stroke:none;" d="M229 241L229 242L233 242L229 241z"/>
<path style="fill:#6d6667; stroke:none;" d="M287 242L288 243L287 242z"/>
<path style="fill:#675445; stroke:none;" d="M239 243L238 245L240 245L239 243z"/>
<path style="fill:#554136; stroke:none;" d="M242 243L242 244L252 244L242 243z"/>
<path style="fill:#807275; stroke:none;" d="M288 243L289 244L288 243z"/>
<path style="fill:#ac9084; stroke:none;" d="M255.667 244.333L256.333 244.667L255.667 244.333z"/>
<path style="fill:#422b17; stroke:none;" d="M226 245L226 246L230 246L226 245z"/>
<path style="fill:#7a6358; stroke:none;" d="M258 245L259 246L258 245z"/>
<path style="fill:#57453c; stroke:none;" d="M225.333 246.667L225.667 247.333L225.333 246.667z"/>
<path style="fill:#6f6866; stroke:none;" d="M241.667 247.333L242.333 247.667L241.667 247.333z"/>
<path style="fill:#dec9b7; stroke:none;" d="M230 249C230.824 255.91 225.578 264.077 233 269C233.029 258.878 238.742 252.072 248 248L230 249z"/>
<path style="fill:#a0938b; stroke:none;" d="M238.667 248.333L239.333 248.667L238.667 248.333z"/>
<path style="fill:#897062; stroke:none;" d="M263 248L264 249L263 248z"/>
<path style="fill:#6d6260; stroke:none;" d="M264.333 249.667L264.667 250.333L264.333 249.667z"/>
<path style="fill:#a4948e; stroke:none;" d="M248 250L248 251L255 251L248 250z"/>
<path style="fill:#68565b; stroke:none;" d="M255.667 250.333L256.333 250.667L255.667 250.333z"/>
<path style="fill:#8d7668; stroke:none;" d="M227.333 251.667L227.667 252.333L227.333 251.667z"/>
<path style="fill:#726861; stroke:none;" d="M297 251L297 254L298 254L297 251z"/>
<path style="fill:#7f7166; stroke:none;" d="M245 252L246 253L245 252z"/>
<path style="fill:#7d655a; stroke:none;" d="M238 254L239 255L238 254z"/>
<path style="fill:#7a726f; stroke:none;" d="M286 254L286 259L287 259L286 254z"/>
<path style="fill:#8d786a; stroke:none;" d="M224.333 258.667L224.667 259.333L224.333 258.667z"/>
<path style="fill:#605047; stroke:none;" d="M240.333 259.667L240.667 260.333L240.333 259.667z"/>
<path style="fill:#7d685e; stroke:none;" d="M233.333 260.667L233.667 261.333L233.333 260.667z"/>
<path style="fill:#a89280; stroke:none;" d="M240.333 261.667L240.667 262.333L240.333 261.667z"/>
<path style="fill:#9a8983; stroke:none;" d="M292.667 263.333L293.333 263.667L292.667 263.333z"/>
<path style="fill:#8a7f75; stroke:none;" d="M298.333 263.667L298.667 264.333L298.333 263.667z"/>
<path style="fill:#a89690; stroke:none;" d="M237.667 265.333L238.333 265.667L237.667 265.333z"/>
<path style="fill:#c3a38c; stroke:none;" d="M236 266L239 269L239 268L236 266z"/>
<path style="fill:#57493e; stroke:none;" d="M230.333 267.667L230.667 268.333L230.333 267.667z"/>
<path style="fill:#c4b39b; stroke:none;" d="M286 267L286 268L290 268L286 267z"/>
<path style="fill:#d6b79f; stroke:none;" d="M211 268L217 286L218 286L216 271L217 271L220 287L222 287C221.555 281.405 217.817 274.559 222 270L211 268z"/>
<path style="fill:#7e6b5c; stroke:none;" d="M281 268L281 269L284 269L281 268z"/>
<path style="fill:#9e886e; stroke:none;" d="M241 269L241 270L246 270L241 269z"/>
<path style="fill:#9a8071; stroke:none;" d="M272.667 269.333L273.333 269.667L272.667 269.333z"/>
<path style="fill:#c4b4af; stroke:none;" d="M287 269L287 270L290 270L287 269z"/>
<path style="fill:#523f33; stroke:none;" d="M225 270L225 275L226 275L225 270z"/>
<path style="fill:#d1b8ab; stroke:none;" d="M235.667 270.333L236.333 270.667L235.667 270.333z"/>
<path style="fill:#87785f; stroke:none;" d="M252.667 270.333L253.333 270.667L252.667 270.333z"/>
<path style="fill:#b3a7ab; stroke:none;" d="M280 273L284 272L280 273z"/>
<path style="fill:#e1d7d0; stroke:none;" d="M278 284L283 278L268 277L267 280L260 276C259.691 279.101 257.409 283.719 258.647 286.682C260.678 291.545 268.682 288.749 270 285C280.937 288.033 283.648 295.61 276 304L276 300L261 302L262 306L259 305C258.044 312.57 257.969 317.86 266 321L269 312C282.144 314.739 283.949 300.786 287.588 292.054C290.717 284.545 295.018 279.665 297 271L291 277L291 271L278 284z"/>
<path style="fill:#4d4540; stroke:none;" d="M291 271L291 277L292 277L291 271z"/>
<path style="fill:#86756f; stroke:none;" d="M229.667 272.333L230.333 272.667L229.667 272.333z"/>
<path style="fill:#e2cec7; stroke:none;" d="M238 273L238 274L243 273L238 273z"/>
<path style="fill:#4e4549; stroke:none;" d="M276.667 272.333L277.333 272.667L276.667 272.333z"/>
<path style="fill:#efe6de; stroke:none;" d="M281 272L281 273L284 273L281 272z"/>
<path style="fill:#746b5f; stroke:none;" d="M293 272L293 276L294 276L293 272z"/>
<path style="fill:#5f4f3f; stroke:none;" d="M228 273L228 276L229 276L228 273z"/>
<path style="fill:#e2c9ba; stroke:none;" d="M229 273L232 284L233 284L232 273L229 273z"/>
<path style="fill:#ffe1cc; stroke:none;" d="M245 274L245 275L250 274L245 274z"/>
<path style="fill:#89705a; stroke:none;" d="M248 274L248 275L252 275L248 274z"/>
<path style="fill:#71675a; stroke:none;" d="M273 273L272 275L274 275L273 273z"/>
<path style="fill:#ecd9c9; stroke:none;" d="M274 273L274 274L279 274L274 273z"/>
<path style="fill:#978573; stroke:none;" d="M282.667 273.333L283.333 273.667L282.667 273.333z"/>
<path style="fill:#65503d; stroke:none;" d="M238.667 274.333L239.333 274.667L238.667 274.333z"/>
<path style="fill:#b29a82; stroke:none;" d="M242 276L245 274L242 276z"/>
<path style="fill:#b0aaa8; stroke:none;" d="M279.667 274.333L280.333 274.667L279.667 274.333z"/>
<path style="fill:#726851; stroke:none;" d="M281 274L280 276L282 276L281 274z"/>
<path style="fill:#8f8187; stroke:none;" d="M261.667 275.333L262.333 275.667L261.667 275.333z"/>
<path style="fill:#998c7c; stroke:none;" d="M286.333 275.667L286.667 276.333L286.333 275.667z"/>
<path style="fill:#6b6664; stroke:none;" d="M277 276L277 277L280 277L277 276z"/>
<path style="fill:#847970; stroke:none;" d="M295.333 276.667L295.667 277.333L295.333 276.667z"/>
<path style="fill:#d6bba1; stroke:none;" d="M191 277L192 283L187 284L193 288L194 288L194 283L195 283C195.377 287.108 196.153 289.258 200 291L199 283L193 282L193 277L191 277z"/>
<path style="fill:#b3a7a5; stroke:none;" d="M245 277L245 278L249 278L245 277z"/>
<path style="fill:#66574d; stroke:none;" d="M254 277L254 281L255 281L254 277z"/>
<path style="fill:#665c59; stroke:none;" d="M269 277L269 278L275 278L269 277z"/>
<path style="fill:#dfccc0; stroke:none;" d="M239 278L243 283L238 282C240.281 289.588 244.664 289.173 251 286L248 284L248 283C251.741 282.57 253.339 281.814 254 278L239 278z"/>
<path style="fill:#6f6865; stroke:none;" d="M266 279L267 280L266 279z"/>
<path style="fill:#746e68; stroke:none;" d="M297.333 279.667L297.667 280.333L297.333 279.667z"/>
<path style="fill:#8c796a; stroke:none;" d="M242 281L243 282L242 281z"/>
<path style="fill:#71615b; stroke:none;" d="M233 283L232 285L234 285L233 283z"/>
<path style="fill:#7f7978; stroke:none;" d="M278.667 283.333L279.333 283.667L278.667 283.333z"/>
<path style="fill:#908675; stroke:none;" d="M249.667 284.333L250.333 284.667L249.667 284.333z"/>
<path style="fill:#776961; stroke:none;" d="M257 284L257 287L258 287L257 284z"/>
<path style="fill:#857468; stroke:none;" d="M229 285L229 288L230 288L229 285z"/>
<path style="fill:#d0bbb0; stroke:none;" d="M253 285L253 288L255 288L255 285L253 285z"/>
<path style="fill:#51413f; stroke:none;" d="M255 285L254 289L255 285z"/>
<path style="fill:#837866; stroke:none;" d="M273 285L274 286L273 285z"/>
<path style="fill:#ac9280; stroke:none;" d="M247 287L247 288L250 288L247 287z"/>
<path style="fill:#80766b; stroke:none;" d="M289.667 288.333L290.333 288.667L289.667 288.333z"/>
<path style="fill:#5c4e42; stroke:none;" d="M242.667 289.333L243.333 289.667L242.667 289.333z"/>
<path style="fill:#a19175; stroke:none;" d="M261 289L261 290L266 290L261 289z"/>
<path style="fill:#e1cfc3; stroke:none;" d="M248 294L248 295L276 294C270.949 289.098 254.546 291.238 248 294z"/>
<path style="fill:#6f6857; stroke:none;" d="M279.667 290.333L280.333 290.667L279.667 290.333z"/>
<path style="fill:#b3a8a1; stroke:none;" d="M254 291L254 292L258 292L254 291z"/>
<path style="fill:#7f7171; stroke:none;" d="M265 292L266 293L265 292z"/>
<path style="fill:#e0cbbe; stroke:none;" d="M253 310L251 303L247 305L244 293C233.35 296.535 246.817 309.018 253 310z"/>
<path style="fill:#726558; stroke:none;" d="M275 295L278 293L275 295z"/>
<path style="fill:#6c5e50; stroke:none;" d="M239.333 295.667L239.667 296.333L239.333 295.667z"/>
<path style="fill:#63564f; stroke:none;" d="M244 295L244 298L245 298L244 295z"/>
<path style="fill:#a7957f; stroke:none;" d="M249 295L249 296L260 296L249 295z"/>
<path style="fill:#a49378; stroke:none;" d="M265 295L265 296L272 296L265 295z"/>
<path style="fill:#625752; stroke:none;" d="M289 295L289 298L290 298L289 295z"/>
<path style="fill:#847a78; stroke:none;" d="M258 299L269 298C265.612 296.578 260.554 296.077 258 299z"/>
<path style="fill:#ffded0; stroke:none;" d="M259 298L259 299L262 299L259 298z"/>
<path style="fill:#80797c; stroke:none;" d="M272 299L272 300L275 300L272 299z"/>
<path style="fill:#b2aaa7; stroke:none;" d="M259 303L268 302C264.911 300.704 261.307 300.359 259 303z"/>
<path style="fill:#564634; stroke:none;" d="M261 303L260 306L261 303z"/>
<path style="fill:#8d8076; stroke:none;" d="M283 304L284 305L283 304z"/>
<path style="fill:#5b5247; stroke:none;" d="M257 311L257 314L258 314L257 311z"/>
<path style="fill:#88776b; stroke:none;" d="M269 312L269 316L270 316L271 312L269 312z"/>
<path style="fill:#594f45; stroke:none;" d="M271.667 313.333L272.333 313.667L271.667 313.333z"/>
<path style="fill:#7d7573; stroke:none;" d="M251 317L252 318L251 317z"/>
<path style="fill:#816e5e; stroke:none;" d="M253 318L247 319L247 320L253 318z"/>
<path style="fill:#ab9784; stroke:none;" d="M275 318L275 319L279 319L275 318z"/>
<path style="fill:#81725d; stroke:none;" d="M262 319L263 320L262 319z"/>
<path style="fill:#978986; stroke:none;" d="M267 328L272 327L267 328z"/>
<path style="fill:#585242; stroke:none;" d="M269 333L269 337L270 337L269 333z"/>
<path style="fill:#807469; stroke:none;" d="M262 334L263 347L264 347L262 334z"/>
<path style="fill:#7c726a; stroke:none;" d="M253.667 344.333L254.333 344.667L253.667 344.333z"/>
<path style="fill:#74766c; stroke:none;" d="M306 345L306 346L309 347L306 345z"/>
<path style="fill:#8e847a; stroke:none;" d="M266 346L266 347L270 347L266 346z"/>
<path style="fill:#777061; stroke:none;" d="M302.667 346.333L303.333 346.667L302.667 346.333z"/>
<path style="fill:#221f1f; stroke:none;" d="M306 364C302.685 364.589 298.45 367.224 295.109 366.153C284.806 362.85 298.846 349.698 307 352L308 346C299.686 346.679 272.678 356.994 283.603 369.566C288.719 375.454 303.837 370.548 306 364z"/>
<path style="fill:#251f1c; stroke:none;" d="M223 349C224.55 354.773 224.752 363.64 219 367C221.599 371.059 227.41 371.765 232 372L232 364L233 364C237.282 372.998 242.539 374.999 252 375L241 362L255 354L242 353L243 357L233 361L237 352L223 349z"/>
<path style="fill:#a38e73; stroke:none;" d="M229.667 350.333L230.333 350.667L229.667 350.333z"/>
<path style="fill:#706d6a; stroke:none;" d="M300 350L300 351L304 351L300 350z"/>
<path style="fill:#948f7e; stroke:none;" d="M307.333 350.667L307.667 351.333L307.333 350.667z"/>
<path style="fill:#89735d; stroke:none;" d="M233.667 351.333L234.333 351.667L233.667 351.333z"/>
<path style="fill:#73766a; stroke:none;" d="M304 351L307 353L307 352L304 351z"/>
<path style="fill:#817663; stroke:none;" d="M279.667 352.333L280.333 352.667L279.667 352.333z"/>
<path style="fill:#1f1a19; stroke:none;" d="M257 354L255 376L267 376C264.696 364.89 274.482 370.586 277 363L268 363L269 357L282 359L283 352L257 354z"/>
<path style="fill:#a9957a; stroke:none;" d="M245 353L245 354L255 354L245 353z"/>
<path style="fill:#746a59; stroke:none;" d="M270 353L270 354L276 354L270 353z"/>
<path style="fill:#6f6156; stroke:none;" d="M242.333 355.667L242.667 356.333L242.333 355.667z"/>
<path style="fill:#958a80; stroke:none;" d="M282.333 355.667L282.667 356.333L282.333 355.667z"/>
<path style="fill:#95887d; stroke:none;" d="M252 356L252 357L255 357L252 356z"/>
<path style="fill:#b69a8d; stroke:none;" d="M233 357L235 361L233 357z"/>
<path style="fill:#96908b; stroke:none;" d="M269 357L269 358L272 358L269 357z"/>
<path style="fill:#bbb4a7; stroke:none;" d="M291 359L291 364L292 364L291 359z"/>
<path style="fill:#71655c; stroke:none;" d="M258.333 360.667L258.667 361.333L258.333 360.667z"/>
<path style="fill:#aa9e8c; stroke:none;" d="M274 362L274 363L278 364L274 362z"/>
<path style="fill:#837d75; stroke:none;" d="M281 362L281 367L282 367L281 362z"/>
<path style="fill:#7c6b5f; stroke:none;" d="M231.333 365.667L231.667 366.333L231.333 365.667z"/>
<path style="fill:#9b9281; stroke:none;" d="M294 366L294 367L299 367L294 366z"/>
<path style="fill:#786b60; stroke:none;" d="M256.333 367.667L256.667 368.333L256.333 367.667z"/>
<path style="fill:#9e9490; stroke:none;" d="M267 367L267 368L274 368L267 367z"/>
<path style="fill:#635951; stroke:none;" d="M223.667 370.333L224.333 370.667L223.667 370.333z"/>
<path style="fill:#847a6c; stroke:none;" d="M232 370L229 372L229 373C231.348 372.706 232.951 372.507 232 370z"/>
<path style="fill:#837868; stroke:none;" d="M265 370L265 373L266 373L265 370z"/>
<path style="fill:#756c61; stroke:none;" d="M255.333 371.667L255.667 372.333L255.333 371.667z"/>
<path style="fill:#6a6760; stroke:none;" d="M293 371L293 372L296 372L293 371z"/>
<path style="fill:#232120; stroke:none;" d="M173 390C164.824 394.287 165.754 419.041 173 424L172 427L180 437L161 437L161 459L364 459L364 437L349 437C353.348 432.647 357.652 430.79 357 424L361 424C361.036 410.977 363.56 398.975 353.535 388.454C349.124 383.826 343.41 381.3 339 377L337 377C332.923 389.894 335.624 402.528 326.024 413.482C298.308 445.108 228.233 445.814 200.105 414.996C189.978 403.901 191.154 386.669 187 373C181.202 375.817 172.754 383.168 173 390z"/>
<path style="fill:#786e66; stroke:none;" d="M252 373L245 375L245 376C247.572 375.998 253.458 376.869 252 373z"/>
<path style="fill:#a49383; stroke:none;" d="M267.333 373.667L267.667 374.333L267.333 373.667z"/>
<path style="fill:#a5a09f; stroke:none;" d="M333 397L333 401L334 401L333 397z"/>
<path style="fill:#5e544e; stroke:none;" d="M193.333 403.667L193.667 404.333L193.333 403.667z"/>
<path style="fill:#7b7a78; stroke:none;" d="M326 413L327 414L326 413z"/>
<path style="fill:#83807a; stroke:none;" d="M322 417L323 418L322 417z"/>
<path style="fill:#8f8b86; stroke:none;" d="M312 424L313 425L312 424z"/>
<path style="fill:#8a8684; stroke:none;" d="M308 426L309 427L308 426z"/>
<path style="fill:#676361; stroke:none;" d="M298.667 430.333L299.333 430.667L298.667 430.333z"/>
<path style="fill:#605b5a; stroke:none;" d="M291 432L291 433L294 433L291 432z"/>
<path style="fill:#887d75; stroke:none;" d="M241.667 435.333L242.333 435.667L241.667 435.333z"/>
<path style="fill:#ffffff; stroke:none;" d="M142 437L142 459L161 459L161 437L142 437M364 437L364 459L374 459L374 437L364 437z"/>
</svg>
