<?xml version="1.0" standalone="yes"?>
<svg width="512" height="512">
<path style="fill:#000000; stroke:none;" d="M0 0L0 512L512 512L512 0L0 0z"/>
<path style="fill:#d8ccbd; stroke:none;" d="M28 114L28 209L29 209L30 177L30 114L28 114z"/>
<path style="fill:#d1bfa4; stroke:none;" d="M30 114L30 207C36.7438 202.863 34 190.038 34 183L34 114L30 114z"/>
<path style="fill:#c0a185; stroke:none;" d="M34 114L34 174L33.6821 201.961L28 211C36.2992 213.752 59.6054 237.962 64.1073 218.961C65.0892 214.816 64.1041 210.322 65 206L66 206L67 211L72 206C72.3429 208.026 74.5685 208.314 76.1111 206.37C79.7663 201.765 76.3242 195.856 84 194L85 189L82 186L86 187L87 170L91 171L95 170L114 159L114 161L133 165L126 157L122 144L117 145L118 114L34 114z"/>
<path style="fill:#cfc1b8; stroke:none;" d="M118 114L117 145L153 125L145 143C148.862 140.732 160.099 131.782 156 144C163.787 140.627 165.41 141.415 173 145L174 144L170.972 115.603L157 114L118 114z"/>
<path style="fill:#ded1c3; stroke:none;" d="M171 114L173 146L181 156C191.134 152.117 198.977 155.999 209 155.867C220.865 155.711 238.9 148.035 249.848 155.858C253.294 158.321 253.053 164.323 255 168C264.802 160.452 278.178 153.832 291 155L291 114L290 114L290 153L289 153L289 114L171 114z"/>
<path style="fill:#dabd93; stroke:none;" d="M289 114L289 153L290 153C290 141.828 293.311 124.274 289 114z"/>
<path style="fill:#d2b17e; stroke:none;" d="M291 114L291 155L292 155C292 143.304 295.511 124.75 291 114z"/>
<path style="fill:#cd8a26; stroke:none;" d="M292 114C292 125.004 288.125 144.898 292.858 154.853C294.38 158.053 298.731 159.253 301 162L299 167L299 168L305 169L302 167L302 163L306 166L310 163L314 164C305.841 151.029 310 129.032 310 114L309 114L309 159L302 157L302 114L301 114L301 156L295 156L295 114L292 114z"/>
<path style="fill:#d9c299; stroke:none;" d="M295 114L295 156L296 156C296 144.043 299.611 124.988 295 114z"/>
<path style="fill:#dacec8; stroke:none;" d="M296 114L296 156L298 156L298 114L296 114z"/>
<path style="fill:#dec199; stroke:none;" d="M298 114L298 156L300 156L300 114L298 114z"/>
<path style="fill:#d1a664; stroke:none;" d="M300 114L300 156L301 156C301 144.043 304.611 124.988 300 114z"/>
<path style="fill:#dabd9f; stroke:none;" d="M302 114L302 157L306 157L306 156L303 156C303 144.043 306.611 124.988 302 114z"/>
<path style="fill:#ddd7d5; stroke:none;" d="M303 114L303 156L308 158L308 114L303 114z"/>
<path style="fill:#d3a457; stroke:none;" d="M308 114L307 159L309 148L308 114z"/>
<path style="fill:#dcc0a1; stroke:none;" d="M310 114L310 160L311 160C311 146.996 315.01 125.939 310 114z"/>
<path style="fill:#ddd5cb; stroke:none;" d="M311 114L311 150C311 155.803 310.184 161.067 316 164L315 114L313 114L313 160L312 160C312 146.996 316.01 125.939 311 114z"/>
<path style="fill:#dfc9ab; stroke:none;" d="M312 114L312 160L313 160C313 146.996 317.01 125.939 312 114z"/>
<path style="fill:#ccbcad; stroke:none;" d="M315 114C315 128.332 314.901 142.668 315.003 156.999C315.051 163.737 314.792 170.368 323 171L323 168C327.494 168.673 332.371 171.047 332 176L332 177L334 181L335 181L336 178L350 177C351.474 182.596 354.268 184.686 360 185C362.144 191.344 370.951 194.425 377 196C377.442 206.14 394.676 206.786 401.624 210.984C405.332 213.224 406.775 217.529 403 220L403 221C413.887 221.007 420.86 224.574 430 230L429 227C437.142 230.852 445.299 238.138 449.883 245.985C452.81 250.996 455.194 259.932 460 263C456.072 285.424 433.986 301.385 426 322C444.003 307.482 455.233 284.141 464.915 264C468.138 257.296 473.322 251.333 475 244L474 244L467 258L466 258C465.435 249.51 459.149 236.45 450 235L451 233L440 229L428.054 220.362L402 197L402 196L404 194L371 183.667L359.028 177.725L358 159L358 114L315 114z"/>
<path style="fill:#dacdc2; stroke:none;" d="M358 114L358 161L359.028 178.501L371 184L404 194L402 196L402 197L427.129 220.362L440 229L451 233L450 235C458.727 237.486 464.909 249.477 466 258L467 258L474 244L475 244L462 272L463 272L477 244L480 248L482 246L491 247L491 248L489 250L490 251L492 249L493 249L492 254L496 252L502 257L502 114L358 114z"/>
<path style="fill:#c2ac9a; stroke:none;" d="M121 143L126 157L131 164C135.799 161.708 137.471 157.241 141.467 154.028C145.867 150.488 152.587 148.676 155.874 143.737C157.466 141.345 157.105 135.33 152.982 135.921C149.862 136.369 147.243 141.012 145 143L153 125L121 143z"/>
<path style="fill:#e4a632; stroke:none;" d="M130 166L130 167L134 164L147 162L150 160L152 154L151 159L156 155L165 156L163 151L167 154L172 153L171 155L172 155L178 150C161.405 128.498 143.176 154.471 130 166z"/>
<path style="fill:#c47000; stroke:none;" d="M175 150L171 155L172 153L171 153L167 154L163 151L165 156L156 155L151 159L152 154C148.411 154.769 149.166 156.863 150 160L147 162C142.847 161.671 140.517 163.097 139 167L144 165L138 171L140 176L138 180L133 181L137 176L136 164L129 166L129 175C121.747 176.26 127.35 186.288 123 192L120 189L116 196L117 193L111 191C111.648 193.712 111.476 198.081 113.603 200.102C118.38 204.638 126.464 196.79 128.667 192.69C130.504 189.274 128.634 182.974 129 179L130 179C131.071 185.315 137.293 186.834 143 187L142 183C153.097 181.632 163.503 173.971 169 164L173 165C172.786 159.672 175.147 156.951 180 155L180 162L189 161L185 162L189 156C183.784 155.938 181.023 155.051 179 150L175 150z"/>
<path style="fill:#db9c39; stroke:none;" d="M184 155L184 156L189 156L185 162L189 161L184 168L192 175L188 181L192 180L192 184C196.442 183.675 201.259 183.928 204 180L205 180L205 185L207 182L212 183L207 188L207 189L212 190C217.549 184.359 229.347 183.362 237 182L237 180L234 179L235 176L222 170L222 165C218.093 166.418 216.877 170.133 216 174L215 174L216 168C206.837 169.733 204.66 174.332 198 180L196 176L197 178L196 178L194 175L197 172L194 169L191 170L201 159L226 164L231 164L235 164L236 161L235 160L223 160L219 158L229 157L228 154L236 155L235 158L239 162L247 163L247 157L244 160L239 156L248 155C235.979 149.909 222.28 154.846 210 155.671C201.258 156.257 193.209 153.835 184 155z"/>
<path style="fill:#d9b07e; stroke:none;" d="M183 156L188 155L183 156z"/>
<path style="fill:#da971d; stroke:none;" d="M228 154L229 157C224.893 155.753 222.501 155.216 219 158L223 160L235 160L236 161L235 164L231 164L226 164L201 159L191 170L194 169L197 172L194 175L194 177L197 178L196 176L197 176L198 180L216 168L215 174L216 174L222 165L222 170L229 165L231 169L227 168L234 173L234 168L235 166L241 168L241 164L242 164L243 170L248 163L239 162L235 158L236 155L228 154z"/>
<path style="fill:#daa03b; stroke:none;" d="M257 167L264 168L263 172L269 171L263 176L284 175L281 176L279 182L284 188L283 198L284 198L287 195L286 198L293 193L299 194L302 189C297.509 187.862 293.553 189.585 291 185L302 183L312 182L309 172L316 177L316 178L314 183L315 183L322 180C323.027 184.704 325.542 184.947 330 185L329 189L334 185L334 191L335 191L332 177L332 176L334 173L331 175L326 176L322 171L310 163L306 166L302 163L305 169C299.076 167.213 295.63 165.598 290 169C290 163.048 298.014 159.944 297 164L301 162C293.679 148.648 263.612 156.08 257 167z"/>
<path style="fill:#913e03; stroke:none;" d="M173 165L169 164C161.363 173.287 153.746 180.416 142 183L143 187L138 187L128 201C133.702 202.685 138.826 201.823 144 199L141 190C151.262 192.997 167.194 173.809 175 167L180 181L175 179C175.985 183.737 178.334 185.252 183 186L185 178L183 178L183 182L182 182C181.11 178.425 178.792 173.504 182 171L182 170L176 170L183 163L183 165L187 164L187 163L180 162L180 155C174.595 156.446 172.51 159.407 173 165z"/>
<path style="fill:#c58025; stroke:none;" d="M239 156L244 160L247 157C247.437 160.466 250.004 159.711 253 159C250.158 153.847 244.078 154.499 239 156z"/>
<path style="fill:#b28b70; stroke:none;" d="M95 170C93.1807 168.059 92.3054 168.92 91 171L87 170L84 176L86 187L82 186L85 189L84 194C74.4603 194 80.1212 200.798 77 206C75.2394 208.934 71.3198 208.721 72 206L67 211L66 206L65 206C62.5523 213.931 66.065 225.838 54 226L54 227L65 233C69.3467 221.294 83.134 213.962 93 207L91.7816 196.147L114.896 184.965L130 165C124.305 162.114 120.643 159.055 114 161L114 159L95 170z"/>
<path style="fill:#c47100; stroke:none;" d="M246 159C247.011 163.833 246.051 166.14 243 170L242 164L241 164L241 168L235 166L234 168L234 173L227 168L231 169L229 165C220.723 169.356 230.362 174.202 235 176L237 180L245 172L246 172L248 176L254 174L259 184L262 183L263 187L264 187L253 159L246 159z"/>
<path style="fill:#d88e01; stroke:none;" d="M270 169L276 166L277 169L285 160C278.801 160.541 272.376 162.816 270 169z"/>
<path style="fill:#d78600; stroke:none;" d="M290 169L298 162C292.882 162.283 290.597 163.771 290 169z"/>
<path style="fill:#965d1b; stroke:none;" d="M176 170L182 170L182 171L179 171L182 182L183 182L183 178L187 180L183 163L176 170z"/>
<path style="fill:#d48929; stroke:none;" d="M136 165L137 176L133 181L138 180L137 177L140 176L138 171C141.922 170.352 142.985 168.764 144 165L139 167L140 164L136 165z"/>
<path style="fill:#9a5400; stroke:none;" d="M297 164L301 167L297 164z"/>
<path style="fill:#da9529; stroke:none;" d="M128 166L111 191L117 193L116 196L120 189L123 192C129.023 186.434 121.596 177.347 129 175L128 166z"/>
<path style="fill:#974201; stroke:none;" d="M151 166L149 169C149.573 172.329 148.333 176.198 152 177L150 180L161 171L151 166z"/>
<path style="fill:#bf966a; stroke:none;" d="M254.333 166.667L254.667 167.333L254.333 166.667z"/>
<path style="fill:#632a02; stroke:none;" d="M173 167C171.507 170.599 170.503 173.516 174 176L174 186C169.606 185.665 167.709 184.444 167 180L158 183C161.959 189.344 170.699 187.501 177 186L175 179L180 181L175 167L173 167z"/>
<path style="fill:#c38844; stroke:none;" d="M256 167C251.348 177.15 264.277 177.126 269 171L263 172L264 168L256 167z"/>
<path style="fill:#ba6d00; stroke:none;" d="M185 168L187 180C181.79 183.254 182.56 190.51 181 196L185 195L187 199L184 200L187 213L180 216L183 219L183 220L181 223C174.845 219.798 165.871 220.386 164 228L171 227L201 228L201 227L190 224L200 201L188 196L195 196L193 192L195 188L200 189L200 188L198 187L203 187C200.425 182.961 196.366 183.089 192 184L192 180L188 181L192 175L187 168L185 168z"/>
<path style="fill:#d4a66b; stroke:none;" d="M323 168L323 169L328 169L323 168z"/>
<path style="fill:#d68600; stroke:none;" d="M321 174L326 176L331 175L333 174C329.759 168.56 323.59 167.819 321 174z"/>
<path style="fill:#380702; stroke:none;" d="M141 190L143 198L164 189L158 183L167 180C167.381 184.89 169.276 185.845 174 186L174 176C161.74 165.517 154.161 192.978 141 190z"/>
<path style="fill:#db9421; stroke:none;" d="M245 172L242 174L243 177C239.929 178.318 237.467 180.843 234.335 181.927C227.48 184.3 216.211 183.651 212 190L207 189L207 188C210.403 187.412 211.272 186.351 212 183L207 182L205 185L205 180L204 180L200 184L203 187L200 188L200 189L195 188L194 191L208 193L222 192C224.015 185.561 234.998 185.435 241 185L243 179C246.888 178.531 247.265 174.797 245 172z"/>
<path style="fill:#d18818; stroke:none;" d="M309 172L312 182L302 183C299.054 179.828 294.423 183.697 291 185C292.706 190.135 297.509 188.285 302 189L298 192L299 197L300 202L296 202L297 207L298 207L298 204L307 208L316 198L315 194C320.571 193.373 324.428 189.093 328 185L322 180L315 183L314 183L316 178L316 177L309 172z"/>
<path style="fill:#ebbd62; stroke:none;" d="M241 174L237 180C239.933 178.714 243.002 177.28 241 174z"/>
<path style="fill:#be7b2d; stroke:none;" d="M247 174L243 179L236 190L238 188L239 188L247 193L252 187L251 187L250 190L248 190L247 186C252.858 184.302 253.756 179.583 254 174L247 174z"/>
<path style="fill:#d58805; stroke:none;" d="M258 175C261.67 184.185 266.139 187.594 275 191L278 188L281 204L292 205L289 201L290 198L286 198L287 195L284 198L283 198L284 188L279 182L284 175L270 176.914L258 175z"/>
<path style="fill:#db9700; stroke:none;" d="M288 179L300 176C295.329 173.202 289.748 173.242 288 179z"/>
<path style="fill:#8e4702; stroke:none;" d="M254 176C252.96 180.767 251.507 183.829 247 186L248 190L250 190L251 187L252 187L253 194L254 194L255 181L256 181L261 185L267 195C273.589 195.647 276.043 198.975 278 205L258 199L258 200L264 206L282 216L277 207L278 188L275 191L262 183L259 184C258.229 180.129 257.849 177.542 254 176z"/>
<path style="fill:#bda38e; stroke:none;" d="M349 177L336 178L333 193C338.53 192.958 343.983 191.414 347 197C358.506 197.001 362.82 201.653 372 207L371 205L372 205C387.059 213.43 394.743 222 413 222L413 221L403 221L403 220L406 220C405.501 203.49 378.707 210.468 377 196C370.861 193.69 363.335 190.94 360 185C354.198 184.353 352.384 181.265 349 177z"/>
<path style="fill:#ae5800; stroke:none;" d="M129 179C126.628 188.583 128.135 204.566 112 200L112 206C118.963 205.128 138.687 198.532 137.538 189.015C137.084 185.254 131.171 182.175 129 179z"/>
<path style="fill:#da983a; stroke:none;" d="M263 180C266.997 185.734 273.917 187.12 278 181L263 180z"/>
<path style="fill:#6d2b01; stroke:none;" d="M255 181C254.446 184.598 254.164 186.922 258 188L259 198L253 195L253 199C263.637 198.999 268.525 198.324 278 203C275.624 197.917 273.04 194.509 267 195L261 185L255 181z"/>
<path style="fill:#ac5c09; stroke:none;" d="M222 192L208 193C205.35 189.329 202.094 190.243 198 191L198 192C207.47 194.838 222.34 196.135 232 195L231 193L248 194L239 188L238 188L236 190L241 186C236.577 183.245 223.015 186.103 222 192z"/>
<path style="fill:#a8630d; stroke:none;" d="M177 185L177 190L180 185L177 185z"/>
<path style="fill:#bb5e02; stroke:none;" d="M315 194L316 198C312.277 197.911 307.938 204.415 307 208C303.746 207.152 299.028 202.325 298 207L297 207L296 202L300 202L302 200L302 197L299 197L300 194L293 193L289 201L292 205L279 201L282 208L281 213C299.412 220.349 305.568 214.634 319 202L320 205C325.02 202.93 330.087 200.74 331 195L337 205C330.196 212.202 323.906 207.349 316.015 210.988C309.602 213.944 305.881 220.429 300 224L300 225L314 225L312 219C314.593 218.071 316.509 216.129 319.028 215.194C322.233 214.005 348.746 211.447 339 205L342 204L338 200L338 199L344 199L344 198L342 196L346 197L346 193L333 193L334 185L329 189L330 185L315 194z"/>
<path style="fill:#a67d5c; stroke:none;" d="M111 186C105.739 191.912 97.9793 189.274 92.7423 193.985C90.0213 196.432 90.7283 203.907 94.3032 205.353C98.0296 206.861 107.463 204.805 112 205L113 186L111 186z"/>
<path style="fill:#d1891d; stroke:none;" d="M168 187L168 188L174 194C170.025 190.827 166.981 189.573 162 191L162 194L167 195L163 200L160 198L166 207L161 208L157 205L158 208L153 211L157 210C158.058 213.27 162.338 214.2 162.833 218C163.764 225.138 151.225 221.037 148 220L148 227C142.848 227.264 133.945 227.586 131 232L143 229L136 246L130 246L131 251L134 256L135 256L137 255L141 253L140 249L150 242L154 233L149 236L153 225L159 225L160 229L164 229C166.013 220.635 174.06 220.346 181 223L183 220L183 219L180 216L183 215L177 209L172 211L171 219L173 215L164 215L168 207L169 211L171 211C175.359 205.501 177.72 205.567 184 208L184 200L187 199L185 195L181 196C182.787 191.886 184.46 188.643 180 186L177 190L178 187L168 187z"/>
<path style="fill:#3e0300; stroke:none;" d="M253 186L254 194L240 194L240 195L254 198L253 195L259 198L258 188L253 186z"/>
<path style="fill:#cb7e0a; stroke:none;" d="M150 193L153 198C149.559 199.281 130.279 204.513 137 211L135 218L152 207L152 206L148 202L163 193L162 191L174 194L175 191C166.729 186.677 158.017 188.123 150 193z"/>
<path style="fill:#6a2d02; stroke:none;" d="M248 192L248 193L253 194L252 191L248 192z"/>
<path style="fill:#672b01; stroke:none;" d="M193 192L195 196L188 196C191.018 199.188 195.58 201.794 200 201L190 224C196.73 225.579 199.658 222.7 205 219L200 197L208 195L193 192z"/>
<path style="fill:#d28c1f; stroke:none;" d="M206 221L207 221L206 217L221 224L221 218L222 218C224.421 223.488 230.716 224.921 236 227L236 225L241 228L246 225L246 226L243 231L249 229L256 232L254 235L260 236L264 233C266.987 237.486 272.236 233.082 268 230L269 233L265 232L264 222L258 217L266 224L274 224L273 221L280 214C275.394 210.929 263.971 208.116 265 204L257 202L255 211L248 213L251 214L249 222L246 221L246 223C242.453 220.108 237.504 209.618 233 216L228 214L226 219L227 216L214 211L219 203L214 200L217 201L216 198L237 203L233 205L237 210L240 207L238 205L239 198L236 196C229.221 193.162 212.346 190.83 206.619 196.884C203.26 200.435 204.396 216.384 206 221z"/>
<path style="fill:#672501; stroke:none;" d="M231 193L231 194L240 195L231 193z"/>
<path style="fill:#d99537; stroke:none;" d="M149 194L142 201L153 198L149 194z"/>
<path style="fill:#d8992b; stroke:none;" d="M148 202L152 206L152 207L135 218L137 211C135.507 207.53 138.52 204.448 141 202L141 201L129 202L127 208L120 205L126 212L124 215L128 216L126 219C129.663 219.996 131.875 220.927 132 225L127 223L127 224L129 227L126 228L128 231L129 231L131 231L132 231L148 227L148 220L150 222C153.344 221.295 156.751 223.134 159.745 222.357C167.091 220.452 159.033 212.456 157 210L153 211L158 208L157 205L161 208L166 207L160 198L163 200L167 195C159.369 193.657 154.479 198.551 148 202z"/>
<path style="fill:#100002; stroke:none;" d="M200 197L204 209L205 209L210 194L200 197z"/>
<path style="fill:#c48235; stroke:none;" d="M234 194L234 195L236 196C232.577 197.488 237.321 197.956 239 198C239.919 205.991 249.36 205.178 254 211L255 211L257 202L265 204C258.798 196.9 243.12 194.745 234 194z"/>
<path style="fill:#d7922c; stroke:none;" d="M346 194L342 196L344 198L344 199L338 199L338 200L342 204L339 205L342 206L332 216L336 220L328 220L327 222L329 228C325.831 226.518 320.885 223.242 318 226L317 226L316 223L300 228L300 229C303.491 229.52 305.552 230.31 306 234L310 235L319 226L320 226L322 231L326 231L327 234L314 237L314 238L317 238L308 246L306 244L289 248L290 256L293 255L292 258L295 256L296 256L296 260L297 260C301.571 255.332 304.95 255.756 311 257L320 242L324 243L323 247L337 250L336 245L329 246L332 238L330 236L335 235L332 230L340 234L336 234L336 235L354 234L353 224L356 229L358 229L357 223L367 219L364 215L368 210L372 213L369 205L364 206L365 203L361 204L362 199L357 201L356 201L354 198L358 198L358 197L346 194z"/>
<path style="fill:#884604; stroke:none;" d="M331 195C329.444 200.38 324.564 202.277 320 205L319 202C315.362 204.467 312.826 206.409 313 211L327 204L329 205L331 201L336 204C335.655 199.813 335.298 196.413 331 195z"/>
<path style="fill:#773c08; stroke:none;" d="M204 198L204 201L205 201L204 198z"/>
<path style="fill:#db9b37; stroke:none;" d="M216 198L217 201L214 200L219 203L214 211L227 216L226 219L228 214L233 216C238.526 211.203 241.405 220.447 246 223L246 221L249 222L251 214L248 213L254 211L239 202L240 207L237 210L233 205L237 203L216 198z"/>
<path style="fill:#471002; stroke:none;" d="M263 198L263 199L278 205C274.423 198.492 269.875 198.001 263 198z"/>
<path style="fill:#c77c06; stroke:none;" d="M354 198L356 201L357 201L361 200L354 198z"/>
<path style="fill:#c77903; stroke:none;" d="M362 200L361 204L365 203L364 206L369 205L362 200z"/>
<path style="fill:#dfa242; stroke:none;" d="M111 211C114.424 211 112.013 213.862 111 216L123 213L123 214L113 217L115 226L120 233L125 233L124 228L129 227L127 224L127 223L132 225C132.161 220.517 130.194 219.474 126 219L128 216L124 215L126 212L120 205L127 208L129 201C121.923 201.583 114.362 204.384 111 211z"/>
<path style="fill:#6d3601; stroke:none;" d="M331 201L329 205L327 204L314 211L311 209L299 220L301 217L282 213C279.604 224.621 284.2 230.17 294 222L294 229L295 229L318.001 210.589L337 206L331 201z"/>
<path style="fill:#ce840c; stroke:none;" d="M93 206L95 210L99 210L108 206C103.363 202.492 98.2453 205.478 93 206z"/>
<path style="fill:#cb892d; stroke:none;" d="M99 210L95 210C90.6166 205.977 86.3608 211.778 82 214C83.1719 217.162 82.0735 218.069 79 219L80 224L74 224L73 227L81 230L76 233L76 234L82 242L88 239L87 242L90 247L102 243L101 237L110 243L108 236L111 241L116 232L115 230L119 228L119 227L115 226L113 217L123 214L123 213C117.655 212.343 115.384 212.846 111 216C112.145 214.006 113.895 211.488 111 211L115 207C109.339 203.626 103.247 205.299 99 210z"/>
<path style="fill:#d79c42; stroke:none;" d="M171 211L169 211L168 207L164 215L173 215L171 219C173.71 216.238 173.386 214.522 172 211L177 209L183 216L187 213C183.252 205.314 175.521 202.812 171 211z"/>
<path style="fill:#b4927c; stroke:none;" d="M371 205L370 207L370 221L396 221L396 220L371 205z"/>
<path style="fill:#ad763c; stroke:none;" d="M277 206L280 212L282 208L277 206z"/>
<path style="fill:#a26723; stroke:none;" d="M368 210L364 215L367 219L357 223L358 230L359 230L368 222C368.34 226.365 369.635 227.66 374 228L374 233L371 233L371 234L382 242L381 239L384 242L385 242L394 240L394 239L392 234L385 239L386 234L381 233L381 232L386 232L380 222L370 221C370.342 216.624 371.433 213.281 368 210z"/>
<path style="fill:#d7cec9; stroke:none;" d="M28 211L28 431L409 431C409 421.703 412.575 407.687 402 404L386 404L386 403L388 401L370 403L365 399C373.885 380.301 396.406 367.434 403 348C394.82 353.593 388.306 359.793 378 360.966C361.094 362.89 345.248 349.726 329 352C330.142 360.986 331.028 379.799 337.51 386.505C343.196 392.387 355.478 395.082 363 398L363 399L306 385L306 384L310 384L299 372L299 371L306 374L298 341L265 330C268.934 341.629 273.36 355.192 282 364L269 360L228 340.509L202 339L204 335L200 334L200 333L203 332L203 331L186 322L186 321L196 325L180 294C167.068 293.355 154.942 282.666 143.996 276.782C116.089 261.779 88.5276 246.403 61 230.719C50.8409 224.931 39.4046 213.27 28 211z"/>
<path style="fill:#b16601; stroke:none;" d="M103 212C103.61 216.4 104.307 219.219 109 220L103 212z"/>
<path style="fill:#92684e; stroke:none;" d="M307 213L302 217L302 218C304.919 217.161 307.076 216.24 307 213z"/>
<path style="fill:#c38b3f; stroke:none;" d="M316 216L316 218L324 221L336 220C332.08 212.004 323.173 213.042 316 216z"/>
<path style="fill:#ba6400; stroke:none;" d="M79 241L79 240C74.099 235.959 74.6742 233.663 76 228L74 224L80 224L79 219L84 215C71.3672 217.295 64.2108 236.224 79 241z"/>
<path style="fill:#a95c02; stroke:none;" d="M277 215L273 221L274 224L266 224L258 217L264 222L265 232L269 233L268 230L271 231C268.87 234.246 267.201 235.809 264 233L260 236L240 233L240 229L215.41 224.85L206 217L203 228L206 229C209.557 226.935 213.062 229.571 217 229.906C221.358 230.277 226.764 228.954 230.896 230.603C242.903 235.393 262.964 252.949 275.4 236.696C277.995 233.305 280.405 227.035 282 223L281 215L277 215z"/>
<path style="fill:#c97904; stroke:none;" d="M221 218L221 224L212 220C215.827 230.595 230.746 228.556 240 229L240 233L255 236L256 232L249 229L243 231L246 226L246 225C243.007 225.064 241.654 224.946 241 228L236 225L236 227L221 218z"/>
<path style="fill:#b29389; stroke:none;" d="M299 219L299 220L303 219L299 219z"/>
<path style="fill:#cd850d; stroke:none;" d="M312 219L314 224L317 226L318 226L329 228L329 221L324 221C321.347 217.965 315.685 217.999 312 219z"/>
<path style="fill:#450f01; stroke:none;" d="M198 226C203.849 228.396 205.702 224.44 206 219L198 226z"/>
<path style="fill:#ab5c00; stroke:none;" d="M380 225L387 223C384.328 218.939 381.209 221.02 380 225z"/>
<path style="fill:#cf8b26; stroke:none;" d="M380 227L386 232L381 232L381 233L386 234L385 239L392 234L394 239L394 240L385 242L384 242L381 239L385 251L392 256L390 253L399 255C399.38 259.769 401.536 260.914 406 262L405 255L406 255L406 258L414 261C427.04 257.572 421.154 245.558 432 240L428 235L434 236C427.066 222.066 413.977 223.279 401 221.576C394.42 220.712 383.604 220.443 380 227z"/>
<path style="fill:#400f01; stroke:none;" d="M292 222C286.83 229.799 277.674 222.641 277 235L278 235L281 233C281.578 240.425 285.644 237.388 291 237L294 222L292 222z"/>
<path style="fill:#7f3801; stroke:none;" d="M358 236L358 238L367 249L366 255L368 253L372 255L370 238L366 232L374 233L374 228C370.007 227.364 368.636 225.993 368 222C358.924 225.262 362.576 230.607 358 236z"/>
<path style="fill:#a4754f; stroke:none;" d="M70 223L65 234L72 237L72 223L70 223z"/>
<path style="fill:#af670f; stroke:none;" d="M108 224L107 232L110 224L108 224z"/>
<path style="fill:#d88b0b; stroke:none;" d="M353 224L354 234L336 235L336 234L340 234L332 230L335 235L330 236L332 238L329 246L336 245L337 250L323 247L324 243L320 242C316.517 247.539 312.809 259.244 323.975 258.745C328.298 258.551 330.314 255.228 335 256L345 254L342 259L353 257L359 254L359 248C351.84 251.495 350.34 253.418 342 251C345.666 248.661 348.802 246.544 349 242L355 243L354 236L357 232L359 232L360 235L361 235L355 224L353 224z"/>
<path style="fill:#d9972d; stroke:none;" d="M153 225L149 236L154 233L150 242L140 249L141 253L137 255L135 254L133 256L134 259L131 259L132 263L136 261L135 270L141 268L140 271L147 271L147 274L151 273L151 271L148 267L161 269L162 269L165 265L157 281L164 277L168 279L175 265C175.38 268.51 175.484 270.756 179 272L179 275L171 283L174 288L186 286L184 284L185 281L182 278L186 278L185 274C191.119 275.262 206.172 268.022 208 262L214 263L216 260L215 256L218 260L221 256L218 254L227 256L223 250L218 252L216 245L198 259L203 246L208 246L207 240L195 241L195 240L202 239L202 238L188 242L192 238L188 234L192 231L195 233L194 229C189.27 230.31 186.104 231.684 188 237L184 238L179 232L179 231L181 229L187 227L171 227L160 229L159 225L153 225z"/>
<path style="fill:#ce7602; stroke:none;" d="M302 262L301 257L297 260L296 260L296 256L295 256L292 258L293 255L290 256L289 248L308 246C309.1 243.51 320.269 239.346 314 238L314 237L327 234L326 231L322 231L320 226L319 226L310 235L306 234C305.814 229.936 303.842 229.293 300 229L300 228L303 227C298.278 223.971 294.542 227.694 292.221 232.015C285.471 244.576 282.308 264.082 302 262z"/>
<path style="fill:#dda14d; stroke:none;" d="M187 227L186 230L181 229L179 231L179 232L184 238L188 237C185.539 228.175 195.66 230.739 201 230L200 233L205 232C200.491 226.93 193.249 228.164 187 227z"/>
<path style="fill:#ce7d22; stroke:none;" d="M206 229L201 228L201 229L205 232L200 233L201 230L198 231L198 238L202 238L202 239L195 240L195 241L207 240L208 246C205.007 246.064 203.654 245.946 203 249L212 246L211 236L219 235L220 239L223 235C219.999 231.661 209.845 224.839 206 229z"/>
<path style="fill:#b99881; stroke:none;" d="M429 227L429 231C436.433 236.997 432.648 241.103 431 249L432 249C441.348 244.349 447.866 268.692 448 275L440 275L445 284L449 282L447 288L448 288C453.554 281.05 459.467 271.995 460 263C448.288 251.706 447.256 232.817 429 227z"/>
<path style="fill:#b36503; stroke:none;" d="M117 228L115 230L116 232C110.144 237.376 118.575 241.82 124 239L122 244L126 243L117 249L123 251L132 249L130 246L136 246L143 229C139.116 229.968 133.624 232.69 131 229L129 231L128 231L124 228L125 233L120 233L119 228L117 228z"/>
<path style="fill:#c57e0d; stroke:none;" d="M114 251L115 251L126 243L122 244L124 239L116 239L111 241L108 236L110 243L101 237L102 243L90 247C89.9358 244.007 90.0539 242.654 87 242L88 239L82 242L76 234L76 233L81 230C70.5753 227.502 75.4492 238.678 80.2863 242.402C85.0119 246.04 91.8844 249.659 98 249.675C104.664 249.693 108.13 245.543 114 251z"/>
<path style="fill:#be7000; stroke:none;" d="M254 229C255.947 231.231 258.053 231.231 260 229L254 229z"/>
<path style="fill:#cf7800; stroke:none;" d="M195 230C194.396 233.626 191.25 234.001 192 231L188 234L192 238C188.961 238.144 188.506 239.026 188 242C194.221 238.838 197.222 238.051 199 231L195 230z"/>
<path style="fill:#6f2e03; stroke:none;" d="M217 230L217 231L236 236C232.387 228.053 224.546 230 217 230z"/>
<path style="fill:#d08901; stroke:none;" d="M95 233C96.6737 238.697 102.405 235.77 103 231L95 233z"/>
<path style="fill:#cc7e26; stroke:none;" d="M357 232L354 236L355 243L349 242L342 251C349.285 254.036 353.047 252.968 359 248L358 252C362.846 248.943 362.518 241.246 358 238L360 236L359 232L357 232z"/>
<path style="fill:#ad5a02; stroke:none;" d="M366 232L370 238C366.356 245.64 371.813 249.541 372 257L394 264L393 269L402 270L404 276L416 269L415 272L421 270L421 271L417 277L421 275L429 289L426 285L426 284C428.566 281.869 430.9 280.199 429 277L435 277C435.268 267.943 442.595 252.753 429 250C426.67 255.444 422.68 260.666 427 266L427 273L422 264L410 265L411 263C402.797 262.977 393.67 263.649 389 256L377 255L376 249L379 248L377 244L377 243L377 242L379 242L379 241L379 240L366 232z"/>
<path style="fill:#230101; stroke:none;" d="M278 233L275 237L275 238C278.963 241.678 282.631 242.94 288 243L290 236C285.23 237.574 282.008 239.325 281 233L278 233z"/>
<path style="fill:#bc6806; stroke:none;" d="M211 236L212 246C204.583 248.116 199.095 250.776 198 259L216 245L218 252L223 250L227 256L218 254L221 256L218 260L215 256L216 260L214 263L208 262C205.169 267.613 191.291 274.712 185 274L186 278L182 278L185 281L186 286L174 288L171 283L179 275L179 272L175 265C169.548 267.702 169.952 273.767 168 279L164 277L157 281L165 265L162 269L161 269L148 267L151 271L151 273L147 274L147 271L140 271L141 268L135 270L136 261L132 263L131 259L134 259L134 251L130 250L124 267C142.711 274.831 161.793 292.07 183 291L203 271L200 271L200 269L212 268L214 272L213 274L209 277C220.461 276.136 243.407 253.428 231 242L227 247L227 248L230 249C225.975 248.906 224.549 247.675 223 244L226 240L227 240L228 242L230 241C227.543 235.903 223.573 233.779 220 239L219 235L211 236z"/>
<path style="fill:#471805; stroke:none;" d="M226 235L226 236L237 238L236 241L243 241L242 244L254 243C249.11 236.362 233.716 235.331 226 235z"/>
<path style="fill:#c97b05; stroke:none;" d="M428 235L432 240C423.76 242.542 426.06 250.685 422.593 256.468C420.855 259.366 416.932 259.972 414 261L406 255L405 255L406 262C401.962 260.572 399.717 259.392 399 255L390 253L392 256L385 251L382 242L377 242L379 244L376 249L377 255L389 256C392.419 264.348 403.246 262.995 411 263L410 265C424.986 264.691 433.231 250.422 435 236L428 235z"/>
<path style="fill:#d58600; stroke:none;" d="M167 236L163 245C169.092 247.102 169.58 244.663 171 239L168 240L169 236L167 236z"/>
<path style="fill:#693403; stroke:none;" d="M228 237L235 248L239 247L243 245L242 248L254 244L258 245C256.883 250.301 259.237 253.623 264 256L273 248C264.184 244.383 251.155 240.146 242 244L243 241L236 241L237 238L228 237z"/>
<path style="fill:#572102; stroke:none;" d="M258 243L258 244L277 248L280 254L281 254L282 251L284 257L281 255C282.86 261.844 287.67 267.762 295 268L296 276L292 274L292 278L281 275C283.654 279.45 296.86 289.075 301.914 289.593C306.545 290.067 312.08 287.102 317 287L317 286L299 279L303 267C288.937 266.952 286.04 255.071 288 243L274.829 238.845L258 243z"/>
<path style="fill:#d8953f; stroke:none;" d="M338 239L340 249L341 249L343 241L338 239z"/>
<path style="fill:#d18827; stroke:none;" d="M226 240L223 244C224.141 248.076 225.71 249.605 230 249L227 248L227 247L231 242L230 241L226 240z"/>
<path style="fill:#944803; stroke:none;" d="M254 244L242 248L243 245L239 247C236.184 244.027 233.902 250.359 234.106 252.935C234.511 258.03 242.754 260.798 247 261L247 260L240 255C243.026 250.186 252.611 250.525 256 255L260 252L258 245L254 244z"/>
<path style="fill:#bdbdbd; stroke:none;" d="M477 244L470 263L475 263L480 267L482 263C481.491 266.839 481.661 269.809 485 272L483 275L476 276L477 281L473 280L476 287L473 286L476 292L475 292L472 290L471 296L475 296L474 299L470 297L470 302L467 301L467 307L467 308L458 312L458 314L464 314L466 323L460 327L463 327L463 329L458 329L459 332C456.524 333.309 455.863 334.376 459 335L455 338L455 340L458 343L455 342L453 350L449 349L451 352L445 354L447 361L441 359L443 364L440 365L434 364C436.768 372.907 427.832 371.995 422 376L424 379L414 381L413 384L403 385L404 388L399 389C396.607 393.365 393.485 393.03 389 392L378 394L366 399L366 400L370 403L372 401L388 401L386 403L386 404L402 404C412.115 409.109 409 421.128 409 431L502 431L502 257L496 252L492 254L493 249L492 249L490 251L489 250L491 248L491 247L480 248L477 244z"/>
<path style="fill:#9b4a01; stroke:none;" d="M92 248L92 249L110 251L110 247L92 248z"/>
<path style="fill:#2f0500; stroke:none;" d="M361 247L359 254L354 254L355 258L377 266L366 255L367 249L361 247z"/>
<path style="fill:#a6846e; stroke:none;" d="M430 247L436.682 257.004L435.023 275L438 294L446 286L444 292L445 292L449 282L445 284L440 275L448 275C448 266.009 444.485 253.82 436.667 248.333C433.962 246.436 432.19 248.613 430 247z"/>
<path style="fill:#702b00; stroke:none;" d="M109 248L110 251L97 251L97 252L125 266L127 254L122 257L113 253L109 248z"/>
<path style="fill:#7f3603; stroke:none;" d="M276 248C276.58 254.39 278.515 255.281 284 257L282 251L281 254L280 254L276 248z"/>
<path style="fill:#964402; stroke:none;" d="M111 249L111 250L113 253L116 252L122 257L131 249L123 251L125 253L114 251L111 249z"/>
<path style="fill:#9e570c; stroke:none;" d="M261 259C264.35 258.865 266.486 259.438 267 263L269 261L274 263L279 257L279 256L276 249C269.286 249.889 264.081 252.866 261 259z"/>
<path style="fill:#69625a; stroke:none;" d="M79 251L82 262L90 265L88 261L101 271L93 261L97 261L97 260L92 257L91 257L87 259C86.2295 254.235 83.4434 252.424 79 251z"/>
<path style="fill:#b46707; stroke:none;" d="M240 255C243.365 258.3 247.059 262.707 252 260L253 260L264 263L264 262L261 262L262 254L256 255C254.837 249.655 241.555 249.458 240 255z"/>
<path style="fill:#591c02; stroke:none;" d="M368 253L376 267L380 266L368 253z"/>
<path style="fill:#9f5604; stroke:none;" d="M311 257L301 255L302 262L291 262C293.879 270.629 319.304 268.441 314 258L319 257C316.022 254.435 313.497 253.59 311 257z"/>
<path style="fill:#813703; stroke:none;" d="M335 256L323.961 258.478L314 258L316 263C317.836 262.827 321.546 262.438 321.387 265.433C321.219 268.614 316.671 269.946 315.886 273.054C314.217 279.664 321.315 285.688 327 286L320 273L319 273L317 275C321.802 267.316 333.4 263.087 342 262L342 266L349 269C348.196 264.39 348.587 262.298 352 259L350 263L354 262L355 265L356 265L357 262L359 262L364 264L363 262L368 261L368 260L355 258L354 254L353 254L353 257L342 259L345 254L335 256z"/>
<path style="fill:#783d05; stroke:none;" d="M226 269L219 274L238.787 277.549L247.042 268.093L253 260C241.476 263.922 237.572 251.866 228.609 262.841C226.693 265.187 224.965 266.065 226 269z"/>
<path style="fill:#c3781b; stroke:none;" d="M274 263L267 263C267.898 254.915 257.528 260.606 264 262L264 263L262 264L278 270C282.718 268.727 283.843 266.795 284 262L281 263L280 262L280 257L274 263z"/>
<path style="fill:#a6621c; stroke:none;" d="M280 257L280 262L281 263L284 262C283.656 266.516 282.176 268.306 278 270L273 268L282 274L283 271L289 273C290.34 266.482 284.979 260.693 280 257z"/>
<path style="fill:#833604; stroke:none;" d="M372 257L372 258C375.945 259.772 378.395 262.655 379 267C396.867 267.211 392.884 286.601 400.414 297.701C403.638 302.453 412.344 306.619 417 310L417 311L400 309L401 312L422 314L422 318C430.71 312.859 433.344 305.63 434 296L433 296C428.954 305.668 407.929 298.83 410 292L401 285L407 285L406 282L417 279L421 271L421 270L415 272L416 269L404 276L402 270L393 269L394 264L372 257z"/>
<path style="fill:#ad5e03; stroke:none;" d="M351 259C348.041 262.353 347.994 264.722 349 269L342 266L342 262C333.835 262.644 320.405 266.873 317 275L319 273L320 273L327 286L321 285L325 293C330.534 291.988 332.691 289.602 333 284L327 284L327 277L331 278L329 268L335 265L334 269L336 266L342 268L340 275L343 273L346 274L356 271L356 276L368 279L380 267L375 266C374.817 271.075 372.279 274.448 367 274L367 273L371 273L369 266L363 267L364 264L359 262L357 262C355.449 263.806 355.137 264.163 354 262L350 263L351 259z"/>
<path style="fill:#9c948e; stroke:none;" d="M97.3333 260.667L97.6667 261.333L97.3333 260.667z"/>
<path style="fill:#adadaf; stroke:none;" d="M469 260L441 306L449 307C447.544 311.627 445.99 314.221 441 315L442 318L446 320L443 319L444 325L440 324L441 321L437 325L440 328L433 329L433 330L435 332L439 331C437.607 333.912 437.221 335.143 440 337L440 338L430 341C431.844 342.674 433.664 343.582 431 345L435 351L430 353L432 349L427 348L429 350L429 351L429 352L427 358L423 358C421.943 361.492 420.582 362.432 417 363L398 367L398 368L402 369L400 374L399 370L393 372L385 379L385 386C378.794 386.538 368.153 393.653 365 399L378 394L389 392C393.34 393.649 397.363 393.981 399 389C402.034 388.504 403.071 388.126 403 385L413 384L414 381L424 379L422 376C428.23 373.081 437.952 372.616 434 364L440 365L443 364L441 359L447 361L445 354L451 352L449 349L453 350L455 342L458 343L455 340L455 338L459 335L456 334L458 329L463 329L460 327L466 323L464 314L458 314L458 312L467 308L467 307L467 301L469 302L470 302L470 297C472.654 298.163 473.213 298.302 475 296L471 296L472 290L475 292L476 292L473 286L476 287L473 280L477 281L476 276L483 275L485 272L482 271L482 263L479 264L480 267L475 263L470 263L471 260L469 260z"/>
<path style="fill:#9c938a; stroke:none;" d="M99 261L101 264L102 263L101 261L99 261z"/>
<path style="fill:#af7028; stroke:none;" d="M363 262L363 267L369 266L371 273L367 273C375.003 278.723 378.618 257.558 363 262z"/>
<path style="fill:#d68c24; stroke:none;" d="M226 300L223 297L220 303L231 306L234 301C233.721 293.607 239.147 297.177 244 296L243 302L249 302L252 297L250 295L250 294C255.193 289.448 254.736 285.316 255 279L259 282L257 286L261 281L268 282L268 283L265 284L265 285L268 285C268.168 289.583 267.63 293.575 272 296L275 286L273 289L280 291L280 292L277 294L288 296L286 302L282 301L283 306C286.081 306.312 288.242 307.467 289 304L292 305L284 309L282 313L284 307C276.902 310.741 274.39 316.541 273 324L278 328L282 326L284 332L292 332L293 328L295 329L296 329L294 327L294 326L300 322L301 322L298 327C298.563 333.136 300.599 336.287 307 337L310 341L311 325L312 325L313 328C314.245 324.233 314.489 321.093 319 321L323 318L321 316L321 309L322 309L323 312C325.179 296.232 307.412 294.531 299.09 288.28C287.539 279.606 272.877 264.771 258 262.526C249.247 261.205 245.279 270.478 240.367 275.62C238.141 277.95 235.012 278.06 232.515 279.875C225.588 284.911 225.602 292.258 226 300z"/>
<path style="fill:#1b0001; stroke:none;" d="M299 279C308.681 279.878 317.017 288.013 325 293C322.667 287.665 315.857 280.111 316.301 274.019C316.543 270.697 324.042 267.08 321.183 263.618C319.105 261.102 315.214 263.791 313 264.625C304.257 267.916 301.092 268.95 299 279z"/>
<path style="fill:#645c55; stroke:none;" d="M101 263C102.696 269.017 103.529 273.055 110 275L108 271L113 273L107 267L114 271C111.338 266.15 106.139 264.406 101 263z"/>
<path style="fill:#803900; stroke:none;" d="M421 263L427 273L427 266L421 263z"/>
<path style="fill:#c2b8ad; stroke:none;" d="M58 264L58 265C75.5124 275.185 99.2362 287.521 119 292L102 282.861L58 264z"/>
<path style="fill:#ca7908; stroke:none;" d="M333 265L329 268L331 278L327 277L327 284L331 284L331 283L329 282L332 276L334 278L338 277L337 280L345 280L345 278L339 278L337 271L340 272L342 268C338.419 266.149 337.083 266.549 334 269L335 265L333 265z"/>
<path style="fill:#dbd4d0; stroke:none;" d="M107 267L110 269L107 267z"/>
<path style="fill:#cd8a25; stroke:none;" d="M368 279C363.563 276.754 361.038 274.242 356 276L356 271L346 274L343 273L340 275L341 272L337 271L339 278L345 278L345 280L337 280L338 277L332 276L329 283L333 293L337 293L334 294L333 306L332 306L332 301L329 301L329 310L336 313L336 323L341 323L338 321L339 316L342 319L343 319L343 316L349 321L352 320L353 323L358 322L351 323L349 327L355 331L360 328L359 323L360 323L361 326L364 324L363 330L364 330L372 321L372 320L370 317L364 320L366 316L363 316L363 315L367 313L365 309C370.119 308.985 373.747 309.102 376 304C372.197 303.597 369.191 302.762 368 307L359 306L357 303L357 308L348 308L349 302L361 301L362 295L369 298L365 291C370.809 293.451 381.265 296.921 387 294L386 298L389 297L390 303L396 307L396 308L392 306L388 307L389 311L387 311L388 314C379.899 312.143 376.818 318.544 371 322L372 326L374 326L377 323L372 328C375.288 333.908 379.759 328.892 385 329L386 323L393 322L397 325L398 317L400 320L401 320L403 315L397 304L398 301L388 290L388 289L392 288C396.918 293.196 394.269 279.83 394 278L393 278L393 280C392.328 277.46 392.539 274.335 391.228 272.019C384.842 260.745 372.766 272.85 368 279z"/>
<path style="fill:#924b03; stroke:none;" d="M200 269L203 271L183 291L171 289L171 290C179.852 295.166 185.703 296.324 194 290L193 287L203 281L213 274L214 272L212 268L200 269z"/>
<path style="fill:#200102; stroke:none;" d="M212 297L214 300L225 284L229 285L235 279L219 274L226 269C220.401 267.25 217.624 273.612 213.576 276.357C210.995 278.107 207.872 276.94 205.171 278.357C201.367 280.352 199.632 284.684 196.626 287.53C194.927 289.138 191.339 290.461 190.921 293.044C190.508 295.597 194.302 296.628 196.005 297.459C202.521 300.64 205.923 301.49 212 297z"/>
<path style="fill:#87490a; stroke:none;" d="M289 268L289 273L283 271L282 274L279 273L280 276L292 278L292 274L296 276L295 268L289 268z"/>
<path style="fill:#fffaf3; stroke:none;" d="M109 269L109 270L112 271L109 269z"/>
<path style="fill:#a69f94; stroke:none;" d="M95 270L95 273L97 273L97 270L95 270z"/>
<path style="fill:#aea9a3; stroke:none;" d="M112 270L112 274L115 270L112 270z"/>
<path style="fill:#6f685e; stroke:none;" d="M116 272C117.881 279.749 126.535 284.669 134 286L134 285L121 275L131 280C128.132 274.479 121.931 272.521 116 272z"/>
<path style="fill:#aea7a0; stroke:none;" d="M98 273L98 274L107 278L98 273z"/>
<path style="fill:#e19929; stroke:none;" d="M392 274L392 280L393 280L394 274L392 274z"/>
<path style="fill:#ae6e24; stroke:none;" d="M420 275L415 282L421 283L419 289L425 286L420 275z"/>
<path style="fill:#cb7a0d; stroke:none;" d="M429 277L431 279L431 280L426 284L426 285L429 289L427 286L417 290L421 292C424.496 289.228 427.195 291.036 430 294L431 294L432 294L435 293C436.21 287.108 438.864 275.343 429 277z"/>
<path style="fill:#a8a098; stroke:none;" d="M108 277L120 284L120 283L108 277z"/>
<path style="fill:#5d1f02; stroke:none;" d="M209 277L209 278L214 278L209 277z"/>
<path style="fill:#ca7c01; stroke:none;" d="M255 279L252 297L249 302L243 299L242 299L237 307L239 295C234.751 295.339 233.177 296.676 234 301L231 306L220 303L223 297L226 300L227 284C217.403 288.99 216.043 296.265 219 306L233 312L231 316C237.566 317.678 248.559 317.837 251 310L255 310L251 320L255 322L260 308L265 312L264 309L281 309L284 307L282 313L285 312L284 309L292 305L289 304L283 306L282 301L286 302L288 296L277 294L280 292L280 291L273 289L275 286L272 296L268 286L257 286L259 282L255 279z"/>
<path style="fill:#af5b01; stroke:none;" d="M406 282L407 285L401 285C402.388 289.96 405.338 290.669 410 292C406.846 297.468 429.648 308.161 433 296L434 296L433 301C436.788 297.916 436.984 292.595 437 288L436 288L435 293L432 294L431 294L430 294C427.986 290.496 423.604 287.774 421 292L417 291L421 283L415 282L416 279L406 282z"/>
<path style="fill:#b36619; stroke:none;" d="M201 280L193 289C197.422 288.281 201.255 284.685 201 280z"/>
<path style="fill:#dde0e2; stroke:none;" d="M150 281L150 282L179 295L179 294L150 281z"/>
<path style="fill:#dea13c; stroke:none;" d="M261 281L258 287L268 286L265 285L265 284L268 283L261 281z"/>
<path style="fill:#6a2d07; stroke:none;" d="M229.333 282.667L229.667 283.333L229.333 282.667z"/>
<path style="fill:#b36601; stroke:none;" d="M280 282C280.107 286.417 280.457 289.565 285 291C285.685 286.725 283.834 283.872 280 282z"/>
<path style="fill:#a4a093; stroke:none;" d="M126 286L132 289L132 287L126 286z"/>
<path style="fill:#7f5433; stroke:none;" d="M444 286L438 294L438 290L437 290L433 306C439.714 300.85 443.113 293.729 446 286L444 286z"/>
<path style="fill:#7a3a02; stroke:none;" d="M301 290L301 291C314.041 291.045 317.36 299.912 323 310L325 310C325.603 301.245 326.138 287.559 314 287.097C309.399 286.922 305.356 289.026 301 290z"/>
<path style="fill:#b0650d; stroke:none;" d="M388 289L388 290C393.221 292.347 396.344 298.427 397 304C401.275 300.321 398.704 293.811 398 289L392 288L388 289z"/>
<path style="fill:#ce7701; stroke:none;" d="M324 293C324.897 297.293 322.171 308.146 328 309L329 315L334 314L333 321L329 321L331 326L330 330L334 328L333 331L340 329L339 333L353 331L353 329L349 327L351 323C354.151 324.601 355.947 325.125 358 322L353 323L352 320L349 321C347.689 318.119 344.119 313.807 343 319L342 319L339 316L338 321L341 323L336 323L336 313L329 310L329 301L332 301L332 306L333 306L337 293L324 293z"/>
<path style="fill:#cd9442; stroke:none;" d="M365 291L369 298L362 295L361 301L349 302L348 308L357 308L357 303L359 306L368 307C370.005 303.752 372.351 303.911 376 304C373.112 308.454 370.11 308.954 365 309L367 313L363 315L366 316L364 320L370 317L369 320L388 314L387 311L389 311L388 307L392 306L396 308L396 307L390 303L389 297L386 298L387 294C380.567 296.279 371.44 293.042 365 291z"/>
<path style="fill:#46230b; stroke:none;" d="M189 293L182 294L182 295L217 310L215 299L212 297C203.391 301.69 196.715 298.662 189 293z"/>
<path style="fill:#843700; stroke:none;" d="M216 294C214.964 299.578 213.336 307.716 220 310L220 309L216 294z"/>
<path style="fill:#ede2d7; stroke:none;" d="M180 295L180 296L209 308C202.814 301.997 188.47 296.51 180 295z"/>
<path style="fill:#d05f5a; stroke:none;" d="M179 296C186.863 316.746 201.254 331.835 223 337C213.142 315.885 202.545 301.593 179 296z"/>
<path style="fill:#d3913f; stroke:none;" d="M243 296L239 297L237 307C240.555 304.884 243.473 300.204 243 296z"/>
<path style="fill:#c0b2a6; stroke:none;" d="M132 297L146 304.78L185 321L168 312.515L132 297z"/>
<path style="fill:#562502; stroke:none;" d="M399 298L402 318L410 311L400 309L417 311L417 310L399 298z"/>
<path style="fill:#b68a5f; stroke:none;" d="M201.667 303.333L202.333 303.667L201.667 303.333z"/>
<path style="fill:#ba9d8e; stroke:none;" d="M436 303L430 315C433.763 312.111 437.873 308.002 436 303z"/>
<path style="fill:#a05504; stroke:none;" d="M220 304L218 310L218 311C222.793 312.138 229.615 317.156 233 312L220 304z"/>
<path style="fill:#b76500; stroke:none;" d="M264 309L265 312L260 308L255 322L251 320L255 310L251 310L238 318L261 327L265 320L264 326L271 331L317 346L319 332L318 332L317 336L316 336L316 328L314 328L311 333L312 336C308.803 336.689 309.254 338.054 310 341L307 337C301.088 335.805 299.309 332.577 298 327L301 322L300 322L294 326L294 327L296 329L293 328L292 332L284 332L282 326L278 328L273 324C273.994 319.884 283.964 305.288 275.074 305.698C270.427 305.912 269.264 310.239 264 309z"/>
<path style="fill:#a0a0a8; stroke:none;" d="M366 397L385 386L385 379C389.319 378.371 391.835 376.224 393 372L399 370L400 374L402 369L398 368L398 367C401.914 366.997 416.493 366.377 417 363C420.864 362.7 422.348 361.911 423 358L427 358L429 352L429 351L429 350L427 348L432 349L430 353L435 351L431 345L434 344L434 343L430 341L440 338L440 337L439 331L435 332L433 330L433 329L440 328L440 325L437 325L441 321L440 324L444 325L443 319L446 320L445 317L441 315C446.426 314.586 447.886 312.089 449 307C435.389 306.313 431.207 315.953 422.576 326C409.244 341.519 396.404 357.004 383.6 373C377.572 380.532 369.508 387.88 366 397z"/>
<path style="fill:#d1c2bd; stroke:none;" d="M207 308C213.44 329.893 228.371 340.978 249 348L236 317C227.308 314.167 216.144 306.739 207 308z"/>
<path style="fill:#c57409; stroke:none;" d="M294 307L290 310L296 320L298 320L301 316L308 320L308 315L298 309L302 313L302 314C298.07 313.357 296.849 311.997 297 308L294 307z"/>
<path style="fill:#a75402; stroke:none;" d="M325 308C322.777 317.477 326.823 327.789 331 336L336 335L338 333L341 336L341 337L335 337L335 338C339.208 337.95 341.71 337.734 344 334L339 333L340 329L333 331L334 328L330 330L331 326L329 321L333 321L334 314L329 315L328 309L325 308z"/>
<path style="fill:#b66e1b; stroke:none;" d="M321 309L323 318L319 321C314.145 320.809 314.042 323.867 313 328L312 325L311 325C310.307 328.733 308.865 333.26 312 336L311 333L314 328L316 328L316 336L317 336C320.562 328.018 327.878 316.974 321 309z"/>
<path style="fill:#a48573; stroke:none;" d="M429 311L422 324C426.156 321.008 431.078 316.504 429 311z"/>
<path style="fill:#b99069; stroke:none;" d="M222.667 312.333L223.333 312.667L222.667 312.333z"/>
<path style="fill:#674027; stroke:none;" d="M402 322L420 319L419 322C421.906 319.51 422.615 317.789 422 314C414.735 315.729 403.961 309.686 402 322z"/>
<path style="fill:#863e02; stroke:none;" d="M324 316C322.976 324.105 323.513 329.921 328 337L325 336C330.261 347.665 346.888 342.769 357 344L357 345C348.689 345.239 339.738 345.022 334 351L334 352L340 353L338 347C343.548 348.045 354.092 352.339 358 347L363 347L359 345L360 342L350 340C348.467 331.17 337.576 340.211 331.514 334.465C325.268 328.545 329.052 321.005 324 316z"/>
<path style="fill:#c77609; stroke:none;" d="M401 316L401 320L400 320L398 317L397 325L393 322L386 323L385 329C379.652 328.579 376.113 332.641 372 328L377 323L374 326L372 326L374 320C369.341 321.716 365.716 325.341 364 330L363 330L364 324L361 326L360 323L359 323L360 328C357.007 328.064 355.654 327.946 355 331L356 331C359.141 329.445 362.588 331.759 365 334L361 337C365.961 339.581 370.847 339.855 373 334L383 336L383 337L379 339L380 342C391.795 342.358 403.215 337.662 400 324L403 325L401 316z"/>
<path style="fill:#7d5b47; stroke:none;" d="M424 316L419 322L420 319L402 322L404 341C411.986 338.023 426.31 325.833 424 316z"/>
<path style="fill:#dde1dc; stroke:none;" d="M236 318L236 319L272 332C264.438 325.328 245.976 319.494 236 318z"/>
<path style="fill:#cb4a47; stroke:none;" d="M235 319C244.177 341.044 253.669 355.369 278 361C275.194 352.758 270.939 336.618 264.501 330.702C258.296 325.001 243.154 320.932 235 319z"/>
<path style="fill:#844211; stroke:none;" d="M263 320L261 327L272 330L272 329L264 326L265 320L263 320z"/>
<path style="fill:#c9a59c; stroke:none;" d="M186 321L186 322L203 331L203 332L200 333L200 334L204 335L202 339C210.592 340.578 220.078 337.744 228 340.915C241.392 346.276 254.728 359.471 269 360L282 364L250 347L230 339.337L186 321z"/>
<path style="fill:#d7d5d1; stroke:none;" d="M425 321L400 347.96L386 360C398.593 354.112 408.293 343.332 417.282 333C420.206 329.638 425.238 325.711 425 321z"/>
<path style="fill:#632402; stroke:none;" d="M322 324C320.153 327.68 315.075 340.824 317.133 344.491C319.882 349.389 331.041 350.605 336 351C338.25 344.897 350.88 345.389 357 345L357 344C345.663 341.673 332.627 347.395 325 336L328 337L322 324z"/>
<path style="fill:#692b02; stroke:none;" d="M400 324C402.285 336.882 394.28 347.615 381 348L382 360C391.814 357.112 403.649 348.33 408 339L404 341C403.35 334.328 406.779 328.181 400 324z"/>
<path style="fill:#b45f01; stroke:none;" d="M345 334L345 335L350 340C361.984 339.837 372.509 346.134 384 347.478C389.321 348.101 393.195 345.069 394 340L380 342L379 339L383 337L383 336L373 334C369.928 339.475 366.328 339.041 361 337L365 334L364 331L345 334z"/>
<path style="fill:#c37e28; stroke:none;" d="M336 335L332 334L341 337L341 336L338 333L336 335z"/>
<path style="fill:#c08146; stroke:none;" d="M290 337L290 338L294 338L290 337z"/>
<path style="fill:#9a4d08; stroke:none;" d="M397 337L394 344C396.802 342.233 398.061 340.253 397 337z"/>
<path style="fill:#e7ece0; stroke:none;" d="M290 338L290 339L332 352C322.696 345.04 301.63 338.596 290 338z"/>
<path style="fill:#cea883; stroke:none;" d="M297 339L297 340L300 340L297 339z"/>
<path style="fill:#ca4745; stroke:none;" d="M297 342C299.115 351.226 301.41 366.422 307.649 373.736C313.18 380.22 328.027 384.285 336 387C335.333 379.356 333.45 358.37 328.142 352.843C322.767 347.247 304.57 343.134 297 342z"/>
<path style="fill:#c39160; stroke:none;" d="M307.667 342.333L308.333 342.667L307.667 342.333z"/>
<path style="fill:#4f1901; stroke:none;" d="M359 343L359 345L369 347L369 346L367 344L374 345C369.968 341.222 364.097 341.564 359 343z"/>
<path style="fill:#cf968e; stroke:none;" d="M305.667 344.333L306.333 344.667L305.667 344.333z"/>
<path style="fill:#884503; stroke:none;" d="M367 344L369 346L369 347L364 346C367.049 352.349 373.307 354.956 380 353L382 360C381.183 355.599 379.762 350.747 384 348L367 344z"/>
<path style="fill:#cd9489; stroke:none;" d="M308.667 345.333L309.333 345.667L308.667 345.333z"/>
<path style="fill:#cd918c; stroke:none;" d="M311 346L311 347L314 347L311 346z"/>
<path style="fill:#6e4435; stroke:none;" d="M318.667 346.333L319.333 346.667L318.667 346.333z"/>
<path style="fill:#ca8f88; stroke:none;" d="M314.667 347.333L315.333 347.667L314.667 347.333z"/>
<path style="fill:#a8907f; stroke:none;" d="M320 347L320 348L323 348L320 347z"/>
<path style="fill:#b86c07; stroke:none;" d="M338 347L340 354L381 361L380 353L358 347C353.07 351.624 344.033 347.766 338 347z"/>
<path style="fill:#ca958d; stroke:none;" d="M320 349L320 350L323 350L320 349z"/>
<path style="fill:#c78f88; stroke:none;" d="M323 350L323 351L326 351L323 350z"/>
<path style="fill:#976847; stroke:none;" d="M330.667 350.333L331.333 350.667L330.667 350.333z"/>
<path style="fill:#c78a82; stroke:none;" d="M326.667 351.333L327.333 351.667L326.667 351.333z"/>
<path style="fill:#cfa46e; stroke:none;" d="M362 359L362 360L368 360L362 359z"/>
<path style="fill:#bd9c7d; stroke:none;" d="M370 360L370 361L377 361L370 360z"/>
<path style="fill:#b1855f; stroke:none;" d="M377.667 361.333L378.333 361.667L377.667 361.333z"/>
<path style="fill:#b0a296; stroke:none;" d="M284 364L292 368L292 367L284 364z"/>
<path style="fill:#cfada4; stroke:none;" d="M299 371L299 372L310 384L306 384L306 385C318.431 391.142 328.614 389.941 342 391.998C349.171 393.099 355.959 397.118 363 399L363 398L325 382.001L307 372L305 374L299 371z"/>
</svg>
