<?xml version="1.0" standalone="yes"?>
<svg width="512" height="512">
<path style="fill:#ffffff; stroke:none;" d="M0 0L0 512L512 512L512 0L0 0z"/>
<path style="fill:#d6b1a7; stroke:none;" d="M352 150L352 143C345.643 143.277 340.78 144.347 339 151L342 152L336 154C335.653 157.296 332.877 163.714 329 161L330 165L327 166C329.059 175.729 340.275 170.277 347 168L347 167L343 167L347 156L356 156L356 166L369 172L369 171L367 171L367 170C375.21 170.069 388.82 177.618 396 173L414 183C413.514 159.441 394.6 149.75 378 135.92C373.094 131.832 364.314 121.85 357.055 124.608C341.185 130.638 365.063 145.406 352 150z"/>
<path style="fill:#f2e7d5; stroke:none;" d="M276 145L276 146L291 146L276 145z"/>
<path style="fill:#d4bfb9; stroke:none;" d="M312 153C315.99 160.575 319.876 171.32 328 175L330 172L330 171L327 166L330 165L329 161L331 163L336 154L342 152L339 151L341 145L312 153z"/>
<path style="fill:#e89715; stroke:none;" d="M245 182L245 183L243 183L243 184L246 184L246 185C240.698 188.101 242.895 191.976 246 196L250 196L248 198L253 199L252 202L258 200L265 218L265 219L263 223L267 223L265 229L265 230L267 234L274 234L272 237C277.441 238.132 278.133 240.894 277 246L280 245L277 251C282.037 250.783 287.048 250.707 288 245L291 243L294 244L298 245C302.852 243.737 308.528 244.765 312.891 242.137C319.331 238.26 316.464 231.637 326 233L327 230L330 234L322 238L322 239L322 242L322 248L322 249L329 254L333 257C330.843 262.224 331.343 265.965 337 268L334 258C336.711 258.577 337.395 258.768 338 256L339 256L345 260L342 262L340 260L339 260C340.093 265.255 342.299 265.621 347 264L349 259L349 258L347 256L353 258L351 253L356 251L362 252L362 251L360 249L364 247L358 240L356 242L355 242L350 231L334 223L333 209L332 209L332 220C329.278 218.351 327.889 218.932 327 222L318 214C311.313 218.811 320.623 222.391 325 223L325 225C320.536 226.408 316.866 226.909 316 232L313 231L306 232L304 241L291 233L287 232C283.156 231.836 281.799 230.333 280 227L283 228L283 227L280 224L290 226L287 222L299 223L300 219L299 212L292 214L292 213L295 210L283 211C285.088 214.137 287.364 214.493 291 214L289 218L277 210L278 207L276 208L277 205L280 209L285 208L281 201L293 203L290 201L290 197C285.718 198.357 281.838 199.893 278 197L280 198L280 197L276 196C277.155 192.915 277.803 191.067 275 189L275 188L275 187L277 184L273 185L279 182L279 186L285 182L299 191L300 191C301.533 185.089 304.853 184.876 310 187L305 179L308 181L312 178L309 160L307 160L303 167L302 164L296 167C297.971 163.499 304.427 156.146 303.861 152.056C303.428 148.921 299.407 148.802 297 148.139C290.023 146.217 281.262 144.337 274 146.472C262.969 149.715 255.327 159.194 246.028 165.083C241.294 168.082 237.266 180.351 245 182z"/>
<path style="fill:#f0c790; stroke:none;" d="M298 148L298 149L301 149L298 148z"/>
<path style="fill:#e8a53e; stroke:none;" d="M302 149L302 150C305.297 154.804 297.921 162.144 296 167L303 167L307 160L309 160L309 164L318 167C318.929 157.959 310.264 150.428 302 149z"/>
<path style="fill:#f5c063; stroke:none;" d="M305 151L309 157L305 151z"/>
<path style="fill:#ddaf77; stroke:none;" d="M262.667 152.333L263.333 152.667L262.667 152.333z"/>
<path style="fill:#f1b352; stroke:none;" d="M289 153L287 160L292 153L289 153z"/>
<path style="fill:#ffd693; stroke:none;" d="M306 155L312 162L310 155L309 155L306 155z"/>
<path style="fill:#b4867a; stroke:none;" d="M347 156L343 167L356 166L356 156L347 156z"/>
<path style="fill:#f2af4a; stroke:none;" d="M266 161L266 165L273 161L266 161z"/>
<path style="fill:#eeb261; stroke:none;" d="M309 164C309.621 169.798 311.465 173.635 317 176L316 173C322.367 177.344 309.876 178.429 308 181L305 179L310 184L310 187L307 187L308 194L305 192L307 197L306 199L310 200L308 197L308 196L315 196L315 192L320 195L311 182C315.423 183.127 317.755 184.44 319 189L321 189L319 182L324 182L322 169L321 169L313 168L313 167L315 165L309 164z"/>
<path style="fill:#f5a61e; stroke:none;" d="M315 165L313 167L313 168L321 171L320 166L315 165z"/>
<path style="fill:#f0ac42; stroke:none;" d="M350 166L353 170L348 170L348 171L351 172L344 174L347 171L347 170L340 171L342 175L337 175L343 177L339 180L338 189L337 189L336 186L334 188L333 185L330 186C328.346 181.017 323.525 182 319 182L321 189L319 189C318.238 184.026 315.789 182.531 311 182L320 195L315 192L315 196L308 196L308 197L310 200L303 199L309 212L306 211L304 216L318.906 213.807L327 222C327.938 219.102 329.472 218.104 332 220C333.23 212.73 331.685 204.961 326 200L322 207L319 204L320 191L325 198L329 197L328 193C329.809 194.422 330.755 196.678 333 197.833C336.513 199.642 350.599 198.306 351 195L352 195L349 199L349 200L354 201L353 198L356 198L355 195L357 195L356 186L355 186C351.79 193.065 345.66 191.993 342 186L352 179L351 176L357 173L361 179L356 179L356 180C359.565 181.97 363.018 184.889 366 181L363 181L363 179L367 183L371 183L371 180L373 180L376 184L375 181L378 182L371 173C379.5 176.209 384.494 177.641 387 187L386 188L381 187L381 188L383 189L380 190L380 188L369 187L366 191L371 198L371 194L381.91 193.983L394 199L395 199C397.982 204.628 401.649 204.603 403 198L402 198L398 200L400 198L400 197L392 191L403 190L405 194L406 191L408 198L414 197L413 194L418 196L413 193L414 189L391 178L392 183L389 183C390.412 170.964 377.036 170.028 367 170L367 171L369 171L369 172L366 169C362.806 169.013 360.729 168.597 360 172L358 170L354 168L360 168L350 166z"/>
<path style="fill:#d58c1a; stroke:none;" d="M328 175L335 175L337 181L333 180L334 188L336 186L337 189L338 189L339 180L343 177L337 175L342 175L340 171L347 170L347 171L344 174L351 172L348 171L348 170L353 170C350.81 165.092 329.032 170.208 328 175z"/>
<path style="fill:#f3bf68; stroke:none;" d="M354 168L355 171L360 172L363 168L354 168z"/>
<path style="fill:#c75e19; stroke:none;" d="M239 202L243 201L244 206C259.403 201.828 252.57 225.61 253.6 232C254.268 236.145 256.98 240.388 259 244C266.943 240.26 271.07 246.302 277 251L280 245L277 246C279.001 240.712 277.824 237.668 272 237L274 234L267 234C267.577 231.289 267.768 230.605 265 230L265 229L267 223L263 223L265 219L265 218L258 200L252 202L253 199C250.536 198.741 248.223 198.538 250 196L246 196C243.592 191.451 241.573 188.965 246 185L246 184L243 184L243 183L245 183L245 182C239.425 178.522 241.98 173.326 243 168C231.64 174.095 236.82 192.213 239 202z"/>
<path style="fill:#e6d3d1; stroke:none;" d="M84 200C85.6846 203.543 87.0695 204.688 91 205L87 208L89 216L92 216L92 217L87 224L109 223L109 224L85 226L86 232L92 232L93 236L92 238L75 241C78.8272 241 74.3941 245.1 75.3333 248C77.4872 254.649 83.6563 272.807 91 273C91.2837 263.41 97.9265 250.411 107 246.419C114.707 243.029 131.714 244.769 131 233C135.807 229.728 138.142 223.924 143.04 220.515C148.937 216.411 156.373 215.148 162.715 211.75C187.744 198.34 210.877 190.349 238 204L237 176L211 182.77L180 170.418L145 180.637L84 200z"/>
<path style="fill:#de9b3b; stroke:none;" d="M282 173L283 176L278 180L289 177L286 178L286 174L294 181L298 180L298 174L295 175C292.284 170.197 286.715 171.934 282 173z"/>
<path style="fill:#df9939; stroke:none;" d="M312 173C312.238 184.271 322.496 174.392 316 173L317 176L312 173z"/>
<path style="fill:#ba8f80; stroke:none;" d="M323 173C323.581 176.49 324.44 177.547 328 177L328 175L323 173z"/>
<path style="fill:#f0b55b; stroke:none;" d="M351 176L352 179L348 184L353 185L357 185L358 182L361 185L356 180L356 179L361 179L357 173L351 176z"/>
<path style="fill:#f0c078; stroke:none;" d="M371 173L378 182L375 181L376 184L373 180L371 183L367 183L363 179L366 181L365 184L358 182L357 185L353 185L342 186C344.746 192.524 352.886 193.548 355 186L356 186L357 195L355 195L355 199L358 197L374 201L374 202L372 205L377 205L394 217L394 220L396 219L399 229L406 227L408 233L403 231L402 240L409 241L412 245L406 236L409 235L410 235L412 238L412 232L418 231L418 228L412 225C418.562 220.611 421.917 226.479 425 232L426 232L424 226L429 227L428 230L429 230L428 225L428 224L432 224L429 217L418 213L419 216L414 214L415 210L419 211L420 210L419 207L417 209L411 200L424 211L423 208L430 216C433.79 216.07 434.647 217.606 433 221L440 223L439 220L441 220C437.258 204.81 431.028 200.313 418 192L418 196L413 194L414 197L411 196L410 207L409 207L405 199C407.676 197.041 405.203 194.562 404 192L403 192L398 200L402 198L403 198C400.911 204.168 398.5 203.896 395 199L394 199L382.83 193.904L371 194L371 198L366 191L369 187L380 188L380 190L383 189L383 183L387 187C385.114 177.418 379.868 175.404 371 173z"/>
<path style="fill:#a87a60; stroke:none;" d="M395 173L389 174C392.161 179.858 402.764 180.931 409 181L409 180L395 173z"/>
<path style="fill:#c4760c; stroke:none;" d="M324 178L324 182L330 186L333 180L337 181L335 175L324 178z"/>
<path style="fill:#f9c67d; stroke:none;" d="M390 177L389 183L392 183L390 177z"/>
<path style="fill:#f1ae45; stroke:none;" d="M265 178L257 187L256 187C255.182 182.282 250.972 181.029 247 179C249.497 185.45 257.315 190.162 264 188C263.099 184.816 263.114 183.705 266 182L265 178z"/>
<path style="fill:#975b1a; stroke:none;" d="M395 178L415 190C414.677 180.138 403.008 179.718 395 178z"/>
<path style="fill:#dfa74f; stroke:none;" d="M273 185L277 184L275 187L275 188L275 189L276 196L280 198L278 197C281.036 200.473 286.249 198.583 290 197L293 201L291 197L297 197L297 200L295 203C298.403 202.271 297.987 200.194 298 197L303 196L301 188L306 190L305 192L308 194L309 186C303.87 183.972 300.817 185.391 300 191L299 191C296.487 184.942 290.835 183.87 285 182L286 186L279 186L279 182L273 185z"/>
<path style="fill:#db8d0e; stroke:none;" d="M383 183L381 187L386 188L383 183z"/>
<path style="fill:#b25f07; stroke:none;" d="M282 184L282 186L286 186L286 184L282 184z"/>
<path style="fill:#c5a484; stroke:none;" d="M415 185L415 189L416 189L415 185z"/>
<path style="fill:#eda42e; stroke:none;" d="M301 188L303 196L298 197L295 203L295 208L288 207L289 203L281 201L285 208L280 209L277 205L276 208L278 207L277 210L289 218L291 214L283 211L295 210L292 213L292 214L299 212L297 216L303 221L306 218L305 224L310 229L304 231C303.425 227.646 302.282 226.736 299 226L300 238L301 238L300 230L303 234L316 232C317.434 227.257 320.926 226.992 325 225L325 223C320.325 221.914 313.298 219.657 318 214C318.605 216.768 319.289 216.577 322 216C316.924 210.269 310.225 213.772 304 216L306 211L309 212L303 199L307 198L306 190L301 188z"/>
<path style="fill:#e79a1c; stroke:none;" d="M415 189L413 193L418 193L415 189z"/>
<path style="fill:#c98251; stroke:none;" d="M236 190L236 198L237 198L236 190z"/>
<path style="fill:#e89823; stroke:none;" d="M401 190L397 192L397 197C401.783 196.449 402.844 194.683 403 190L401 190z"/>
<path style="fill:#fcc365; stroke:none;" d="M320 191L319 204L322 207C327.397 202.237 326.388 194.427 320 191z"/>
<path style="fill:#c76710; stroke:none;" d="M392 191L397 195L397 191L392 191z"/>
<path style="fill:#e59e2b; stroke:none;" d="M406 191L405 199L409 207L410 207L408 198C408.706 194.663 408.826 193.058 406 191z"/>
<path style="fill:#e9ae5f; stroke:none;" d="M260 195L263 196L264 192L260 195z"/>
<path style="fill:#c97e14; stroke:none;" d="M328 193L329 197L326 197L326 200L334 199C331.175 204.528 334.473 206.628 340 207L338 205L338 204L344 198L328 193z"/>
<path style="fill:#c86d0a; stroke:none;" d="M332 193L332 195L334 195L334 193L332 193z"/>
<path style="fill:#8e3d0d; stroke:none;" d="M237 195L238 204L233 202L247 212L254 216C253.931 209.883 251.231 202.676 244 206L243 201L239 202L237 195z"/>
<path style="fill:#fab754; stroke:none;" d="M269 195L269 196L274 197L269 195z"/>
<path style="fill:#ea9310; stroke:none;" d="M351 195L350 198L344 198C346.055 204.586 361.607 210.462 368 213L353 198L354 201L349 200L349 199L352 199L351 195z"/>
<path style="fill:#e9ad46; stroke:none;" d="M191 199L191 200L194 202L178 203L176 208L170 208L175 217L168 215L169 211L161 215C159.46 220.752 156.479 221.282 151 222L151 221L155 217L147 217L147 218L150 223L150 224L148 226L156 224C153.158 228.704 146.135 235.55 153 240L152 244L159 237L165 240L163 244L167 245L167 246L162 247C163.835 249.603 165.216 249.283 168 248L169 251L167 257L173 257L172 254L177 257C178.1 251.396 179.159 245.231 172 244L173 237L167 238L167 237L170 236L170 234L163 231L172 227L171 224L178 223L177 216L189 213L189 211L184 211L184 209L189 209L189 208L187 206L192 208L192 205L193 205L194 208L198 205C199.636 209.068 202.016 208.91 206 208L208 211L185 214L179 223C183.796 222.937 189.794 223.023 193 219L195 220L198 218L197 221C201.106 220.431 205.382 219.6 207 224L200 223L197 226L197 227C207.27 227.433 219.092 218.145 223 233L214 233L214 234L219 234L220 238L213 237L213 238L225 245L233 242L230 239L231 235L227 235C229.244 232.202 230.62 231.955 234 233L234 229L230 230L228 225L230 226L230 225L229 220L238 218C233.714 212.558 229.993 203.765 224.856 199.432C216.389 192.289 200.272 196.144 191 199z"/>
<path style="fill:#e6b069; stroke:none;" d="M194 197L194 198L197 198L194 197z"/>
<path style="fill:#edbd6d; stroke:none;" d="M291 197L293 203L289 202L288 207L291 206L295 208L297 200L297 197L291 197z"/>
<path style="fill:#f2b246; stroke:none;" d="M358 197L355 199L362 204L364 200L365 205L370 202L370 203L365 206L365 207L371 215L370 208L371 207L374 208L374 202L358 197z"/>
<path style="fill:#e7e1e3; stroke:none;" d="M55 233L68 229L74 246C75.7469 244.598 78.654 240.976 75 241L76 238L92 238L93 236L92 232L86 232L85 226L109 224L109 223L87 224L92 217L89 216L87 208L91 205C88.0069 204.921 81.7076 200.683 87 200C82.8609 198.637 78.0916 201.432 74 202.576C55.6229 207.713 51.1322 214.251 55 233z"/>
<path style="fill:#b95b12; stroke:none;" d="M327 199L333 211L338 213L340 211L341 211L342 211L345 213L346 206L353 212L356 211L356 220L359 219L360 225L363 227L364 227L365 224L366 224L369 233L370 230L373 230L373 243L372 243L370 241C374.233 250.392 389.584 252.226 399 254L399 255L383 259L383 260L386 264L388 262C397.523 265.816 408.668 258.212 418 256L417 251L421 247L410 251.671L399 252L399 248L400 248L400 250L401 250L400 239L399 239L398 246L388 244L389 248L380 237L380 235C384.12 232.336 382.089 228.358 378 227L380 220C369.236 215.753 359.509 208.37 349 203.375C344.967 201.458 337.328 200.287 340 207C334.722 206.292 332.162 204.3 334 199L327 199z"/>
<path style="fill:#d3a785; stroke:none;" d="M188.667 200.333L189.333 200.667L188.667 200.333z"/>
<path style="fill:#b35f07; stroke:none;" d="M188 201L188 202L194 202L194 200L188 201z"/>
<path style="fill:#de890d; stroke:none;" d="M226 200C228.701 205.778 231.007 206.518 237 208L236 212L242 210L242 209L233 205L234 201L226 200z"/>
<path style="fill:#f7ac26; stroke:none;" d="M361 200C362.021 205.127 363.362 207.435 368 210L365 207L365 206L370 203L370 202L365 205L364 200L361 200z"/>
<path style="fill:#f2b64a; stroke:none;" d="M411 200L417 209L419 207L420 210L419 211L415 210L414 214L419 216L418 213L429 217L432 224L428 224L428 225L429 230L428 230L429 227L424 226L427 238L428 238L427 234C431.202 233.277 432.26 231.036 433 227L436 231L437 231L437 228L438 228L439 230L442 220L439 220L440 223L433 221C435.342 217.555 434.024 215.839 430 216L423 208L424 211L411 200z"/>
<path style="fill:#de941d; stroke:none;" d="M203 203C204.947 205.231 207.053 205.231 209 203L203 203z"/>
<path style="fill:#be640c; stroke:none;" d="M175 205L175 206L179 205L175 205z"/>
<path style="fill:#e3b583; stroke:none;" d="M171 205L171 206L175 206L171 205z"/>
<path style="fill:#d58a0c; stroke:none;" d="M192 205L192 208L191 208L187 206L189 208L189 209L184 209L184 211L189 211L189 213L177 216L178 223L171 224L172 227C167.84 227.049 165.112 227.17 163 231L170 234L170 236L167 237L167 238L172 237L170 232L175 238L182 237L181 234L184 234L184 232L180 233L178 228L178 227L178 226L181 224L181 223L185 214L208 211L206 208C202.066 208.609 200.162 208.491 198 205L194 208L192 205z"/>
<path style="fill:#f39c13; stroke:none;" d="M374 208L371 207L370 208L370 216L380 220C380.908 225.486 386.95 229.38 392 231L389 225L389 218L383 218L383 211L380 212L385 222L378 219L377 205L374 208z"/>
<path style="fill:#d1810e; stroke:none;" d="M151 217L151 218L155 217L151 221L151 222C156.765 221.685 159.969 221.337 161 215L169 211L168 215L175 217C176.071 212.278 173.467 210.848 170 208L176 208C170.169 203.658 156.762 213.709 151 217z"/>
<path style="fill:#e99f33; stroke:none;" d="M239 206L242 209L242 210L236 212L237 208L230 207L238 217L238 218L229 220L230 226L228 225L228 226L230 230L234 229L234 233C230.596 231.308 228.814 231.532 227 235L231 235L230 239L233 242L234 242L234 237L237 239L246 233L242 216L239 218L245 213C244.102 208.929 243.318 206.719 239 206z"/>
<path style="fill:#84350b; stroke:none;" d="M346 206L345 213L342 211L341 211L340 211L338 214C344.359 217.541 351.968 215.486 355 223L352 219L351 219L350 224L355 228L353 231L361 236L362 236L362 233L371 234L372 239L373 239L373 230L370 230L369 233C368.413 230.944 365.415 220.407 364 227L363 227L360 225L359 219L356 220L356 211L353 212L346 206z"/>
<path style="fill:#dd840e; stroke:none;" d="M244 208L245 213L239 218L242 216L247 220C248.128 215.206 248.375 210.977 244 208z"/>
<path style="fill:#e69415; stroke:none;" d="M209 212L219 214L217 209L209 212z"/>
<path style="fill:#f7b33f; stroke:none;" d="M379 209L378 219L385 222L380 212L383 211L383 218L389 218L389 225C391.72 228.093 392.586 230.916 397 229L396 234L401 239L402 239L403 231L408 233L406 227L399 229C398.133 225.61 397.709 220.464 394 220L394 217L392 218C389.383 211.882 385.064 210.586 379 209z"/>
<path style="fill:#5a1906; stroke:none;" d="M333 211L334 223L346 223C348.057 226.746 350.727 228.437 355 228L350 224L351 218L344 222L340 219L335 222L335 216L336 216L337 219L338 210L333 211z"/>
<path style="fill:#450707; stroke:none;" d="M248 211L250.978 225.001L243.487 239.039L245.781 249.015L245 261C253.021 255.864 249.343 247.754 262 248C259.304 242.955 255.015 237.768 254.013 232C252.438 222.934 258.33 217.659 248 211z"/>
<path style="fill:#3b0805; stroke:none;" d="M338 214L337 219L336 216L335 216L335 222L340 219L344 222L351 218L355 223C352.847 214.951 344.684 216.893 338 214z"/>
<path style="fill:#bb7111; stroke:none;" d="M248 216L247 220L242 219L243 230C247.118 227.271 250.384 220.674 248 216z"/>
<path style="fill:#efb150; stroke:none;" d="M299 216L300 219L299 223L287 224L287 225L290 226L280 224L283 227L283 228L280 227C281.351 230.846 282.832 232.604 287 232L291 233C293.524 237.159 299.209 240.244 304 241L305 233L302 231L301 238L300 238L297 225L304 231L310 229L305 224L306 218L303 221L299 216z"/>
<path style="fill:#db7a0f; stroke:none;" d="M131 233L129 243C119.765 243 104.838 244.459 98.5718 252.174C95.2594 256.253 85.5268 275.169 96 275C102.323 281.154 106.059 267.502 105 263L109 265L114 258L112 255L117 254L114 267L118 269L121 266L121 265L121 264L119 262C123.102 264.636 120.231 268.142 119 272L122 268L125 269L132 253L133 260L137 259L146 272L141 271L141 278L134 273L133 273C133.72 282.445 146.522 283.512 154 286L152 282C155.351 281.272 156.412 280.403 157 277L153 278L147 270L160 270L158 274L162 275L162 277L159 281L161 279L167 280L162 269L167 269L166 275L166 276L168 278L169 278L169 268L170 268C172.187 270.267 173.916 268.954 176 267L177 267L182 270L177 265L178 261L168 261L168 259L176 258L172 254L173 257L161 256L161 258L155 257L152 248C156.602 244.393 158.828 241.599 165 243L159 237L152 244L153 240C147.044 234.162 153.573 229.804 156 224L148 226L150 224L150 223L149 218C139.923 219.32 136.784 227.054 131 233z"/>
<path style="fill:#eda72b; stroke:none;" d="M195 218L189 225L190 228L192 226L193 226L198 229L197 233L209 236L207 241L215 241L216 241L213 238L213 237L220 238L219 234L214 234L214 233L223 232C219.053 217.574 206.815 227.169 197 227L197 226L200 223L207 224C205.666 219.284 201.063 220.055 197 221L198 218L195 218z"/>
<path style="fill:#8c3c0c; stroke:none;" d="M250 218L243 230L243 232L248 235C249.972 228.979 252.704 224.383 250 218z"/>
<path style="fill:#e18f0f; stroke:none;" d="M193 219L183 223L183 224C186.702 225.26 196.53 225.129 193 219z"/>
<path style="fill:#e99615; stroke:none;" d="M217 222L223 222C220.604 219.99 218.966 219.327 217 222z"/>
<path style="fill:#a55805; stroke:none;" d="M441 221L440 238L441 238C441.522 232.755 446.371 224.522 441 221z"/>
<path style="fill:#f7cb91; stroke:none;" d="M287 222L290 224L287 222z"/>
<path style="fill:#f1ac4f; stroke:none;" d="M412 225L418 228L418 231L412 232L416 241L410 245L414 251L413 246L416 245L417 248C420.882 246.822 421.699 244.952 422 241L417 244C417.769 238.231 423.367 238.567 419 232L422 233L424 231C422.484 225.252 417.289 219.619 412 225z"/>
<path style="fill:#f9c363; stroke:none;" d="M181 223L178 226L178 227L178 228L180 233L185 233L184 237L187 236L189 243L190 243L190 239L194 240L199 235L197 233L198 229L193 226L192 226L191 228L181 223z"/>
<path style="fill:#bd690a; stroke:none;" d="M337 223C338.598 228.251 345.231 229.077 350 231C349.407 236.245 351.9 242.364 358 240L364 246C362.213 231.949 350.026 225.635 337 223z"/>
<path style="fill:#c0aeaf; stroke:none;" d="M344.667 223.333L345.333 223.667L344.667 223.333z"/>
<path style="fill:#ffcf7a; stroke:none;" d="M213 224L215 228L216 228L213 224z"/>
<path style="fill:#d57211; stroke:none;" d="M378 227C381.735 229.022 383.132 231.731 380 235L380 237L389 248L388 244L398 246L399 239L400 239L401 250L400 250L400 248L399 248L399 252L413 252L409 241L396 234L397 229L395 231C389.236 229.785 382.845 222.602 378 227z"/>
<path style="fill:#c68159; stroke:none;" d="M444 224L440 247C446.704 244.535 448.751 228.948 444 224z"/>
<path style="fill:#b95b12; stroke:none;" d="M297 225L299 228L299 225L297 225z"/>
<path style="fill:#c3680c; stroke:none;" d="M433 227L431 234L435 234L435 227L433 227z"/>
<path style="fill:#d09071; stroke:none;" d="M447 227L444 246L445 247L453 244L447 227z"/>
<path style="fill:#db8518; stroke:none;" d="M435 228L435 234L427 234L428 238L427 238C425.781 232.475 424.414 231.613 419 232L417 244L422 241L417 251L418 255C421.908 254.596 424.664 253.899 426 250L424 252L423 252L422 247L430 247L430 251L434 251C433.162 246.123 429.559 244.814 425 244L425 238L428 240C431.953 236.142 438.858 234.619 435 228z"/>
<path style="fill:#f3c17f; stroke:none;" d="M437 228L437 232L438 232L437 228z"/>
<path style="fill:#eeba6f; stroke:none;" d="M153 229L151 238L155 229L153 229z"/>
<path style="fill:#e8af65; stroke:none;" d="M167 231L170 229L167 231z"/>
<path style="fill:#fdc98f; stroke:none;" d="M300 230L300 232L302 232L302 230L300 230z"/>
<path style="fill:#c2670c; stroke:none;" d="M327 230L326 233C317.084 230.589 315.911 237.926 313 245L316 242L320 245L316 245L307 253C299.555 251.393 293.082 258.803 302 262L303 257C307.293 257.817 308.912 255.748 312 253L310 250L324 248L322 242C324.006 240.873 324.006 240.127 322 239L322 238L330 234L327 230z"/>
<path style="fill:#d8a795; stroke:none;" d="M450 230L451 243L458 243L450 230z"/>
<path style="fill:#d26b16; stroke:none;" d="M220 231L223 233L220 231z"/>
<path style="fill:#813a08; stroke:none;" d="M438 231L425 244L434 250L438 249L440 231L438 231z"/>
<path style="fill:#af673a; stroke:none;" d="M442 231L438 249L445 247L445 246L440 247L442 231z"/>
<path style="fill:#e7b35e; stroke:none;" d="M170 232L174 240L180 239L180 237L175 238L170 232z"/>
<path style="fill:#fad199; stroke:none;" d="M292 232L294 235L292 232z"/>
<path style="fill:#f29715; stroke:none;" d="M184 233L181 234L182 237L172 239L172 244L179 252L187 252L183 249L182 245L183 242L185 247L190 250L194 250L191 239L190 239L190 243L189 243L187 236L184 237L184 233z"/>
<path style="fill:#2a0404; stroke:none;" d="M362 233L372 259L373 259L373 256L386 255L387 250L374.439 246.49L362 233z"/>
<path style="fill:#eda22d; stroke:none;" d="M411 233L412 238L410 235L409 235L406 236L411 244L412 244L416 241L411 233z"/>
<path style="fill:#f09011; stroke:none;" d="M195 236L195 247L204 246L204 245L201 244L203 239L206 240L204 242L208 245L209 241L221 248L222 248L226 247C227.719 245.292 227.96 244.777 229 247L232 243L237 244L238 240L234 237L234 242C229.881 241.578 227.404 241.34 225 245C218.645 242.222 213.942 237.309 207 241L209 236L195 236z"/>
<path style="fill:#6c1a0a; stroke:none;" d="M366 236L368 241L372 243L373 243L371 234L366 236z"/>
<path style="fill:#f4af32; stroke:none;" d="M285 235L287 242L289 242L290 239L287 238L290 235L285 235z"/>
<path style="fill:#de7813; stroke:none;" d="M236 239L237 244L232 243L229 247L228 244L226 247L222 248L221 248L209 241L208 245L204 242L206 240L203 239L201 244L204 245L204 246L195 247L196 238L191 239L193 251C196.793 251.499 198.982 251.421 201 248L204 250L207 248L209 249L204 254L209 253L211 256L208 257C210.062 262.128 212.488 264.167 218 265L214 263L220 257L217 249C224.897 250.546 232.679 248.983 240 246L239 252L236 255L234 255L231 252L226 255L218 259L219 267L225 266L223 263L231 261L232 264C242.222 256.649 242.621 249.056 244 238L236 239z"/>
<path style="fill:#eaa53e; stroke:none;" d="M327 237L327 238L331 239L329 244L334 238L327 237z"/>
<path style="fill:#ffb53c; stroke:none;" d="M305 239L305 240L310 242C309.144 238.97 308.081 238.717 305 239z"/>
<path style="fill:#efc177; stroke:none;" d="M425 238L427 241L425 238z"/>
<path style="fill:#cdc7cf; stroke:none;" d="M458 241L443 247C443 252.624 422.763 254.624 418 255L410 260L383 266.667L352 275.667L337.333 280.333L310 305.667L287 316L298 314L294 348L269 356L273 322L253 327L254 329L245 332L244 364L249 363L249 364L226 372C231.177 373.441 238.133 369.756 243 367.914C255.282 363.267 267.496 357.878 280 353.837C316.486 342.046 352.986 328.437 389.005 315.671C405.975 309.656 429.198 306.336 443.66 295.157C457.306 284.609 456.092 261.501 470.775 250.652C473.358 248.744 476.319 243.741 473.958 240.603C470.955 236.614 462.055 241.047 458 241z"/>
<path style="fill:#e0aa7a; stroke:none;" d="M128 240L119 242L119 243C121.667 243 129.608 244.264 128 240z"/>
<path style="fill:#f0b35a; stroke:none;" d="M343 241L348 247L351 243L347 240L343 241z"/>
<path style="fill:#ab5110; stroke:none;" d="M269 252L267 254L268 257L259 257L261 252L257 251L258 255L252 253L249 277C257.178 281.023 260.673 296.556 266 304L270 303L259 280L254 274L259 275L260 274L260 264L260 263C259.422 257.678 270.551 263.904 272 255L290 254L290 255L288 256L302 265L297 251L303 249L299 252L299 253L307 253L316 245L320 245L316 242L313 245L315 241L298 245C297.391 242.159 295.572 241.258 294 244L291 243L288 245C283.647 259.35 271.515 242.732 265.019 241.792C255.448 240.407 266.166 250.587 269 252z"/>
<path style="fill:#ed9d18; stroke:none;" d="M152 248L155 257L161 258L161 256L172 258L172 257L167 257L169 251L168 248L166 250L162 247L165 248L167 246L167 245L164 242C158.306 242.067 155.805 243.868 152 248z"/>
<path style="fill:#f6c064; stroke:none;" d="M183 242L182 245L183 249L190 250C189.346 246.946 187.993 247.064 185 247L183 242z"/>
<path style="fill:#d9a279; stroke:none;" d="M109 245L109 246L114 246L109 245z"/>
<path style="fill:#e08e23; stroke:none;" d="M413 246L414 250L418 249L416 245L413 246z"/>
<path style="fill:#e3b188; stroke:none;" d="M105 246L105 247L109 247L105 246z"/>
<path style="fill:#ea921e; stroke:none;" d="M217 249L220 257L217 260L221 259L222 256C225.449 256.435 230.184 255.806 231 252L234 255L236 255L239 252L240 246L217 249z"/>
<path style="fill:#642406; stroke:none;" d="M309 248L312 246L309 248z"/>
<path style="fill:#f1a940; stroke:none;" d="M360 249L362 251L362 252L356 251L351 253L354 262L347 260L347 264C342.484 264.896 340.635 264.638 339 260L340 260L342 262L345 260L339 256L338 256L334 258L337 268C331.994 265.245 331.452 262.286 333 257L329 254C324.952 253.478 323.557 250.527 322 247L314 256L313 262L323 264L323 260L323 259L316 260C319.522 252.866 325.083 254.392 325 262L331 259L329 267L334 268L329 273L328 267L323 269L325 271L325 272L323 275L329 275L335 279L335 276L339 280L337 271L346 271L345 266L347 265L349 265L349 267L350 267L356 266L360 266L364 259L368 260C368.804 253.247 369.929 243.412 360 249z"/>
<path style="fill:#a25c1d; stroke:none;" d="M365.667 246.333L366.333 246.667L365.667 246.333z"/>
<path style="fill:#260303; stroke:none;" d="M244 247L236 270L255 285L256 285C254.759 280.837 253.271 278.264 249 277L245.055 265L246 247L244 247z"/>
<path style="fill:#87390a; stroke:none;" d="M250 275L252 253L258 255L257 251L261 252L259 257L268 257L267 254L269 252C264.711 249.056 258.386 245.753 253.133 248.496C244.548 252.978 243.041 269.172 250 275z"/>
<path style="fill:#f0a959; stroke:none;" d="M422 247L423 252L424 252L426 250C426.758 253.467 428.919 252.312 432 252L432 251L430 247L422 247z"/>
<path style="fill:#eca039; stroke:none;" d="M105 248L103 252L107 253L105 248z"/>
<path style="fill:#b14f15; stroke:none;" d="M201 248L199 254L202 258L194 258L209 264L207 271L207 272L219 272L219 271L212 270L212 268L218 269L220 261L215 258L214 262L214 263L218 265C212.752 263.734 210.605 261.599 208 257L211 256L211 255L204 252L209 249L207 248L204 250L201 248z"/>
<path style="fill:#a14711; stroke:none;" d="M242 248L242 251L243 251L244 248L242 248z"/>
<path style="fill:#e0e7f3; stroke:none;" d="M427 253L427 254L444 249L427 253z"/>
<path style="fill:#bd640d; stroke:none;" d="M187 249L187 252L168 259L168 261L178 261L177 265C180.257 266.518 181.583 268.099 179 271L179 272L190 268L183 254L190 257L196 251L193 249L187 249z"/>
<path style="fill:#641b08; stroke:none;" d="M297 253L303 249L297 253z"/>
<path style="fill:#7f300b; stroke:none;" d="M200 250L190 257L183 254L190 268L186 269L187 272L189 273C197.186 268.145 201.295 270.903 210 271L209 264L194 258L199 259L200 250z"/>
<path style="fill:#e99d1f; stroke:none;" d="M310 250L312 253L303 257L302 265C297.021 263.274 291.637 260.939 288 266L285 265L277 264L277 266L274 265L272 269L276 271L276 272L270 272L271 269L270 269C268.324 274.671 268.456 281.169 275 283L274 288L281 287C281.431 292.605 285.315 296.22 291 296L285 291L292 290L295 295L304 284L309 283L309 282L300 280L301 277L299 271C302.842 271 305.923 274.981 302 274C304.326 277.791 307.63 279.516 312 280L312 279L307 273C309.711 273.577 310.395 273.768 311 271L312 271L313 273L318 272L314 269L314 268L321 270L322 276L315 276L314 278L314 279C319.114 280.172 325.794 279.599 329 275L323 275L325 272L325 271C321.913 265.885 319.917 263.743 314 262L314 266L311 267L307 265L307 264L309 262L313 263L314 256L318 250L310 250z"/>
<path style="fill:#a9540c; stroke:none;" d="M369.333 250.667L369.667 251.333L369.333 250.667z"/>
<path style="fill:#87350b; stroke:none;" d="M387 251C383.426 256.644 376.582 260.157 370 261L370 266L392 264L392 263L386 264L383 260L383 259L399 255L387 251z"/>
<path style="fill:#df8d28; stroke:none;" d="M141 278L141 271L146 272L137 259L133 260L132 253C120.223 255.572 134.451 275.339 141 278z"/>
<path style="fill:#e39926; stroke:none;" d="M200 253L198 258L199 259L201 259L202 258L200 253z"/>
<path style="fill:#eea73e; stroke:none;" d="M207 253L207 255L209 255L209 253L207 253z"/>
<path style="fill:#e0810d; stroke:none;" d="M370 253L368 260L364 259L360 266L356 266L353 264L351 272L344 273L346 275L344 278C354.956 274.875 376.983 269.686 370 253z"/>
<path style="fill:#e4b688; stroke:none;" d="M424 253L424 254L427 254L424 253z"/>
<path style="fill:#ab510f; stroke:none;" d="M112 255L114 258L109 265C108.386 262.149 107.697 262.146 105 263C106.109 269.336 102.852 277.953 95 275C94.387 279.09 95.9838 281.282 99 284L99 281L102 277L108 277L108 272L111 273L114 268L111 277L111 278L114 281L108 282L116 285L117 281L118 281L118 285L128 284L129 284L133 280L135 288L139 287L138 283L135 284L133 276L126 276C133.208 270.722 129.538 267.505 129 260L128 260C127.683 264.321 126.514 267.218 122 268L119 272C120.743 268.281 124.736 263.613 119 262L121 264L121 265L121 266L118 269L114 267L117 254L112 255z"/>
<path style="fill:#551407; stroke:none;" d="M272 255C273.194 258.687 275.29 259.404 279 260L278 257L284 255L272 255z"/>
<path style="fill:#6e2b06; stroke:none;" d="M278 257L277 260L277 261L282 257L290 255L278 257z"/>
<path style="fill:#f09c19; stroke:none;" d="M316 260L323 259L323 260L321 261L321 262L324 266L330 264L331 259L325 262C325.37 254.063 318.433 251.807 316 260z"/>
<path style="fill:#571107; stroke:none;" d="M371 254L371 261C375.808 260.36 381.464 258.258 384 254C380.221 254.97 373.902 254.791 373 259L372 259L371 254z"/>
<path style="fill:#dfe2e6; stroke:none;" d="M71 256C63.9037 264.136 56.6045 269.511 52.9884 280.17C49.5843 290.204 54.4636 300.21 56.3457 310.015C58.3318 320.362 58.4013 331.475 59.9606 342C61.7665 354.189 58.5149 366.863 61.5054 379C67.5725 403.623 91.8353 407.248 113 406.996C128.471 406.812 141.291 401.57 156 400.17C165.958 399.222 175.109 402.262 184.961 399.181C191.881 397.017 198.219 392.471 205 389.756C213.388 386.398 222.607 385.46 230.91 381.872C239.365 378.218 246.859 372.273 255.09 368.26C268.111 361.911 283.547 356.874 297.001 351.29C340.292 333.322 386.981 324.232 429 303L429 302C409.011 306.627 390.783 316.643 371.83 323.596C348.981 331.977 324.908 336.436 302 344.699C273.344 355.036 245.348 367.72 216 376.57C194.933 382.923 176.826 391.794 155 395.325C147.06 396.609 138.271 399.661 130.17 397.53C113.917 393.254 98.6766 385.725 90.2994 370.871C86.9018 364.847 88.2389 353.507 83 349L82 335L80.571 325L76.0532 308.83L80 270L91 285L98 287L99 287L81 259L79 258L76 259C75.0713 257.063 74.3354 256.029 73 258L71 256z"/>
<path style="fill:#fdbe54; stroke:none;" d="M221 259L226 256L221 259z"/>
<path style="fill:#bc6607; stroke:none;" d="M289 258L289 259L277 261C278.405 264.211 281.724 268.389 285 265L288 266L297 263C296.106 255.177 287.51 257.352 289 258z"/>
<path style="fill:#fac673; stroke:none;" d="M347 256L349 259C345.212 260.647 352.305 261.688 354 262L347 256z"/>
<path style="fill:#dde2ed; stroke:none;" d="M389 265L389 266L419 257C411.639 254.39 396.436 262.58 389 265z"/>
<path style="fill:#974b09; stroke:none;" d="M282 257L280 262L289 259L282 257z"/>
<path style="fill:#de850e; stroke:none;" d="M271 258L265 261L264 262L266 272L262 271L267 293L271 293L270 296L274 293L275 296L297 299L309 293C309 287.65 316.644 289.026 320 290L317 287L318 282L334 284L335 284C337.049 280.851 338.52 278.359 335 276L335 279C327.278 274.436 318.175 283.858 313 275L312 275L312 280L304 284L295 295L292 290L285 291L291 296C285.717 295.872 281.797 292.109 281 287L274 288L275 283C268.93 280.231 268.589 274.943 270 269L271 269L270 272L276 272L276 271L272 269L274 265L277 266C277.632 261.069 275.64 259.241 271 258z"/>
<path style="fill:#ca6515; stroke:none;" d="M260 263L260 264C257.686 267.447 258.455 270.313 260 274L259 275L254 274C254.842 277.177 255.551 279.577 259 280L270 303L267 302C269.447 307.123 279.293 315.446 284 309L287 311L296 309.431L318 296L318 294L311 296L304 295L303 298L306 302L304 300L303 300L299 302L302 297L275 296L274 293L270 296L271 293L267 293L262 271L266 272L265 259C262.641 259.178 257.324 259.939 260 263z"/>
<path style="fill:#a44413; stroke:none;" d="M97 260L99 270L103 269L102 264L105 260L97 260z"/>
<path style="fill:#f5a63b; stroke:none;" d="M214 260L214 262L216 262L216 260L214 260z"/>
<path style="fill:#b05410; stroke:none;" d="M229 261L223 263L224 267L232 267L231 261L229 261z"/>
<path style="fill:#672705; stroke:none;" d="M234 262L231 264L232 266L232 267L212 268L212 270C221.003 270.979 224.086 271.27 233 268L236 270L234 262z"/>
<path style="fill:#f6bf6d; stroke:none;" d="M309 262L307 264L307 265L311 267L314 266L314 262L309 262z"/>
<path style="fill:#ad5b06; stroke:none;" d="M369 262L365 271L388 266L388 265L370 266L369 262z"/>
<path style="fill:#f2a735; stroke:none;" d="M165 264L164 265L164 266L164 267L167 264L165 264z"/>
<path style="fill:#f3ae5d; stroke:none;" d="M171 264L170 267L171 264z"/>
<path style="fill:#f2b66a; stroke:none;" d="M322 264L328 267L329 273L334 268L329 264L325 266L322 264z"/>
<path style="fill:#ad7d5b; stroke:none;" d="M389.667 264.333L390.333 264.667L389.667 264.333z"/>
<path style="fill:#ec991c; stroke:none;" d="M347 265L345 266L346 271L337 271L340 279C343.424 277.794 345.278 276.667 344 273L351 272L353 265L350 267L349 267L347 265z"/>
<path style="fill:#e6a44c; stroke:none;" d="M176 267L170 268L169 268L172 275L171 278L176 276L174 273L180 277C180.9 274.233 182.483 272.693 179 272L179 271L181 269L176 267z"/>
<path style="fill:#f8b84e; stroke:none;" d="M286 267L289 272L286 271L288 274L280 282L281 279L275 276L274 280L290 286L293 286L296 280L292 280C290.97 274.919 291.117 269.281 286 267z"/>
<path style="fill:#f7b249; stroke:none;" d="M314 268L314 269L318 272L312 271L311 271L307 273L312 279L312 275L313 275L314 278L322 276L321 270L314 268z"/>
<path style="fill:#b98752; stroke:none;" d="M378.667 267.333L379.333 267.667L378.667 267.333z"/>
<path style="fill:#d98315; stroke:none;" d="M112 268L111 273L114 268L112 268z"/>
<path style="fill:#c15b16; stroke:none;" d="M147 270L153 278L157 277L152 282L165 282L165 281L159 281L162 277L162 275L158 274L160 270L147 270z"/>
<path style="fill:#a55608; stroke:none;" d="M221 274L227 276L225 273C240.775 276.246 250.105 294.541 255 309L251 308C252.491 312.689 254.08 314.33 259 315C259 317.826 260.142 317.791 263 318L259 314L262 313L262 312C253.739 306.88 256.926 300.468 252.721 293.054C249.859 288.006 242.034 283.885 244 277L239 270L233 268L221 274z"/>
<path style="fill:#f0a43f; stroke:none;" d="M352 271L357 271C355.22 268.626 353.78 268.626 352 271z"/>
<path style="fill:#cca588; stroke:none;" d="M375.667 268.333L376.333 268.667L375.667 268.333z"/>
<path style="fill:#55575e; stroke:none;" d="M425 281C422.46 281.724 418.832 283.904 416.167 283.184C412.425 282.172 414.749 277.932 416.349 276.109C419.437 272.59 422.676 272.302 427 273L429 268C422.368 268.583 402.288 275.887 405.711 285.682C408.121 292.575 422.487 283.923 425 281z"/>
<path style="fill:#e48f19; stroke:none;" d="M162 269L166 281L179 278L174 273L176 276L171 278L169 274L169 278L168 278L166 276L166 275L167 269L162 269z"/>
<path style="fill:#c36410; stroke:none;" d="M189 297C185.925 297.516 187.343 302.51 188.417 304.94C190.964 310.704 198.3 317.614 204 320L198 337L201 338C197.63 344.911 204.509 343.123 209 341.86C217.694 339.413 226.214 336.015 235 334L233 329C240.255 329.922 246.433 331.133 253 327L240 327L241 323L236 324L234 327L234 324L229 326L240 322L225 311L222 313L221 313L207 306L207 312C202.869 309.5 199.94 302.791 200 298L198 300L197 300L191 292L192 280L191 277L193 280L200 276L197 275L197 274L204 276L218 276L218 275L214 274L215 272C209.562 270.95 199.368 267.529 194.059 269.742C185.289 273.397 187.266 289.961 189 297z"/>
<path style="fill:#d5c2bc; stroke:none;" d="M80 270L87 289L88 289C88.7363 283.313 84.3401 273.665 80 270z"/>
<path style="fill:#7a2f0a; stroke:none;" d="M131 270L126 276L132 278L131 270z"/>
<path style="fill:#572502; stroke:none;" d="M157 286L164 290L162 299L154 296L156 304L161 305L158 300L163 302C169.169 298.764 166.662 288.882 169 283L174 287L171 286L175 288L178 291L183 288L187 270L176.956 278.146L157 286z"/>
<path style="fill:#cb966f; stroke:none;" d="M368.667 270.333L369.333 270.667L368.667 270.333z"/>
<path style="fill:#8e4808; stroke:none;" d="M188 271L183 288L178 291L175 288L171 286L174 287L169 283L163 302L158 300L161 305L156 304L154 296L162 299L164 290L158 283C151.796 285.027 137.023 277.802 135 284L138 283L137 286C141.628 289.442 141.998 292.526 141 298C149.506 306.241 154.683 312.704 167 315L166 319L170 318L166 314L167 309C169.185 310.377 175.883 314.109 172 316L172 317L177 322L181 296L185 296L186 299L187 299L189 297L188 271z"/>
<path style="fill:#f4be70; stroke:none;" d="M299 271L301 277L300 280L309 282L302 274C306.046 274.028 301.197 271.16 299 271z"/>
<path style="fill:#cb9f86; stroke:none;" d="M365.667 271.333L366.333 271.667L365.667 271.333z"/>
<path style="fill:#73290a; stroke:none;" d="M108 272L108 277L102 277L99 281L112 296L113 296L115 295L113 293L114 291L112 286L108 282L114 281L111 278L111 277L113 273L108 272z"/>
<path style="fill:#f6a926; stroke:none;" d="M214 272L218 275L216 277L218 281L222 279L228 286L225 287L226 290L224 294L230 292L230 293L227 297L224 296L225 302L213 295L214 300L211 296L210 296L205 299L209 308L210 308L210 304L223 303L235 310C236.835 306.679 237.311 305.191 234 303L237 302L228 295L241 298L236 294L238 291L234 279C242.453 277.179 227.555 273.268 225 273L227 276L214 272z"/>
<path style="fill:#e1af7a; stroke:none;" d="M361 272L361 273L364 273L361 272z"/>
<path style="fill:#ac5a16; stroke:none;" d="M180.333 274.667L180.667 275.333L180.333 274.667z"/>
<path style="fill:#e5820e; stroke:none;" d="M197 274L197 275L203 281L196 285L193 282L191 277L192 280L191 292L197 300L198 300L200 298C198.971 302.287 202.573 310.71 207 312L208 304L205 299C210.175 299.524 210.635 295.408 211 291L208 292L211 286L206 290L205 290L207 283L204 285L203 282L207 281L207 279L203 278L203 277L206 277L203 274L197 274z"/>
<path style="fill:#ffbd43; stroke:none;" d="M205 274L203 277L203 278L207 279L207 281L203 282L204 285L207 283L205 290L206 290L211 286C210.998 291.528 216.117 295.095 220 290L223 291L219 284L212 286L212 280L217 282C218.483 275.637 210.079 274.802 205 274z"/>
<path style="fill:#a47157; stroke:none;" d="M83 275L98 302L97 296C101.154 301.004 104.072 308.88 111 310L110 307L115 308L108 290L98 295C95.4028 288.248 89.2465 278.777 83 275z"/>
<path style="fill:#ecac6a; stroke:none;" d="M350 275L350 276L353 276L350 275z"/>
<path style="fill:#54515a; stroke:none;" d="M388 281L383 298L393 294L401 284L395 285L408 275L388 281z"/>
<path style="fill:#7e310a; stroke:none;" d="M243 276L242 278L249 289L247 285L247 280L254 285C252.475 279.801 248.276 276.8 243 276z"/>
<path style="fill:#989298; stroke:none;" d="M401.667 276.333L402.333 276.667L401.667 276.333z"/>
<path style="fill:#e2941e; stroke:none;" d="M237 277L234 279L238 291L236 294L241 298L228 295C229.806 298.218 238.287 298.274 234 303C236.874 305.301 238.845 306.148 242 304C244.561 307.899 246.595 308.013 251 308L248 299L244 297L244 296L248 293L239 277L237 277z"/>
<path style="fill:#93848f; stroke:none;" d="M398.667 277.333L399.333 277.667L398.667 277.333z"/>
<path style="fill:#fcb641; stroke:none;" d="M193 280L196 285L203 281C200.434 277.528 196.786 279.549 193 280z"/>
<path style="fill:#e7bb8d; stroke:none;" d="M342.667 278.333L343.333 278.667L342.667 278.333z"/>
<path style="fill:#907f88; stroke:none;" d="M395.667 278.333L396.333 278.667L395.667 278.333z"/>
<path style="fill:#ccd0d7; stroke:none;" d="M80 279C76.6374 294.299 75.1494 309.06 79.9545 324C81.1626 327.756 78.9413 332.285 82 335L83 349C87.1577 354.403 87.0998 363.526 89.473 369.946C91.062 374.245 96.6797 381.348 99.858 384.701C103.27 388.3 108.647 389.003 113 390.956C138.572 402.43 165.325 396.114 191 387L191 386C180.354 386.552 165.797 397.24 155.174 392.687C148.021 389.621 141.84 373.65 138.069 367.09C126.17 346.385 110.251 328.139 99 307L115 324L82 279L80 279z"/>
<path style="fill:#fdbe5d; stroke:none;" d="M220 279L215 282L212 280L212 286L219 284L223 291L220 290C216.45 293.031 214.044 292.294 211 289L209 289L208 292L211 291C210.684 294.948 210.417 297.784 214 300L213 295L225 302L224 296L227 297L230 293L230 292L224 294L226 290L228 286L222 279L220 279z"/>
<path style="fill:#c06c06; stroke:none;" d="M132 280C125.104 286.024 117.02 291.105 116 301C126.853 299.565 131.471 307.98 126 318L129 319L129 320L124 322L123 320L123 319L122 315L123 318L123 323L119 324L124 332L129 330L129 328L126 327L127 322L134 323L131 306L135 305L134 309L137 308L134 313L138 309L142 312L138 313L138 315L142 317L141 314L162 319L161 322L164 323L161 328L164 328L163 332L166 330C167.156 334.119 167.205 336.012 164 339L167 342L174 340C174 336.013 179.922 336.676 183 337L186 329C182.974 327.264 182.075 326.396 183 323L179 318L175 329C170.229 326.071 171.523 322.745 173 318L166 319L167 315C154.877 312.071 150.531 304.287 141 298C142.338 292.365 142.192 286.71 135 288L132 280z"/>
<path style="fill:#480a07; stroke:none;" d="M247 280L247 285C249.659 288.56 251.321 290.364 256 290L259 299L256 298L257 305L258 305L262 300L266 304L255 284L247 280z"/>
<path style="fill:#8d3e0c; stroke:none;" d="M117 281L116 285L110 287L112 291L128 284C124.422 281.776 121.495 283.096 118 285L117 281z"/>
<path style="fill:#bc5517; stroke:none;" d="M318 282L317 287L327 284L318 282z"/>
<path style="fill:#bf5f12; stroke:none;" d="M327 282L328 289L334 283L327 282z"/>
<path style="fill:#48464b; stroke:none;" d="M376 284L367 294L371 286L359 290L361 292L361 293L353 307L365 303L365 297C370.706 300.139 374.725 299.793 381 299L374 291L386 283L376 284z"/>
<path style="fill:#9e4511; stroke:none;" d="M327 283C322.015 287.092 320.945 292.158 314 293L314 294C320.39 295.007 322.805 293.882 328 290L327 283z"/>
<path style="fill:#716f6a; stroke:none;" d="M401.333 283.667L401.667 284.333L401.333 283.667z"/>
<path style="fill:#8b8d92; stroke:none;" d="M417.667 283.333L418.333 283.667L417.667 283.333z"/>
<path style="fill:#887e85; stroke:none;" d="M397.667 284.333L398.333 284.667L397.667 284.333z"/>
<path style="fill:#cab8b3; stroke:none;" d="M97 285L93 287L96 291L106 290L100 285L98 287L97 285z"/>
<path style="fill:#747990; stroke:none;" d="M375 285L375 288L376 288L375 285z"/>
<path style="fill:#bb998c; stroke:none;" d="M89 286C88.3255 290.157 89.8296 292.344 93 295L89 286z"/>
<path style="fill:#541208; stroke:none;" d="M113 292L115 295L110 294L115 302L122 288L113 292z"/>
<path style="fill:#e3932b; stroke:none;" d="M319 287L322 291L319 287z"/>
<path style="fill:#faae3d; stroke:none;" d="M308 291L308 292C311.713 291.813 317.124 292.09 318 288L308 291z"/>
<path style="fill:#9a96a2; stroke:none;" d="M413 292L413 293L414 295L415 295L419 288L413 292z"/>
<path style="fill:#bf9d8d; stroke:none;" d="M98 295C102.267 294.319 105.048 292.954 107 289C101.816 289.272 95.7273 287.96 98 295z"/>
<path style="fill:#661d08; stroke:none;" d="M251 290C253.576 295.488 253.324 302.816 256.164 307.737C260.391 315.06 271.495 316.375 279 316L279 317L277 317L277 318L294 313L294 310C290.758 309.469 287.899 306.726 287 311L284 309C277.947 314.302 266.484 304.767 262 300L258 305L257 305L256 298L259 299L256 290L251 290z"/>
<path style="fill:#7e290d; stroke:none;" d="M305 296L311 296L314 295L321 290C315.497 290.699 308.116 290.888 305 296z"/>
<path style="fill:#fdbc6b; stroke:none;" d="M297 299L307 292L297 299z"/>
<path style="fill:#b4b4c1; stroke:none;" d="M403 300L414 293C409.194 293.42 402.908 294.256 403 300z"/>
<path style="fill:#cf7b0e; stroke:none;" d="M246 294L244 296L244 297L248 299C248.533 303.908 250.257 307.232 255 309L248 294L246 294z"/>
<path style="fill:#4a1a04; stroke:none;" d="M293 311L293 312C303.564 311.072 315.403 304.857 320 295L293 311z"/>
<path style="fill:#6f777a; stroke:none;" d="M408.667 295.333L409.333 295.667L408.667 295.333z"/>
<path style="fill:#7e492a; stroke:none;" d="M97 296C99.3673 306.067 105.117 311.669 113 318L114 307L110 307L111 310L97 296z"/>
<path style="fill:#6f2907; stroke:none;" d="M181 296L180 300L185 309L187 308L189 313L186 312L185 317L189 321L196 315L196 314L185 296L181 296z"/>
<path style="fill:#d68926; stroke:none;" d="M302 296L301 300L306 302L302 296z"/>
<path style="fill:#af620d; stroke:none;" d="M147 299L147 303L152 307L151 302L155 304L155 298L147 299z"/>
<path style="fill:#96919c; stroke:none;" d="M393 298L391 302L394 300L400 298L393 298z"/>
<path style="fill:#e39036; stroke:none;" d="M293 299L289 303L293 299z"/>
<path style="fill:#9295a2; stroke:none;" d="M387 299L386 303L381 306L389 304L389 299L387 299z"/>
<path style="fill:#965104; stroke:none;" d="M116 301L116 302L119 301L119 303L125 302C123.559 305.203 121.895 308.837 118 308L117 308C117.117 318.612 115.861 329.572 127 335L127 331L124 332L119 324L123 323L123 318L122 315L123 319L123 320L124 322L129 320L129 319L126 318C132.352 308.903 127.158 298.103 116 301z"/>
<path style="fill:#a54a11; stroke:none;" d="M179 300L178 319L183 323C180.788 326.281 182.669 327.774 186 329L183 337C179.655 336.383 174.552 335.988 174 340L161 346L159 353L159 354L162 357L185 350L185 349L180 342L188 337L196 319L200 323L204 322L204 320C197.512 315.64 194.042 313.97 189 321L185 317L186 312L189 313L187 308L185 309C183.868 304.542 184.171 300.86 179 300z"/>
<path style="fill:#ecad60; stroke:none;" d="M299 302L302 300L299 302z"/>
<path style="fill:#626a75; stroke:none;" d="M370 300L370 301L374 301L370 300z"/>
<path style="fill:#813e07; stroke:none;" d="M115 301L113 318L107 312L117 324L117 308L118 308C121.521 311.079 124.12 304.898 125 302L119 303L119 301L115 301z"/>
<path style="fill:#69727b; stroke:none;" d="M389 301L388 303L390 303L389 301z"/>
<path style="fill:#dc7c0d; stroke:none;" d="M210 304C210.956 309.746 216.848 309.73 221 313L222 313L225 311L230 319L238 316L236 318L236 319L247 320L259 315L242 304L235 310L223 303L210 304z"/>
<path style="fill:#80899c; stroke:none;" d="M360.667 304.333L361.333 304.667L360.667 304.333z"/>
<path style="fill:#a8a8b6; stroke:none;" d="M370 304L370 310L376 310L372 308L372 304L370 304z"/>
<path style="fill:#8e91a0; stroke:none;" d="M372 308L377 309L380 307L380 306L379 304L372 308z"/>
<path style="fill:#78726f; stroke:none;" d="M378 306L381 304L378 306z"/>
<path style="fill:#c37a19; stroke:none;" d="M131 306L134 323L127 322L126 327L129 328C124.661 336.013 129.37 338.42 134 345L143 346L143 345L141 345L141 344L145 348L149 347L148 342L140 343L140 339L144 339L144 338L135 335L134 339L133 339L134 336L129 333L134 334L133 331L135 327L138 328C138 324.751 142.285 326 145 326L146 333L148 333L147 335L156 340L156 339L151 331C153.006 329.873 153.006 329.127 151 328L152 330L151 330C146.545 326.06 143.646 322.924 146 317L139 321L140 317C136.32 314.231 135.267 312.373 137 308L134 309L135 305L131 306z"/>
<path style="fill:#a47664; stroke:none;" d="M310 305L311 306L310 305z"/>
<path style="fill:#897d8d; stroke:none;" d="M357.667 305.333L358.333 305.667L357.667 305.333z"/>
<path style="fill:#d2c2cb; stroke:none;" d="M99 307C107.323 329.733 127.053 347.919 138.59 369.015C141.785 374.856 148.55 391.194 155.174 393.227C161.785 395.256 170.713 391.429 177 389.734C193.533 385.275 209.94 380.025 226 374L226 373L215 375L215 374C222.602 369.071 216.377 348.313 221 340L191 347C193.514 352.971 194.99 378.709 189.682 383.272C183.819 388.312 172.288 389.204 165 391L166 358L146.185 359.357L133.56 343L99 307z"/>
<path style="fill:#f4a838; stroke:none;" d="M222 307L229 310L229 309L222 307z"/>
<path style="fill:#82818b; stroke:none;" d="M368 307L367 310L368 307z"/>
<path style="fill:#f0ab4b; stroke:none;" d="M138 309L135 312L140 317L139 321C142.857 319.781 144.914 316.622 141 314L142 317L138 315L138 313L142 312L138 309z"/>
<path style="fill:#b45115; stroke:none;" d="M167 309L166 314L173 318C171.117 322.445 169.717 326.876 175 329C176.973 324.19 176.475 320.087 172 317L172 316L175 315L167 309z"/>
<path style="fill:#ac9891; stroke:none;" d="M302.667 309.333L303.333 309.667L302.667 309.333z"/>
<path style="fill:#84818d; stroke:none;" d="M358 313L362 310L365 311C362.426 308.213 359.735 310.249 358 313z"/>
<path style="fill:#e49b45; stroke:none;" d="M246 315L246 316L251 313L246 315z"/>
<path style="fill:#b9781c; stroke:none;" d="M259 313L259 314L264 315L259 313z"/>
<path style="fill:#e6961f; stroke:none;" d="M143 314L144 317L148 316L144 319C144.369 324.277 146.989 328.137 152 330L151 328L151 331L157.823 337.317L160 346L157 348C155.123 344.422 152.968 343.443 149 343C149.904 349.69 153.932 354.458 161 353C157.899 346.255 170.638 343.391 164 339C167.917 336.32 167.745 334.222 166 330L163 332L164 328L161 328L164 323L161 322L162 319L143 314z"/>
<path style="fill:#a03d15; stroke:none;" d="M205 322L209 326L208 323L217 321L215 318L218 319L218 317L221 318L220 314L205 322z"/>
<path style="fill:#90410c; stroke:none;" d="M263 318C258.288 317.584 248.572 314.465 247 320C243.433 319.131 229.77 322.407 229 326L234 324L234 327L236 324L241 323L240 327L256 326.201L278 319L279 317C274.869 315.045 264.644 312.384 263 318z"/>
<path style="fill:#df3a39; stroke:none;" d="M269 356L294 348L298 314C292.089 315.017 276.588 318.456 273.028 323.51C268.604 329.79 269.332 348.274 269 356z"/>
<path style="fill:#f5c177; stroke:none;" d="M146 316L145 320L148 316L146 316z"/>
<path style="fill:#f1b055; stroke:none;" d="M232 318L232 319L238 316L232 318z"/>
<path style="fill:#eaf3fb; stroke:none;" d="M272 322L288 317C283.448 315.385 274.884 318.16 272 322z"/>
<path style="fill:#f1b560; stroke:none;" d="M227 317L227 319L229 319L227 317z"/>
<path style="fill:#85310e; stroke:none;" d="M196 319L188 337L180 342L183 349L200 344L201 338L198 337L203 322L200 323L196 319z"/>
<path style="fill:#b28a81; stroke:none;" d="M263.667 323.333L264.333 323.667L263.667 323.333z"/>
<path style="fill:#de9aa1; stroke:none;" d="M296 325L296 329L297 329L296 325z"/>
<path style="fill:#b65b0e; stroke:none;" d="M138 328L135 327L133 331L134 334L129 333L148 344C152.273 343.457 154.351 344.668 157 348L160 346C158.631 338.654 158.64 335.927 151 334L156 339L156 340L142 330L147 332L145 326L138 328z"/>
<path style="fill:#e7e8f1; stroke:none;" d="M219 339L219 340L254 329C245.637 326.033 227.05 335.634 219 339z"/>
<path style="fill:#d6aaa0; stroke:none;" d="M271 328L271 332L272 332L271 328z"/>
<path style="fill:#813212; stroke:none;" d="M233 329L234 333L243 331L233 329z"/>
<path style="fill:#e7a63b; stroke:none;" d="M142 330L148 334L148 333L142 330z"/>
<path style="fill:#e03536; stroke:none;" d="M218 373C224.199 371.566 238.976 369.028 242.682 363.501C247.226 356.724 245.367 341.022 246 333C240.379 333.563 224.493 336.895 221.027 341.563C216.328 347.892 218 365.336 218 373z"/>
<path style="fill:#d5948c; stroke:none;" d="M238.667 334.333L239.333 334.667L238.667 334.333z"/>
<path style="fill:#d59085; stroke:none;" d="M235.667 335.333L236.333 335.667L235.667 335.333z"/>
<path style="fill:#e4a14a; stroke:none;" d="M134 336L133 339L134 336z"/>
<path style="fill:#d58479; stroke:none;" d="M232.667 336.333L233.333 336.667L232.667 336.333z"/>
<path style="fill:#db8d79; stroke:none;" d="M229.667 337.333L230.333 337.667L229.667 337.333z"/>
<path style="fill:#dd6463; stroke:none;" d="M245 337L245 343L246 343L245 337z"/>
<path style="fill:#df7d6a; stroke:none;" d="M226.667 338.333L227.333 338.667L226.667 338.333z"/>
<path style="fill:#eba54a; stroke:none;" d="M140 339L140 343L147 343L146 339L140 339z"/>
<path style="fill:#e3786e; stroke:none;" d="M223.667 339.333L224.333 339.667L223.667 339.333z"/>
<path style="fill:#e09d88; stroke:none;" d="M270 339L270 343L271 343L270 339z"/>
<path style="fill:#df8575; stroke:none;" d="M219 341L219 349L220 349L219 341z"/>
<path style="fill:#693815; stroke:none;" d="M135 344L143 355L142 352L155 355C153.133 350.392 150.172 347.224 145 348L135 344z"/>
<path style="fill:#925209; stroke:none;" d="M141 344L141 345L145 346L145 345L141 344z"/>
<path style="fill:#f8c581; stroke:none;" d="M148 344L150 347L148 344z"/>
<path style="fill:#ceaa9c; stroke:none;" d="M199 344L199 345L202 345L199 344z"/>
<path style="fill:#de9382; stroke:none;" d="M269 346L269 351L270 351L269 346z"/>
<path style="fill:#e89b27; stroke:none;" d="M161 349L167 351L161 349z"/>
<path style="fill:#e4eff6; stroke:none;" d="M154 359L154 360C166.838 358.951 180.376 354.436 192 349C182.985 345.802 163.407 356.565 154 359z"/>
<path style="fill:#d87f87; stroke:none;" d="M191 349L192 356L193 356L191 349z"/>
<path style="fill:#daa193; stroke:none;" d="M188.667 350.333L189.333 350.667L188.667 350.333z"/>
<path style="fill:#dd3033; stroke:none;" d="M165 391C170.945 389.377 186.37 386.62 189.972 381.49C194.373 375.223 192 357.579 192 350C186.337 351.215 170.506 354.096 167.028 358.703C162.449 364.767 165 383.49 165 391z"/>
<path style="fill:#804f28; stroke:none;" d="M142 352C143.207 363.84 153.752 358.396 162 357L162 354L142 352z"/>
<path style="fill:#ae7979; stroke:none;" d="M281.667 351.333L282.333 351.667L281.667 351.333z"/>
<path style="fill:#e3756e; stroke:none;" d="M183.667 352.333L184.333 352.667L183.667 352.333z"/>
<path style="fill:#d2aea8; stroke:none;" d="M218 352L218 361L219 361L218 352z"/>
<path style="fill:#e28072; stroke:none;" d="M177.667 354.333L178.333 354.667L177.667 354.333z"/>
<path style="fill:#de7c6d; stroke:none;" d="M174.667 355.333L175.333 355.667L174.667 355.333z"/>
<path style="fill:#ddb59d; stroke:none;" d="M163.667 356.333L164.333 356.667L163.667 356.333z"/>
<path style="fill:#9d7160; stroke:none;" d="M158 357L158 358L161 358L158 357z"/>
<path style="fill:#aa887b; stroke:none;" d="M149.667 359.333L150.333 359.667L149.667 359.333z"/>
<path style="fill:#da6b5b; stroke:none;" d="M165 359L165 373L166 373L165 359z"/>
<path style="fill:#aab6c0; stroke:none;" d="M243 362C238.626 369.229 222.759 371.475 215 374L215 375L249 364L249 363L243 362z"/>
<path style="fill:#d25857; stroke:none;" d="M191 367L191 382L192 382L191 367z"/>
<path style="fill:#acb4bd; stroke:none;" d="M169 389L169 390L192 383L169 389z"/>
</svg>
