<?xml version="1.0" standalone="yes"?>
<svg width="512" height="512">
<path style="fill:#ffffff; stroke:none;" d="M0 0L0 512L512 512L512 0L0 0z"/>
<path style="fill:#f1efeb; stroke:none;" d="M102 250L103 250L102 240L103 240C104.272 245.784 107.544 250.624 114 250C118.836 260.127 132.664 264.917 142 269.529C166.855 281.806 194.746 292.922 223 293C219.247 287.667 207.147 286.739 201 285.35C185.238 281.788 169.647 275.342 155.17 267.877C132.247 256.057 111.161 238.636 98.7022 216.039C96.3866 211.84 92.7724 208.833 91.4954 204C86.7962 186.217 99.4236 158.338 110.773 145.09C115.311 139.792 121.277 136.372 126.255 131.654C133.344 124.933 147.881 113.994 158 114C162.88 108.424 168.525 108.466 175.004 106.519C186.482 103.069 198.819 97.3398 211 98L211 97L209 96C233.89 94.3161 257.958 91.8216 283 95.9197C290.159 97.0912 302.71 96.1676 307 103L308 103L312 103L309 102L319 113L324 131C327.594 129.637 331.353 126.786 335.039 126.023C339.579 125.083 344.2 126.932 349 125.883C354.123 124.765 359.743 121.478 364.996 121.773C369.45 122.024 371.197 125.063 372 129L384 136L384 129C408.775 142.569 421.542 162.203 431 188L432 188C432 162.782 417.901 146.366 399.333 131C395.864 128.129 377.761 118.199 380 115C309.172 87.5288 230.05 76.3707 158 106.081C125.063 119.663 88.0948 148.757 81.2593 186.17C76.478 212.339 96.5142 227.033 102 250z"/>
<path style="fill:#e5e2da; stroke:none;" d="M209 96L211 97L211 98C199.237 96.7457 186.065 102.491 175 106L175 107L190.643 106.788L196 124L205.272 120.372L216 108C212.697 115.827 215.591 122.984 215.12 131.08C214.893 134.986 212.548 138.19 212.125 142C211.842 144.55 212.616 148.298 214.587 150.102C218.01 153.234 222.685 150.033 224.544 146.74C228.266 140.147 227.322 134.095 226 127C230.484 127.176 230.97 124.508 233 121L231 118C235.725 119.537 243.858 124.432 246 118L249 119L247 113C249.773 113.865 261.349 114.998 259.093 119.72C257.487 123.083 249.763 124.402 252.368 129.686C257.443 139.98 264.73 124.402 265 120C272.357 124.318 284.04 119.407 283 110L277 110C281.024 102.271 290.629 110.868 297 112C297.555 119.021 304.834 120.544 311 120L313 132L319 131C314.441 138.782 305.336 148.55 320 153L330 144L331 144C329.234 153.694 333.935 153.066 342 153L351.811 141.869L356 128L358 128C359.158 132.697 359.036 137.052 364 139L366 124L381.09 145.999L390 158L395 159L394 164L401 167L400 170L417.312 196L422.497 207.942L413 221L419 223L422 220C421.022 227.799 415.385 232.992 410.265 238.513C398.511 251.19 386.986 260.289 371 266.714C364.647 269.267 359.323 273.764 353 276.204C342.829 280.127 332.256 280.142 322.09 283.21C311.223 286.489 301.719 290.658 290 291.829C263.718 294.457 237.987 289.119 212 288L212 289L223 293C195.119 292.769 167.521 281.641 143 269.529C132.731 264.456 121.035 259.754 114 250C107.916 249.431 104.766 245.586 103 240L102 240C102.159 259.188 109.479 278.424 113.576 297C120.855 330.007 121.512 367.13 144.615 393.961C182.24 437.657 251.52 443.984 304 432.456C326.999 427.404 351.965 421.402 368 402C359.699 399.119 348.91 408.014 340 410C339.017 414.816 336.879 416.629 332 417L332 420L320 424C320.806 417.195 315.985 406.414 317.661 401.005C319.314 395.672 331.365 396.358 336 397L341 393L341 406C347.135 403.953 347.911 392.693 347 387C352.517 384.631 360.179 379.34 363 374L332 381L337 374L337 372L319 374L319 381C328.155 377.226 327.141 384.122 327 391L318 393L319 382L293 385L293 320L327 313L321 372L322 372C322.99 368.65 322.25 364.224 324.028 361.213C327.858 354.724 346.814 348.667 354 347C354.044 341.749 358.776 332.191 354 329L354 328L366 323C362.15 329.493 362 334.599 362 342L357 342L350 363L344 360L342 360C340.421 362.877 337.556 366.066 342 367L339 373L353 371L352 366L364 361L366 354L375 354C377.416 349.059 383.797 343.846 389 342C389.419 332.246 394.707 328.355 398.387 320.005C400.394 315.451 397.892 314.155 394 316C393.556 297.884 396.37 279.501 412 268L412 272L413 272C413.845 265.067 414.963 254.643 418.221 248.439C424.33 236.802 433.182 229.556 436.406 216C444.392 182.415 429.28 148.734 401.999 129.091C394.511 123.699 387.556 116.959 378 116L378 117C404.012 133.64 431.907 154.071 432 188L431 188C425.146 163.421 408.158 138.519 384 129L384 136L372 129C371.567 125.154 370.35 122 365.985 121.514C360.708 120.926 355.968 124.138 351 125.242C340.539 127.568 333.958 125.849 324 131L319 113L309 102L312 103C310.444 101.187 309.556 101.187 308 103C303.484 96.103 291.33 97.0983 284 95.9445C274.641 94.4712 265.397 95.7771 256 94.9722C252.449 94.6681 249.56 92.38 246 92.0833C234.386 91.1155 220.364 93.4694 209 96z"/>
<path style="fill:#e8decb; stroke:none;" d="M158 114C151.942 113.649 147.582 117.803 142.285 120.231C130.84 125.478 115.478 136.286 108.545 147.015C102.822 155.87 100.154 165.674 95.625 174.961C90.4654 185.539 86.0013 206.026 98 214L96.787 179.424L106 157L116 146C119.401 154.449 114.686 156.729 115.049 164.996C115.233 169.197 118.444 172.725 117.683 176.965C116.431 183.94 107.083 197.015 120 198L118 206C127.393 206.819 130.993 209.564 131 219L137 219L137 214L142 214L138 210L144.364 202.921L135.603 198.397L131 191L131 190C137.605 188.913 136.556 193.774 141.147 196.698C147.13 200.507 155.487 198.035 159 205C153.04 208.286 155.31 214.585 157 220L158 220L158 207L183 193C185.646 187.91 190.602 186.73 196 186C197.129 181.306 199.168 179.372 204 179L201 163L198 163C197.327 168.973 194.595 169.975 189 169C188.672 171.596 188.239 185.679 182.595 181.979C179.142 179.716 180.844 175.53 176 174C177.005 175.681 178.627 177.253 179.258 179.13C183.867 192.847 158.117 185.901 162.168 178.256C164.05 174.705 170.537 180.803 174 176L169 176C169.586 168.41 175.538 168.019 182 168C183.979 162.232 188.039 159.615 194 159L194 156L201 161L228 155C229.226 161.194 225.707 163.688 223 169C230.659 167.226 235.975 168.932 243 172L246 162C229.427 166.201 240.102 150.284 246.515 145.08C252.128 140.525 257.468 142.864 264 143C264.261 146.931 265.385 152.621 267.742 155.856C270.507 159.654 280.14 164.151 269 165C269.741 175.996 265.064 173.123 257 175L263 185L260 184L261 187L253 188C252.601 200.281 240.113 191.584 237 201L250 202L251 199L253 199L254 202L256 202C257.582 198.525 264.464 188.063 265.153 198.005C265.429 201.995 263.21 205.95 263 210L268 209L270 221L265 224C274.275 220.468 290.375 225.266 294 212C289.208 209.969 282.011 210.691 283 204L278 204L281 198L283 198C287.255 205.245 294.801 205.696 302 203L298 194C303.068 192.612 304.822 191.434 305 186L286 180L290.366 171.015L284.488 163.96L285 155C280.279 153.442 270.329 150.005 268.662 144.844C266.42 137.903 283.725 129.901 288.996 130.188C292.714 130.389 296.226 137.709 299 140L295 134L295 133L301 127L308 145L304 145L304 146L307 146L312 172L316 173L316 172L314 169C322.512 166.612 324.413 157.898 334 159C334.794 165.965 345.651 169.855 342.397 177.798C341.026 181.143 335.917 178.863 333.105 180.153C328.814 182.12 328.769 186.923 328 191L326 191L325 188L324 188C323.699 197.198 314.942 193.941 312.662 201.079C311.6 204.405 315.13 207.903 316 211L321 210L326 206L327 212L324 211L329 226L330 226L330 217C336.703 221.19 330.636 236.653 339.996 234.066C342.057 233.496 343.909 232.519 346 232L334 240C335.512 247.586 339.308 246.098 344.126 249.888C347.32 252.401 347.743 256.44 352.001 258.137C358.282 260.642 369.186 251.884 370 246L374 246L375 254C380.133 249.721 379.941 237.646 380 231C376.064 228.628 378.202 219.707 378 215L389.997 210.681L402 219C402.148 225.119 406.981 232.945 412 225L413 225L419 225L419 229L420 229L422 220L419 223L413 221L414 217L410 219L420 204L420 212C424.813 208.877 422.273 203.134 419.794 199C414.081 189.473 410.131 175.837 400 170L401 167L394 164L395 159L390 158C388.795 153.851 385.706 151.401 383.159 147.985C378.242 141.391 374.098 126.766 366 124L364 139L358 128L356 128L351.811 141L342 153C334.194 153.016 329.976 152.934 331 144L330 144L320 153C305.897 146.662 315.851 139.922 319 131L313 132L311 120C305.099 120.104 298.055 118.501 297 112C291.151 110.327 279.701 101.136 277 110L283 110C282.737 119.394 272.72 123.085 265 120C264.314 123.562 257.083 139.981 252.522 129.141C250.499 124.332 258.406 122.904 259.828 119.72C262.043 114.761 249.958 113.607 247 113L249 119L246 118C242.916 123.434 236.008 119.248 231 118L233 121L226 127C226.885 133.999 228.142 140.352 224.066 146.74C221.829 150.247 216.946 152.824 213.985 148.652C210.206 143.325 214.361 138.381 215.181 133C216.509 124.281 213.231 116.734 216 108L205.232 119.607L196 124C195.392 120.63 193.515 108.69 191.382 106.643C188.986 104.345 184.769 106.485 182 106.816C173.641 107.813 163.083 105.25 158 114z"/>
<path style="fill:#e1c998; stroke:none;" d="M295 133L295 134C299.066 139.332 300.741 144.335 308 145L301 127L295 133z"/>
<path style="fill:#eae3d4; stroke:none;" d="M285 155L284.438 164.871L289.802 171.015L286 180L305 186C304.612 191.089 302.559 192.288 298 194L302 203C294.064 205.23 288.712 204.438 283 198L281 198L278 204L283 204C280.38 210.682 289.174 210.494 294 212C289.265 222.634 278.443 221.561 269 222.444C260.313 223.255 254.886 228.993 250 218C258.524 217.923 272.032 201.966 264.016 193.662C260.257 189.768 256.709 199.722 256 202L254 202L253 199L251 199L250 202L237 201C241.877 192.122 252.849 200.789 253 188L261 187L260 184L263 185L257 175C265.565 174.004 270.376 176.167 269 165C281.263 164.597 270.624 159.162 267.742 154.943C265.593 151.798 264.475 146.733 264 143C257.528 142.718 252.198 140.002 246.515 144.44C243.277 146.968 237.765 151.065 236.413 155.054C233.817 162.715 240.688 163.923 246 162L243 172C236.814 168.161 230.034 166.738 223 169C226.564 163.921 230.171 161.312 228 155L201 161C199.822 157.118 197.952 156.301 194 156L194 159C187.778 159.323 183.306 161.584 182 168C175.184 168.004 169.27 167.879 169 176C171.524 175.972 176.551 174.377 178.656 175.863C180.997 177.516 180.322 182.247 183.298 182.979C189.052 184.396 188.741 172.288 189 169C194.891 170.386 197.65 169.325 198 163L201 163L204 179C198.843 179.171 196.705 180.786 196 186C190.618 186.44 184.781 187.308 183 193C174.853 193.265 164.723 202.233 158 207L158 221L166.302 231.351L188 239L197 252L202 253C198.842 256.792 195.75 256.983 191 257C190.803 253.431 190.538 251.243 187 250L183 260L189 258C187.522 263.728 188.845 267.698 195 269C189.918 275.836 185.227 278.079 177 277L177 278C193.569 285.908 212.786 288.429 231 290.17C269.347 293.834 305.537 291.531 342 280L342 279C326.409 274.188 335.468 252.998 323.535 246.062C317.461 242.532 311.598 243.259 307.616 248.805C305.866 251.242 303.993 258.638 300.008 257.364C295.395 255.889 297.321 245.075 297 241C302.247 239.543 313.088 239.519 310 233L318 235C316.568 242.718 321.69 241.919 327 239C325.287 233.812 324.056 231.384 330 229L324 211L327 212L326 206L321 210L316 211C315.515 207.921 311.99 204.076 313.175 201.079C315.009 196.442 321.438 197.48 323.397 193.567C326.267 187.832 317.108 173.656 312 172L307 146C300.559 143.435 294.987 129.772 288.996 129.631C283.169 129.494 266.552 137.341 268.337 144.844C269.621 150.24 280.122 154.018 285 155z"/>
<path style="fill:#e1c998; stroke:none;" d="M371 140L370 164C366.722 162.373 364.635 163.652 362 166L368 167C368.799 177.559 380.529 172.925 388 177L388 178C384.213 180.094 382.352 181.576 382 186C387.241 187.052 390.316 189.956 392 195C394.56 194.82 398.626 194.435 398.158 190.811C396.922 181.245 387.781 172.083 383.24 164C378.999 156.452 377.629 147.821 374 140L371 140M359 143L359 148L365 148C364.348 144.089 362.864 143.3 359 143z"/>
<path style="fill:#ddbf7c; stroke:none;" d="M193 145C190.85 151.075 192.515 153.473 199 152L193 145z"/>
<path style="fill:#dcc9a5; stroke:none;" d="M115 146L106 157L96.4684 179.715L98 216L99 216L98.9336 184L105 164L106 164L107 166L112 154L113 154C113.567 156.837 113.341 156.074 115 154L114 157L114 158C121.161 155.995 119.274 150.261 115 146z"/>
<path style="fill:#ddbf7c; stroke:none;" d="M374 151L370 171L375 173L381 171L374 151z"/>
<path style="fill:#d8bc85; stroke:none;" d="M112 154C111.626 156.3 108.871 167.116 106 164L105 164C98.8595 180.126 96.7718 197.652 99.189 214.999C100.417 223.814 112.927 226.635 118 220L117 218L113 212L111 214L110 214C102.879 203.97 118.726 205.993 120 198L116 198L116 199L119 199L114 200L113 200L105.542 209.014L112 222L109 221L108 217C97.6172 221.987 99.6595 196.451 102.51 190.615C104.74 186.05 108.632 183.071 110 178L111 178L112 180L112 175L113 175L114 177L114 172L117 176L118 176L114 158L114 157L115 154L112 154z"/>
<path style="fill:#e1c998; stroke:none;" d="M314 169L326 191L328 191C328.962 187.107 329.146 182.721 333.105 180.627C335.82 179.19 340.996 181.636 342.41 178.664C346.462 170.15 335.424 165.891 334 159C324.424 157.251 321.96 165.293 314 169z"/>
<path style="fill:#ddc391; stroke:none;" d="M173 161C173.785 171.095 182.916 161.773 173 161z"/>
<path style="fill:#d6b366; stroke:none;" d="M328 169C314.336 180.521 342.716 181.449 328 169M114 172L114 177L113 175L112 175L111 178L110 178C107.958 182.666 103.881 186.22 101.973 190.87C99.6191 196.605 97.7749 224.106 108 217L109 221L112 222L106.022 209.014L113 201L108 203L111 196L115 198C111.135 188.863 121.589 178.703 114 172z"/>
<path style="fill:#ddc391; stroke:none;" d="M163.279 176.34C155.897 179.123 170.202 189.181 175.941 187.067C179.465 185.769 181.792 179.721 178.262 177.047C178.269 177.053 163.389 176.299 163.279 176.34z"/>
<path style="fill:#d8bc85; stroke:none;" d="M281 187C296.783 186.944 282.326 175.479 281 187z"/>
<path style="fill:#cfa449; stroke:none;" d="M283 184L283 185L288 183L283 184z"/>
<path style="fill:#e5d2aa; stroke:none;" d="M131 190L131 191L135.603 198.972L145 205L146 205L146 202L154 210L159 205C156.864 197.965 147.654 200.013 142.059 196.698C139.249 195.033 138.85 191.788 136.421 190.041C134.67 188.782 132.834 189.512 131 190z"/>
<path style="fill:#cfa449; stroke:none;" d="M111 196L108 203L114 200C116.047 202.261 117.486 201.36 119 199L111 196z"/>
<path style="fill:#ddc391; stroke:none;" d="M146 202L140 208L140 209L153 221L151 218L157 219C154.99 212.573 153.807 203.264 146 202z"/>
<path style="fill:#dcc9a5; stroke:none;" d="M110 214L111 214L113 212L118 220C112.813 224.632 109.287 222.694 103 222L115 238L116 238L115 235L121 234L121 233C113.78 228.946 117.439 222.538 124.995 223.063C129.978 223.41 131.236 228.208 136 229C136.672 223.03 139.84 221.999 145 220L143 215L131 219C130.999 209.852 122.661 201.019 112.09 204.169C106.637 205.794 106.694 210.495 110 214z"/>
<path style="fill:#e8d6b0; stroke:none;" d="M419 204L410 219C415.531 216.425 424.711 210.2 419 204z"/>
<path style="fill:#dfd2ba; stroke:none;" d="M138 210L142 214C139.007 214.064 137.654 213.946 137 217L143 215L145 220L137 224L145 222L145 223L142 227L149 226C150.766 228.8 154.448 230.288 155.802 233.213C158.62 239.299 151.38 248.359 146 250L146 237C141.087 236.377 138.367 238.249 137 243L136 243C133.449 237.47 131.7 235.019 134 229C132.03 227.185 130.552 224.095 127.856 223.318C115.846 219.856 112.671 232.169 125 235L124 244C132.2 243.899 137.643 246.347 140 255L131 253L131 254C143.905 262.501 156.68 268.764 171 274.62C176.945 277.052 184.177 280.648 189 275L183 276C190.727 263.884 171.829 270.059 168 263C175.591 266.998 175.928 259.176 181 255C182.251 260.807 184.407 264.58 190 267L189 258L183 260L187 250L191 257C195.661 256.996 199.545 257.452 202 253L197 252L188 239L166.302 230.606L158 221L158 222C159.103 224.694 157.582 225.225 155 226C153.949 219.676 146.814 209.458 140 209L140 208L143 207C140.053 205.997 139.086 207.278 138 210z"/>
<path style="fill:#e2cea4; stroke:none;" d="M250 218C253.659 231.282 262.009 222.808 270 221L268 209L250 218z"/>
<path style="fill:#e1c998; stroke:none;" d="M378 215C378.098 219.922 374.948 229.3 380 231C379.836 238.02 379.464 248.669 375 254L374 246L370 246L367 266L351 260L339 278L344 274C353.621 277.441 359.565 272.393 368.001 268.529C384.33 261.05 397.327 253.98 409.525 240.169C413.754 235.38 418.497 231.736 419 225L417 227L413 225L412 225C406.281 230.905 402.353 225.453 402 219L389.997 210.388L378 215z"/>
<path style="fill:#cfa449; stroke:none;" d="M151 218L155 226C163.168 224.656 156.633 217.194 151 218z"/>
<path style="fill:#e1c998; stroke:none;" d="M330 217L330 226L335 226C334.945 221.375 334.48 218.877 330 217z"/>
<path style="fill:#d8d0c5; stroke:none;" d="M100 220C102.047 226.358 108.294 233.579 114 237C111.334 230.258 105.875 224.141 100 220z"/>
<path style="fill:#e6e0d5; stroke:none;" d="M136 224C134.807 232.567 130.26 234.433 136 243L137 243C138.99 238.847 141.359 237.075 146 237L146 250C152.157 248.968 158.554 239.647 156.307 233.213C155.283 230.28 151.084 228.252 149 226L142 227L145 223L136 224z"/>
<path style="fill:#e0cfaf; stroke:none;" d="M330 226C326.433 232.061 323.467 231.653 327 239C321.657 241.071 317.442 242.423 318 235L310 233C311.713 239.13 302.034 238.751 297 241C297.19 245.498 294.602 256.383 300.004 257.994C304.287 259.271 306.706 250.684 308.816 248.005C312.53 243.285 316.494 244.101 321.83 245.87C330.846 248.858 328.337 258.546 329.447 264.88C329.906 267.5 332.833 269.049 334.281 271.104C340.704 280.219 344.204 279.503 355 276L355 275L344 274L339 278L351 260L367 266L370 249L369 249C367.487 254.492 365.559 252.127 361.375 253.702C358.747 254.691 358.003 258.26 354.895 258.404C349.89 258.635 347.933 253.337 345.12 250.406C340.787 245.889 336.389 247.35 334 240C339.041 238.947 344.297 237.228 346 232C339.448 232.929 332.185 235.983 335 226L330 226z"/>
<path style="fill:#d6b366; stroke:none;" d="M399 226L401 234L408 233L399 226z"/>
<path style="fill:#e2cea4; stroke:none;" d="M258 230C255.56 236.523 262.929 241.523 269 242L271 234L258 230z"/>
<path style="fill:#ddbf7c; stroke:none;" d="M236 232L236 247C238.418 247.372 243.356 248.694 245.173 246.361C248.297 242.35 240.27 231.832 236 232z"/>
<path style="fill:#d8bc85; stroke:none;" d="M115 235C118.805 245.89 129.034 252.74 140 255C138.589 245.69 132.255 243.715 124 244L125 235L115 235z"/>
<path style="fill:#d6b366; stroke:none;" d="M158 235C158.155 239.724 159.11 241.619 164 242L158 235z"/>
<path style="fill:#e8d6b0; stroke:none;" d="M241 235C242.01 237.669 246.263 242.627 245.505 245.486C244.217 250.343 236.716 245.882 235 244C229.159 249.726 227.165 253.706 225 262L236 264C235.487 261.831 233.725 258.602 234.902 256.459C239.258 248.526 253.383 249.585 244.431 238.099C243.403 236.779 242.307 236.02 241 235z"/>
<path style="fill:#e1c998; stroke:none;" d="M199 240L199 242L204 243L204 239L199 240M284 249L275.542 256.069L276.917 264.654L269.259 265.812L263 273L286 267L287 257L287 256L284 249z"/>
<path style="fill:#ddc391; stroke:none;" d="M180 255C175.258 259.258 175.599 266.001 168 263C171.157 271.979 189.036 262.563 183 276C188.154 276.355 192.699 273.607 195 269C186.703 266.541 184.619 261.368 180 255z"/>
<path style="fill:#cfa449; stroke:none;" d="M353 261C352.919 265.806 352.062 270.544 357 273L355 267L363 269C361.925 265.479 360.661 264.68 357 265L353 261z"/>
<path style="fill:#cdcccb; stroke:none;" d="M410 268C398.721 281.376 396.793 288.01 395.722 305C395.469 309.021 393.303 311.921 394 316L398.63 317.202L391.56 329L389 342C383.627 343.138 376.556 348.713 375 354L366 354L364 361L352 366L353 371L339 373L342 367C338.902 365.187 340.914 362.919 342 360L344 360L350 363L357 342L362 342L366 323L354 328L354 329L354 347C347.008 348.033 327.908 354.321 324.028 360.39C322.108 363.394 322.828 368.523 322 372L321 372L321 363L320 363L319 374L337 372L337 374L332 381L363 374L347 387C347.4 393.233 346.882 402.739 341 406L341 393L336 397C332.941 396.253 331.098 396.924 328.039 397.278C325.405 397.583 322.586 395.745 320.109 397.082C314.827 399.932 320.313 418.036 320 424L332 420L332 417C337.23 416.829 339.4 415.326 340 410C348.577 408.865 354.389 403.799 362.08 401.347C365.396 400.29 367.78 401.905 371 399.562C395.873 381.461 398.253 337.457 403.375 310C406.003 295.912 411.96 282.577 412 268L410 268z"/>
<path style="fill:#e5d2aa; stroke:none;" d="M308 286C313.545 285.865 315.808 284.776 316 279C311.685 279.684 309.253 281.807 308 286z"/>
<path style="fill:#ddc391; stroke:none;" d="M253 282C247.304 290.23 255.437 290 262 290C260.615 284.308 258.422 283.367 253 282M287 283L285 288C289.27 289.014 294.079 289.837 297 286L287 283z"/>
<path style="fill:#cfa449; stroke:none;" d="M257 284L257 288L258 288L259 284L257 284z"/>
<path style="fill:#d0cfcd; stroke:none;" d="M328 312L342.567 310.397L353 291C339.479 291.86 329.845 298.055 328 312z"/>
<path style="fill:#c3bbb2; stroke:none;" d="M240 303L240 307C244.318 306.961 247.682 306.968 250 303L240 303z"/>
<path style="fill:#dc9d9c; stroke:none;" d="M191 311L192 325L193 325L192 313L216 318L191 311z"/>
<path style="fill:#dc1722; stroke:none;" d="M192 313L196 330L197 330L198 324L201 333L202 333L202 330L203 330L203 336L206 338L208 337L210 345L213 345L214 345C214.101 341.656 214.552 340.425 218 341L215 341L215 348L213 346C211.231 347.721 209.475 350.563 209 347L208 347L208 350L207 350L206 344L205 344L202 351L203 343L200 342L199 330L198 330C194.649 341.335 197.619 354.63 199.41 366C200.016 369.853 199.573 375.344 202.564 378.298C206.966 382.644 217.129 383.533 223 384C223 368.657 222 353.384 222 338C222 333.594 223.745 324.373 220.972 320.703C217.472 316.07 197.819 313.508 192 313z"/>
<path style="fill:#e0a6a2; stroke:none;" d="M319 314L319 315L326 314L324 335L325 335L327 313L319 314z"/>
<path style="fill:#dc5d5f; stroke:none;" d="M322 314L322 315L325 318L326 318L326 314L322 314M312 318L320 316C316.826 314.763 314.083 315.264 312 318z"/>
<path style="fill:#dc1722; stroke:none;" d="M296 320L295 384L315.397 380.012L319.381 364L325 315L296 320z"/>
<path style="fill:#df7977; stroke:none;" d="M192 317L194 335L195 335L192 317z"/>
<path style="fill:#db8d8e; stroke:none;" d="M296 319L296 320L312 318L296 319z"/>
<path style="fill:#dc5d5f; stroke:none;" d="M217 318L217 319C223.014 321.211 222 326.44 222 332L222 369C226.407 358.497 223.001 340.42 223 329C223 323.315 223.778 318.528 217 318z"/>
<path style="fill:#dc9d9c; stroke:none;" d="M223 320L223 364C223 368.633 225.142 376.644 223.382 380.837C220.966 386.593 205.541 380.9 202.564 377.581C199.031 373.643 199.216 365.039 199 360L198 360C198 364.883 196.89 371.39 198.858 375.956C202.376 384.117 217.428 384.979 225 385L224 342L223 320M293 320L293 385L294 385L294 341L293 320z"/>
<path style="fill:#dc5d5f; stroke:none;" d="M294 320L294 385L303 384L303 383L295 384L296 320L294 320z"/>
<path style="fill:#a09b97; stroke:none;" d="M246 323L246 324L267 324C261.98 320.197 251.885 321.599 246 323z"/>
<path style="fill:#c2c1bf; stroke:none;" d="M266 322L266 323L274 325L274 324L266 322z"/>
<path style="fill:#dd2f33; stroke:none;" d="M194 323L196 343L197 343L198 330L199 330L200 342L203 343L202 351L205 344L206 344L207 350L208 350L208 347L209 347L209 350L215 348L215 341L218 341C214.534 339.018 213.893 341.794 214 345L213 345L210 345L208 337L206 338L203 336L203 330L202 330L202 333L201 333L198 324L197 330L196 330L194 323z"/>
<path style="fill:#78736f; stroke:none;" d="M242 326L249 326L245 332L238 332L238 333L246 334C248.289 329.849 251.579 330.016 256 330L256 329L248 329C254.107 324.607 260.941 326.108 268 327L269 325C263.469 322.059 246.356 321.015 242 326z"/>
<path style="fill:#332e2b; stroke:none;" d="M240 329L248 326C244.399 324.652 242.329 326.203 240 329z"/>
<path style="fill:#4c4743; stroke:none;" d="M267 325L267 326L280 331C276.653 326.939 272.159 325.514 267 325z"/>
<path style="fill:#78736f; stroke:none;" d="M271 325L271 326L275 327L275 326L271 325z"/>
<path style="fill:#0c0a09; stroke:none;" d="M238 332L249 327C245.355 324.924 238.868 327.928 238 332z"/>
<path style="fill:#b7b3ae; stroke:none;" d="M248 329L270 328C264.09 325.16 252.825 324.073 248 329z"/>
<path style="fill:#94908b; stroke:none;" d="M236 329L241 328L236 329z"/>
<path style="fill:#dddbd5; stroke:none;" d="M250 328L250 329L262 332C257.472 339.671 247.147 331.347 244 343L258.91 345.742L276 344L274 337L281 341C279.997 327.189 260.85 324.793 250 328z"/>
<path style="fill:#b7b3ae; stroke:none;" d="M277 327L284 333L277 327z"/>
<path style="fill:#625e59; stroke:none;" d="M236 331L240 329L236 331z"/>
<path style="fill:#a09b97; stroke:none;" d="M270 328L270 329L273 330L270 328z"/>
<path style="fill:#dc5d5f; stroke:none;" d="M323 328L323 336L324 336L323 328z"/>
<path style="fill:#c6c6c7; stroke:none;" d="M383 337C377.585 334.875 374.478 336.907 372 342C364.245 339.809 362.575 343.784 362 351C372.909 345.847 387.961 341.757 388 328C383.271 329.337 383.051 332.509 383 337z"/>
<path style="fill:#c3bbb2; stroke:none;" d="M232 345L233 345C232.774 339.374 231.613 334.248 236 330C229.305 328.498 231.534 341.306 232 345z"/>
<path style="fill:#4c4743; stroke:none;" d="M244 329L241 331L241 332C243.348 331.706 244.951 331.507 244 329z"/>
<path style="fill:#d8d0c5; stroke:none;" d="M184 330L184 337L175 334C176.353 346.1 159.615 334.652 154 333L151 343C155.021 343.507 163.766 350.727 165 345L168 349L177.09 344.863L193 351L193 343L194 343L195 358L194 358C187.174 347.181 170.627 352.973 173.477 365.996C174.9 372.498 185.883 380.56 191.941 375.678C196.635 371.895 196 366.407 196 361L197 361L197 366L198 366L194 331L193 331L193 342L184 340C192.41 339.35 192.828 330.29 184 330z"/>
<path style="fill:#88847e; stroke:none;" d="M234 330L233 335L234 335L236 330L234 330z"/>
<path style="fill:#332e2b; stroke:none;" d="M237 330L233 341C236.649 338.483 238.719 334.265 237 330M240 339L246 338L249 334L248 331L255 331L255 332L252 332L252 333L260 334L260 332C251.435 328.878 244.412 330.419 240 339z"/>
<path style="fill:#aba7a2; stroke:none;" d="M256.667 330.333L257.333 330.667L256.667 330.333z"/>
<path style="fill:#0c0a09; stroke:none;" d="M248 331L248 333L255 332L248 331M278 331C279.855 335.664 283.23 338.806 279 343L280 347C286.494 342.697 285.734 333.295 278 331M236 332L235 336L236 336L236 332z"/>
<path style="fill:#b7b3ae; stroke:none;" d="M260 332L256 335L256 336L262 332L260 332z"/>
<path style="fill:#88847e; stroke:none;" d="M278.333 332.667L278.667 333.333L278.333 332.667z"/>
<path style="fill:#dfd9ce; stroke:none;" d="M238 333L237 340L244 333L238 333z"/>
<path style="fill:#78736f; stroke:none;" d="M249 333L249 334L256 334L249 333M283.333 333.667L283.667 334.333L283.333 333.667z"/>
<path style="fill:#a09b97; stroke:none;" d="M246 338L247 338L256 335C251.869 333.267 247.77 333.598 246 338z"/>
<path style="fill:#625e59; stroke:none;" d="M233 335L232 340L233 340L233 335z"/>
<path style="fill:#df7977; stroke:none;" d="M195 336L195 342L196 342L195 336z"/>
<path style="fill:#0c0a09; stroke:none;" d="M234 336L233 340L234 340L234 336M240 342L245 336L240 342z"/>
<path style="fill:#4c4743; stroke:none;" d="M281 336L281 341L276 338L278 344C273.912 345.697 272.495 347.603 272 352L276 347L282 348L282 347L279 343C281.824 341.171 282.263 339.117 281 336z"/>
<path style="fill:#78736f; stroke:none;" d="M284.333 336.667L284.667 337.333L284.333 336.667z"/>
<path style="fill:#b7b3ae; stroke:none;" d="M236 337L238 341L236 337z"/>
<path style="fill:#78736f; stroke:none;" d="M274 337L275 341L276 341L278 338L274 337z"/>
<path style="fill:#dc9d9c; stroke:none;" d="M322 337L320 363L321 363L322 337z"/>
<path style="fill:#e9e9e8; stroke:none;" d="M398 337L388 375L389 375C392.719 366.46 401.711 345.913 398 337z"/>
<path style="fill:#88847e; stroke:none;" d="M235 338L235 342L239 339L238 339L235 338z"/>
<path style="fill:#625e59; stroke:none;" d="M239 338L239 342L233 341L235 355L236 355L236 351L237 351L239 353L239 348L238 348L233 349L238 343C241.415 347.964 248.661 346.004 254 346L254 345L242 345L239 338z"/>
<path style="fill:#88847e; stroke:none;" d="M244 338L242 345L261 347L261 346L243 344L244 338z"/>
<path style="fill:#625e59; stroke:none;" d="M285 338L285 350L286 350L285 338z"/>
<path style="fill:#a09b97; stroke:none;" d="M276 341C273.147 345.4 266.745 344 262 344L262 345C265.239 345 279.446 346.714 276 341z"/>
<path style="fill:#ccc3b9; stroke:none;" d="M243 342L250 344L250 343L243 342z"/>
<path style="fill:#a09b97; stroke:none;" d="M285 342L285 346L286 346L285 342z"/>
<path style="fill:#e0a6a2; stroke:none;" d="M196 343L197 360L198 360L196 343z"/>
<path style="fill:#332e2b; stroke:none;" d="M233 349L239 348L236 346L238 343L233 349M283 343L281 346L281 347L283 354L279 357C285.744 356.664 285.479 347.671 283 343z"/>
<path style="fill:#0c0a09; stroke:none;" d="M236 345L239 346L237 354L242 360C242.931 354.177 243.601 345.346 236 345z"/>
<path style="fill:#625e59; stroke:none;" d="M255 347L255 348L257 349L256 356L250 361L256 362L255 372L256 372L258 362C264.573 363.961 271.718 365.596 272 357L264 354L267 360C261.272 359.143 257.651 355.788 257 350L271 350L271 353L276 352L276 351L272 352L274 345L255 347z"/>
<path style="fill:#332e2b; stroke:none;" d="M241 346L242 349L255 347L255 346L241 346z"/>
<path style="fill:#0c0a09; stroke:none;" d="M261 349L267 348C264.338 346.222 263.22 346.785 261 349z"/>
<path style="fill:#332e2b; stroke:none;" d="M266 346L266 347L272 347L266 346z"/>
<path style="fill:#0c0a09; stroke:none;" d="M274 346L273 350L274 346z"/>
<path style="fill:#aba7a2; stroke:none;" d="M286 346L286 350L287 350L286 346z"/>
<path style="fill:#88847e; stroke:none;" d="M235 347L235 350L238 350L238 347L235 347z"/>
<path style="fill:#0c0a09; stroke:none;" d="M251 347L255 352L257 348L251 347z"/>
<path style="fill:#94908b; stroke:none;" d="M276 347L276 351L277 351L279 347L276 347z"/>
<path style="fill:#78736f; stroke:none;" d="M282 347L279 348L281 353L282 353L282 347z"/>
<path style="fill:#4c4743; stroke:none;" d="M240 359L242 366L243 366L243 359L248 356C240.58 353.726 245.605 349.177 251 349C242.601 340.601 241.933 359.483 240 359z"/>
<path style="fill:#aba7a2; stroke:none;" d="M248 356L248 355L244 354C246.525 349.895 248.85 350.427 253 352C251.036 342.837 235.754 355.106 248 356z"/>
<path style="fill:#332e2b; stroke:none;" d="M253 349L253 355L248 356L251 359L256 356L253 349z"/>
<path style="fill:#dddbd5; stroke:none;" d="M277 349L270 354C270.897 356.907 272.793 360.947 269.677 363.227C266.206 365.767 253.116 362.098 257.603 371.677C259.623 375.988 264.525 370.35 267.004 369.374C273.467 366.83 280.585 356.107 279 349L277 349M244 354C247.978 354.919 249.454 353.691 251 350C247.286 350.123 245.437 350.424 244 354z"/>
<path style="fill:#a09b97; stroke:none;" d="M257 350L257 355L258 355L258 351L269 351L257 350z"/>
<path style="fill:#eae7e0; stroke:none;" d="M269 350L258 351L258 356L269 354L269 350z"/>
<path style="fill:#b7b3ae; stroke:none;" d="M270 350L267 355L271 357L270 354L274 354L274 353L270 350M280 350L280 354L281 354L280 350z"/>
<path style="fill:#94908b; stroke:none;" d="M285 350L284 353L285 350z"/>
<path style="fill:#332e2b; stroke:none;" d="M236 351C236.125 354.878 236.502 357.072 240 359L237 354L240 352L236 351z"/>
<path style="fill:#625e59; stroke:none;" d="M248 356L253 353L248 356z"/>
<path style="fill:#0c0a09; stroke:none;" d="M282 352L281 355L282 352z"/>
<path style="fill:#a09b97; stroke:none;" d="M264 353L264 354L267 354L264 353z"/>
<path style="fill:#0c0a09; stroke:none;" d="M250 356L253 355L250 356z"/>
<path style="fill:#a09b97; stroke:none;" d="M262 354L258 356L258 357L267 360L264 354L262 354z"/>
<path style="fill:#78736f; stroke:none;" d="M277 358L281 354L277 358z"/>
<path style="fill:#0c0a09; stroke:none;" d="M246 358L253 366L253 368L243 364C244.357 368.75 247.146 370.66 252 371L252 375L248 375L248 377C257.863 377.117 254.312 381.111 252 388L260 384L260 389L263 389L262 378L269 377L267 372L262 372L262 375C254.378 373.795 255.74 368.139 256 362L249 357L246 358z"/>
<path style="fill:#a09b97; stroke:none;" d="M252 357L256 360L252 357z"/>
<path style="fill:#0c0a09; stroke:none;" d="M268 357L268 363C271.06 361.023 270.88 359.096 268 357M278 357L277 361L280 357L278 357z"/>
<path style="fill:#aba7a2; stroke:none;" d="M280 359L283 357L280 359z"/>
<path style="fill:#332e2b; stroke:none;" d="M276 358L276 367L277 367L276 358z"/>
<path style="fill:#b7b3ae; stroke:none;" d="M243 359C243.984 363.835 246.456 366.224 251 368L247 359L243 359z"/>
<path style="fill:#78736f; stroke:none;" d="M278 360L278 363L279 363L278 360z"/>
<path style="fill:#88847e; stroke:none;" d="M274 361L274 364L275 364L274 361M258 362L267 364L267 363L258 362z"/>
<path style="fill:#bdbbb9; stroke:none;" d="M278 363L277 366L278 363z"/>
<path style="fill:#dc9d9c; stroke:none;" d="M319 363L317 380L318 380L319 363z"/>
<path style="fill:#78736f; stroke:none;" d="M248.667 364.333L249.333 364.667L248.667 364.333z"/>
<path style="fill:#88847e; stroke:none;" d="M267 364L267 365L270 365L267 364z"/>
<path style="fill:#0c0a09; stroke:none;" d="M274 364L274 367L276 367L276 364L274 364z"/>
<path style="fill:#4c4743; stroke:none;" d="M251 365L248 368L248 369C250.891 368.523 252.747 367.891 251 365z"/>
<path style="fill:#faf9f6; stroke:none;" d="M263 366L270 368L270 366L263 366z"/>
<path style="fill:#332e2b; stroke:none;" d="M273 365L263 370L263 372L267 372L268 378L273 365z"/>
<path style="fill:#b7b3ae; stroke:none;" d="M242 366L245 370L242 366z"/>
<path style="fill:#78736f; stroke:none;" d="M246 366L249 368L246 366z"/>
<path style="fill:#b7b3ae; stroke:none;" d="M271 372L277 367L271 372z"/>
<path style="fill:#aba7a2; stroke:none;" d="M256 368L256 372L257 372L256 368z"/>
<path style="fill:#4c4743; stroke:none;" d="M245.667 369.333L246.333 369.667L245.667 369.333z"/>
<path style="fill:#a09b97; stroke:none;" d="M265 369L265 370L268 370L265 369z"/>
<path style="fill:#dc5d5f; stroke:none;" d="M317 370L317 378L318 378L317 370z"/>
<path style="fill:#332e2b; stroke:none;" d="M248 371L248 372L249 375L252 371L248 371z"/>
<path style="fill:#78736f; stroke:none;" d="M269 371L270 378L262 378L262 382L263 382L263 379C269.467 378.923 270.597 377.256 271 371L269 371z"/>
<path style="fill:#a09b97; stroke:none;" d="M247 374L250 372L247 374z"/>
<path style="fill:#332e2b; stroke:none;" d="M256 372L258 375L256 372z"/>
<path style="fill:#78736f; stroke:none;" d="M247 374L256 382L257 378C253.122 377.954 250.112 378.122 249 374L247 374z"/>
<path style="fill:#625e59; stroke:none;" d="M258 374L258 375L262 375L258 374z"/>
<path style="fill:#aba7a2; stroke:none;" d="M271 374L270 379L271 374z"/>
<path style="fill:#dc5d5f; stroke:none;" d="M223 375L223 383L224 383L223 375z"/>
<path style="fill:#332e2b; stroke:none;" d="M249 377L249 378L256 378L249 377z"/>
<path style="fill:#c8c7c6; stroke:none;" d="M318 379L315 381L315 382L319 382L318 393L327 391C327.289 384.272 328.467 375.977 319 381L318 379z"/>
<path style="fill:#db8d8e; stroke:none;" d="M311 381L311 382L315 382L311 381z"/>
<path style="fill:#88847e; stroke:none;" d="M252 385L255 382L252 385z"/>
<path style="fill:#332e2b; stroke:none;" d="M263 382L263 388L264 388L263 382z"/>
<path style="fill:#94908b; stroke:none;" d="M264 382L263 390L264 382z"/>
<path style="fill:#e0a6a2; stroke:none;" d="M299 384L299 385L311 383L299 384z"/>
<path style="fill:#4c4743; stroke:none;" d="M257 384L257 385L259 390L263 390L263 389L260 389L260 384L257 384z"/>
<path style="fill:#625e59; stroke:none;" d="M251 385L251 388L252 388L253 385L251 385z"/>
<path style="fill:#88847e; stroke:none;" d="M252 388L252 389C254.861 388.925 257.568 386.757 258 390L259 390L259 385L252 388z"/>
<path style="fill:#cdc9c5; stroke:none;" d="M249 386C249.879 390.623 256.91 392.088 258 387L249 386z"/>
<path style="fill:#aba7a2; stroke:none;" d="M221 393L222 393L235 391C230.624 389.159 222.786 387.636 221 393z"/>
<path style="fill:#a09b97; stroke:none;" d="M292 389L292 390L303 393C301.346 388.017 296.525 389 292 389z"/>
<path style="fill:#88847e; stroke:none;" d="M259 390L259 391L263 391L259 390z"/>
<path style="fill:#b7b3ae; stroke:none;" d="M285 391L285 392L289 391L285 391z"/>
<path style="fill:#78736f; stroke:none;" d="M285 392L285 393L295 391L285 392z"/>
<path style="fill:#4c4743; stroke:none;" d="M295 390L295 391L300 394L301 394L301 390L295 390M222 391L221 402L222 402L225 391L222 391z"/>
<path style="fill:#0c0a09; stroke:none;" d="M220 406L229 407L232 392C223.292 390.999 221.897 398.377 220 406z"/>
<path style="fill:#78736f; stroke:none;" d="M228 391L228 392L232 392L232 396L233 396L235 391L228 391z"/>
<path style="fill:#332e2b; stroke:none;" d="M288 393L295 393L288 393z"/>
<path style="fill:#0c0a09; stroke:none;" d="M293 391L293 392L300 395L300 391L293 391z"/>
<path style="fill:#78736f; stroke:none;" d="M239 395L242 392L239 395z"/>
<path style="fill:#a09b97; stroke:none;" d="M242 392L242 393L249 393L242 392z"/>
<path style="fill:#aba7a2; stroke:none;" d="M264 392L264 393L279 397L278 392L264 392z"/>
<path style="fill:#a09b97; stroke:none;" d="M222 393L222 396L223 396L222 393z"/>
<path style="fill:#4c4743; stroke:none;" d="M241 393L241 394L246 396L249 395L241 393z"/>
<path style="fill:#78736f; stroke:none;" d="M248 393L250 396L251 393L248 393z"/>
<path style="fill:#a09b97; stroke:none;" d="M250 396L253 400L254 400L254 393L250 396z"/>
<path style="fill:#625e59; stroke:none;" d="M254 393L251 411L261 411L261 410L252 410L255 394L276 394L254 393z"/>
<path style="fill:#78736f; stroke:none;" d="M277 394L276 394L276 397L265 396L265 397L275 399L275 405L276 405L283 393C280.46 393.955 278.404 396.884 277 394z"/>
<path style="fill:#332e2b; stroke:none;" d="M283 393L283 394L287 394L283 393z"/>
<path style="fill:#0c0a09; stroke:none;" d="M296 407L296 406C285.005 405.992 283.668 401.869 289 393C283.985 394.052 269.648 400.935 279.264 406.948C283.623 409.673 291.243 407.204 296 407z"/>
<path style="fill:#88847e; stroke:none;" d="M290 393L290 394L301 394L290 393z"/>
<path style="fill:#0c0a09; stroke:none;" d="M232 400C234.871 406.928 238.694 408.939 246 409L238 398L247 394L232 400M255 394L252 410L261 410C260.806 403.894 264.616 403.064 270 403L270 402L262 401L264 395L255 394z"/>
<path style="fill:#332e2b; stroke:none;" d="M257 394L257 395L264 395L262 401L271 396L271 394L257 394z"/>
<path style="fill:#0c0a09; stroke:none;" d="M271 394L276 397L276 394L271 394z"/>
<path style="fill:#625e59; stroke:none;" d="M287 396L290 394L287 396z"/>
<path style="fill:#b7b3ae; stroke:none;" d="M289 396L292 394L289 396z"/>
<path style="fill:#332e2b; stroke:none;" d="M230 396L228 405L229 405L229 402L233 403L232 400L239 395L230 396z"/>
<path style="fill:#a09b97; stroke:none;" d="M221 396L220 402L221 402L221 396z"/>
<path style="fill:#aba7a2; stroke:none;" d="M232 396L235 398L235 397L232 396M242 403L241 400L248 397C244.396 396.014 237.983 399.334 242 403z"/>
<path style="fill:#ece9e3; stroke:none;" d="M241 400C245.04 411.596 252.807 405.309 253 396L241 400z"/>
<path style="fill:#bdbbb9; stroke:none;" d="M264 400L265 400L271 398C268.121 396.341 264.772 396.398 264 400z"/>
<path style="fill:#625e59; stroke:none;" d="M285 397L284 403L285 403L287 397L285 397z"/>
<path style="fill:#332e2b; stroke:none;" d="M238 398L238 402L239 402L241 399L238 398z"/>
<path style="fill:#625e59; stroke:none;" d="M239 399L239 403L240 403L239 399z"/>
<path style="fill:#88847e; stroke:none;" d="M264 400L264 401L271 401L264 400z"/>
<path style="fill:#b7b3ae; stroke:none;" d="M285 400C285.728 404.362 287.824 404.863 292 405L292 404L285 400z"/>
<path style="fill:#4c4743; stroke:none;" d="M264 401L264 402L270 402L270 403L262 403L262 404L271 404L271 401L264 401z"/>
<path style="fill:#a09b97; stroke:none;" d="M274 401L274 405L275 405L274 401z"/>
<path style="fill:#78736f; stroke:none;" d="M219 402L218 407L227 408L227 407L220 406L221 402L219 402z"/>
<path style="fill:#88847e; stroke:none;" d="M229 405L230 405L232 403C229.86 401.882 229.473 402.749 229 405z"/>
<path style="fill:#b7b3ae; stroke:none;" d="M295 402L295 403L299 403L295 402z"/>
<path style="fill:#332e2b; stroke:none;" d="M241 403L244 406L241 403z"/>
<path style="fill:#4c4743; stroke:none;" d="M276 403L278 407L276 403z"/>
<path style="fill:#78736f; stroke:none;" d="M292 404L292 405L299 407L300 403L292 404z"/>
<path style="fill:#332e2b; stroke:none;" d="M233 404L236 407L233 404z"/>
<path style="fill:#78736f; stroke:none;" d="M261 410L262 410L262 405L270 405C265.052 402.925 259.974 403.897 261 410z"/>
<path style="fill:#4c4743; stroke:none;" d="M286 405L286 406L296 406L296 407L280 408L280 409L298 408L298 404L286 405M229 405L227 407L227 408C229.251 407.527 230.118 407.14 229 405z"/>
<path style="fill:#aba7a2; stroke:none;" d="M262 405C261.064 410.872 257.251 410.981 252 411L252 412C257.656 411.999 262.472 412.778 263 406L268 406L262 405z"/>
<path style="fill:#c2beba; stroke:none;" d="M316 406C310.895 405.298 286.177 410.985 290.161 419.772C291.62 422.989 296.042 422.974 299 422.995C307.674 423.057 313.044 413.582 316 406z"/>
<path style="fill:#a09b97; stroke:none;" d="M230 406L226 408L226 409C228.45 408.88 231.095 408.905 230 406z"/>
<path style="fill:#88847e; stroke:none;" d="M244 406L247 408L244 406z"/>
<path style="fill:#aba7a2; stroke:none;" d="M247 407L247 410L236 408L236 409L251 411L251 407L247 407M276 407L276 408L280 409L276 407z"/>
<path style="fill:#4c4743; stroke:none;" d="M246 408L240 409L240 410L246 408z"/>
<path style="fill:#bdbbb9; stroke:none;" d="M280 409L280 410L290 411L290 410L280 409z"/>
<path style="fill:#88847e; stroke:none;" d="M282 409L282 410L291 410L282 409z"/>
<path style="fill:#cbc6c2; stroke:none;" d="M272 429L268 422L251 424L252 421L247 421L244 424L244 428L265 428L264 431C267.45 432.02 271.442 432.927 274 430L275 430L276 430C278.617 432.769 280.079 429.037 277 427L277 425C280.999 424.033 284.577 424.289 286 420C279.269 422.1 273.727 421.174 272 429z"/>
</svg>
