<?xml version="1.0" standalone="yes"?>
<svg width="512" height="512">
<path style="fill:#ffffff; stroke:none;" d="M0 0L0 512L512 512L512 0L0 0z"/>
<path style="fill:#f7f0e0; stroke:none;" d="M186 98L186 99C196.352 98.9132 206.698 95.5183 217 94.2855C238.213 91.7471 259.761 90.9596 281 93.7184C290.651 94.9719 303.068 94.954 311 101C299.61 101.235 289.533 101.338 279 106L279 108C287.213 111.48 294.123 106.826 302 108.8C310.528 110.938 316.955 118.894 326 118.856C342.246 118.787 359.441 105.165 368.951 126C370.337 129.035 371.485 131.695 372 135C377.532 136.162 391.698 147.031 390 153L390 154C400.263 154.333 406.082 165.101 411 173C420.341 174.231 414.394 195.047 413 201C419.227 205.688 420.314 210.184 415 216C417.574 220.976 414.149 224.449 412 229L411 226L410 226L411 232C418.153 226.034 420.064 216.483 422.745 208C432.63 176.729 419.426 141.7 389 126L389 125L393 126C381.453 113.493 358.903 106.759 343.001 101.978C316.416 93.986 286.383 88.9699 258.576 89.3981C233.997 89.7766 210.272 96.0175 186 98z"/>
<path style="fill:#e6dbc5; stroke:none;" d="M102 218L103 218C100.466 205.753 92.1597 179.518 108 173C108.247 177.743 109.158 181.485 114 183L111 191L111 192L117 195C115.551 197.659 114.622 199.261 118 200C117.706 209.514 122.764 210.635 128 217L130 215L131 223C145.25 218.786 140.487 204.719 142 194L135 194L128 186L128 185C132.805 180.595 131.238 172.805 131 167C138.232 173.169 137.038 174.079 146 170C145.326 174.227 144.234 176.726 140 178L142 188L137 186C138.043 190.89 157.233 196.135 162 197L167 193L161 203L151 201L157.974 207.317L163 222L160 225C165.912 226.468 175.477 230.049 174.4 237.83C173.789 242.245 169.615 245.916 168 250C169.391 253.456 165.904 253.78 163 254L161 248C158.915 251.401 156.902 251.873 153 252L154 241L148 239L150 249L142 249L145 246L131 249L118 240C122.925 248.729 138.364 260.111 148 263L147 260C151.623 258.439 158.458 254.867 161.973 260.343C163.768 263.139 162.71 266.39 166.148 268.157C169.567 269.915 180.201 270.343 178 276L178 277L203 283L203 282L195 280L196 275C204.004 277.94 221.688 282.764 225 271L210 259L211 255L222 261C216.768 248.632 206.563 239.972 203.243 226.039C202.088 221.194 198.867 218.111 203 214L203 213C198.023 212.255 194.919 209.612 193 205L195 200L222 207L223 211L226 210C227.529 216.035 224.012 216.367 219 218L224 232L218 230C216.671 233.307 213.379 237.215 213.694 240.91C214.057 245.183 219.141 248.769 221.246 252.285C225.264 258.998 225.111 270.895 234 274C234.836 262.949 247.774 259.969 257 261L247 269L260.896 270.683L268.104 266.951L283 271L284 263C298.478 261.05 293.599 250.925 293.723 240.91C293.785 235.907 295.609 232.695 293 228L297 227L292 223L296 214L301 215L301 219C304.882 218.227 319.395 212.866 314.932 206.742C311.684 202.285 305.9 204.768 303 198L294 203L295 196C303.876 198.426 316.787 187.605 314 202C324.729 202.001 331.68 205.305 330 192C334.025 194.132 334.311 196.655 334 201L340 203L343 217L355 224L355 229L345 225L345 229L340 224L345 224C342.951 218.478 334.697 214.074 336 223L329 229C337.173 237.588 329.901 237.328 323 236L324 229L319 230C320.485 235.117 316.399 241.391 311.685 235.489C309.849 233.19 310.3 228.813 310 226C315.599 226.657 319.296 226.48 322 221L315 215L314 215C311.771 220.976 309.408 223.117 303 222L307 239L302 239C303.369 245.272 311.473 244.898 317 246L317 244L326 243L325 248C319.038 248.02 307.042 250.8 305 257L308 257C304.777 269.338 291.815 261.727 289 271L285 270L281 279L288 289C282.648 289.505 280.66 288.591 282 283L277 283C273.121 292.716 256.14 292.832 256 281L259 281L258 284L261 288C264 285.855 263.559 283.446 263 280L252 279L251 282C247.164 281.149 245.497 282.008 243 285L251 289L236 289L236 290L284 290.788L316 287L316 286C308.445 285.436 311.768 281.907 314 277L311 273C317.088 273.467 318.06 269.103 313 266C314.667 261.463 313.358 259.033 311 255L317 260L329 257L329 260C333.338 259.673 339.762 256.744 336.958 251.209C336.082 249.481 332.442 247.598 333.346 245.33C336.687 236.945 342.821 252.248 343 255C347.485 253.702 349.306 252.66 352 257L356 250L378 257L379 257L381 254L373 245C379.172 247.249 388.111 246.717 393 242L390 243L393 241C391.367 236.607 384.402 233.092 384.817 228.184C385.789 216.693 397.833 223.802 402.765 222.638C408.63 221.255 407.528 211.202 407 207L396 211L397 215C392.076 213.51 386.776 207.216 394 205C390.468 198.527 387.408 196.026 380 196L380 188L379 188L373 198C375.092 199.678 384.913 209.639 378.922 211.427C376.05 212.285 371.468 210.367 368 211L368 212L371 215L369 220L368 220C364.643 214.377 359.694 215.883 354 216C355.518 211.557 364.073 207.699 360.278 202.333C359.139 200.724 356.858 200.588 355.667 198.917C353.676 196.123 356.005 193.842 352 193L359 192L361 182L353 177L359 175L364 179L370 190L370 185L373 184L370 179L369 179L367 181L366 168L364 169L364 168C367.986 162.431 366.537 159.238 360 158L359 150L362 152C368.866 150.112 368.633 154.345 370 160L380 156C376.629 162.463 373.393 165.233 376 173L374 179L391 182L396 191C393.972 183.634 394.279 178.389 403 177L403 176L393 174L390 175L385 171C386.565 165.104 389.684 162.655 395 160L395 158L381 156L382 146L371 145L372 142L371 140L369 137L374 139L375 135L364.722 117.394L353 114L366 134L334 120L336 115L326 118.696L302 108.532L279 108L279 106L311 101C306.719 96.3677 299.953 96.4119 294 95.4136C279.797 93.0317 265.388 92 251 92C204.571 92 151.765 100.907 116.989 134.093C96.5588 153.59 84.45 192.767 102 218z"/>
<path style="fill:#ddc696; stroke:none;" d="M241 112L234 127L245 126L245 122L255 121C252.307 115.929 246.575 112.885 241 112z"/>
<path style="fill:#e6d886; stroke:none;" d="M334 120L343.208 126.219L355 131C352.959 125.493 349.411 124.2 344 126L342 120L343 120C346.155 123.844 351.066 121.73 355 120L358 123C356.531 120.034 354.629 115.768 351.624 114.046C347.396 111.624 335.32 115.668 334 120z"/>
<path style="fill:#ddc696; stroke:none;" d="M170 114L167 121C172.75 122.298 176.092 116.457 170 114z"/>
<path style="fill:#e3cf69; stroke:none;" d="M342 120L344 126L353 127L351 123L355 122L356 126L360 132L357 132L366 134L355 120C350.014 121.613 346.724 122.778 342 120z"/>
<path style="fill:#dbc92a; stroke:none;" d="M351 123C353.285 127.325 354.968 130.884 360 132C360.32 128.339 359.521 127.075 356 126L355 122L351 123z"/>
<path style="fill:#dfdbd4; stroke:none;" d="M389 125L389 126C405.299 138.284 423.403 156.481 428.561 177.015C438.719 217.453 398.465 260.854 363 274L365 278C357.197 281.796 350.823 284.513 342 284L343 287C321.548 287 300.753 296 279 296C274.342 296 260.052 295.09 259 300L225 299.671L150 278L150 283L144.16 274.185L117 256C117.586 268.803 125.709 281.154 131.081 292.286C134.746 299.882 135.918 307.583 140 315C131.804 311.401 122.676 302.183 119 294L118 294C123.145 333.841 127.01 375.184 158.09 403.715C199.158 441.418 269.549 444.565 320 428.767C343.401 421.439 373.101 403.613 383 380L371 385L371 392L366 392C365.986 386.895 366.352 382.1 361 380L360 383C355.915 382.309 353.854 383.261 352 387L358 386L340 409C335.494 407.128 331.821 405.051 331 400C334.746 398.993 339.066 394.156 342 398C344.977 396.39 345.902 393.836 342 393L345 386L321 397C323.937 386.659 338.889 388.477 344 379C357.335 382.408 358.711 367.451 369 362L359 378L371 365L373 365L374 368L375 368C377.711 362.798 375.149 360.21 375.85 355C376.694 348.719 383.759 339.167 389 336L393 341L394 338L395 338L395 342L396 342C404.292 310.672 406.52 278.088 415.75 247.001C417.78 240.163 423.88 235.561 426.802 229C433.354 214.294 434.684 199.934 433.961 184C433.001 162.858 410.097 129.587 389 125z"/>
<path style="fill:#f3b271; stroke:none;" d="M174 131L180 132L180 131L176 129L176 128L179 127C175.887 126.319 175.005 128.245 174 131z"/>
<path style="fill:#f99d21; stroke:none;" d="M176 128L176 129L187 134L187 133L180 127L176 128z"/>
<path style="fill:#f3b271; stroke:none;" d="M180 129L180 130L184 131L180 129z"/>
<path style="fill:#d5ba8d; stroke:none;" d="M236 140L236 141L247 141L249 148L253 148L255.918 137.647L236 140z"/>
<path style="fill:#ece19a; stroke:none;" d="M374 137L379 142C379.992 137.64 378.36 136.008 374 137z"/>
<path style="fill:#e6e3dd; stroke:none;" d="M369 137L372 142L371 145L382 146L381 156L395 158L395 160C389.216 162.047 385.711 164.704 385 171L390 175L393 174C395.426 176.776 398.843 175.283 401.926 177.028C410.791 182.046 397.196 185.453 394 187L397 193L393 194C390.754 186.629 381.431 180.12 374 179L376 173C374.034 165.129 377.813 162.758 380 156L370 160C368.943 154.334 368.936 149.422 362 152L359 150L360 158C367.012 160.148 366.49 162.575 364 169L366 168L366 169L367 181L369 179L370 179C373.866 185.549 379.903 187.773 380 196C387.295 196.086 389.828 199.424 394 205C385.793 206.37 391.539 214.081 397 215L396 211L407 207C407.403 212.351 404.804 217.208 405.279 222.196C405.659 226.181 409.514 228.668 408.228 232.999C405.523 242.11 389.135 254.836 380.985 259.083C376.459 261.442 370.834 258.613 366.805 261.168C363.477 263.278 362.987 267.789 359.751 269.992C354.543 273.536 347.708 274.79 342 277.285C310.217 291.177 272.221 293.822 238 289.715C218.993 287.433 200.118 279.562 181 278L181 279C196.765 282.296 211.792 288.412 228 289.925C234.844 290.564 247.106 290.003 252 295C220.253 295 187.28 289.432 158 276.725C148.403 272.561 133.857 268.139 129 258L127 260L103 237L113.255 282L119 299L118 294L119 294C121.486 302.197 131.814 312.569 140 315C133.277 296.593 118.759 276.022 117 256L142.826 273.583L150 283L150 278L177 288L223 300L259 300C262.322 294.875 275.242 296.029 281 295.999C302.053 295.89 322.256 287.014 343 287L342 284C350.422 284.995 357.997 282.813 365 278L363 274C378.288 270.345 394.141 256.272 404.09 244.779C407.74 240.563 412.984 237.51 416.077 232.83C429.623 212.338 433.586 189.788 425 167L424 167C427.314 189.538 426.775 213.322 411 232L410 226L411 226L412 229C414.835 224.776 418.264 220.76 415 216C421.257 211.229 419.93 204.454 413 201C415.097 195.127 420.639 173.463 411 173C407.262 164.158 400.248 154.121 390 154L390 153L381 137L380 137L379 142L369 137z"/>
<path style="fill:#f8ac50; stroke:none;" d="M235 141C237.391 149.582 242.312 153.773 251 154L251 150L247 150L245 146L245 152C240.651 148.375 240.261 144.111 246 142L245 145L246 145L247 141L235 141z"/>
<path style="fill:#e5cda6; stroke:none;" d="M328 141L331 144L331 145C328.788 145.891 325.279 150.147 330.059 150.384C332.252 150.493 334.877 148.572 337 148C335.618 143.78 332.294 141.662 328 141z"/>
<path style="fill:#f99d21; stroke:none;" d="M245 152L246 142C239.996 143.31 239.86 149.166 245 152z"/>
<path style="fill:#f7c485; stroke:none;" d="M144 161L150 161L150 160L146 159C147.822 153.711 150.424 149.571 156 148C148.407 144.938 144.44 154.883 144 161z"/>
<path style="fill:#e3cf69; stroke:none;" d="M189 151C190.051 151.731 191.219 152.765 192.469 153.191C202.588 156.638 194.356 141.532 189 151z"/>
<path style="fill:#f99d21; stroke:none;" d="M151 156L148 158C153.842 162.572 164.486 159.294 158.396 151.149C154.219 145.562 148.394 150.334 151 156z"/>
<path style="fill:#d5ba8d; stroke:none;" d="M107 172L113 171L112 168C117.896 164.691 124.751 157.418 127 151C119.58 148.421 108.152 164.895 107 172z"/>
<path style="fill:#f8ac50; stroke:none;" d="M157 149L160 157L161 157C160.875 153.122 160.498 150.928 157 149z"/>
<path style="fill:#dbc92a; stroke:none;" d="M194 150L197 152L194 150z"/>
<path style="fill:#f7c485; stroke:none;" d="M251 151C248.936 154.105 246.451 153.58 243 153L246 168L254 169L253 162L247 156L252 156L251 151z"/>
<path style="fill:#f8ac50; stroke:none;" d="M148 152L146 159L151 161L148 158L151 156L148 152z"/>
<path style="fill:#f7c485; stroke:none;" d="M161 152L159 160L164 152L161 152z"/>
<path style="fill:#d5ba8d; stroke:none;" d="M321 152C319.178 156.372 317.139 160.284 322 163L323 152L321 152z"/>
<path style="fill:#e4c986; stroke:none;" d="M335 160L345 166C345.964 164.733 346.869 163.469 347.711 162.111C355.442 149.645 338.879 159.876 335 160z"/>
<path style="fill:#f3efe7; stroke:none;" d="M99 157C86.2371 178.062 83.8338 199.088 92.7454 222C98.5151 236.834 108.242 248.413 109 265L110 265C109.973 255.164 107.692 245.59 103 237C107.603 242.269 121.056 261.492 129 258L129 261C166.184 284.257 208.003 295 252 295C247.812 288.54 226.572 289.817 219 288.389C207.202 286.164 194.168 283.8 183.174 278.826C179.084 276.976 176.236 273.438 171.995 271.725C162.844 268.028 151.723 265.617 143.3 260.61C121.042 247.379 96.6072 219.79 94.1042 193C93.0426 181.639 102.043 166.922 99 157z"/>
<path style="fill:#e4ceb2; stroke:none;" d="M131 167L128 185L128 186L135 194L142 194C139.124 205.726 144.795 216.325 131 223L130 215L128 217C124.06 209.97 118.333 209.537 118 200L117 195L111 192L111 191L113 185L112 185L106 199L113 220L108 215L106 221C109.875 234.167 121.138 241.074 131 249L145 246L142 249L150 249L148 239L154 241L153 252C156.986 251.953 159.416 251.94 161 248L163 254C165.492 253.918 171.464 253.28 168 250L173 242L163 248L159 227L161 227L166 235L167 232L169 232L174 240L175 240C174.731 230.731 168.92 226.271 160 225L163 222L157.974 206.599L151 201L161 203L167 193L162 197C155.263 193.989 141.01 192.387 137 186L142 188L140 178C144.726 177.218 145.591 174.494 146 170C138.397 172.136 137.839 175.123 133 167L131 167z"/>
<path style="fill:#ddc696; stroke:none;" d="M228 169L228 174L223 172L218 177L223 182L222 189C215.521 190.003 213.048 194.937 212 201L213 201L224 190L228 191C225.209 185.926 224.43 182.341 227 177L228 188L236 189L230 176L232 170L228 169z"/>
<path style="fill:#d4c2a4; stroke:none;" d="M104 221L108 221L108 215L113 220L106 199L114 183C109.793 180.813 108.476 177.612 108 173C90.8512 177.695 100.967 209.655 104 221z"/>
<path style="fill:#dcc9a8; stroke:none;" d="M353 177C354.85 180.808 356.739 182.135 361 182L359 192C355.822 190.903 353.993 189.911 352 193L360.339 206.861L354 216C359.784 215.957 363.83 215.42 368 220L369 220L371 215L368 212L368 211C371.096 210.644 377.464 213.022 379.717 211.829C385.404 208.818 375.93 199.556 373 198C375.141 192.879 382.407 182.713 370 185L370 190L364 179L359 175L353 177z"/>
<path style="fill:#dab673; stroke:none;" d="M226 177C224.737 182.306 223.831 188.127 230 190L226 177z"/>
<path style="fill:#f7c485; stroke:none;" d="M394 186L405 182L395 184C397.394 180.085 400.622 179.569 405 179C398.981 174.512 394.338 179.853 394 186z"/>
<path style="fill:#f8ac50; stroke:none;" d="M395 184C399.19 183.716 404.679 183.516 406 179C401.351 179.2 396.894 179.272 395 184z"/>
<path style="fill:#e6d886; stroke:none;" d="M383 184L393 194L397 193L397 191L391 182C387.197 180.656 384.491 179.481 383 184z"/>
<path style="fill:#d9b751; stroke:none;" d="M293 190C298.375 191.202 301.715 187.853 306 185C300.386 182.645 295.903 184.977 293 190z"/>
<path style="fill:#f7c485; stroke:none;" d="M330 192C330.213 194.728 331.638 199.173 329.382 201.357C324.988 205.611 317.458 198.26 316 207L325 208L325 207L318 203L332 205L336 206L330 209L337 208L337 214L338 214L338 211L343 212L343 214L338 215L338 216C349.497 215.123 339.809 208.878 340 203L334 201C334.717 196.562 334.687 193.482 330 192z"/>
<path style="fill:#d9b751; stroke:none;" d="M307 204L313 199L308 195L314 197L315 197L315 193C307.099 193.094 305.649 196.607 307 204z"/>
<path style="fill:#dbc92a; stroke:none;" d="M308 195L313 199L314 195L308 195z"/>
<path style="fill:#e1d2ab; stroke:none;" d="M315 194C313.319 198.404 311.752 202.571 307 204L306 197L295 196L294 203L303 198C304.852 205.039 309.743 204.838 316 206L317 202L315 194z"/>
<path style="fill:#f09b6a; stroke:none;" d="M195 200L193 205L197 210C195.91 205.828 198.121 204.772 202 204L202 205L200 207L203 206L202 211L216 215L216 221L217 221L219 220L227 212C220.899 213.785 220.063 209.241 215.021 206.826C208.864 203.878 201.484 202.385 195 200z"/>
<path style="fill:#f8ac50; stroke:none;" d="M318 203C322.455 210.67 329.266 207.714 336 206C334.695 203.92 333.819 203.059 332 205L318 203z"/>
<path style="fill:#f2904a; stroke:none;" d="M203 206L200 207L202 205C190.04 200.857 203.194 216.981 203 206z"/>
<path style="fill:#edb58d; stroke:none;" d="M211 206C217.361 207.222 221.266 216.303 227 211L223 211L222 207L211 206z"/>
<path style="fill:#e4ceb2; stroke:none;" d="M316 207C314.195 213.836 307.386 216.929 301 219L301 215L296 214L292 223L297 227L293 228C294.991 233.153 293.134 236.659 293.432 241.83C294.012 251.9 296.859 259.926 284 263L283 271L267.209 266.53L252 271L252 272C257.686 272.445 262.871 273.813 266 268L269 268L276 271C270.845 276.993 253.937 280.649 246.133 279.022C241.142 277.981 239.28 268.68 242.333 265.228C246.511 260.503 252.346 263.896 257 261C247.575 258.958 234.361 262.922 234 274C226.401 269.606 225.51 260.324 222.208 253.17C218.771 245.726 213.394 243.862 215 235L213 237L212 237C211.772 232.155 211.036 229.867 207 227C214.631 227.148 215.797 222.035 216 215L197 210L203 213L203 214C197.779 217.388 202.147 222.322 203.243 227.015C206.424 240.632 214.97 249.599 222 261L211 255L210 259L225 271C219.848 282.232 205.041 277.398 196 275L195 280L205.17 283.698L251 289C248.915 285.599 246.902 285.127 243 285L251 282L252 279L263 283L264 283C267.047 280.889 269.278 281.643 272 284L264 284L261 288L258 284L259 281L256 281C256.042 292.912 274.402 293.601 277 283L282 283C279.644 288.949 282.381 289.98 288 289C286.941 284.748 285.369 280.43 281 279L285 270L289 271C293.73 261.622 305.842 270.581 308 257L305 257C308.135 251.429 318.8 248.068 325 248L326 243L317 244L317 246C311.385 244.205 304.284 245.211 302 239L307 239L303 222C309.559 223.543 312.355 221.485 314 215L315 215C316.488 218.717 318.001 220.354 322 221C318.551 225.615 315.561 226.304 310 226C310.107 228.976 309.313 233.877 311.614 236.156C316.924 241.415 321.459 235.475 319 230L324 229L323 236C325.261 236.712 329.277 239.445 331.628 238.554C335.656 237.027 330.879 230.305 329 229L336 223C336.379 214.37 342.509 219.401 345 224L340 224C340.577 227.474 341.526 228.423 345 229L345 225L355 229L355 224C348.097 223.478 337.381 214.933 337 208L316 207z"/>
<path style="fill:#f2904a; stroke:none;" d="M208 209L218 215L219 212L208 209z"/>
<path style="fill:#d19146; stroke:none;" d="M338 211L340 215L338 211z"/>
<path style="fill:#b66012; stroke:none;" d="M339 211L340 215L343 214L343 212L339 211z"/>
<path style="fill:#dab673; stroke:none;" d="M217 219C213.48 224.174 213.243 226.013 207 227L212 237L213 237L218 230L224 232L220 219L217 219z"/>
<path style="fill:#e4c986; stroke:none;" d="M386 226C394.008 221.968 396.553 223.752 405 225C399.56 218.668 390.295 218.583 386 226z"/>
<path style="fill:#d9b751; stroke:none;" d="M392 221L392 222L401 230L399 223L392 221z"/>
<path style="fill:#f09b6a; stroke:none;" d="M385 229L388 228L399 239L401 239C404.593 228.952 391.484 216.243 385 229z"/>
<path style="fill:#dbc92a; stroke:none;" d="M398 224L404 234L407 234C406.921 227.353 404.768 224.615 398 224z"/>
<path style="fill:#edb58d; stroke:none;" d="M393 225L390 227L391 231L394 231L393 225z"/>
<path style="fill:#e3cf69; stroke:none;" d="M405 225L407 233L408 233L405 225z"/>
<path style="fill:#e6d886; stroke:none;" d="M280 226C280.581 229.49 281.44 230.547 285 230L280 226z"/>
<path style="fill:#f7c485; stroke:none;" d="M384 226L385 232L386 232L386 226L384 226z"/>
<path style="fill:#e6d886; stroke:none;" d="M159 227L163 248C172.208 244.738 175.184 239.816 169 232L167 232L166 235L161 227L159 227z"/>
<path style="fill:#f2904a; stroke:none;" d="M386 228C385.724 232.956 393.888 244.689 399.816 243.11C403.297 242.182 405.361 236.825 407 234L404 234L402 230L401 230L401 239L399 239L388 228L386 228z"/>
<path style="fill:#ddc696; stroke:none;" d="M408 228L404 240L405 240C407.318 236.092 409.847 232.542 408 228z"/>
<path style="fill:#d5ba8d; stroke:none;" d="M299 229L299 232L304 229L299 229z"/>
<path style="fill:#b66012; stroke:none;" d="M396.333 238.667L396.667 239.333L396.333 238.667z"/>
<path style="fill:#f3d99a; stroke:none;" d="M393 239L390 243L393 242C386.465 245.674 380.192 246.902 373 245L381 254L379 257L378 257L363 252L363 258L357 263L357 264L363 264L356 266L354 273L355 273L367.54 261.361L378.999 260.348L391 253L391 252L385 255L384 255L378 251L378 249L379 248L386 252L387 245L388 245L391 248L396 245L393 239z"/>
<path style="fill:#e4c986; stroke:none;" d="M395 242L396 245L391 248L388 245L387 245L386 252L379 248L378 249L378 251L384 255L385 255L399 245L399 244L395 242z"/>
<path style="fill:#e1d2ab; stroke:none;" d="M329 260L329 257L317 260L311 255L313 266C316.959 269.602 316.914 273.103 311 273L314 277C307.968 286.092 313.099 286.797 322 284.626C332.952 281.954 342.923 275.877 354 274L356 266L363 264L357 264L357 263L363 258L363 253L356 250L352 257C349.853 252.198 347.338 253.175 343 255C342.898 251.544 338.655 237.114 333.086 244.699C331.09 247.418 336.034 249.895 336.829 252.104C338.55 256.887 332.591 259.445 329 260z"/>
<path style="fill:#d5ba8d; stroke:none;" d="M296 248L298 258L293 259L294 263L298 263C302.378 258.477 305.135 250.882 312 251C308.883 246.139 301.076 246.832 296 248z"/>
<path style="fill:#eae9e6; stroke:none;" d="M415 247L407 291L408 291L414.094 260L415 247z"/>
<path style="fill:#e5cc9a; stroke:none;" d="M147 260L147 262L180 276C177.892 269.304 171.181 270.825 166.148 267.686C162.832 265.618 163.939 262.332 161.973 259.573C158.505 254.704 151.103 258.092 147 260z"/>
<path style="fill:#f3b271; stroke:none;" d="M241 274L242 274L244 269L252 271L252 270L247 269L254 264C245.877 257.847 239.523 265.891 241 274z"/>
<path style="fill:#d5ba8d; stroke:none;" d="M285 264L285 268L290 264L285 264z"/>
<path style="fill:#f09b6a; stroke:none;" d="M266 268L261 272L261 273L266 273L263 275C266.624 278.986 273.807 274.851 276 271L269 268L266 268z"/>
<path style="fill:#f2904a; stroke:none;" d="M244 269C237.965 283.529 253.638 277.425 262 278L263 275L265 276L266 273L244 269z"/>
<path style="fill:#dab673; stroke:none;" d="M333 279L344 271C337.49 268.672 331.523 271.106 333 279z"/>
<path style="fill:#f99d21; stroke:none;" d="M247 277L248 271C243.448 271.57 242.058 275.611 247 277z"/>
<path style="fill:#c5c4c3; stroke:none;" d="M386 280L370 302L371 303C377.992 299.613 388.864 287.498 391 280L386 280z"/>
<path style="fill:#dab673; stroke:none;" d="M264 281C265.186 285.036 268.328 284.319 272 284L264 281z"/>
<path style="fill:#ccc7c5; stroke:none;" d="M318 298L317 310L318 310C320.285 301.623 333.715 301.276 328 308L330 313L340 311L330 317L331 323C338.855 321.153 344.072 316.643 347 309L348 300C340.172 294.872 362.237 288.843 364 283L337.004 293.63L318 298z"/>
<path style="fill:#c7c7c7; stroke:none;" d="M341 321L341 325L328 328L328 338L345 327C344.073 330.233 344.186 338.378 349.691 334.377C360.084 326.823 367.611 314.532 378 307L377 303L365 313L366 306L358 311C362.149 300.305 371.516 299.814 370 287C345.621 289.721 361.714 316.56 341 321z"/>
<path style="fill:#ccc4ba; stroke:none;" d="M170 303C171.5 310.391 176.613 310.185 183 309C183.419 313.563 184.473 315.733 189 317L192.148 307.955L200.004 308.235L220 303C216.815 297.229 211.369 300.445 206 301.151C194.029 302.726 182.022 303.207 170 303z"/>
<path style="fill:#c9bbb1; stroke:none;" d="M232 302C233.689 309.839 242.299 317.425 250.682 311.682C253.421 309.806 253.99 304.231 250.682 302.603C247.709 301.141 243.221 302.119 240 301.911C237.121 301.726 234.824 301.388 232 302M217 307L224 316L230 317L231 316L230 306L217 307z"/>
<path style="fill:#e1847e; stroke:none;" d="M198 349L199 349C198.282 339.896 196.248 331.047 195.155 322C194.687 318.129 193.467 314.358 197 312C191.09 310.063 192.978 316.522 193.625 320C195.407 329.577 196.218 339.402 198 349z"/>
<path style="fill:#dc5c5c; stroke:none;" d="M194 312L195 325L196 325L196 313L203 315L194 312z"/>
<path style="fill:#dc3136; stroke:none;" d="M196 313C191.614 333.245 202.119 357.484 203 378L225 382L224 319L198 313L196 313z"/>
<path style="fill:#e29992; stroke:none;" d="M203 314L203 315L216 317L203 314z"/>
<path style="fill:#d99393; stroke:none;" d="M322 314L322 315L327 315L323 345L324 345L328 314L322 314z"/>
<path style="fill:#dc3136; stroke:none;" d="M318 378L327 315C321.099 315.02 300.465 317.701 297.028 322.514C292.357 329.055 296 349.015 296 357C296 361.467 293.127 379.427 296.604 381.932C300.553 384.777 313.298 378.691 318 378z"/>
<path style="fill:#db7878; stroke:none;" d="M311 317L311 318L319 317L311 317z"/>
<path style="fill:#e1847e; stroke:none;" d="M219 318L219 319L223 319L219 318z"/>
<path style="fill:#db7878; stroke:none;" d="M306 318L306 319L311 319L306 318z"/>
<path style="fill:#d99393; stroke:none;" d="M299 384L299 383C293.302 379.848 296 371.697 296 366C296.001 353.685 289.558 320.764 306 320C302.749 318.639 297.357 318.34 295.603 322.228C293.805 326.217 295 332.702 295 337C295 348.077 294.522 358.978 294.039 370C293.801 375.436 292.335 382.888 299 384z"/>
<path style="fill:#db7878; stroke:none;" d="M224 320L224 353L225 353L224 320z"/>
<path style="fill:#b8b5b2; stroke:none;" d="M251 322L251 323L267 323C262.803 319.82 255.867 320.561 251 322z"/>
<path style="fill:#8d8783; stroke:none;" d="M245 325L268 326L268 325L266 325L266 324L271 324C265.18 321.387 249.565 319.769 245 325z"/>
<path style="fill:#e1b3aa; stroke:none;" d="M294 322L294 366L295 366C295 353.52 298.81 333.463 294 322z"/>
<path style="fill:#c5c4c3; stroke:none;" d="M352 353L368 342C364.345 350.243 353.554 359.274 345 362L347 371C341.731 371.086 335.306 376.749 343 379L343 375C349.078 374.667 359.018 368.835 358 362L357 362L349 368L362 356L361 362C370.001 358.598 381.983 342.242 384 333L379 338L378 338L370 340L375 331L372 330L373 323C363.279 323.312 351.311 333.44 349.688 343.285C349.178 346.383 351.557 349.889 352 353z"/>
<path style="fill:#4d4743; stroke:none;" d="M251 369L249 375L258 376L257 380L258 380L259 375L250 375L250 374L254 366C248.733 365.195 245.739 362.288 245 357L249 361L258 349L255 348C246.901 357.926 241.52 348.406 252 347L251 345L256 345L256 344L244 343L245 340L242 339C243.923 337.303 244.611 336.082 245 339L246 339C249.187 332.787 254.731 333.001 261 333L261 330L249 329L250 324C230.166 326.839 232.481 346.682 241.403 359.09C244.399 363.257 245.683 367.538 251 369z"/>
<path style="fill:#645e5a; stroke:none;" d="M250 324L250 326L252 326L252 324L250 324z"/>
<path style="fill:#4d4743; stroke:none;" d="M266 324L266 325C277.12 330.901 281.594 333.131 285 346L281 346L281 347L285 347L272 368C276.904 366.578 277.721 363.091 280.463 359.17C290.678 344.564 287.112 324.072 266 324z"/>
<path style="fill:#7c7773; stroke:none;" d="M242 327L245 325L242 327z"/>
<path style="fill:#dbd7d3; stroke:none;" d="M251 328C255.661 328.689 259.676 329.68 262 334C254.373 334 247.375 333.179 245 342L259 344.849L278 343L276 336L281 337C278.136 328.762 256.993 318.756 251 328z"/>
<path style="fill:#a09b96; stroke:none;" d="M275 325L275 326L280 328L275 325z"/>
<path style="fill:#e29992; stroke:none;" d="M225 326L225 368L226 368C226 356.043 229.611 336.988 225 326z"/>
<path style="fill:#8d8783; stroke:none;" d="M249 326C249.729 329.403 251.806 328.987 255 329L255 328L249 326M236 330L241 328L236 330z"/>
<path style="fill:#a09b96; stroke:none;" d="M270 327L270 328L277 330L270 327z"/>
<path style="fill:#aaa6a1; stroke:none;" d="M280 328L284 332L280 328z"/>
<path style="fill:#8d8783; stroke:none;" d="M256.667 329.333L257.333 329.667L256.667 329.333z"/>
<path style="fill:#7c7773; stroke:none;" d="M235 330L235 335L236 335L235 330z"/>
<path style="fill:#b8b5b2; stroke:none;" d="M277 330L280 333L277 330z"/>
<path style="fill:#a09b96; stroke:none;" d="M241 331L241 332L246 334L247 331L241 331z"/>
<path style="fill:#8d8783; stroke:none;" d="M261 331L250 333L250 334C252.789 334 262.7 335.509 261 331z"/>
<path style="fill:#96918d; stroke:none;" d="M239 332L238 336L239 336L241 332L239 332z"/>
<path style="fill:#d7d8cc; stroke:none;" d="M238 342L240 342L245 332C239.349 332.914 238.157 336.709 238 342z"/>
<path style="fill:#96918d; stroke:none;" d="M284 332L285 337L286 337L284 332z"/>
<path style="fill:#a09b96; stroke:none;" d="M280 333L281 340L282 340L280 333z"/>
<path style="fill:#c5c4c3; stroke:none;" d="M339 333L339 337C333.73 337.851 328.914 340.429 328 346L341 341L336 349C330.411 349.062 326.491 349.792 326 356C338.369 350.757 346.491 349.026 342 333L339 333z"/>
<path style="fill:#96918d; stroke:none;" d="M247 335L246 339L247 339L249 335L247 335z"/>
<path style="fill:#7c7773; stroke:none;" d="M282 335L282 340L281 340L276 336L278 347C284.946 348.55 277.175 356.125 276 360L277 360L285 347L280 342C282.824 340.171 283.263 338.117 282 335z"/>
<path style="fill:#8d8783; stroke:none;" d="M233 336L234 340L235 340L233 336z"/>
<path style="fill:#7c7773; stroke:none;" d="M237 336L237 341L238 341L237 336z"/>
<path style="fill:#25201c; stroke:none;" d="M244 336L242 340C244.649 339.432 245.355 338.412 244 336z"/>
<path style="fill:#c5c4c3; stroke:none;" d="M375 368L374 368L373 365L371 365L359 378L369 362C357.471 366.002 357.882 381.015 344 379C338.039 386.317 322.476 387.548 321 397L345 386L342 393C344.609 394.775 343.99 395.761 342 398C340.696 391.945 334.31 398.835 331 400C331.43 405.406 334.961 407.703 340 409L358 386L352 387L360 383L361 380C365.726 382.83 365.957 386.827 366 392L371 392L371 385C389.995 384.436 395 352.652 395 338L394 338L393 341L389 336C374.918 341.581 378.49 357.335 375 368z"/>
<path style="fill:#7c7773; stroke:none;" d="M240 337L240 341L241 341L242 337L240 337z"/>
<path style="fill:#eae9e6; stroke:none;" d="M396 339L392 362L393 362C394.752 355.379 398.757 345.585 396 339z"/>
<path style="fill:#b8b5b2; stroke:none;" d="M244 341L253 343L253 342L244 341z"/>
<path style="fill:#25201c; stroke:none;" d="M280 342L285 346L284 341L280 342z"/>
<path style="fill:#a09b96; stroke:none;" d="M286 341L286 345L287 345L286 341z"/>
<path style="fill:#8d8783; stroke:none;" d="M234 343L234 348L235 348L234 343z"/>
<path style="fill:#a09b96; stroke:none;" d="M263 344L263 345L278 344L263 344z"/>
<path style="fill:#4d4743; stroke:none;" d="M261 346L262 349C266.213 348.218 270.395 346.982 273 351C276.643 349.785 277.499 347.707 278 344L261 346z"/>
<path style="fill:#25201c; stroke:none;" d="M251 345L251 346L259 349C257.864 345.118 254.696 345.118 251 345z"/>
<path style="fill:#7c7773; stroke:none;" d="M256 345L256 346L262 348L263 346L256 345z"/>
<path style="fill:#db7878; stroke:none;" d="M322 345L322 353L323 353L322 345z"/>
<path style="fill:#e1b3aa; stroke:none;" d="M197 346L198 354L199 354L197 346z"/>
<path style="fill:#8d8783; stroke:none;" d="M238 346L238 351L239 351L240 346L238 346z"/>
<path style="fill:#bebdbd; stroke:none;" d="M279 346L276 351L280 348L281 352L282 352L279 346z"/>
<path style="fill:#96918d; stroke:none;" d="M245 354L246 354L252 348C247.239 346.201 243.883 349.161 245 354z"/>
<path style="fill:#645e5a; stroke:none;" d="M252 347L252 348L254 350L255 350L252 347z"/>
<path style="fill:#bebdbd; stroke:none;" d="M248 348L248 349L250 353L254 348L248 348z"/>
<path style="fill:#d4d5d4; stroke:none;" d="M259 348L259 354C261.439 353.847 264.448 352.675 266.83 353.055C270.568 353.651 275.27 359.338 270.833 362.115C267.974 363.904 263.231 363.002 260 363L259 371L264 371L264 368C272.794 367.739 281.952 356.837 280 348L272 352L272 349L259 348z"/>
<path style="fill:#a09b96; stroke:none;" d="M264 348L264 349L272 349L272 352L276 352L276 351L273 348L264 348z"/>
<path style="fill:#e7e3d6; stroke:none;" d="M246 354L250 349L246 354z"/>
<path style="fill:#645e5a; stroke:none;" d="M258 349L254 356L263 356L259 355L258 349z"/>
<path style="fill:#96918d; stroke:none;" d="M285 350L284 355L285 355L285 350z"/>
<path style="fill:#e1847e; stroke:none;" d="M199 351L199 358L200 358L199 351z"/>
<path style="fill:#25201c; stroke:none;" d="M239 352L244 357L239 352z"/>
<path style="fill:#7c7773; stroke:none;" d="M265 352L267 356L266 353L269 354L265 352M246 354L246 355L251 354L246 354z"/>
<path style="fill:#a09b96; stroke:none;" d="M264 353L259 354L259 355L270 359L264 353z"/>
<path style="fill:#4d4743; stroke:none;" d="M266 353L270 359L260 359L260 360C268.363 362.06 278.256 357.217 266 353z"/>
<path style="fill:#d99393; stroke:none;" d="M321 353L318 378L319 378L321 353z"/>
<path style="fill:#a09b96; stroke:none;" d="M252 359L258 359C256.042 356.006 253.958 356.006 252 359z"/>
<path style="fill:#aaa6a1; stroke:none;" d="M245 357C245.402 362.736 248.261 365.568 254 366L247 357L245 357z"/>
<path style="fill:#7c7773; stroke:none;" d="M258 357L253 359L253 360L258 360L258 365L259 365L259 362L268 362L268 361L260 360L260 359L264 359L258 357z"/>
<path style="fill:#a09b96; stroke:none;" d="M273 357L268 363C271.815 363.059 274.238 360.939 273 357z"/>
<path style="fill:#96918d; stroke:none;" d="M281 357L278 365L279 365L283 357L281 357z"/>
<path style="fill:#e1847e; stroke:none;" d="M200 359L201 372L202 372L200 359z"/>
<path style="fill:#25201c; stroke:none;" d="M250 359L250 363C254.901 365.77 253.404 370.435 250 374L250 375L259 375L254 386L262 381C262.013 384.194 261.597 386.271 265 387L263 375L270 375L269 370L263 375C254.894 370.288 259.125 360.467 250 359z"/>
<path style="fill:#8d8783; stroke:none;" d="M242 360L243 364L244 364L242 360z"/>
<path style="fill:#3d3633; stroke:none;" d="M256 360C256.494 364.427 254.833 369.298 259 372L256 360z"/>
<path style="fill:#bebdbd; stroke:none;" d="M259 362L257 370L259 370L260 363L268 363L259 362z"/>
<path style="fill:#eae9e6; stroke:none;" d="M390 363L381 385L382 385L392 363L390 363z"/>
<path style="fill:#a09b96; stroke:none;" d="M244.333 364.667L244.667 365.333L244.333 364.667z"/>
<path style="fill:#645e5a; stroke:none;" d="M270 366L259 372L263 375C264.95 372.679 266.683 370.132 269 373L270 373L274 369L274 368L272 366L270 366z"/>
<path style="fill:#db7878; stroke:none;" d="M225 368L225 382L212 380L212 381L226 383L225 368z"/>
<path style="fill:#a09b96; stroke:none;" d="M264 370L267 369L264 370z"/>
<path style="fill:#96918d; stroke:none;" d="M248 369C248.516 377.008 252.504 374.6 256 380L257 380L258 376L249 375L251 369L248 369z"/>
<path style="fill:#a09b96; stroke:none;" d="M271 369L270 373L273 369L271 369z"/>
<path style="fill:#b8b5b2; stroke:none;" d="M259 371L259 372L263 372L259 371z"/>
<path style="fill:#db7878; stroke:none;" d="M202 372L202 376L203 376L202 372z"/>
<path style="fill:#4d4743; stroke:none;" d="M270 373L263 375L264 385L265 385L264 376C267.511 376 271.146 376.987 272 373L270 373z"/>
<path style="fill:#96918d; stroke:none;" d="M264 379L265 379L271 377C268.12 375.341 264.772 375.398 264 379z"/>
<path style="fill:#db7878; stroke:none;" d="M205 378L205 379L209 379L205 378z"/>
<path style="fill:#e1847e; stroke:none;" d="M300 382L300 383L318 379L300 382z"/>
<path style="fill:#7c7773; stroke:none;" d="M265 379L265 387L266 387L265 379M257 387L257 386L254 386L257 380C252.657 382.195 251.275 386.041 257 387z"/>
<path style="fill:#96918d; stroke:none;" d="M257 387L265 388L265 387L262 387L262 381L257 387z"/>
<path style="fill:#aaa6a1; stroke:none;" d="M266 381L266 387L267 387L266 381z"/>
<path style="fill:#b8b5b2; stroke:none;" d="M251 383C251.652 386.911 253.136 387.7 257 388L257 387L251 383z"/>
<path style="fill:#a09b96; stroke:none;" d="M289 388L289 389C293.761 388.116 298.932 386.918 303 390C304.445 383.565 292.272 387.006 289 388z"/>
<path style="fill:#b8b5b2; stroke:none;" d="M223 390L224 390L235 389C231.8 386.627 224.061 385.051 223 390z"/>
<path style="fill:#3d3633; stroke:none;" d="M224 388L221 403L228 404L228 403L223 402L227 389L235 391L224 388z"/>
<path style="fill:#4d4743; stroke:none;" d="M284 393L299 392L299 389C293.981 386.899 286.814 388.167 284 393z"/>
<path style="fill:#25201c; stroke:none;" d="M297 389L301 392L300 388L297 389z"/>
<path style="fill:#4d4743; stroke:none;" d="M300 388L303 391L300 388z"/>
<path style="fill:#25201c; stroke:none;" d="M227 389L223 402L229 404L229 397L234 392L234 391L227 389z"/>
<path style="fill:#645e5a; stroke:none;" d="M231 389L231 390L235 390L231 389z"/>
<path style="fill:#aaa6a1; stroke:none;" d="M235 389L236 392L237 392L237 389L235 389z"/>
<path style="fill:#b8b5b2; stroke:none;" d="M241 389L241 390L252 390L241 389z"/>
<path style="fill:#aaa6a1; stroke:none;" d="M224 390L223 398L224 398L224 390z"/>
<path style="fill:#7c7773; stroke:none;" d="M235 390L234 393L235 390M238 395C242.609 392.711 246.147 389.329 251 393C253.191 387.188 240.213 391.206 238 395z"/>
<path style="fill:#aaa6a1; stroke:none;" d="M252 393L266 391C262.622 389.054 252.983 388.412 252 393z"/>
<path style="fill:#8d8783; stroke:none;" d="M255 394L256 394L277 391L273 396L276 402L277 402L280 395L278 390C272.932 390 256.171 388.535 255 394z"/>
<path style="fill:#aaa6a1; stroke:none;" d="M288 395L303 391C297.302 391.699 291.523 389.18 288 395z"/>
<path style="fill:#3d3633; stroke:none;" d="M233 396L234 392L229 397L229 404L231 399L235 400L240 396L239 401L240 401C242.569 395.988 245.432 393.963 251 393L251 391L233 396z"/>
<path style="fill:#4d4743; stroke:none;" d="M256 392L253 407L262 407L262 406L254 405C256.56 400.431 257.869 389.711 265 395C269.52 393.961 275.287 396.111 277 391L256 392z"/>
<path style="fill:#25201c; stroke:none;" d="M289 405C284.6 397.878 284.768 397.783 290 391C277.43 393.164 275.212 403.247 289 405z"/>
<path style="fill:#7c7773; stroke:none;" d="M281 394L284 393L281 394z"/>
<path style="fill:#8d8783; stroke:none;" d="M233 393L236 396L236 395L233 393z"/>
<path style="fill:#b8b5b2; stroke:none;" d="M234 393L238 395L238 394L234 393z"/>
<path style="fill:#aaa6a1; stroke:none;" d="M242 397L250 394L242 397z"/>
<path style="fill:#dfdbd4; stroke:none;" d="M242 397C248.704 415.547 262.573 389.098 248.005 394.475C245.965 395.227 243.979 396.108 242 397z"/>
<path style="fill:#25201c; stroke:none;" d="M254 405L262 406L260 401L265 393C256.695 393.098 256.775 398.19 254 405z"/>
<path style="fill:#a09b96; stroke:none;" d="M266 394L266 395L273 395L266 394z"/>
<path style="fill:#645e5a; stroke:none;" d="M286 394L286 396L288 394L286 394z"/>
<path style="fill:#4d4743; stroke:none;" d="M263 395L260 401L261 405L262 405C264.289 400.849 267.579 401.016 272 401L272 398L263 395z"/>
<path style="fill:#aaa6a1; stroke:none;" d="M264 395L272 401L273 401L273 397L264 395z"/>
<path style="fill:#25201c; stroke:none;" d="M234 398C236.955 403.116 241.181 405.416 247 406C244.785 402.574 243.228 400.374 239 401L240 396L234 398z"/>
<path style="fill:#4d4743; stroke:none;" d="M278 396C277.193 399.549 276.777 401.904 280 404L278 396M284 396L287 402L284 396z"/>
<path style="fill:#aaa6a1; stroke:none;" d="M285 396C286.296 402.216 290.446 401.996 296 402L296 401C291.461 400.946 288.428 400.702 287 396L285 396z"/>
<path style="fill:#96918d; stroke:none;" d="M241 397L243 400L241 397z"/>
<path style="fill:#7c7773; stroke:none;" d="M222 398C220.337 400.387 219.679 401.971 222 404L222 398z"/>
<path style="fill:#96918d; stroke:none;" d="M231 399L231 402L232 402L233 399L231 399z"/>
<path style="fill:#b8b5b2; stroke:none;" d="M218 400C218.802 404.805 221.566 404.947 226 405L226 404L220 404L220 400L218 400z"/>
<path style="fill:#7c7773; stroke:none;" d="M233.667 400.333L234.333 400.667L233.667 400.333M296 400L300 404L301 400L296 400z"/>
<path style="fill:#645e5a; stroke:none;" d="M236 401L238 404L236 401M244 401L246 404L244 401z"/>
<path style="fill:#a09b96; stroke:none;" d="M253.333 401.667L253.667 402.333L253.333 401.667z"/>
<path style="fill:#7c7773; stroke:none;" d="M262 407L253 407L253 403L252 403L252 408L264 408L263 402L272 402C266.814 399.825 262.457 401.134 262 407z"/>
<path style="fill:#645e5a; stroke:none;" d="M231 402L226 404L226 405C228.499 404.959 232.235 405.275 231 402z"/>
<path style="fill:#bebdbd; stroke:none;" d="M263 402L264 408L252 408L252 404L247 408L247 409C254.362 409.152 264.658 413.423 265 403L272 403L263 402z"/>
<path style="fill:#645e5a; stroke:none;" d="M287 402L287 403L294 403L287 402z"/>
<path style="fill:#3d3633; stroke:none;" d="M281 404L281 405L299 404L299 402L281 404z"/>
<path style="fill:#a09b96; stroke:none;" d="M232 403L227 405L227 406C229.499 405.959 233.235 406.275 232 403z"/>
<path style="fill:#645e5a; stroke:none;" d="M238 404L238 405C241.75 406.402 252.818 405.434 246 404C246 407.691 240.724 404.215 238 404z"/>
<path style="fill:#96918d; stroke:none;" d="M279 404C284.216 409.326 291.621 406.31 298 405L298 404L279 404M238 405L238 406L242 407L242 406L238 405z"/>
<path style="fill:#ccc7c5; stroke:none;" d="M292 419L290 410L278 412C274.886 418.341 269.587 419.762 263 419C263.361 430.026 273.236 421.452 280 420L280 423L289 419C289.12 422.692 289.313 424.777 293 426C295.729 420.675 306.249 413.637 312 412L312 415L316 415L316 406L292 419z"/>
<path style="fill:#c4bebd; stroke:none;" d="M319 415C324.866 416.292 328.645 412.047 331 407C325.004 405.761 321.151 409.653 319 415z"/>
<path style="fill:#96918d; stroke:none;" d="M242 407L242 408L249 408L242 407z"/>
<path style="fill:#ccc4ba; stroke:none;" d="M220 411L223 413C223.904 422.021 226.984 424.093 235 426L230 410L220 411z"/>
<path style="fill:#c9bbb1; stroke:none;" d="M253 416L257 428L261 428C260.927 419.184 261.252 418.348 267 412L253 416z"/>
</svg>
