<?xml version="1.0" standalone="yes"?>
<svg width="512" height="512">
<path style="fill:#000000; stroke:none;" d="M0 0L0 512L512 512L512 429L1 429L1 112L512 112L512 0L0 0z"/>
<path style="fill:#e6e4e0; stroke:none;" d="M1 112L1 429L115 429C115 410.644 114 392.389 114 374C114 367.444 111.61 357.338 120 356L120 355L110 355C109.204 344.446 100.486 344.719 93.4429 339.956C88.4907 336.607 86.3978 332.66 80 332L80 331L83 331L81 326L75 330C70.0447 311.675 53.1471 320.959 41 327C40.0964 322.783 35.644 324 32 324L37 328C33.3466 331.953 29.1442 331.986 24 332C22.998 325.506 17.9026 321.316 12 319L12 317L26 313L28 321L44 305L38 320L51 319C50.5215 312.945 44.8898 301.961 51 298L47 292L47 291L50 287L52 294L56 294L51 284L59 282L55 298L55 301L69 311L75 286C66.6781 283.636 68.0543 273.825 65 267C72.6926 265.777 72.0824 259.631 69 254C76.7688 251.635 71.7248 241.11 71.1705 235C70.3049 225.459 74.4996 215.364 80.3789 208C109.593 171.409 189.311 155.303 223 194L228 192L226 190L226 189L227 187L229 188L230 188L230 176C254.851 182.797 277.369 187.702 303 179.537C310.998 176.989 317.385 171.981 325 169L326 182L324 183L324 184L333 197L331 197L332 200C346.895 189.847 363.322 186.769 380 181L378 177L398 169L396 172C400.955 174.16 405.169 174.848 403 181C411.654 185.732 421.736 183.74 423 196L426 195L427 206L433 205C431.232 214.54 441.007 214.629 448 215C442.503 219.05 440.682 221.451 443 228C450.689 226.908 456.805 229.821 458 238L463 239C459.487 240.811 451.85 245.482 460 247L470 249L470 245L476 247L476 249L457 253L457 254L460 255L460 257L456 258L457 262L451 265L455 266L451 270L448 283L451 284L450 291L459 291C457.062 292.776 454.137 294.025 452.647 296.223C446.881 304.727 470.457 309.619 465 298L474 301L474 303L452 309L452 310L456 311L456 313L450 316L453 327L453 328L448 329L446 352L455 354L446 358C449.54 369.922 460.295 361.512 466 358L466 365L449 368.955L436 367L436 368L439 369L433 376C438.306 379.161 443.598 378.117 443 371L444 370L451 376C441.969 379.01 425.408 392.887 417 390L417 395C414.226 396.155 411.061 398.398 408.054 398.716C404.766 399.064 403.674 395.613 400.871 394.692C395.119 392.802 385.79 398.204 383 390C381.261 390.375 379.676 390.709 380.75 393C386.109 404.439 385 415.79 385 429L512 429L512 413L488 401L488 399C498.278 394.722 501.566 398.999 512 399L512 333L491 333C496.407 326.543 504.308 328 512 328L512 112L505 112L505 146L478 147.498L464 153L464 154L467 154L453 163L439 154L458 152L454 157C458.971 158.026 461.108 156.664 463 152C454.633 146.868 459 121.148 459 112L307 112C307 115.302 306.039 120.514 308.028 123.363C315.274 133.742 332.856 134.704 329.736 152C326.094 172.193 294.436 177.527 278 179.169C271.613 179.807 260.747 181.414 257 175C266.385 178.822 270.187 176.203 271 166L272 166L272 169L275 163L278 159L274 160C270.026 152.922 253.075 154.755 245 153L240 153C238.205 155.16 237.319 154.211 236 152C241.972 151.241 237.322 140.694 236 137L241 135C240.504 138.03 237.559 142.023 242 142L246 146L243 139L244 139L245 142L250 137L249 142L254 144L250 148L265 143L254 142L254 136L263 137L264 134L271 137L266 124C260.377 126.359 254.87 128.892 253 135L248 134L252 123L252 122L249 112L1 112z"/>
<path style="fill:#efe3d1; stroke:none;" d="M249 112L252 122L252 123L248 134L253 135L266 124L271 137L264 134L263 137L254 136L256 138L254 142L265 143L250 148L254 144L249 142L250 137L245 142L244 139L243 139L246 146L242 142C238.243 141.517 240.796 137.881 241 135L236 137C236.526 140.262 241.742 152 236 152C236.615 155.047 239.123 157.008 240 153L245 153C253.637 155.56 268.356 153.217 274 160L278 159L275 163C275.069 165.213 273.737 169.616 272 166L271 166C269.69 176.086 266.184 177.612 257 175C259.594 182.376 273.888 179.577 280 179.086C293.618 177.991 309.054 174.866 319.907 165.957C333.106 155.121 328.741 137.52 315 129.619C306.14 124.524 296.24 123.173 287 119L293 131L289 129L289 133L292 132L292 136L288 134L287 139L281 139L281 142L279 142L284 132L281 133L277 131L278 128L267 126L269 121L253 121L253 112L249 112z"/>
<path style="fill:#f6f5f0; stroke:none;" d="M253 112L253 121L269 121L267 126L278 128L277 131L281 133L284 132L279 142L281 139L287 139L288 134L292 136L292 132L289 133L289 129L293 131L287 119C300.468 127.461 329.875 127.907 327.891 151C327.486 155.72 324.584 159.648 323 164C333.976 154.846 331.119 139.791 320.996 131.329C317.337 128.27 310.596 126.636 308.028 122.61C306.221 119.777 307 115.21 307 112L253 112z"/>
<path style="fill:#ddd1d3; stroke:none;" d="M459 112L459 141C459 145.66 458.107 150.033 463 152C460.592 156.032 458.767 157.527 454 157L458 152L439 154L453 163C455.912 162.387 470.452 154.782 464 154L464 153L479 147.498L505 146L505 112L459 112z"/>
<path style="fill:#efdaad; stroke:none;" d="M223 152L222 147L227 147L230 139L233 140L236 132C240.612 131.847 242.641 130.893 242 126C229.883 128.534 218.699 136.161 216.733 149C215.908 154.385 216.352 161.171 222.093 163.928C229.494 167.484 231.511 153.444 223 152z"/>
<path style="fill:#f1dfcb; stroke:none;" d="M230 139L227 147L222 147L223 152C230.146 154.212 229.764 162.603 223 165L223 166C233.639 172.054 248.03 179.221 246 160L242 160L244 165L241 163L234 164C234.599 158.965 235.343 149.132 231 146L231 144L234 146L235 146L230 139z"/>
<path style="fill:#dfcece; stroke:none;" d="M183 155L178 151C173.183 159.216 160.149 147.054 175 145C170.568 141.642 159.098 142.366 159.492 150.011C160.07 161.211 176.644 157.683 183 155z"/>
<path style="fill:#eccf8e; stroke:none;" d="M233 143L231 146L232 147L233 147L234 147L233 143z"/>
<path style="fill:#dbc2c3; stroke:none;" d="M139 150L149 165L159 160L153 156L158 156L148 148L139 150z"/>
<path style="fill:#e0caca; stroke:none;" d="M127 159L124 155L114 157L114 158C119.3 161.44 123.509 165.713 125 172L135 169L129 162L147 166L147 164C137.515 162.388 134.78 160.089 138 151C132.247 151.779 128.584 153.078 127 159z"/>
<path style="fill:#d7ab5b; stroke:none;" d="M219 152L221 161L222 161L224 160L224 155L221 156L219 152z"/>
<path style="fill:#d5c2c6; stroke:none;" d="M358 160L354 157L346 162C353.732 163.395 357.859 169.872 366 167L366 166L362 163C367.438 163.044 374.285 164.945 378 160L365 160L366 153C361.043 153.687 358.412 154.712 358 160z"/>
<path style="fill:#dccccf; stroke:none;" d="M432 166L428 161L419 164L419 167L433 174L442 169L436 168L436 167C442.054 167.05 448.203 168.891 452 163C443.967 164.558 438.12 166.138 438 156C431.953 156.944 431.033 160.437 432 166z"/>
<path style="fill:#bb7300; stroke:none;" d="M222 160L222 163L224 163L224 160L222 160z"/>
<path style="fill:#ccb9aa; stroke:none;" d="M323 169C303.588 180.65 280.935 186.893 258 183.572C248.3 182.167 239.493 177.635 230 176L230 188L227 187L226 189L226 190L228 192L224 194L225 196L220 197L220 199L226 197L227 197L228 197L230 199L231 189L237 189L237 190L235 191L235 195L243 192L243 186C253.076 189.679 255.112 190.751 256 202L257 202C261.815 192.831 271.78 185.306 279 198L282 190L295 188L294 201L295 201C301.787 192.138 309.479 191.054 319 186L321 190L322 181L323 181L320 205C324.987 202.522 332.476 204.819 331 197L333 197L330 187L329 187L323 193L326 184C323.658 183.219 323.98 183.346 326 182L323 169z"/>
<path style="fill:#bd9a76; stroke:none;" d="M324 169L323 179L324 179L324 169z"/>
<path style="fill:#dc9f47; stroke:none;" d="M378 177L380 181C359.464 185.921 344.882 193.893 327 204L331 206L331 213C323.352 211.205 320.631 216.32 314 219L314 215L320 211L316 212L318 210L318 209L310 213L310 214L314 213C311.372 216.903 311.599 219.005 314 223C318.743 219.595 321.392 216.76 327 220L337 216L337 215L336 211L344 219L344 220L342 224L352 224L354 226C353.995 219.91 353.924 215.78 347 215L353 209L355 213L354 208L354 207L365 207L363 203L369 204L368 211L363 210L361 216L362 213L357 211C354.761 218.904 356.086 225.322 358 233L352 231L352 233C362.342 234.275 366.807 225.725 368 216L372 219C366.582 222.776 361.471 232.451 361 239L358 238L357 243L364 243L364 236C368.806 236.892 373.848 238.354 376 233L370 235L373 228L374 228L374 231L377 231L381 221L378 233C383.653 229.381 386.488 213.676 376 219L378 215L377 206L374 207L374 206L378 204L374 197L375 201L371 203L367 196L367 195L369 187L379 184L384 188L381 184L381 183L384 182L386 177L385 180L387 176L406 187C404.989 190.209 404.654 198.8 405.972 202C406.971 204.423 410.94 211.326 412 206L415 206L416 206L417 209L421 207L424 210L422 204L416 205L416 201L415 201L415 205L414 205L413 199L409 200L409 194L416 193L417 189L403 181C406.159 174.773 401.313 173.678 396 172L398 169C390.133 169.087 384.587 173.102 378 177z"/>
<path style="fill:#d9c476; stroke:none;" d="M286 171L285 174L286 171z"/>
<path style="fill:#e6ba87; stroke:none;" d="M123 179C124.463 183.389 127.24 182.554 131 181L129 184L127 189L128 185L127 184L113 193L112 190L107 194L109 190L104 189L99 197L99 198L104 197L106 193L105 196L108 195L104 198L105 202L96 198L94 208L90 209L93 200L90 203L85 202L88 205L86 216L98 212L100 212L101 215L108 216L108 212L120 208L119 203L125 203L121 211L125 209C124.365 212.494 124.312 214.92 128 216L128 210L129 213L134 210L134 214L135 214L139 215L142 206L137 205L133 206L133 205L140 205L140 202L150 200C147.394 202.671 143.864 205.213 148 208L144 215C149.674 213.225 158.129 208.829 162 215L157 215L157 221L160 218L163 220L164 217L165 217L165 222L166 222L166 219L171 224L172 224C173.165 220.813 173.867 217.829 170 217L171 214L163 212L162 208L165 210L166 210L173 208L173 206L166 207L165 203L176 204L177 204L177 200L174 201C173.222 196.76 173.564 193.455 169 192L169 191L177 191L176 195L185 195L186 194L184 192L184 191L195 188L195 187L189 186L191 184L191 183L181 182L178 184L179 182L173 183L173 182L175 180L170 180L170 179L187 176L187 174C165.538 167.668 144.087 177.336 123 179z"/>
<path style="fill:#e9cba7; stroke:none;" d="M187 174L180 179L188 182L191 177L191 178L189 181L195 179L199 180L189 184L189 186L195 187L195 188L191 191L195 189L199 192L197 183L201 187L206 181L187 174z"/>
<path style="fill:#ebd3b7; stroke:none;" d="M129 177L129 178L138 176L129 177z"/>
<path style="fill:#b5773b; stroke:none;" d="M387 176L387 180L382 179L384 182L381 183L381 184L384 188L379 184L369 187L371 203L375 201L374 197L378 204L374 206L374 207L377 206L378 215L376 219L384 218L387 211L387 210L384 207C391.237 206.838 395.9 207.388 396 199L398 199L398 203L403 203L403 202L400 197L396 197L396 196L398 196L398 195L393 197L395 190L394 182L397 181L399 186L401 181L387 176z"/>
<path style="fill:#d8a871; stroke:none;" d="M170 179L170 180L175 180L173 182L173 183L183 180C184.11 185.181 196.786 183.867 199 180L195 179L189 181L191 178L191 177C187.964 178 187.506 178.863 188 182C182.657 177.409 176.625 176.357 170 179z"/>
<path style="fill:#c67000; stroke:none;" d="M383 180L386 177L383 180z"/>
<path style="fill:#eed2ac; stroke:none;" d="M105 191L109 190L107 194L115 188L113 193L127 184L128 185L127 189C129.186 187.677 130.858 186.247 129 184L131 181L123 180C116.467 181.547 107.119 183.932 105 191z"/>
<path style="fill:#e9ceb2; stroke:none;" d="M180 180L178 184L183 180L180 180z"/>
<path style="fill:#deab72; stroke:none;" d="M201 187L197 183L199 192L195 189L184 191L184 192L186 194L185 195L183 195L176 195L177 191L169 191L169 192L174 201L181 201L181 202L173 203L165 203L166 207L173 206L173 208L169 211L163 211L163 212C166.689 212.589 169.009 213.236 170 217L177 219L173 219L177 223L179 226L182 223L182 222L180 219L184 219L183 216L186 220L192 218L192 217L190 214L179 213L171 213L171 212L176 214L174 210L178 208L184 209L184 204L186 206L189 205L190 208L201 207L202 207L204 209L200 201L204 206L207 203L211 204L212 200L225 196L207 181C203.37 182.113 201.658 183.17 201 187z"/>
<path style="fill:#a07e65; stroke:none;" d="M322 181L318 199L319 195L306 199L305 199L294 214L293 214L293 207L292 207L292 217L283 218L283 190L282 190L282 215L275 213L274 213L271 215L271 220L266 219L268 215L265 215L263 208L262 208C255.409 223.314 267.968 216.915 276 223L277 223L294 220L294 217L300 214L309 208L309 214C319.128 208.257 326.893 192.995 322 181z"/>
<path style="fill:#a85708; stroke:none;" d="M394 182L394 188L398 188L397 181L394 182z"/>
<path style="fill:#ad5a0e; stroke:none;" d="M399 181L400 189L406 188L399 181z"/>
<path style="fill:#d09958; stroke:none;" d="M414 184L417 189L416 193L411 197L417 196L417 199L424 198L424 199L422 203L416 201L416 205L422 204L425 211L422 212L417 244C419.921 242.088 419.69 240.304 419 237L424 241L421 256C426.68 255.638 430.691 258.552 434 263L436 263C437.724 260.766 442.804 257.582 438 257L438 256L443 254L440 255C443.682 249.039 449.676 251.495 452.973 247.397C460.518 238.017 457.444 227.463 445 229L448 238L445 244L447 244L447 240L447 247L433 251L437 255L437 257L436 258L431 249L428 250L424 246L424 245L428 246L426 244L429 231L425 232L427 230L424 214L425 214L425 218L429 218L427 224L429 221L433 220L441 225C439.986 218.967 440.409 214.619 434 212L435 216C429.582 215.589 423.607 210.669 427 205L426 195L423 196C422.677 189.778 420.416 185.306 414 184z"/>
<path style="fill:#d8c2c4; stroke:none;" d="M506 194L506 193L473 191C471.923 202.196 453.337 195.798 466 186C459.829 181.798 449.127 192.732 454.333 198.852C462.716 208.706 473.993 196.283 482 194.317C489.283 192.529 498.509 194 506 194z"/>
<path style="fill:#e3c5a6; stroke:none;" d="M205 186L209 190L211 188L205 186z"/>
<path style="fill:#bd762b; stroke:none;" d="M324 185L323 193C326.901 191.843 328.196 189.941 329 186L324 185z"/>
<path style="fill:#af9b80; stroke:none;" d="M243 186L243 192L235 195L237 190L237 189L231 189L229 201L236 209L237 209L240 199L241 199L245 201L245 186L243 186z"/>
<path style="fill:#b49581; stroke:none;" d="M318 186C308.907 189.875 299.895 191.772 295 201L294 198L293 198L293 214L294 214C298.759 208.666 304.275 206.936 305 199L306 199L306 202L319 195L318 199C321.218 196.293 321.622 191.376 318 189L318 186z"/>
<path style="fill:#d5a053; stroke:none;" d="M398 186L393 189L395 191L393 197L399 195L400 186L398 186z"/>
<path style="fill:#eed8b9; stroke:none;" d="M140 187L140 188L144 188L140 187z"/>
<path style="fill:#a10000; stroke:none;" d="M244 187L248 216C258.092 212.456 255 197.629 255 189L244 187z"/>
<path style="fill:#e6a859; stroke:none;" d="M114 188L112 191L114 188z"/>
<path style="fill:#eacba7; stroke:none;" d="M200 188L205 194L202 191L204 188L200 188z"/>
<path style="fill:#debe9c; stroke:none;" d="M210 189L210 193L217 192C215.052 188.829 213.632 188.177 210 189z"/>
<path style="fill:#cc6149; stroke:none;" d="M250 188L250 189L253 189L250 188z"/>
<path style="fill:#cd4c3d; stroke:none;" d="M292 188L292 189L295 190L292 188z"/>
<path style="fill:#ad5501; stroke:none;" d="M324 191L327 188L324 191z"/>
<path style="fill:#7a3e0e; stroke:none;" d="M401 188L396 196L396 197L400 200C404.703 198.663 402.565 194.855 402 191L403 191L406 195C405.559 191.148 404.564 189.573 401 188z"/>
<path style="fill:#d2745d; stroke:none;" d="M286 189L286 190L289 190L286 189z"/>
<path style="fill:#b50001; stroke:none;" d="M283 190L283 205L288 203C295.118 204.087 293.997 193.962 294 189L283 190z"/>
<path style="fill:#f1dabf; stroke:none;" d="M86 202L90 203L93 200L90 209L94 208L96 198C98.4965 201.545 100.684 202.585 105 202L104 198L108 195L105 196L106 193L103 194L104 197L99 198L99 197L104 191C97.208 189.346 89.5356 196.629 86 202z"/>
<path style="fill:#ead1b5; stroke:none;" d="M206 191L209 194L208 191L206 191z"/>
<path style="fill:#796859; stroke:none;" d="M264 191L263 193L263 194L267 194L264 191z"/>
<path style="fill:#332117; stroke:none;" d="M266 191L266 192L271 192L266 191z"/>
<path style="fill:#a2968c; stroke:none;" d="M270 193L273 191L270 193z"/>
<path style="fill:#933a08; stroke:none;" d="M359 191L357 194L359 191z"/>
<path style="fill:#994505; stroke:none;" d="M402 191L401 202L405 202C405.679 204.994 408.938 215.385 413 212L414 212L414 216L415 216C416.782 209.308 410.98 209.005 407.893 203.981C405.233 199.652 405.37 195.1 402 191z"/>
<path style="fill:#efcfa8; stroke:none;" d="M116 195L121 194L120 198L124 198L124 192L116 195z"/>
<path style="fill:#f1d7b4; stroke:none;" d="M137 192L138 195L140 195L141 192L137 192z"/>
<path style="fill:#171111; stroke:none;" d="M263.667 192.333L264.333 192.667L263.667 192.333z"/>
<path style="fill:#c5b8a7; stroke:none;" d="M266 192L266 193L270 195L270 196C265.814 195.312 264.066 196.327 262 200L276 200L275 197L277 197C274.65 192.725 270.596 192.366 266 192z"/>
<path style="fill:#43342a; stroke:none;" d="M273.667 192.333L274.333 192.667L273.667 192.333z"/>
<path style="fill:#b66608; stroke:none;" d="M369 192L367 195L367 196C369.649 195.432 370.355 194.412 369 192z"/>
<path style="fill:#eabf7e; stroke:none;" d="M417 192L417 196L419 197L420 197L417 192z"/>
<path style="fill:#edd6c0; stroke:none;" d="M129 193L128 194L128 195L128 196L131 193L129 193z"/>
<path style="fill:#f0dabf; stroke:none;" d="M153 193L153 195L156 195L156 193L153 193z"/>
<path style="fill:#2f1f1b; stroke:none;" d="M261 193L260 205L263 204C262.922 198.786 264.443 195.824 270 196L261 193z"/>
<path style="fill:#2e1b16; stroke:none;" d="M275 193L276 194L275 193z"/>
<path style="fill:#e0c8aa; stroke:none;" d="M212 194L215 199L212 194z"/>
<path style="fill:#887563; stroke:none;" d="M259.333 194.667L259.667 195.333L259.333 194.667z"/>
<path style="fill:#92806f; stroke:none;" d="M276.667 194.333L277.333 194.667L276.667 194.333z"/>
<path style="fill:#ca8230; stroke:none;" d="M409 194L409 200L413 199L414 205L415 205L415 201L422 203L424 199L424 198L417 199L417 196L411 197L411 194L409 194z"/>
<path style="fill:#b7a697; stroke:none;" d="M261 195L260 199L263 195L261 195z"/>
<path style="fill:#231917; stroke:none;" d="M277 195L278 199L271 200L271 201L277 201L278 204L279 204L277 195z"/>
<path style="fill:#f1ddc6; stroke:none;" d="M114 196L114 197L118 197L114 196z"/>
<path style="fill:#e7cdb2; stroke:none;" d="M175 197L175 199L178 199L178 197L175 197z"/>
<path style="fill:#edd3ac; stroke:none;" d="M203 197L205 200L203 197z"/>
<path style="fill:#c88f58; stroke:none;" d="M226 197L220 199L221 203L227 205L221 204L223 210C220.525 210.513 220.425 210.604 221 213L215 212L215 213L220 216L215 214L214 214L214 220L217 218L219 220L219 221L213 224L208 219L211 231L206 226L207 231L197 230L198 227L195 231L193 231L192 227L191 227L190 235L214 231L212 243L209 239L208 239L207 243L206 243L205 238L204 238C202.831 242.286 201.921 245.681 197 246L188 252L191 251L190 259L188 257L187 257L187 262L186 262L185 257L182 257L181 261L184 260C182.891 262.182 182.017 264.061 180 262L179 262L176 267L174 255C170.137 257.377 170.26 259.755 171 264C166.859 264.957 164.369 266.266 162 262L161 262L157 267L157 268L161 268L161 269L157 269L157 270L162 272L168 272L169 272L176 269C179.313 276.464 181.742 265.108 186 269L187 266L193 272L194 272C197.576 268.377 200.162 268.809 205 269L203 266L203 265L208 263L214 258L214 254L219 255L217 257L217 258L220 256L221 256L221 260L224 260L224 253L226 256L231 256L233 254L233 253L230 253L230 252L239 237L234 230L240 236L241 236L239 223L240 214L236 214C238.91 208.087 230.755 201.89 228 197L226 197z"/>
<path style="fill:#a44134; stroke:none;" d="M255 197L255 209L256 209L255 197z"/>
<path style="fill:#766458; stroke:none;" d="M275 199L278 199L276 197L275 199z"/>
<path style="fill:#a9907c; stroke:none;" d="M280 197L273 212L282 215L282 197L280 197z"/>
<path style="fill:#ba6c1f; stroke:none;" d="M353 197L352 201L356 201L353 197z"/>
<path style="fill:#ead5bb; stroke:none;" d="M194 198L194 199L198 199L194 198z"/>
<path style="fill:#e3c39f; stroke:none;" d="M212 203L217 201L220 202C219.029 197.492 212.818 199.184 212 203z"/>
<path style="fill:#9f856a; stroke:none;" d="M240 199L236 214L240 214L250 217L250 216C246.03 212.113 246.111 205.373 246 200L240 199z"/>
<path style="fill:#cb8436; stroke:none;" d="M396 199L390 211L395 212L396 208L399 218L396 218L396 222L388 222L389 226L392 225L392 226L387 226C385.127 232.755 378.339 238.884 371 239L360 258L366 258L366 259L364 263L365 263L366 260L370 261L373 251L372 257L376 257L369 264L370 267L373 265L387 264L387 259L388 259C390.114 266.142 394.335 268.694 400 273C396.453 273.251 390.782 274.352 390 278L384 277L385 280L379 279L379 273C374.198 273.305 344.501 282.984 352 272L349 262L345 261C350.461 251.176 353.616 248.001 365 248L363 246L364 243L357 243L358 238L361 239L363 232L352 233L352 231L358 233L357 211L362 213L361 216L363 210L368 211L369 204L363 203L365 207L354 207L354 208L355 213L352 212L353 209L347 215C358.932 215 351.066 227.734 352 224L342 224L344 219L338 221L338 222L340 223L339 227L338 229L334 222L337 216L328 218L329 223L326 218C320.633 217.609 317.791 219.285 314 223L314 213C309.307 214.236 306.985 216.175 306 221L305 221L304 219L293 235L286 238L297 238L301 246L301 252L298 250L300 257L316 260L319 251L321 251L321 259L318 258L314 262C311.648 266.403 306.171 272.435 301 273L304 285L309 283L307 280L317 281L317 276L315 278L314 278L312 273L320 273L325 287L327 287L327 282L333 284L333 283L329 276L335 276L332 270L325 271L325 266L331 265L328 267L328 268L334 267L337 272L339 281L341 281L343 277L339 270L342 275C348.852 282.964 337.022 288.851 330 287L330 289C319.92 286.501 303.895 304.291 297.222 311C295.081 313.153 283.844 317.861 287 320L284 326L286 322L288 324L291 323L289 332L292 340C303.369 341.072 296.951 331.872 295 325L301 322L299 335C304.471 331.199 304.996 323.125 305 317L309 318C309.518 321.526 310.536 323.022 314 324L314 328L316 328L316 324L332 325L337 320L340 310L343 315L344 315L347 309L339 305L334 308L334 302C349.823 302.878 351.574 290.088 363 285L358 295L369 296C371.637 290.276 378.121 285.957 369 283L369 282L387 281L385 292L381 294L382 290C377.258 290.319 373.48 291.718 374 297L378 295L378 306L385 300L380 295L388 296L393 303L403 294L403 293L397 282L404 281L400 290L410 290L408 285L418 288L418 287L416 285L424 289L428 290L431 291L432 291C433.206 281.189 425.055 279.106 416 279L418 274L405 268L406 264L404 267L403 267L403 265L402 265L401 268L396 261L399 262L398 265L411 254C413.579 257.734 413.274 259.759 412 264L417 263L418 267L411 266L408 260C408.064 265.368 409.047 268.585 415 267L416 271C422.44 270.567 429.116 266.35 431 260C426.072 260.066 422.308 256.778 419 262L418 262L422 257L421 248L420 256C412.807 251.904 415.076 243.216 412 237C418.341 233.469 413.243 229.693 412.099 224.715C411.424 221.778 413.329 218.998 412.383 216C410.834 211.095 406.785 206.981 405 202L398 203L398 199L396 199z"/>
<path style="fill:#ecd1b4; stroke:none;" d="M140 202L140 205L133 205L133 206L137 205L150 202L150 200L140 202z"/>
<path style="fill:#edd6ba; stroke:none;" d="M177 200L181 202L177 200z"/>
<path style="fill:#e6caa8; stroke:none;" d="M191 200L196 203L196 202L191 200z"/>
<path style="fill:#ae9b83; stroke:none;" d="M257 200L256 209L262 208L259 200L257 200z"/>
<path style="fill:#534540; stroke:none;" d="M262 200L262 201L266 202L266 201L262 200z"/>
<path style="fill:#000000; stroke:none;" d="M264 200L264 201L273 202L273 201L264 200z"/>
<path style="fill:#e2a259; stroke:none;" d="M200 201L199 204L205 212L201 207L200 208L202 212L199 211L196 214C195.604 208.375 193.211 206.902 188 209L189 205L179 208L178 208L174 214L174 215L179 213C180.301 219.042 189.884 210.984 194 216L190 216L190 217C191.779 220.457 186.99 223.89 186 219L179 226L181 226L177 229L177 223L176 223L173 228L174 222L171 224L170 221L169 221L169 224L165 217L164 217L163 220L160 218L157 221L157 222L163 222C161.122 224.166 159.98 225.48 158 223L154 224L154 229L153 229L149 224L145 228L146 234L157 235L157 230L161 237L146 237C146.546 241.448 147.329 244.605 143 247L141 244L143 240L136 242L132 247L134 233C129.798 233.896 129.538 238.206 130 242L127 239L126 239L126 243L130 243L130 245L125 245L130 248L130 251L127 251L128 255L121 248L113 253C108.633 247.932 103.18 253.829 98 253.887C92.8485 253.944 87.9842 250.184 83 249C83.7758 243.431 82.2684 239.672 78 236C75.992 242.86 79.4206 247.804 82 254L86 258L83 259L83 260L144 268L144 267L141 263L146 263L149 264L149 263L144 258L156 266L160 265L161 262L162 262L162 265L163 265L163 262L167 266L168 266L167 259L170 260L167 257C169.169 254.042 173.462 253.834 174 258L175 258L182 252L179 255L181 259L188 257L191 251L185 247L190 249L191 249L198 246L204 238L210 237L212 242L213 242L211 234L214 235L214 231L201 233L201 234L203 237L193 233L195 237L190 237L191 233L191 228L187 228L187 226L194 226L195 230L196 230L196 227L202 230L206 226C209.628 225.498 208.715 221.984 208 219L213 221L210 215C212.601 216.195 213.606 217.248 214 214L215 214L216 216L218 214L218 213L215 213L215 212L221 213L223 210L221 204L227 205L221 203L221 201L217 201L212 203L213 207L209 203L204 206L200 201z"/>
<path style="fill:#c1ae9d; stroke:none;" d="M276 201L275 204L268 202L276 206L276 201z"/>
<path style="fill:#ae6319; stroke:none;" d="M342 203L345 206L349 205L349 204L347 201L342 203z"/>
<path style="fill:#d1bfc0; stroke:none;" d="M434 203L434 205C444.305 211.204 456.515 218.739 464 204L457 203L458 207L450 207L454 204L454 202L434 203z"/>
<path style="fill:#e7a34e; stroke:none;" d="M128 202L125 205L125 206L130 202L128 202z"/>
<path style="fill:#f0b970; stroke:none;" d="M142 204C144.413 210.869 136.824 218.913 134 210L128 210L128 216L125 209L121 211L125 203L119 203L120 208L108 212L108 216L101 215L100 212L98 212L86 216C91.7174 204.698 79.5994 212.368 76 216L77 219C64.1667 224.376 71.7997 256.826 83 261L86 258L82 254L78 236C81.4859 240.226 83.2017 243.445 83 249L103 254L103 249L105 251L113 253L124 249L123 253L130 251L130 248L125 247L129 239L129 238L126 238L130 237L131 237L134 233C132.154 236.661 129.4 245.8 135 247L135 246L133 244C137.366 242.223 139.378 240.932 139 236C142.374 238.12 141.947 240.401 141 244L147 243L145 235L149 236L146 234L144 226L149 224L153 229L154 229L154 224L161 223L161 222L157 222L157 215L162 213L156 211L153 212L154 217L149 213L144 215L148 208L147 202L142 204z"/>
<path style="fill:#eed7b8; stroke:none;" d="M155 202L155 204L158 204L158 202L155 202z"/>
<path style="fill:#ecd1af; stroke:none;" d="M166 202L166 204L171 204L166 202z"/>
<path style="fill:#f0dac1; stroke:none;" d="M174 202L173 203L173 204L173 205L176 202L174 202z"/>
<path style="fill:#a79789; stroke:none;" d="M263 205L267 203C264.588 201.645 263.568 202.351 263 205z"/>
<path style="fill:#8b796d; stroke:none;" d="M270 202L270 203L275 204L270 202z"/>
<path style="fill:#655346; stroke:none;" d="M277 202L274 207L277 208L277 202z"/>
<path style="fill:#cd852b; stroke:none;" d="M316 212L329 207L326 202C320.929 203.436 318.112 207.311 316 212z"/>
<path style="fill:#efd2a7; stroke:none;" d="M84 203C79.3869 207.863 75.2126 213.281 74 220L77 219L76 216L87 209L88 205L84 203z"/>
<path style="fill:#e5d3b8; stroke:none;" d="M211 203L213 207L211 203z"/>
<path style="fill:#3c3126; stroke:none;" d="M265 203L268 210L269 210L270 206L274 206L265 203z"/>
<path style="fill:#8c0001; stroke:none;" d="M288 203L283 205L283 218L292 217L293 203L288 203z"/>
<path style="fill:#e9d8c2; stroke:none;" d="M177 207L181 204L177 207z"/>
<path style="fill:#ebd9c3; stroke:none;" d="M184 204L183 205L183 206L183 207L186 204L184 204z"/>
<path style="fill:#d8bfa2; stroke:none;" d="M214 204L214 207L217 207L217 204L214 204z"/>
<path style="fill:#000000; stroke:none;" d="M261 204L262 208L264 206L267 209L265 215L268 215L268 216L266 219C268.503 218.391 269.614 217.105 270 220L271 220L274 215L276 208L269 213C267.607 207.91 266.303 205.406 261 204z"/>
<path style="fill:#f0dbc2; stroke:none;" d="M97 208L100 205L97 208z"/>
<path style="fill:#a7540a; stroke:none;" d="M425 205L428 209L425 205z"/>
<path style="fill:#ccb9b6; stroke:none;" d="M427 206L428 210L432 210L433 205L427 206z"/>
<path style="fill:#eca959; stroke:none;" d="M109 206L104 208L102 212C105.51 211.49 109.139 209.955 109 206z"/>
<path style="fill:#ecd0aa; stroke:none;" d="M142 206L144 210L144 206L142 206z"/>
<path style="fill:#e5cfb8; stroke:none;" d="M188 206L188 209L190 209L190 206L188 206z"/>
<path style="fill:#dbba97; stroke:none;" d="M230 206L232 209L230 206z"/>
<path style="fill:#7b6e5e; stroke:none;" d="M263 206L265 209L263 206z"/>
<path style="fill:#7f6e5d; stroke:none;" d="M266.667 206.333L267.333 206.667L266.667 206.333z"/>
<path style="fill:#988372; stroke:none;" d="M270.667 206.333L271.333 206.667L270.667 206.333z"/>
<path style="fill:#0a0606; stroke:none;" d="M271 207L271 208L274 209L274 206L271 207z"/>
<path style="fill:#bb680a; stroke:none;" d="M320 214L314 215L314 219L331 213L331 206C325.507 206.642 320.883 207.987 320 214z"/>
<path style="fill:#a95b13; stroke:none;" d="M386 208L387 211L378 233L381 221L377 231L374 231L374 228L373 228L370 235L376 233C373.004 237.884 369.058 236.639 364 236L365 248C361.131 248 355.892 247.174 352.456 249.318C343.833 254.699 349.151 259.803 357 257L353 251L359 255L362 255L371 239C378.583 239.316 385.739 233.271 387 226L392 226L392 225L389 226L388 222L396 222L395 217L390 219C390.436 214.853 389.737 209.567 394 208L386 208z"/>
<path style="fill:#b96912; stroke:none;" d="M412 206L415 216L414 216L414 212L413 212L415 231L416 231C415.26 225.269 413.469 221.054 417 216L419 220L425 211L425 210L421 207L416 206L415 206L412 206z"/>
<path style="fill:#efdbc4; stroke:none;" d="M156 207L156 209L159 209L159 207L156 207z"/>
<path style="fill:#d3bb9d; stroke:none;" d="M224 207L224 209L226 209L226 207L224 207z"/>
<path style="fill:#8a8f2e; stroke:none;" d="M260 207L254 209L255 216L258 216C259.997 212.811 262.231 210.422 260 207z"/>
<path style="fill:#b5a18e; stroke:none;" d="M274.333 207.667L274.667 208.333L274.333 207.667z"/>
<path style="fill:#d4a774; stroke:none;" d="M384 210L387 207L384 210z"/>
<path style="fill:#eed7be; stroke:none;" d="M162 208L165 211L162 208z"/>
<path style="fill:#ecd8c0; stroke:none;" d="M166 208L169 211L168 208L166 208z"/>
<path style="fill:#e7d6c0; stroke:none;" d="M204 208L205 212L204 208z"/>
<path style="fill:#251f19; stroke:none;" d="M263 208L266 212L267 209L263 208z"/>
<path style="fill:#ad9a89; stroke:none;" d="M269 213L274 210C270.679 207.553 268.597 209.033 269 213z"/>
<path style="fill:#8d735c; stroke:none;" d="M300 214L294 217L294 220C288.775 220.018 281.872 220.323 280 226L285 226L285 228C280.461 227.946 277.428 227.702 276 223L271 223L274 225L274 226L271 229L267 229L265 222L266 228L260 227L255 239L264 236L261 247L269 245L281 237L281 241L282 241L293 235L305 221L306 221L309 208L300 214z"/>
<path style="fill:#8a3501; stroke:none;" d="M396 208L393 213L399 218L396 208z"/>
<path style="fill:#edd1b1; stroke:none;" d="M174 212L178 212L177 209L174 212z"/>
<path style="fill:#dec3a8; stroke:none;" d="M196 209L196 214L199 211L202 212L201 209L196 209z"/>
<path style="fill:#d9bc98; stroke:none;" d="M225 213L229 211L228 215L224 214L228 218L231 216L231 225L237 220L233 220L233 216L232 216L230 209L225 213z"/>
<path style="fill:#c69b7d; stroke:none;" d="M426 209L426 210L430 211L430 210L426 209z"/>
<path style="fill:#b66822; stroke:none;" d="M426 211C428.407 214.85 430.503 215.853 435 216L433 210L426 211z"/>
<path style="fill:#e9cfb0; stroke:none;" d="M156 214L161 211L156 214z"/>
<path style="fill:#e8cbaa; stroke:none;" d="M180 214L184 211L180 214z"/>
<path style="fill:#e3ae60; stroke:none;" d="M336 211L334 222L338 229L339 227L338 222C343.203 218.231 340.745 213.988 336 211z"/>
<path style="fill:#edd7bb; stroke:none;" d="M135 212L139 215L135 212z"/>
<path style="fill:#e7ceab; stroke:none;" d="M171 212L171 213L175 214L175 213L171 212z"/>
<path style="fill:#b46e3b; stroke:none;" d="M391 212L390 219L395 213L391 212z"/>
<path style="fill:#ecd0af; stroke:none;" d="M117 216L121 215L117 216z"/>
<path style="fill:#eed3b0; stroke:none;" d="M149 213L154 217L154 213L149 213z"/>
<path style="fill:#e6c9aa; stroke:none;" d="M190 213L194 216L190 213z"/>
<path style="fill:#6b7901; stroke:none;" d="M253 213C248.61 216.672 245.461 216.109 240 216L240 221L241 221C247.802 215.934 260.008 224.504 266 228C265.11 220.005 259.026 217.158 253 213z"/>
<path style="fill:#d8bb9c; stroke:none;" d="M216 214L216 216L220 216L220 214L216 214z"/>
<path style="fill:#a24908; stroke:none;" d="M424 214L427 230L425 232L429 231L426 244C430.18 246.339 433.89 243.053 429 242L429 241L433 241L435 237L436 229L428 228L430 221L429 221L427 224L429 218L425 218L424 214z"/>
<path style="fill:#ccb8b9; stroke:none;" d="M439 215L440 224L441 224L448 215L439 215z"/>
<path style="fill:#e6cfaf; stroke:none;" d="M210 215L213 218L213 224L219 221L219 220L217 218L214 220L210 215z"/>
<path style="fill:#f3d5b3; stroke:none;" d="M79 216L79 218L81 218L81 216L79 216z"/>
<path style="fill:#ebcfac; stroke:none;" d="M144 219L149 217L144 219z"/>
<path style="fill:#e4c8ab; stroke:none;" d="M173 216L177 219L176 216L173 216z"/>
<path style="fill:#e4c5a7; stroke:none;" d="M183 216L187 219L183 216z"/>
<path style="fill:#e5c8aa; stroke:none;" d="M198 216L201 221L200 216L198 216z"/>
<path style="fill:#994d07; stroke:none;" d="M368 216L362 232L372 219L371 216L368 216z"/>
<path style="fill:#8f3906; stroke:none;" d="M409 216L408 221L409 216z"/>
<path style="fill:#8e3e01; stroke:none;" d="M416 216L412 237L412 238L415 240L416 240L417 229L420 229L421 220L416 216z"/>
<path style="fill:#eed5b4; stroke:none;" d="M135 218L135 219L139 218L135 218z"/>
<path style="fill:#ddc5a4; stroke:none;" d="M223 217L220 218L221 222L223 220L226 221L223 217z"/>
<path style="fill:#43372e; stroke:none;" d="M269 217L270 220L269 217z"/>
<path style="fill:#efd9bc; stroke:none;" d="M130 218L128 223L130 218z"/>
<path style="fill:#e7cead; stroke:none;" d="M148 221L154 218L148 221z"/>
<path style="fill:#e2c8ae; stroke:none;" d="M185 220C187.61 223.851 190.296 221.371 192 218L185 220z"/>
<path style="fill:#e2ceb8; stroke:none;" d="M203 218L207 221L203 218z"/>
<path style="fill:#f2d9bb; stroke:none;" d="M104 222L107 219L104 222z"/>
<path style="fill:#ebd0ad; stroke:none;" d="M138 223L143 219L138 223z"/>
<path style="fill:#ebcda8; stroke:none;" d="M166 219L169 224L168 219L166 219z"/>
<path style="fill:#e8d5bb; stroke:none;" d="M180 219L180 222L183 222L183 219L180 219z"/>
<path style="fill:#384f01; stroke:none;" d="M241 219C241.998 226.898 240.671 233.59 250 235L250 234L246 228L263 226C258.536 220.942 247.636 219.06 241 219z"/>
<path style="fill:#b96b18; stroke:none;" d="M326 219L329 223L326 219z"/>
<path style="fill:#f1d4b2; stroke:none;" d="M133 220L132 225C135.054 224.346 134.936 222.993 135 220L133 220z"/>
<path style="fill:#db9542; stroke:none;" d="M149 221L149 222L155 221L149 221z"/>
<path style="fill:#000000; stroke:none;" d="M285 226L279 226L286 222L286 220C271.871 220.735 279.439 232.363 285 226z"/>
<path style="fill:#b56b33; stroke:none;" d="M433 220L428 228L442 229L442 225L433 220z"/>
<path style="fill:#eed8b9; stroke:none;" d="M97 222L97 223L101 222L97 222z"/>
<path style="fill:#ecd1b1; stroke:none;" d="M203 221L206 225L203 221z"/>
<path style="fill:#c4ab8c; stroke:none;" d="M239 221L239 223L241 223L241 221L239 221z"/>
<path style="fill:#2b1e15; stroke:none;" d="M264 221L264 222L267 225L268 225L268 222L276 223L276 221L264 221z"/>
<path style="fill:#e3ae66; stroke:none;" d="M412 221L411 226L413 226L412 221z"/>
<path style="fill:#f0d8bd; stroke:none;" d="M158 226L163 222L158 226z"/>
<path style="fill:#e0c19a; stroke:none;" d="M196 222L198 226L198 222L196 222z"/>
<path style="fill:#805a19; stroke:none;" d="M241 222C241 231.521 238.004 245.972 230 252L230 253L242 246C240.474 243.542 239.309 240.541 243 240L244 233L241 222z"/>
<path style="fill:#010101; stroke:none;" d="M268 222L267 229L271 229L274 226L274 225L271 222L268 222z"/>
<path style="fill:#ead4b3; stroke:none;" d="M174 223L173 228C175.444 226.392 175.662 225.413 174 223z"/>
<path style="fill:#cfa881; stroke:none;" d="M227 223L224 227L227 231L226 228L227 223z"/>
<path style="fill:#a55913; stroke:none;" d="M401 223L398 225L400 231L400 235L399 236L396 235C397.638 242.645 405.435 227.688 406 225L402 226L403 223L401 223z"/>
<path style="fill:#efd6b7; stroke:none;" d="M139 227L143 224L139 227z"/>
<path style="fill:#d6b896; stroke:none;" d="M209 224L211 231L211 224L209 224z"/>
<path style="fill:#dfc09e; stroke:none;" d="M212 226L214 230L218 228L217 224L212 226z"/>
<path style="fill:#48392c; stroke:none;" d="M279.333 224.667L279.667 225.333L279.333 224.667z"/>
<path style="fill:#eaccae; stroke:none;" d="M120 225L120 227L125 226L120 225z"/>
<path style="fill:#ebd3b0; stroke:none;" d="M144 228L148 225L144 228z"/>
<path style="fill:#e4c49d; stroke:none;" d="M183 225L182 226L182 227L182 228L185 225L183 225z"/>
<path style="fill:#cd833d; stroke:none;" d="M442 225L442 229C435.957 228.519 434.45 231.659 433 237C437.286 239.441 441.2 242.381 443 236C447.765 235.765 446.211 232.418 445 229L449 229L449 227L442 225z"/>
<path style="fill:#e9cfb5; stroke:none;" d="M162 229L166 226L162 229z"/>
<path style="fill:#ebc497; stroke:none;" d="M177 229L181 226L177 229z"/>
<path style="fill:#ebd3b8; stroke:none;" d="M187 226L187 228L191 228L191 226L187 226z"/>
<path style="fill:#dabf9e; stroke:none;" d="M193 226L195 231L193 226z"/>
<path style="fill:#546502; stroke:none;" d="M246 228L250 234L250 235L244 234L244 237L249 244C252.719 243.555 254.933 242.373 257 246L252 246L252 247L254 253L248 256C246.26 250.948 241.899 250.058 237 250L244 256C231.631 253.354 236.929 264.45 235 272L239 270C236.906 276.606 235.888 283.687 244 286L246 268C257.447 267.723 262.706 245.971 264 236L255 239L260 226L246 228z"/>
<path style="fill:#090a02; stroke:none;" d="M261 226L265 228L265 227L261 226z"/>
<path style="fill:#574030; stroke:none;" d="M280 226L280 227L283 227L280 226z"/>
<path style="fill:#6f2503; stroke:none;" d="M409 226L406 232L411 234L409 226z"/>
<path style="fill:#f2d9bf; stroke:none;" d="M106 227L106 229L109 229L109 227L106 227z"/>
<path style="fill:#efd6ba; stroke:none;" d="M96 228L96 231L98 231L98 228L96 228z"/>
<path style="fill:#ebd5be; stroke:none;" d="M147 232L151 228L147 232z"/>
<path style="fill:#ebd2b8; stroke:none;" d="M169 228L168 233C170.444 231.392 170.662 230.413 169 228z"/>
<path style="fill:#e6c9a2; stroke:none;" d="M197 228L197 230L202 230L202 228L197 228z"/>
<path style="fill:#af570d; stroke:none;" d="M313 228L316 240L310 243L310 244L313 244L310 252C319.474 249.037 319.722 233.629 313 228z"/>
<path style="fill:#c06b0b; stroke:none;" d="M388 232L392 228L388 232z"/>
<path style="fill:#f0d3b2; stroke:none;" d="M113 229L112 233L115 229L113 229z"/>
<path style="fill:#e9cdab; stroke:none;" d="M135 232L139 229L135 232z"/>
<path style="fill:#ddbd9d; stroke:none;" d="M203 229L203 231L207 231L207 229L203 229z"/>
<path style="fill:#cfb190; stroke:none;" d="M230 229L233 233L230 229z"/>
<path style="fill:#cd770b; stroke:none;" d="M417 229L417 237L418 237L417 229z"/>
<path style="fill:#dd9245; stroke:none;" d="M116 230L113 235L116 230z"/>
<path style="fill:#efd1b3; stroke:none;" d="M121 230L121 232L125 232L125 230L121 230z"/>
<path style="fill:#e6c59c; stroke:none;" d="M157 230L157 235C153.547 232.548 149.118 231.23 150 237L161 237L159 230L157 230z"/>
<path style="fill:#e8d1b2; stroke:none;" d="M173 230C173.733 233.437 178.079 235.211 179 231L173 230z"/>
<path style="fill:#e2c5a3; stroke:none;" d="M189 230L189 233L191 233L191 230L189 230z"/>
<path style="fill:#bb9f7a; stroke:none;" d="M234 230L236 237C241.913 235.049 238.403 231.082 234 230z"/>
<path style="fill:#efd3b5; stroke:none;" d="M92 231L91 235L92 231z"/>
<path style="fill:#eaccac; stroke:none;" d="M164 231L163 235L166 231L164 231z"/>
<path style="fill:#e1b685; stroke:none;" d="M181 231C181.195 233.679 183.009 237.618 184 233L187 235L186 231L181 231z"/>
<path style="fill:#d7c0a7; stroke:none;" d="M216 231L216 236L218 236L218 231L216 231z"/>
<path style="fill:#dac3a4; stroke:none;" d="M221 231L224 235L223 231L221 231z"/>
<path style="fill:#f1dbc0; stroke:none;" d="M116 232L116 235L119 235L119 232L116 232z"/>
<path style="fill:#efd3b1; stroke:none;" d="M83 233L82 234L82 235L82 236L85 233L83 233z"/>
<path style="fill:#f0d6b8; stroke:none;" d="M88 233L86 238L88 233z"/>
<path style="fill:#e0c7b0; stroke:none;" d="M199 233L203 237L199 233z"/>
<path style="fill:#ad5710; stroke:none;" d="M298 233L301 245L301 246C304.055 245.106 305.9 242.237 303 240L302 233L298 233z"/>
<path style="fill:#e2d1b3; stroke:none;" d="M211 234L212 238L213 238L213 234L211 234z"/>
<path style="fill:#ab9770; stroke:none;" d="M243 234L243 237L245 236L245 235L243 234z"/>
<path style="fill:#eacead; stroke:none;" d="M126 238L130 235L126 238z"/>
<path style="fill:#edccae; stroke:none;" d="M145 235L145 237L148 237L148 235L145 235z"/>
<path style="fill:#e4cdb0; stroke:none;" d="M190 236L190 237L195 237L195 235L190 236z"/>
<path style="fill:#c9aa8a; stroke:none;" d="M227 235L230 239L229 235L227 235z"/>
<path style="fill:#eed2b3; stroke:none;" d="M139 236L142 240L142 236L139 236z"/>
<path style="fill:#b46327; stroke:none;" d="M443 236L444 243L445 243L448 236L443 236z"/>
<path style="fill:#e4c8aa; stroke:none;" d="M161 238L161 239L166 239L161 238z"/>
<path style="fill:#debf9b; stroke:none;" d="M169 238C171.682 239.741 173.208 239.695 175 237L169 238z"/>
<path style="fill:#e5c8ae; stroke:none;" d="M179 237L183 241L179 237z"/>
<path style="fill:#d6c0a7; stroke:none;" d="M209 237L212 243L209 237z"/>
<path style="fill:#c5a682; stroke:none;" d="M233 237L236 241L235 237L233 237z"/>
<path style="fill:#3c5701; stroke:none;" d="M243 237L244 252L253 249L248 256L254 253L252 247L252 246L257 246C255.526 241.483 252.833 243.16 249 244C248.659 239.683 247.207 238.034 243 237z"/>
<path style="fill:#aa5806; stroke:none;" d="M269 245L264 245L264 246C267.194 245.987 269.271 246.403 270 243L278 244L275 250L282 249L285 244L286 244L285 249L287 254L291 252L295 254L288 246L301 252L301 246L297 238L282 241L281 241L281 237C276.316 238.22 270.62 240.137 269 245z"/>
<path style="fill:#c58033; stroke:none;" d="M419 237L421 247L422 247L424 241L419 237z"/>
<path style="fill:#c3afb0; stroke:none;" d="M447 271C451.034 270.51 453.445 269.986 455 266L451 265L457 262L456 258L460 257L460 255L457 254L457 253L476 249L476 247L470 245L470 249L460 247C453.117 244.911 460.19 241.054 463 239C454.686 236.154 456.356 241.585 452.974 246.683C451.541 248.842 447.715 248.704 446.97 251.278C446.176 254.022 449.314 256.336 449.474 259.025C449.703 262.878 447.047 266.853 447 271z"/>
<path style="fill:#f2d4b5; stroke:none;" d="M112 241L116 238L112 241z"/>
<path style="fill:#f0dfcc; stroke:none;" d="M120 238L120 242L123 242L123 238L120 238z"/>
<path style="fill:#e5caab; stroke:none;" d="M155 238L159 242L155 238z"/>
<path style="fill:#e6d0af; stroke:none;" d="M185 239L185 240L189 240L187 244C192.352 242.496 190.191 237.503 185 239z"/>
<path style="fill:#e0caaf; stroke:none;" d="M206 238L206 243L207 243L206 238z"/>
<path style="fill:#611803; stroke:none;" d="M413 238C413.237 244 413.075 253.626 420 256C419.284 250.371 418.411 240.837 413 238z"/>
<path style="fill:#b76921; stroke:none;" d="M433 238L434 249L431 247C431.36 251.522 431.533 257.088 437 257L437 255L433 251L447 247C448.439 244.134 449.744 242.172 447 240L447 244L433 238z"/>
<path style="fill:#ab4d07; stroke:none;" d="M443 238C440.538 241.157 441.214 242.833 445 244L443 238z"/>
<path style="fill:#dd8236; stroke:none;" d="M127 239L127 242L130 242L130 239L127 239z"/>
<path style="fill:#d3c2a9; stroke:none;" d="M215 239L215 242L218 242L218 239L215 239z"/>
<path style="fill:#d9c7aa; stroke:none;" d="M220 239L219 246L223 247L222 239L220 239z"/>
<path style="fill:#857c5c; stroke:none;" d="M241 239C239.89 242.059 239.431 244.235 243 245L243 244L243 240L241 239z"/>
<path style="fill:#e2d2bb; stroke:none;" d="M192 243L196 240L192 243z"/>
<path style="fill:#d7bfa3; stroke:none;" d="M199 247L203 240C199.595 241.719 198.451 243.185 199 247z"/>
<path style="fill:#9b4100; stroke:none;" d="M392 242L395 240L392 242z"/>
<path style="fill:#e4ceb2; stroke:none;" d="M151 241L155 244L151 241z"/>
<path style="fill:#debc97; stroke:none;" d="M162 241L161 245L166 244L162 241z"/>
<path style="fill:#e5bd94; stroke:none;" d="M168 241L169 245L170 245L171 241L168 241z"/>
<path style="fill:#a09e8c; stroke:none;" d="M242 241L241 244L244 244L242 241z"/>
<path style="fill:#6c2009; stroke:none;" d="M398 243L401 243L400 241L398 243z"/>
<path style="fill:#e4b167; stroke:none;" d="M429 241L429 242L432 242C430.002 245.59 427.896 245.6 424 245L424 246L428 250L434 249C435.115 244.386 433.786 241.781 429 241z"/>
<path style="fill:#934307; stroke:none;" d="M388 248L393 250L397 251L398 242L388 248z"/>
<path style="fill:#e9c597; stroke:none;" d="M86 243L85 248L88 243L86 243z"/>
<path style="fill:#ecccaa; stroke:none;" d="M126 243L126 245L130 245L130 243L126 243z"/>
<path style="fill:#f1dabe; stroke:none;" d="M133 246L137 243L133 246z"/>
<path style="fill:#e8cbb0; stroke:none;" d="M143 247L147 243L143 247z"/>
<path style="fill:#debc98; stroke:none;" d="M173 243L177 246L173 243z"/>
<path style="fill:#924004; stroke:none;" d="M270 243L258 253C263.155 250.59 264.537 250.23 270 252L271 249L272 249L274 259L287 265L290 274L293 273C293.123 283.336 305.763 282.162 301 273C306.459 272.804 312.36 267.099 314 262C316.974 261.494 317.856 261.039 318 258L321 259L321 251L319 251L316 260L300 257L298 252C296.831 257.134 300.373 259.863 303 264L294 257L296 255L291 252L282 256L278 254L278 253C281.585 251.461 283.366 249.915 284 246L283 246L282 249L275 250L278 244L270 243z"/>
<path style="fill:#c08648; stroke:none;" d="M285 244L283 253L288 253L285 249L285 244z"/>
<path style="fill:#ab5a0b; stroke:none;" d="M417 244L419 251C421.598 247.706 421.04 245.292 417 244z"/>
<path style="fill:#e0b386; stroke:none;" d="M151 252L153 248C149.715 242.909 144.642 249.902 151 252z"/>
<path style="fill:#e3d1ba; stroke:none;" d="M179 245L178 250L181 250L181 245L179 245z"/>
<path style="fill:#e3cfb3; stroke:none;" d="M191 246L192 250L197 245L191 246z"/>
<path style="fill:#e1c3a2; stroke:none;" d="M166 247L176 250C174.336 245.283 170.207 246.68 166 247z"/>
<path style="fill:#d4bca4; stroke:none;" d="M212 246L210 253L215 246L212 246z"/>
<path style="fill:#7a2001; stroke:none;" d="M288 246C290.322 249.789 295.81 252.046 294 257C296.457 260.81 297.989 264.742 303 264C299.638 256.21 297.489 246.631 288 246z"/>
<path style="fill:#e2cbb1; stroke:none;" d="M158 247L162 250L158 247z"/>
<path style="fill:#d7b38e; stroke:none;" d="M185 247L189 251L190 247L185 247z"/>
<path style="fill:#8e8964; stroke:none;" d="M234 252L238 252L237 250L242 250L242 247L234 252z"/>
<path style="fill:#b16419; stroke:none;" d="M404 247L403 254L406 253L404 247z"/>
<path style="fill:#efddc9; stroke:none;" d="M117 252L121 248L117 252z"/>
<path style="fill:#8c4108; stroke:none;" d="M444 248L440 255L443 254L438 256L438 257L442 259L445 257L444 248z"/>
<path style="fill:#af733f; stroke:none;" d="M445 248L445 257L437 260L439 262L435 265L434 261L433 261L434 271L429 265L428 273L422 274L423 269L417 273L416 279C424.692 279.275 432.627 281.664 432 291L431 291L430 289L429 299L423 298L424 303L427 302L428 320L423 325L423 326L430 336C427.392 337.119 426.932 338.341 430 339L430 340L427 340L429 344C432.107 343.221 440.487 341.336 436 337C438.557 328.95 440.226 318.002 437 310L445 310L445 307L438 307L435 289L440 289L440 285L449 281L450 270L445 269L442 271L446 268L445 248z"/>
<path style="fill:#f0dabf; stroke:none;" d="M103 249L102 253L105 249L103 249z"/>
<path style="fill:#e8bf94; stroke:none;" d="M143 249L146 253L145 249L143 249z"/>
<path style="fill:#d7b78f; stroke:none;" d="M204 249L204 254L205 254L206 249L204 249z"/>
<path style="fill:#d0b899; stroke:none;" d="M215 249L214 253L217 249L215 249z"/>
<path style="fill:#112e01; stroke:none;" d="M245 251L245 253C248.562 252.82 252.175 252.869 253 249L245 251z"/>
<path style="fill:#8a715d; stroke:none;" d="M255 264L271.039 268.617L283 267L274 259L272 249L271 249L270 252C260.653 247.529 256.214 254.874 255 264z"/>
<path style="fill:#d49954; stroke:none;" d="M303 249L302 252L305 252L303 249z"/>
<path style="fill:#e9c69c; stroke:none;" d="M132 250L131 255C134.054 254.346 133.936 252.993 134 250L132 250z"/>
<path style="fill:#e5d3ba; stroke:none;" d="M151 250L154 255L154 250L151 250z"/>
<path style="fill:#e9d0b5; stroke:none;" d="M156 250L159 255L158 250L156 250z"/>
<path style="fill:#e7d3bb; stroke:none;" d="M164 250L168 253L164 250z"/>
<path style="fill:#ddb789; stroke:none;" d="M192 254L196 250L192 254z"/>
<path style="fill:#cfb38f; stroke:none;" d="M199 250L203 253L199 250z"/>
<path style="fill:#be8348; stroke:none;" d="M353 251L358 257C359.017 252.754 357.554 250.189 353 251z"/>
<path style="fill:#500a02; stroke:none;" d="M278 253L278 254L282 256L283 251L278 253z"/>
<path style="fill:#b76420; stroke:none;" d="M372 251L370 261L366 260L365 263L364 263L363 260L366 259L366 258L357 260L354 270L362 273L355 272L353 274L353 279L372 275C371.627 271.245 372.602 269.643 376 268C376.855 272.012 382.203 273.521 386 274L384 276L384 277L390 278L400 273L388 259L387 259L387 264L373 265L370 267L369 264L376 257L372 257L372 251z"/>
<path style="fill:#c7c164; stroke:none;" d="M69 254L74 258L76 253L69 254z"/>
<path style="fill:#e7cdab; stroke:none;" d="M124 252L128 255L124 252z"/>
<path style="fill:#e8d1ae; stroke:none;" d="M181 261L179 255L182 252C176.252 254 173.066 259.833 181 261z"/>
<path style="fill:#e1d3ae; stroke:none;" d="M233 252L217 272L235 267C233.784 260.324 235.847 257.937 240 253L233 252z"/>
<path style="fill:#c5a378; stroke:none;" d="M224 253L224 259L225 259L226 253L224 253z"/>
<path style="fill:#8f9727; stroke:none;" d="M238 254L238 255L244 256L238 254z"/>
<path style="fill:#b6b24c; stroke:none;" d="M75 254L71 265L76 262L74 265L74 266L76 269L88 280L89 269L85 270L75 254z"/>
<path style="fill:#e4c29d; stroke:none;" d="M136 254L139 259L138 254L136 254z"/>
<path style="fill:#e1bf9a; stroke:none;" d="M148 254L152 259L148 254z"/>
<path style="fill:#e2c9ae; stroke:none;" d="M161 254L161 257L164 257L164 254L161 254z"/>
<path style="fill:#e3c49b; stroke:none;" d="M167 257L172 254L167 257z"/>
<path style="fill:#d3b18b; stroke:none;" d="M188 254L188 259L191 254L188 254z"/>
<path style="fill:#d0b496; stroke:none;" d="M206 254L205 258L206 258L206 254z"/>
<path style="fill:#c6ac87; stroke:none;" d="M214 254L214 259L219 257L219 255L214 254z"/>
<path style="fill:#cbbc96; stroke:none;" d="M231 254C226.169 260.713 214.602 269.453 206 269L206 273C200.897 273.91 196.544 275.784 195 281C199.73 280.503 214.029 278.529 215 274C220.29 274.81 222.876 273.287 226 269L217 272L233 254L231 254z"/>
<path style="fill:#7c3c05; stroke:none;" d="M360 254L352 261L354 266L357 260L360 260L360 254z"/>
<path style="fill:#daa663; stroke:none;" d="M403 254L407 258L407 254L403 254z"/>
<path style="fill:#a65516; stroke:none;" d="M411 254L398 265L396 261C396.09 264.418 401.329 270.532 402 265L403 265L403 267L404 267L405 264L406 264L407 269L420 273L420 272L415 267C409.468 267.911 408.168 265.145 408 260L411 266L418 267L417 263L412 264C413.722 259.901 414.32 257.267 411 254z"/>
<path style="fill:#a0692a; stroke:none;" d="M221 260L221 256L220 256L212 257L213 261L208 263L206 262L203 265L203 266L205 269L199 268L194 272L193 272L181 270L168 277C172.073 287.132 198.581 275.117 206 273L206 269C213.711 270.319 226.652 261.852 230 255L221 260z"/>
<path style="fill:#b36818; stroke:none;" d="M418 262L419 262L431 260L431 258C425.468 255.924 419.329 254.252 418 262z"/>
<path style="fill:#8b521f; stroke:none;" d="M446 255L446 261L449 255L446 255z"/>
<path style="fill:#92a40b; stroke:none;" d="M76 256C75.8735 261.221 79.975 264.175 85 264L85 263L76 256z"/>
<path style="fill:#ac8a6a; stroke:none;" d="M449 256L446 268L442 271L446 271L447 271L449 256z"/>
<path style="fill:#d6bb9d; stroke:none;" d="M185 257L186 262L187 262L187 257L185 257z"/>
<path style="fill:#622503; stroke:none;" d="M354 270L352 261L358 258C350.56 255.397 346.01 267.374 354 270z"/>
<path style="fill:#e3ceb1; stroke:none;" d="M144 258L149 262L144 258z"/>
<path style="fill:#974302; stroke:none;" d="M346 258L345 261C348.058 261.71 349.268 261.669 351 259L346 258z"/>
<path style="fill:#dec29a; stroke:none;" d="M167 259L171 264L167 259z"/>
<path style="fill:#d6bf9f; stroke:none;" d="M171 259L175 262L171 259z"/>
<path style="fill:#c6b59a; stroke:none;" d="M209 259L213 261L209 259z"/>
<path style="fill:#5e1801; stroke:none;" d="M431 259L422 274L428 273L429 265L433 265L431 259z"/>
<path style="fill:#d89a3f; stroke:none;" d="M82 263C92.4918 267.545 95.954 273.203 108 273L108 270L104 271L105 266C113.1 266.639 133.543 273.589 138 265C123.524 265 109.497 261.6 95 261.785C90.2764 261.846 85.0539 258.312 82 263z"/>
<path style="fill:#e2cdaf; stroke:none;" d="M180 265L184 260L180 265z"/>
<path style="fill:#c88432; stroke:none;" d="M149 261L150 267L145 265L142 271L138 267C127.742 271.128 115.808 266.464 105 266L104 271L108 270L107 275L113 275L111 270L117 269C126.384 276.136 138.324 273.475 149 275L153 274L154 269L149 261z"/>
<path style="fill:#d09f6a; stroke:none;" d="M177 261L176 267L181 262L177 261z"/>
<path style="fill:#bdb575; stroke:none;" d="M234 261L235 267L236 267L234 261z"/>
<path style="fill:#6b1c02; stroke:none;" d="M435 265L439 261L435 265z"/>
<path style="fill:#a8af06; stroke:none;" d="M73 262L65 267C66.5226 271.959 67.6113 281.101 73 282L72 285C79.6643 283.056 88.5803 269.977 76 269C76.5746 266.604 76.4751 266.513 74 266L74 265L76 262L73 262z"/>
<path style="fill:#dabb97; stroke:none;" d="M163 262L163 266L167 266L163 262z"/>
<path style="fill:#883000; stroke:none;" d="M337 265L343 267C341.727 263.679 339.47 261.41 337 265z"/>
<path style="fill:#8f4814; stroke:none;" d="M441 262L441 264L444 264L444 262L441 262z"/>
<path style="fill:#ddc29d; stroke:none;" d="M141 263L145 267L141 263z"/>
<path style="fill:#dcc2a9; stroke:none;" d="M146 263L146 267L150 267L146 263z"/>
<path style="fill:#b4956a; stroke:none;" d="M210 266L213 263L210 266z"/>
<path style="fill:#778500; stroke:none;" d="M82 264L85 270L89 269L90 274C95.4274 268.505 87.0081 264.966 82 264z"/>
<path style="fill:#ddc6a6; stroke:none;" d="M151 264L155 269L151 264z"/>
<path style="fill:#d7b58e; stroke:none;" d="M156 264L160 267L156 264z"/>
<path style="fill:#687d01; stroke:none;" d="M236 264C233.151 269.139 220.762 274.294 215 274C211.921 278.749 199.12 281.081 194 279L191 286L195 287L196 283L208 286L206 288L213.563 298.972L231 302L236 286L210 287L210 282L229 283L229 282C222.546 275.466 239.187 273.19 236 264z"/>
<path style="fill:#7c624d; stroke:none;" d="M255 264C255.643 266.736 256.24 272.07 258.023 274.187C261.441 278.243 264.715 276.149 263 283L267 284C263.456 290.795 254.594 286.931 256 296L275 288L275 286L272 283L293 281L293 273L290 274L287 265L282 265L283 267L271.039 268.342L255 264z"/>
<path style="fill:#853c03; stroke:none;" d="M348 264L352 272C349.209 274.992 348.7 277.57 353 279L354 270L348 264z"/>
<path style="fill:#973b02; stroke:none;" d="M330 265L325 266L325 267C326.963 267.505 331.167 267.93 330 265z"/>
<path style="fill:#dbab6d; stroke:none;" d="M405 265L405 268L407 265L405 265z"/>
<path style="fill:#7f3301; stroke:none;" d="M431 265L434 271L431 265z"/>
<path style="fill:#dec6aa; stroke:none;" d="M138 266L142 271L138 266z"/>
<path style="fill:#b77525; stroke:none;" d="M155 266L153 274L149 275L117 269L111 270L110 276L134 283L135 283C142.862 277.021 156.175 282.745 165 283L174 273L168 270L162 272L157 270L157 269L161 269L161 268L155 266z"/>
<path style="fill:#d7bb97; stroke:none;" d="M183 266L182 271L185 266L183 266z"/>
<path style="fill:#ccb69c; stroke:none;" d="M187 266L190 270L189 266L187 266z"/>
<path style="fill:#905813; stroke:none;" d="M247 271L246 284L250 284L249 281L250 277L254 281L255 281L259 277C255.807 268.666 255.946 264.923 247 271z"/>
<path style="fill:#a7530e; stroke:none;" d="M332 267L335 276L329 276C329.866 283.605 334.753 284.212 341 282L341 281L337 272L334 267L332 267z"/>
<path style="fill:#b67636; stroke:none;" d="M363 268L363 271C366.41 270.737 367.901 270.321 369 267L363 268z"/>
<path style="fill:#baa37b; stroke:none;" d="M196 268L196 271L199 271L199 268L196 268z"/>
<path style="fill:#b0ac63; stroke:none;" d="M228 268L228 269L233 269L228 268z"/>
<path style="fill:#714301; stroke:none;" d="M246 268L246 281L247 281L247 271L251 269L246 268z"/>
<path style="fill:#d59b54; stroke:none;" d="M325 268L325 271L331 272L332 268L325 268z"/>
<path style="fill:#9a3e01; stroke:none;" d="M372 275L379 273L379 279L385 280L386 274L376 268C372.273 269.173 371.145 271.181 372 275z"/>
<path style="fill:#c8ab86; stroke:none;" d="M169 269L169 273C172.692 272.88 174.777 272.687 176 269L169 269z"/>
<path style="fill:#ce9954; stroke:none;" d="M354 275L355 272L362 273C358.769 269.218 353.048 268.712 354 275z"/>
<path style="fill:#1a2c01; stroke:none;" d="M238 270L231 282L237 282L238 270z"/>
<path style="fill:#8c4505; stroke:none;" d="M339 270L343 277C338.395 283.338 334.48 284.237 327 282L325 287L325 288L330 289L330 287C337.037 289.407 350.372 281.546 342 275L339 270z"/>
<path style="fill:#9dac28; stroke:none;" d="M88 271L88 289L94 285L90 281L90 275L94 275L94 274L90 274L88 271z"/>
<path style="fill:#d9d3a5; stroke:none;" d="M92 274L96 271L92 274z"/>
<path style="fill:#c6be7e; stroke:none;" d="M68 272L68 276L69 276L68 272z"/>
<path style="fill:#6f8401; stroke:none;" d="M90 275L90 281L94 285L88 289L84 286L88 299L89 299C93.594 291.529 96.999 286.965 97 278L110 286C110.338 290.375 111.669 292.097 116 293L116 299L117 299L117 292L128 292L106 272L90 275z"/>
<path style="fill:#a04f04; stroke:none;" d="M327 272L330 275L327 272z"/>
<path style="fill:#8fa12a; stroke:none;" d="M233 273L229.103 275.162C221.259 279.98 234.803 283.834 233 273z"/>
<path style="fill:#853a06; stroke:none;" d="M312 273L314 278L315 278L317 276L317 281L307 280L309 283C305.122 283.673 302.864 287.034 307.152 289.682C310.739 291.897 316.878 291.823 321 292L321 286L325 287L320 273L312 273z"/>
<path style="fill:#bec566; stroke:none;" d="M83 275C80.345 279.389 80.0134 282.254 82 287C87.2651 284.884 86.1304 279.748 85 275L83 275z"/>
<path style="fill:#dac49b; stroke:none;" d="M107 275C107.832 278.883 111.859 278.064 115 280.028C119.966 283.131 132.698 296.334 133 282L107 275z"/>
<path style="fill:#ac6a22; stroke:none;" d="M256 278L258 283L252 282L252 283C257.332 285.234 263.865 294.017 267 284L263 283C265.748 276.175 261.661 274.595 256 278z"/>
<path style="fill:#9b8452; stroke:none;" d="M191 279L195 280L197 276L191 279z"/>
<path style="fill:#5f6701; stroke:none;" d="M97 278L97 287L98 287L105 282C104.169 277.033 101.394 277.495 97 278z"/>
<path style="fill:#794107; stroke:none;" d="M250 277L249 281L250 284L245 282C242.444 285.98 239.762 287.759 235 288L231 302L245 294L244 287L248 286L252 291L252 286L255 286L255 290L259 289L252 283L252 282L258 283L257 280L254 281L253 277L250 277z"/>
<path style="fill:#ad9849; stroke:none;" d="M108 278L108 279L113 279L108 278z"/>
<path style="fill:#c0a77d; stroke:none;" d="M166 278L165 283L170 284L168 278L166 278z"/>
<path style="fill:#bda478; stroke:none;" d="M188 278L188 279L190 282L193 281L188 278z"/>
<path style="fill:#957846; stroke:none;" d="M168 279L170 282L169 287L170 287L175 282L168 279z"/>
<path style="fill:#d9cba5; stroke:none;" d="M180 280C182.273 288.43 189.894 287.925 190 279L180 280z"/>
<path style="fill:#9f4802; stroke:none;" d="M373 281L377 280L373 281z"/>
<path style="fill:#dca659; stroke:none;" d="M394 279L389 283L395 283L394 279z"/>
<path style="fill:#7e9b01; stroke:none;" d="M133 292L117 292L114 306C118.979 308.055 122.89 307.693 126 303L117 302C121.257 296.06 125.879 293.92 133 293L130 297L136 300C134.39 290.774 134.536 282.503 145 286L144 280C135.819 281.526 133.188 283.168 133 292z"/>
<path style="fill:#b8aa82; stroke:none;" d="M174 281L174 282L178 283C178.869 289.106 182.147 290.93 188 291L189 287L174 281z"/>
<path style="fill:#8c7366; stroke:none;" d="M272 283L275 286L275 288L256 296L255 292L254 292L255 298L244 300L232.329 310.058L216 325.387L202 335L182 341L182 342C193.53 340.273 208.784 335.808 218.804 329.7C223.658 326.741 227.26 321.613 232.17 318.984C241.62 313.924 252.717 310.039 261.711 304.215C270.344 298.623 274.194 289.549 285.039 286.705C293.121 284.586 299.172 289.773 307 290L307 289L303 280L272 283z"/>
<path style="fill:#a16932; stroke:none;" d="M319 280C316.076 283.15 313.217 285.545 314 290L319 280z"/>
<path style="fill:#abb549; stroke:none;" d="M68 281L75 286L75 285L72 285L73 282L68 281z"/>
<path style="fill:#bbaa7b; stroke:none;" d="M130 281L130 282L133 282L133 286L134 286L134 281L130 281z"/>
<path style="fill:#d1a976; stroke:none;" d="M144 284L145 284L158 282C154.622 280.054 144.983 279.412 144 284z"/>
<path style="fill:#354a02; stroke:none;" d="M210 282L210 287L237 288L238 281C228.997 282.988 218.865 284.765 210 282z"/>
<path style="fill:#dea256; stroke:none;" d="M369 282L369 283C375.731 286.159 373.085 289.607 370 295L370 296L377 304L378 295L374 297C374.513 292.194 377.424 290.613 382 290L381 294L385 292L387 281L369 282z"/>
<path style="fill:#a34701; stroke:none;" d="M397 282L400 288L401 288L404 281L397 282z"/>
<path style="fill:#8b3f03; stroke:none;" d="M411 281L412 284L414 284L415 281L411 281z"/>
<path style="fill:#ddc1ba; stroke:none;" d="M51 284L56 294L52 294L50 287L47 291L47 292L51 298C46.3471 298.997 47.6959 305.432 49 309L50 309L50 303L55 304C52.3337 310.49 55.9009 314.845 58 321C67.8053 318.219 71.3878 320.245 75 330L81 326L80 331L80 332L102 343L102 342L97 340L100 339L93 332C93.0806 326.612 89.1114 325.615 85.4552 322.475C77.1452 315.336 65.1196 305.504 55 301L55 298C61.0359 294.671 57.4839 287.75 59 282L51 284z"/>
<path style="fill:#6c7c00; stroke:none;" d="M74 284L74 285L80 282L74 284z"/>
<path style="fill:#270001; stroke:none;" d="M96 289L104 297L106 282C100.877 282.387 98.5402 284.657 96 289z"/>
<path style="fill:#d6c7a0; stroke:none;" d="M145 282C147.443 290.351 162.493 288.203 169 288L169 283L145 282z"/>
<path style="fill:#839501; stroke:none;" d="M190 282L180 298L181 298L193 294L196 290L198 295L195 295L195 296L199 297C199.025 289.926 200.602 287.179 208 287L208 286L196 283L195 287L191 286L190 282z"/>
<path style="fill:#c2aaaa; stroke:none;" d="M445 282L440 285L440 289L435 289L437 298C450.143 297.946 445.789 306.879 443 315L451 310L450 314L456 313L456 311L452 310L452 309L474 303L474 301L465 298C467.947 308.672 450.803 304.75 452.461 298.029C453.227 294.926 457.228 293.452 459 291L450 291L451 284L445 282z"/>
<path style="fill:#e6a73f; stroke:none;" d="M80 283L75 285L69 311C76.2191 316.552 83.5788 324.158 93 323L98 327L98 326L95 321C100.5 319.565 112.031 314.551 114 309L105 311L102 309L103 314C97.3666 314.363 93.2124 316.166 92 322L91 322L86 318L87 314L82 313L81 316L80 316L80 308L85 309L85 301L76 302L77 293L84 288L84 287L80 283z"/>
<path style="fill:#375101; stroke:none;" d="M159 308C159.756 302.018 159.752 297.607 165 294C160.402 292.95 155.831 296.002 151.13 294.12C146.179 292.139 144.184 281.721 137.323 283.813C134.334 284.725 135.762 294.412 137.214 296.392C139.426 299.408 147.95 295.469 151.848 297.514C157.166 300.304 151.775 306.793 159 308z"/>
<path style="fill:#6c8302; stroke:none;" d="M161 293L161 294L165 293L165 294C156.644 297.975 157.548 313.104 169 307L169 311L177.039 306.402L190 309L190 307L185 307L185 305L192 305L195 296L195 295C185.907 291.334 182.124 296.681 179 304L176 297C171.269 297.359 168.76 299.225 168 304L163 303L167 292L179 294L178 283L161 293z"/>
<path style="fill:#4a1701; stroke:none;" d="M238 283L236 289L242 287L238 283z"/>
<path style="fill:#541503; stroke:none;" d="M310 283L310 287L313 283L310 283z"/>
<path style="fill:#5f2702; stroke:none;" d="M106 285L104 297L100 293L99 293L101 300C106.345 299.751 109.554 298.746 110 293C114.772 296.209 112.662 299.039 112 304C116.269 301.506 115.987 297.568 116 293C112.15 291.648 110.64 290.051 110 286L106 285z"/>
<path style="fill:#8d8e42; stroke:none;" d="M145 285L148 287L145 285z"/>
<path style="fill:#d17b06; stroke:none;" d="M349 285L349 286L351 287L349 290L355 285L349 285z"/>
<path style="fill:#cf7f22; stroke:none;" d="M334 302L334 308L339 305L347 309L344 315L343 315L340 310L337 320C330.486 324.114 334.756 331.541 341.941 329.678C346.388 328.525 346.147 323.151 349.483 320.643C352.294 318.529 358.471 318.924 362 318L364 325L369 323L369 328C364.682 328.039 361.318 328.032 359 332C364.367 330.828 372.942 329.568 368 338L368 333L360 336L362 350L367 348L357 361C361.674 363.299 364.384 363.535 369 361L367 364L368 368L372 368L371 372L383 366L377 364L379 362L379 361C370.329 349.98 383.959 348.21 391 345L390 359L398 357L386 366L402 358L399 350L405 350C405.102 355.128 404.923 358.478 400 361L400 362L403 362L401 368L414 352L414 351C407.151 348.939 408.001 342.004 408 336C411.314 338.106 410.801 340.395 410 344L411 345L417 347L418 347L418 343L423 343L424 339L422 342C416.057 342.064 413.283 340.337 414 334L422 334L419 327L423 327L423 326L422 312L417 316L414 314L413 318L415 317L415 318L411 325L417 323L415 330L416 333L406 330L395 331L397 337L405 333L405 337L402 336L406 341C402.292 341 399.277 341.893 400 339L385 340L381 332L386 332L379.048 326.683L373 306L377 314L381 311L380 308L388 308L392 302L388 296L380 295L385 300C378.851 309.672 376.105 299.717 370 296L370 295L372 292L369 296L361 298L356 297L363 285C357.625 286.469 357.27 290.515 353.776 294.124C348.895 299.166 340.964 301.97 334 302z"/>
<path style="fill:#bc5d02; stroke:none;" d="M399 285C399.249 292.649 409.734 300.12 417 302C417.601 294.739 415.785 287.098 408 285L410 290L400 290L399 285z"/>
<path style="fill:#e4a346; stroke:none;" d="M416 285L416 287L420 287L417 292L422 294L424 286L416 285z"/>
<path style="fill:#728301; stroke:none;" d="M145 286L146 291L147 291L148 289L149 289L157 293L157 292L145 286z"/>
<path style="fill:#b6ae6e; stroke:none;" d="M148 286C153.485 292.577 162.034 295.337 168 288L148 286z"/>
<path style="fill:#ac6c24; stroke:none;" d="M244 287L245 294L242 293L239 300L248 299L248 286L244 287z"/>
<path style="fill:#93571f; stroke:none;" d="M252 286L252 291L247 289L248 298L253 297L255 286L252 286z"/>
<path style="fill:#a9978d; stroke:none;" d="M188 340L188 341L229.09 332.008L244 339L249 330C243.218 327.332 242.92 324.962 244 319L264 318L261 310L269 310L275 306L280 295L294.05 291.152L310 300L317 293C308.026 289.705 294.533 284.473 285.039 286.478C273.384 288.94 269.407 299.458 259.91 304.755C236.038 318.068 214.311 331.66 188 340z"/>
<path style="fill:#531b03; stroke:none;" d="M321 286L319 290C322.314 290.499 323.38 289.941 325 287L321 286z"/>
<path style="fill:#aaa057; stroke:none;" d="M132 287L126 290L133 292L132 287z"/>
<path style="fill:#8d8c4e; stroke:none;" d="M179 287C179.701 292.183 182.67 295.401 187 291L179 287z"/>
<path style="fill:#170001; stroke:none;" d="M199 298L202 297C202.083 292.039 204.336 291.153 209 291C203.177 281.035 199.001 291.798 199 298z"/>
<path style="fill:#d68713; stroke:none;" d="M414 288L417 295L420 292L417 291L420 287L414 288z"/>
<path style="fill:#be721b; stroke:none;" d="M81 288L80 293L85 294L85 288L81 288z"/>
<path style="fill:#a75f10; stroke:none;" d="M425 295C420.793 295.91 419.675 297.852 419 302L423 303C418.141 306.922 416.218 309.813 415 316L417 313L422 312L423 317L424 317L424 314L425 314L427 317L427 302L424 303L423 298L426 299L428 297L428 296L426 295L426 294L428 288C424.202 289.26 424.021 291.326 425 295z"/>
<path style="fill:#7c3e02; stroke:none;" d="M95 301C100.372 300.599 102.594 302.664 103 308L112 305L116 308L110 293C109.163 298.261 106.011 299.545 101 300C100.617 297.934 96.5863 283.075 93.7346 292.059C92.9414 294.558 94.9881 298.289 95 301z"/>
<path style="fill:#8f9f02; stroke:none;" d="M147 289C148.923 295.872 154.992 295.43 161 294L161 293L147 289z"/>
<path style="fill:#a06f34; stroke:none;" d="M240 289L239 293L242 289L240 289z"/>
<path style="fill:#c88244; stroke:none;" d="M423 289L422 294L417 295L417 302L418 302L425 295L423 289z"/>
<path style="fill:#acb340; stroke:none;" d="M85 290L85 294L80 293L88 305C88.8932 299.742 89.2541 293.632 85 290z"/>
<path style="fill:#3e5402; stroke:none;" d="M178 290L179 294L167 292L163 303L168 304L170 300L170 299L168 293L176 297L179 304C181.657 299.942 181.414 293.439 178 290z"/>
<path style="fill:#96a839; stroke:none;" d="M194 290L193 295L198 295L196 290L194 290z"/>
<path style="fill:#c2b5ac; stroke:none;" d="M280 295L275 306L269 310L261 310L263 317C271.494 314.96 279.775 318.191 288 316.722C295.72 315.343 306.672 304.772 310 298L294.05 290.657L280 295z"/>
<path style="fill:#602a01; stroke:none;" d="M202 297L201 298L193 297L195 299C194.302 303.486 194.857 306.737 199 309L199 303L206 306L209 304L210 291C204.964 291.018 201.217 291.025 202 297z"/>
<path style="fill:#755843; stroke:none;" d="M313 291L313 292L320 293L320 292L313 291z"/>
<path style="fill:#b26208; stroke:none;" d="M334 291L334 295L316 297L316 301C323.057 298.02 323.254 303.472 328.981 303.368C332.728 303.3 335.562 293.908 336 291L334 291z"/>
<path style="fill:#be7221; stroke:none;" d="M428 291L428 296L428 297L426 299L429 299L428 291z"/>
<path style="fill:#814a1d; stroke:none;" d="M210 292C210.112 302.052 216.082 302.626 225 302L213 324L208 325L208 330C215.761 327.107 223.757 318.869 228.08 311.83C229.609 309.341 231.705 304.148 229.356 301.603C226.056 298.027 219.243 301.158 215.144 299.397C212.185 298.124 211.548 294.511 210 292z"/>
<path style="fill:#d98714; stroke:none;" d="M323 293L323 294L334 295L333 292L323 293z"/>
<path style="fill:#955a2a; stroke:none;" d="M432 292L429 310L431 314L432 314C435.068 307.624 434.655 302.871 433 296L434 292L432 292z"/>
<path style="fill:#df8f02; stroke:none;" d="M77 293L76 302L84 300L77 293z"/>
<path style="fill:#9b5801; stroke:none;" d="M92 293L93 304L103 304C100.981 300.555 98.8139 300.297 95 301L92 293z"/>
<path style="fill:#5a6501; stroke:none;" d="M117 302C123.585 303.568 128.676 303.158 132 310C135.474 309.423 136.423 308.474 137 305L135 307L130 297L133 293C126.008 293.556 120.211 295.312 117 302z"/>
<path style="fill:#1f0301; stroke:none;" d="M168 293L168 299C172.266 297.791 171.301 294.95 168 293z"/>
<path style="fill:#da9b47; stroke:none;" d="M400 294L399 303L400 304L404 298L405 298L411 303L409 314L405 314L405 325C412.944 322.272 418.305 308.726 419 301L400 294z"/>
<path style="fill:#6f8201; stroke:none;" d="M135 294C135.263 297.41 135.679 298.901 139 300C137.587 304.478 136.821 308.538 132 310L132 311C137.926 312.61 141.28 310.168 140 304L151 305L151 303L144 298C153.923 298.209 149.374 309.58 156 311L153.393 297.988L135 294z"/>
<path style="fill:#8f6021; stroke:none;" d="M206 295L203 296L207 299L206 295z"/>
<path style="fill:#735347; stroke:none;" d="M253 295L239 300L239 301L241 303L229 308L216 326C222.491 321.432 227.002 314.687 233.185 310.058C237.619 306.738 242.972 306.111 244 300L255 298L253 295z"/>
<path style="fill:#e5ae5c; stroke:none;" d="M356 296L356 297L361 298L356 296z"/>
<path style="fill:#b28501; stroke:none;" d="M90 296L90 304L91 301L93 303L94 303L90 296z"/>
<path style="fill:#804302; stroke:none;" d="M192 296L193 306L194 306L196 297L192 296z"/>
<path style="fill:#c69762; stroke:none;" d="M438 298L447 305C446.571 299.488 443.308 297.845 438 298z"/>
<path style="fill:#450f02; stroke:none;" d="M144 298L151 303L151 305L140 304L135 315C140.194 314.954 147.508 313.927 151.393 310.006C156.627 304.723 149.101 298.169 144 298z"/>
<path style="fill:#aa5413; stroke:none;" d="M398 298L388 306C396.623 314.753 382.97 315.176 377 314L378 311L373 306L379.012 327.401L386 332L381 332L385 340C392.914 342.537 396.088 340.357 395 331L406 330C408.513 333.773 411.815 333.431 416 333L415 330C417.957 328.08 417.883 326.304 417 323L411 325L415 317L405 325L405 314L409 314L411 304L405 306L404 303L400 304L399 303L400 298L398 298z"/>
<path style="fill:#c2731c; stroke:none;" d="M404 298L405 306L411 304L411 303L404 298z"/>
<path style="fill:#aa6b36; stroke:none;" d="M210 299L209 304C206.604 303.425 206.513 303.525 206 306L199 303L199 309L194 305L193 316L206 313L206 312L200 312C202.326 307.709 205.564 308.39 210 308L210 309L208 311L214 308L210 306L216 303L215 306C217.853 309.258 217.23 312.426 214.211 315.687C211.43 318.69 206.915 318.848 203.704 321.26C198.357 325.279 193.467 332.374 190 338L202 335L208 325L213 324L225 302L210 299z"/>
<path style="fill:#bf7422; stroke:none;" d="M438 299L438 307L448 307L438 299z"/>
<path style="fill:#414c01; stroke:none;" d="M130 300L135 307L139 300L130 300z"/>
<path style="fill:#d79e43; stroke:none;" d="M91 301C89.0738 306.172 90.0175 311.011 96 312L93 301L91 301z"/>
<path style="fill:#5a3324; stroke:none;" d="M232 301L230 308C234.595 307.114 238.663 305.148 241 301L232 301z"/>
<path style="fill:#e09009; stroke:none;" d="M84 302C84.1645 312.063 90.9432 305.55 87 305L84 302z"/>
<path style="fill:#bc7431; stroke:none;" d="M419 302L418 306L423 303L419 302z"/>
<path style="fill:#d1a695; stroke:none;" d="M50 303L54 321L58 321L55 304L50 303z"/>
<path style="fill:#c06c03; stroke:none;" d="M92 303L96 312L90 307L80 308L80 316L81 316L82 313L87 314L86 318L91 322L92 322C93.8397 316.745 97.6134 314.675 103 314L102 309L105 311L114 309L114 308L112 305L110 307L103 308L103 304L92 303z"/>
<path style="fill:#9c5005; stroke:none;" d="M126 303L111 312L111 313L122 311C121.284 315.115 121.786 318.489 126 320L126 314L127 314C128.814 317.468 130.596 317.692 134 316C141.305 322.381 153.065 312.743 161 313C160.429 309.572 157.153 305.62 156 311L135 315L137 312L128 308L124 313L129 307L128 303L126 303z"/>
<path style="fill:#8c4b01; stroke:none;" d="M210 306L214 308L216 303L210 306z"/>
<path style="fill:#dcc2c3; stroke:none;" d="M43 305C35.1753 309.572 32.2233 313.08 28 321L26 313L12 317L12 319C17.2827 322.044 22.3044 325.959 24 332C28.9217 331.997 34.1686 332.628 37 328L32 324L41 327C49.717 324.11 55.486 319.938 51 311L50 311L51 319L38 320L43 305z"/>
<path style="fill:#8b9801; stroke:none;" d="M172 312C181.83 317.398 194.891 320.053 193 305L185 305L185 307L190 307L190 309C182.587 308.917 174.79 301.628 172 312z"/>
<path style="fill:#631e01; stroke:none;" d="M422 305L421 309L425 308L425 306L424 305L422 305z"/>
<path style="fill:#7d9102; stroke:none;" d="M126 307L126 308L132 309L131 306L126 307z"/>
<path style="fill:#ad835b; stroke:none;" d="M214 306L198 315L198 316L202 319L202 320L196 324L196 326L197 327C201.868 325.129 225.799 310.759 214 306z"/>
<path style="fill:#dd9b43; stroke:none;" d="M371 306L371 311C367.29 311.596 365.194 312.313 364 316L367 321L373 321L371 306z"/>
<path style="fill:#9e4201; stroke:none;" d="M386 306L383 309C385.348 308.706 386.951 308.507 386 306z"/>
<path style="fill:#d7810f; stroke:none;" d="M71 307L71 310L74 310L74 307L71 307z"/>
<path style="fill:#d79e44; stroke:none;" d="M100 307L98 311L100 307z"/>
<path style="fill:#6a2900; stroke:none;" d="M168 307L160 309L161 313L135 317L134 323L151 318C155.187 322.761 162.077 315.72 167 315L162 310L169 311L168 307z"/>
<path style="fill:#602701; stroke:none;" d="M203 307L200 312L205 311L203 307z"/>
<path style="fill:#85521e; stroke:none;" d="M204 307C204.144 309.662 204.819 310.636 202 311L202 312L210 309L210 308L204 307z"/>
<path style="fill:#d89741; stroke:none;" d="M381 307L381 311C377.66 314.313 392.901 319.361 391 307L383 307L381 307z"/>
<path style="fill:#af9494; stroke:none;" d="M445 307L437 310L437 323L452 315L451 310L443 315L447 307L445 307z"/>
<path style="fill:#3e0001; stroke:none;" d="M125 308L124 313L129 309L125 308z"/>
<path style="fill:#af7433; stroke:none;" d="M121 319L120 323L128 321L135 320L134 316C130.62 317.045 129.244 316.798 127 314L126 314L126 320C122.402 317.849 121.754 315.072 122 311C113.898 308.815 114.409 316.685 121 319z"/>
<path style="fill:#450b01; stroke:none;" d="M162 310L173 313L162 310z"/>
<path style="fill:#9e5811; stroke:none;" d="M157 319L157 320L174 315L171 321L184 318L184 317L174 312L157 319z"/>
<path style="fill:#5b1301; stroke:none;" d="M102 319L103 320L116 319L115 313C110.007 313.317 104.525 314.403 102 319z"/>
<path style="fill:#8e3e00; stroke:none;" d="M424 314L421 326L428 320L424 314z"/>
<path style="fill:#884b0a; stroke:none;" d="M152 315L152 318L158 318L152 315z"/>
<path style="fill:#8c643d; stroke:none;" d="M151 318L134 323L128 321L121 325L121 326C141.923 325.568 166.593 318.232 187 322L190 316L171 321L174 315C166.251 316.119 158.961 324.031 151 318z"/>
<path style="fill:#d49d5d; stroke:none;" d="M190 315L187 322L165 322.83L121 326L122 323L117 324L119 328L157 327L157 331L166 330L167 334L120 335L120 336L129 339L130 339L131 339C139.097 332.9 151.887 347.92 160 337C173.988 340.723 192.837 329.474 202 320L190 315z"/>
<path style="fill:#ab7c45; stroke:none;" d="M257 318L262 315L257 318z"/>
<path style="fill:#b36922; stroke:none;" d="M253 323C255.857 324.063 262.315 326.07 260 330L260 331L265 326L262 333L262 334C267.222 335.599 266.185 339.31 266 344L267 344L278 333L278 326L281 326L285 324L287 320L286 317C274.864 315.593 261.572 313.895 253 323z"/>
<path style="fill:#a15401; stroke:none;" d="M115 316L114 319L114 320L114 324C118.172 323.861 120.072 323.253 121 319L115 316z"/>
<path style="fill:#bfb9b5; stroke:none;" d="M438 322L436 337C441.694 340.71 436.126 354.327 435 360L447 353L448 329L453 328C451.982 325.199 453.259 321.723 451.88 319.192C449.23 314.331 441.382 320.762 438 322z"/>
<path style="fill:#944102; stroke:none;" d="M305 317L299 341L300 341C304.372 332.75 311.071 327.448 309 318L305 317z"/>
<path style="fill:#b55d02; stroke:none;" d="M101 318L95 321C97.3623 329.529 103.645 323.277 110 324C108.577 319.324 105.265 319.32 101 318z"/>
<path style="fill:#b1763a; stroke:none;" d="M108 318L110 324L104 323L105 327C111.361 326.716 113.72 326.595 116 320L108 318z"/>
<path style="fill:#964907; stroke:none;" d="M248 319L251 325L246 327L246 328L251 327L250 330L253 333L262 330C260.122 325.369 257.671 324.268 253 323L255 320L248 319z"/>
<path style="fill:#c36c03; stroke:none;" d="M333 329L333 330L346 334L353 327L353 337L369 328L369 323L364 325L362 318C358.524 318.56 352.411 318.246 349.483 320.042C341.422 324.986 344.873 330.499 333 329z"/>
<path style="fill:#b5722a; stroke:none;" d="M244 319C242.466 324.063 245.844 334.472 251 327L246 328L246 327L251 325C249.667 321.206 248.009 319.588 244 319z"/>
<path style="fill:#cf9957; stroke:none;" d="M286 322L286 326L281 326L279 325L278 326L278 333L267 342L266 348L264 346L254 353L256 353L255 356L272 351L269 347L270 343L277 345L276 338L284 332L283 336L288 335L291 323L286 322z"/>
<path style="fill:#b86301; stroke:none;" d="M295 325C295.911 329.404 296.349 334.381 301 336L301 335C297.521 330.662 300.315 326.903 301 322L295 325z"/>
<path style="fill:#c1742f; stroke:none;" d="M316 324L316 328L314 328L314 324C304.295 326.819 302.108 337.24 301 346C295.113 345.257 290.554 344.414 287 350C285.124 344.447 289.46 344.136 294 343L294 342L287 340L287 336L276 341L277 345L273 351C277.715 353.461 274.913 355.604 273 359L278 358L276 361C279.805 360.178 280.975 358.714 282 355L278 350L279 350L287 355L286 352L291 355L306 354L304 350L312 347L312 346L306 344L309 341L308 336L313 340L321 327L323 327L325 331C318.796 334.08 314.52 338.614 312 345L317 346L323 337L320 347C322.267 347.911 323.535 348.65 321 350C325.561 356.907 332.88 354.627 340 355C343.405 349.489 350.909 351.727 348 343C351.526 342.436 352.836 341.642 353 338L348 341C347.38 336.596 339.608 340.392 336 340C336.15 344.208 328.741 349.917 325 351L326 346L329 347L334 341C329.588 341.303 326.899 341.332 325 337L334 340L339 333C340.08 336.488 341.389 337.12 345 337L345 332L333 330L333 324L326 322L316 324z"/>
<path style="fill:#dead71; stroke:none;" d="M89 323C91.7099 328.811 98.5672 337.369 105 332L108 334L108 332L116 333L115 337L167 334L166 330L157 331L157 327L119 328L114 324L105 327L104 324C99.6865 326.001 95.8141 327.766 93 323L89 323z"/>
<path style="fill:#d8bf9e; stroke:none;" d="M169 326L174 326C172.228 323.318 170.772 323.318 169 326z"/>
<path style="fill:#c58140; stroke:none;" d="M389 327L392 328L393 324L389 327z"/>
<path style="fill:#d79648; stroke:none;" d="M394 329L402 327C399.134 322.595 395.544 324.801 394 329z"/>
<path style="fill:#dbc3ab; stroke:none;" d="M182 325L181 329L184 325L182 325z"/>
<path style="fill:#cb8541; stroke:none;" d="M196 326C186.982 332.414 171.225 338.6 160 337C155.308 341.255 149.459 341.493 143.439 339.777C139.263 338.587 134.591 334.891 131 339L130 339L129 339C125.748 335.135 119.495 335.933 115 337L116 333L108 332L108 334L105 332L102 336C124.4 347.989 149.577 348.984 174 343.789C181.274 342.242 199.341 336.524 196 326z"/>
<path style="fill:#daa44e; stroke:none;" d="M263 326L263 331L255 332L254 333L260 339L265 326L263 326z"/>
<path style="fill:#ca904f; stroke:none;" d="M419 327L423 337C426.775 331.69 426.303 326.623 419 327z"/>
<path style="fill:#b25900; stroke:none;" d="M321 327L311 339L311 344L325 331L323 327L321 327z"/>
<path style="fill:#d58a37; stroke:none;" d="M339 333C335.447 334.217 334.656 336.415 334 340L325 337C326.448 341.705 329.54 341.849 334 341L329 348C332.581 346.304 335.54 344.077 336 340L348 341L352 338L355 340L356 335L355 335L353 337L353 327C348.466 329.365 342.76 341.54 339 333z"/>
<path style="fill:#d7c2c4; stroke:none;" d="M491 333L512 333L512 328C504.967 328 494.952 325.872 491 333z"/>
<path style="fill:#d8a466; stroke:none;" d="M365 329L368 338C371.721 334.2 369.757 330.469 365 329z"/>
<path style="fill:#cb927d; stroke:none;" d="M93 331L100 339L97 339L97 340L119 347L106.299 341.078L95 330L93 331z"/>
<path style="fill:#c38441; stroke:none;" d="M241 347L244 347C244.781 352.216 247.862 356.518 253 358L253 357C251.27 353.24 253.205 350.661 256 348L250 341L247 346L245 339L251 339L254 335L253 330C245.091 331.221 242.026 339.797 241 347z"/>
<path style="fill:#c9b9ae; stroke:none;" d="M142 348L142 349L165 348.282L198 342.846L211 345L206 359L201 353C195.862 353.526 190.63 355.365 188 360C194.582 360.88 200.914 366.219 204 372L216 367L210 363C214.033 363.014 236.449 368.605 231.863 356.995C229.443 350.869 221.956 348.419 220 342L229 339C231.66 347.092 240.216 346.036 244 339C239.252 336.263 234.712 332.426 229.09 331.595C219.146 330.125 208.373 336.201 199 338.556C179.931 343.345 161.743 348 142 348z"/>
<path style="fill:#7e3503; stroke:none;" d="M251 331L251 334L252 334L251 331z"/>
<path style="fill:#ab6626; stroke:none;" d="M352 348L352 349C357.605 348.468 363.377 353.432 367 348L362 350L360 336L367 334L367 332C357.464 330.021 356.557 342.115 352 348z"/>
<path style="fill:#ad6823; stroke:none;" d="M281 332L276 338L277 341L287 336L287 340L294 342L294 343L289 347L301 346L302 337L301 337L300 341L292 340L292 332L288 335L283 336L284 332L281 332z"/>
<path style="fill:#984104; stroke:none;" d="M358 332C355.352 336.94 353.781 341.362 348 343L354 348L360 332L358 332z"/>
<path style="fill:#d9a15b; stroke:none;" d="M397 337L397 335L395 335L394 340L400 339L406 341L402 336L405 337L405 333L397 337z"/>
<path style="fill:#9a5518; stroke:none;" d="M423 343L418 343L409 358L413 358L413 354L416 357L418 357L418 352L429 344C428.113 341.477 426.963 340.392 430 340L430 339L427 339L430 336C424.496 330.542 423.571 338.512 423 343z"/>
<path style="fill:#763a08; stroke:none;" d="M261 334L261 342L257 342L258 345L267 346C266.056 340.277 268.362 334.574 261 334z"/>
<path style="fill:#e4ab57; stroke:none;" d="M414 334C412.641 340.605 415.872 342.285 422 342L424 339L422 334L414 334z"/>
<path style="fill:#9b581c; stroke:none;" d="M251 335L251 339L245 339L247 346L250 341L255 346L257 346L257 342L261 342L261 337L251 335z"/>
<path style="fill:#bc5f03; stroke:none;" d="M384 342C382.169 338.494 377.213 332.422 372.971 336.604C370.954 338.592 369.265 344.196 373.232 345.133C376.271 345.85 381.09 342.949 384 342z"/>
<path style="fill:#8e4001; stroke:none;" d="M308 336L309 341L306 344L314 348L308 336z"/>
<path style="fill:#d49e5a; stroke:none;" d="M408 336C408 339.712 407.326 344.381 408.894 347.852C411.542 353.717 416.051 348.861 417 345L411 345L410 344L411 336L408 336z"/>
<path style="fill:#a47468; stroke:none;" d="M104 337C105.213 344.293 117.571 346.671 124 347C122.149 341.288 109.56 338.924 104 337z"/>
<path style="fill:#c26c00; stroke:none;" d="M321 337L317 347C321.373 345.55 321.723 341.084 323 337L321 337z"/>
<path style="fill:#c8aba7; stroke:none;" d="M438 337L430.028 344.599L428.401 351.985L422 363L426 362L428 366L424 372L415 374L415 375C430.431 383.557 435.09 383.47 451 376L444 370L443 371C442.378 377.512 438.422 378.228 433 376L439 369L436 368L436 367C447.093 365.803 454.623 370.741 466 365L466 358C460.015 359.276 450.932 371.266 446 358L455 354C449.35 346.013 440.747 358.253 435 360C436.993 353.797 440.61 343.295 438 337z"/>
<path style="fill:#b3948a; stroke:none;" d="M220 342L233 360L248 356L244 347L241 347L241 343C234.941 344.442 231.942 345.214 229 339L220 342z"/>
<path style="fill:#d2ada4; stroke:none;" d="M100 341L100 342C104.715 345.322 109.089 349.097 110 355L123 352L119 349L119 348L134 348L134 347L116 347.169L100 341z"/>
<path style="fill:#ddd7d1; stroke:none;" d="M119 348L119 349L123 352L115 353L115 354L120 355L120 356C111.299 356.678 114 367.423 114 374C114 392.387 115 410.651 115 429L385 429L384.941 400.039L383 390C384.308 396.443 392.813 395 398 395L398 394L385 390C390.216 381.378 396.298 385.996 403 389L402 379L374 378.626L334.089 368.558L312 372L312 373L330 375L330 376L318 381C317.031 376.479 309.985 377.017 306 377L314 382C303.433 391.912 294.9 375.263 284 375L284 374C292.142 371.228 294.243 370.347 302 374L305 364L268 363.576L247 356.47L224.999 364.529L210 363L216 367L204 372C201.893 365.443 194.743 360.453 188 360L201 353L206 359L211 345L198 342.472L148 350.182L138 347.395L119 348z"/>
<path style="fill:#c69b69; stroke:none;" d="M279 344L282 342L279 344z"/>
<path style="fill:#ad703c; stroke:none;" d="M251 357L263 360L263 359L260 359L262 356L255 356L256 353L254 353L264 346L264 348L267 347C259.409 338.922 252.533 349.715 251 357z"/>
<path style="fill:#8a470e; stroke:none;" d="M270 343L269 347L272 351L273 351L274 345L272 343L270 343z"/>
<path style="fill:#a2673c; stroke:none;" d="M418 353C423.384 352.993 427.501 349.066 429 344C423.2 343.498 422.012 349.56 418 353z"/>
<path style="fill:#b98b6f; stroke:none;" d="M130 346L130 347L175 345L157 346.896L130 346z"/>
<path style="fill:#773702; stroke:none;" d="M287 350L289 344C285.557 345.151 285.031 346.963 287 350z"/>
<path style="fill:#d8994a; stroke:none;" d="M314 345C314.403 350.307 316.864 352.775 322 354L321 350L324 349L324 348L314 345z"/>
<path style="fill:#b56008; stroke:none;" d="M376 356L384 352L384 358L388 358C386.686 362.216 384.237 362.969 380 363L380 364L383 368L372 371L372 373L381 377L382 374C393.204 375.196 405.568 360.245 405 350L399 350L402 352L402 358L386 366L398 357L390 359L391 345L389 347C382.071 344.528 376.234 348.855 376 356z"/>
<path style="fill:#9d4b01; stroke:none;" d="M326 346L325 351L330 349L326 346z"/>
<path style="fill:#d1974d; stroke:none;" d="M304 350L312 355L313 347L304 350z"/>
<path style="fill:#da973f; stroke:none;" d="M349 347C347.024 351.117 344.234 351.235 340 352C340.728 356.362 342.824 356.863 347 357L350 350L354 352L349 347z"/>
<path style="fill:#b3998c; stroke:none;" d="M428 347L418 357L414 355L418 366L412 368L413 371L393 373.742L381 379L381 380L402 379L403 387L405 387L406 383L411 385L412 374L424 372L428 366L426 362L422 363C425.049 358.097 430.506 353.044 428 347z"/>
<path style="fill:#b6712e; stroke:none;" d="M313 348L314 355L318 352L313 348z"/>
<path style="fill:#a55101; stroke:none;" d="M355 348C355.165 350.813 353.775 355.094 355.269 357.563C359.452 364.476 363.167 354.592 363 351L355 348z"/>
<path style="fill:#ca7e28; stroke:none;" d="M354 349L353 352L350 350L344 357L344 358C349.75 359.234 357.966 356.009 354 349z"/>
<path style="fill:#d4c9c5; stroke:none;" d="M217 350C211.273 361.919 223.884 360 232 360C229.026 353.866 223.579 350.896 217 350z"/>
<path style="fill:#6f3005; stroke:none;" d="M278 350C278.661 353.814 280.259 354.57 284 355L284 354L278 350z"/>
<path style="fill:#601b02; stroke:none;" d="M264 352L268 358L267 355L277 355L276 351L264 352z"/>
<path style="fill:#7e2d00; stroke:none;" d="M358 351L362 355L358 351z"/>
<path style="fill:#d5a058; stroke:none;" d="M286 352L290 355L286 352z"/>
<path style="fill:#86675a; stroke:none;" d="M312 352L311 355C306.601 353.047 303.488 355.02 299.039 355.036C290.096 355.068 285.818 352.811 279 360L279 361L290.039 357.133L316.17 360.612L332 360L332 361L330 362L344 365C344 368.017 345.681 367.21 348 366L348 365L342 362L342 361L356 364L356 363C343.254 359.792 327.856 348.095 314 355L312 352z"/>
<path style="fill:#cc771a; stroke:none;" d="M377 355C380.254 358.778 383.099 359.765 388 359L388 358L384 358L384 352L377 355z"/>
<path style="fill:#eabc67; stroke:none;" d="M486 352L489 355L486 352z"/>
<path style="fill:#7f491d; stroke:none;" d="M260 354L262 356L260 359L264 359L264 353L260 354z"/>
<path style="fill:#9b6438; stroke:none;" d="M413 354L413 358L409 358L405 366L418 366L415 354L413 354z"/>
<path style="fill:#97683f; stroke:none;" d="M263 355L266 358L263 355z"/>
<path style="fill:#bb710f; stroke:none;" d="M267 355L266 359L273 360L276 355L267 355z"/>
<path style="fill:#d5944a; stroke:none;" d="M377 356C377.465 362.61 385.41 366.736 388 359L377 356z"/>
<path style="fill:#bb9c97; stroke:none;" d="M258 360C260.757 363.823 266.503 363.764 271 363.961C282.441 364.462 293.509 363.093 305 364L302 374L311 374L312 365L318 364C303.416 350.685 289.918 360.161 273 361.99C268.053 362.525 262.987 360.217 258 360z"/>
<path style="fill:#a66222; stroke:none;" d="M347 359L347 360C351.207 361.642 354.869 364.278 357 359L347 359z"/>
<path style="fill:#deab60; stroke:none;" d="M263 361C269.408 361.863 273.547 363.827 278 358L263 361z"/>
<path style="fill:#aa877d; stroke:none;" d="M315 361C322.789 373.839 349.753 370.422 363 371L357 363L342 361L342 362L348 365L348 366C345.032 367.484 343.227 368.091 344 365L330 362L332 361L315 361z"/>
<path style="fill:#df9c47; stroke:none;" d="M356 361C358.511 367.338 367.059 377.789 372 368L368 368L367 364L369 361L356 361z"/>
<path style="fill:#953c01; stroke:none;" d="M377 362L382 365L377 362z"/>
<path style="fill:#d19752; stroke:none;" d="M400 362L387 374C394.229 372.028 401.079 370.006 403 362L400 362z"/>
<path style="fill:#cab7b0; stroke:none;" d="M312 365L312 372L326 370L312 365z"/>
<path style="fill:#94786c; stroke:none;" d="M387 377L413 371L415 368C407.452 364.803 389.889 368.564 387 377z"/>
<path style="fill:#c3a48e; stroke:none;" d="M346 370L358 372.992L381 379L371 371L346 370z"/>
<path style="fill:#eac07d; stroke:none;" d="M268 370L273 373L273 370L268 370z"/>
<path style="fill:#cfb3b2; stroke:none;" d="M284 374L284 375C292.902 375.487 305.848 393.55 314 382L306 377C310.347 377.187 315.493 377.117 318 381L330 376L330 375L311 372L294.91 370.252L284 374z"/>
<path style="fill:#d3903b; stroke:none;" d="M382 374L380 378C384.158 379.107 386.264 378.407 387 374L382 374z"/>
<path style="fill:#d4c7c1; stroke:none;" d="M412 374L412 387L433 385L412 374z"/>
<path style="fill:#d29450; stroke:none;" d="M405 381L411 381C410.09 375.762 405.883 375.724 405 381z"/>
<path style="fill:#cbaaa5; stroke:none;" d="M385 390C398.916 390.723 403.65 402.79 417 395L417 390C422.576 392.82 425.433 389.163 430 386L430 385C424.407 385.457 415.7 389.707 412 384L406 383L403 389C397.645 385.595 387.915 379.994 385 390z"/>
<path style="fill:#d4bdc5; stroke:none;" d="M488 399L488 401L512 413L512 399C501.339 398.992 498.391 392.936 488 399z"/>
</svg>
